<?xml version="1.0" encoding="UTF-8" standalone="no"?>
<!-- Created with Inkscape (http://www.inkscape.org/) -->

<svg
   xmlns:dc="http://purl.org/dc/elements/1.1/"
   xmlns:cc="http://creativecommons.org/ns#"
   xmlns:rdf="http://www.w3.org/1999/02/22-rdf-syntax-ns#"
   xmlns:svg="http://www.w3.org/2000/svg"
   xmlns="http://www.w3.org/2000/svg"
   xmlns:xlink="http://www.w3.org/1999/xlink"
   xmlns:sodipodi="http://sodipodi.sourceforge.net/DTD/sodipodi-0.dtd"
   xmlns:inkscape="http://www.inkscape.org/namespaces/inkscape"
   width="420mm"
   height="297mm"
   viewBox="0 0 420 297"
   version="1.1"
   id="svg1305"
   inkscape:version="0.92.3 (2405546, 2018-03-11)"
   sodipodi:docname="ansible_parts.svg">
  <defs
     id="defs1299">
    <linearGradient
       gradientTransform="translate(-4143.4858,-295325.39)"
       inkscape:collect="always"
       xlink:href="#linearGradient17581"
       id="linearGradient17583"
       x1="5362.9976"
       y1="1442.087"
       x2="5440.5342"
       y2="1441.8552"
       gradientUnits="userSpaceOnUse" />
    <linearGradient
       inkscape:collect="always"
       id="linearGradient17581">
      <stop
         style="stop-color:#3a4d61;stop-opacity:0.94117647"
         offset="0"
         id="stop17577" />
      <stop
         style="stop-color:#6b7b8c;stop-opacity:0.94117647"
         offset="1"
         id="stop17579" />
    </linearGradient>
    <marker
       inkscape:isstock="true"
       style="overflow:visible"
       id="marker17439"
       refX="0"
       refY="0"
       orient="auto"
       inkscape:stockid="Arrow1Send">
      <path
         inkscape:connector-curvature="0"
         transform="matrix(-0.2,0,0,-0.2,-1.2,0)"
         style="fill:#3a4d61;fill-opacity:1;fill-rule:evenodd;stroke:#3a4d61;stroke-width:1.00000003pt;stroke-opacity:1"
         d="M 0,0 5,-5 -12.5,0 5,5 Z"
         id="path17437" />
    </marker>
    <marker
       inkscape:stockid="Arrow1Send"
       orient="auto"
       refY="0"
       refX="0"
       id="marker17575"
       style="overflow:visible"
       inkscape:isstock="true">
      <path
         inkscape:connector-curvature="0"
         id="path17573"
         d="M 0,0 5,-5 -12.5,0 5,5 Z"
         style="fill:#6b7b8c;fill-opacity:1;fill-rule:evenodd;stroke:#6b7b8c;stroke-width:1.00000003pt;stroke-opacity:1"
         transform="matrix(-0.2,0,0,-0.2,-1.2,0)" />
    </marker>
    <linearGradient
       inkscape:collect="always"
       xlink:href="#linearGradient17420"
       id="linearGradient17445"
       gradientUnits="userSpaceOnUse"
       gradientTransform="translate(-4147.286,-295301.2)"
       x1="5273.0381"
       y1="1415.2104"
       x2="5333.1665"
       y2="1415.4539" />
    <linearGradient
       inkscape:collect="always"
       id="linearGradient17420">
      <stop
         style="stop-color:#ef9d10;stop-opacity:0.94117647"
         offset="0"
         id="stop17416" />
      <stop
         style="stop-color:#3a4d61;stop-opacity:0.94117647"
         offset="1"
         id="stop17418" />
    </linearGradient>
    <marker
       inkscape:stockid="Arrow1Send"
       orient="auto"
       refY="0"
       refX="0"
       id="marker17431"
       style="overflow:visible"
       inkscape:isstock="true"
       inkscape:collect="always">
      <path
         inkscape:connector-curvature="0"
         id="path17429"
         d="M 0,0 5,-5 -12.5,0 5,5 Z"
         style="fill:#ef9d10;fill-opacity:1;fill-rule:evenodd;stroke:#ef9d10;stroke-width:1.00000003pt;stroke-opacity:1"
         transform="matrix(-0.2,0,0,-0.2,-1.2,0)" />
    </marker>
    <marker
       inkscape:stockid="Arrow1Send"
       orient="auto"
       refY="0"
       refX="0"
       id="marker17414"
       style="overflow:visible"
       inkscape:isstock="true"
       inkscape:collect="always">
      <path
         inkscape:connector-curvature="0"
         id="path17166"
         d="M 0,0 5,-5 -12.5,0 5,5 Z"
         style="fill:#3a4d61;fill-opacity:1;fill-rule:evenodd;stroke:#3a4d61;stroke-width:1.00000003pt;stroke-opacity:1"
         transform="matrix(-0.2,0,0,-0.2,-1.2,0)" />
    </marker>
  </defs>
  <sodipodi:namedview
     id="base"
     pagecolor="#ffffff"
     bordercolor="#666666"
     borderopacity="1.0"
     inkscape:pageopacity="0.0"
     inkscape:pageshadow="2"
     inkscape:zoom="0.7"
     inkscape:cx="812.09472"
     inkscape:cy="371.95959"
     inkscape:document-units="mm"
     inkscape:current-layer="layer1"
     showgrid="false"
     inkscape:window-width="1920"
     inkscape:window-height="1017"
     inkscape:window-x="-8"
     inkscape:window-y="-8"
     inkscape:window-maximized="1"
     showguides="true"
     inkscape:guide-bbox="true"
     inkscape:snap-global="false">
    <sodipodi:guide
       position="186.01959,223.97186"
       orientation="1,0"
       id="guide4023"
       inkscape:locked="false" />
    <sodipodi:guide
       position="253.90605,143.79101"
       orientation="0,1"
       id="guide4025"
       inkscape:locked="false" />
  </sodipodi:namedview>
  <metadata
     id="metadata1302">
    <rdf:RDF>
      <cc:Work
         rdf:about="">
        <dc:format>image/svg+xml</dc:format>
        <dc:type
           rdf:resource="http://purl.org/dc/dcmitype/StillImage" />
        <dc:title />
      </cc:Work>
    </rdf:RDF>
  </metadata>
  <g
     inkscape:label="Layer 1"
     inkscape:groupmode="layer"
     id="layer1">
    <path
       transform="matrix(1.7524028,0,0,1.7524028,-2014.3923,515136.79)"
       style="fill:#6b7b8c;fill-opacity:0.94117647;stroke-width:0.22388242"
       d="m 1339.5667,-293863.56 h -9.5792 l -0.33,-0.32 -0.33,-0.32 -0.055,-0.44 c -0.03,-0.24 -0.037,-0.81 -0.016,-1.26 l 0.039,-0.82 0.1439,-0.19 c 0.079,-0.11 0.2368,-0.26 0.3502,-0.35 l 0.2063,-0.15 h 11.3561 11.356 l 0.2953,0.17 c 0.1624,0.1 0.3608,0.27 0.4409,0.4 l 0.1457,0.23 v 1.1 1.1 l -0.1062,0.25 c -0.058,0.14 -0.2381,0.34 -0.4004,0.45 l -0.2942,0.19 h -1.8219 c -1.002,0 -6.1325,0 -11.4011,0 z m -20.934,-3.31 c -0.2629,-0.1 -0.4441,-0.28 -0.6071,-0.6 l -0.1414,-0.28 v -0.96 -0.96 l 0.1681,-0.33 c 0.092,-0.18 0.2629,-0.39 0.3789,-0.48 l 0.2108,-0.15 h 5.5597 5.5597 v 1.08 1.09 l -0.3351,0.15 c -0.4641,0.22 -0.8915,0.67 -1.092,1.16 l -0.1691,0.4 h -4.6736 -4.6737 z m 35.9226,-0.27 c -0.2177,-0.5 -0.5985,-0.94 -1.0147,-1.15 -0.1986,-0.1 -0.3857,-0.21 -0.4159,-0.25 -0.03,0 -0.055,-0.54 -0.056,-1.1 v -1.03 h 5.5541 5.5541 l 0.2538,0.17 c 0.1396,0.1 0.3126,0.29 0.3844,0.43 l 0.1306,0.26 v 1.07 l 10e-5,1.07 -0.1124,0.24 c -0.061,0.13 -0.2359,0.32 -0.3867,0.42 l -0.2743,0.19 h -4.7322 -4.7321 l -0.1518,-0.36 z m -23.6554,-15.1 0.019,-13.65 0.2245,-0.37 0.2245,-0.37 0.4051,-0.2 0.4053,-0.21 h 9.2517 9.2518 l 0.3613,0.18 c 0.4195,0.22 0.7003,0.52 0.8412,0.92 l 0.1,0.28 v 13.52 13.52 h -10.5519 -10.5518 z m 18.9842,12.1 c 0.1032,0 0.2465,-0.17 0.3184,-0.28 l 0.1307,-0.19 0.031,-0.66 c 0.035,-0.73 -0.049,-1.09 -0.3126,-1.33 l -0.1727,-0.17 h -8.4195 -8.4195 l -0.1713,0.12 c -0.2733,0.18 -0.3439,0.43 -0.341,1.25 l 0.01,0.76 0.099,0.18 c 0.055,0.1 0.1792,0.22 0.2774,0.28 l 0.1785,0.1 h 8.3055 8.3054 l 0.1877,-0.1 z m -15.6913,-0.85 c -0.2066,-0.23 -0.2563,-0.4 -0.1777,-0.6 0.1077,-0.29 0.2964,-0.42 0.5746,-0.42 0.3545,0 0.519,0.1 0.6169,0.38 0.1107,0.32 0.1103,0.32 -0.1109,0.58 l -0.1933,0.23 h -0.2792 -0.2791 z m 10.1261,0.1 c -0.173,-0.11 -0.315,-0.49 -0.2599,-0.71 0.061,-0.24 0.363,-0.44 0.665,-0.43 h 0.2387 l 0.1681,0.19 c 0.093,0.11 0.168,0.3 0.168,0.42 v 0.23 l -0.1833,0.18 -0.1834,0.18 h -0.2462 c -0.1354,0 -0.3006,0 -0.367,-0.1 z m 1.6862,-0.11 -0.1834,-0.19 v -0.21 c 0,-0.12 0.069,-0.31 0.1548,-0.42 l 0.1548,-0.19 h 0.3254 0.3252 l 0.1617,0.2 0.1615,0.21 -0.042,0.26 c -0.052,0.32 -0.2844,0.52 -0.6182,0.52 h -0.2566 z m 1.7927,0 -0.1833,-0.19 v -0.21 c 0,-0.12 0.069,-0.31 0.1548,-0.42 l 0.1549,-0.19 h 0.3191 0.3192 l 0.1405,0.15 0.1406,0.16 v 0.3 0.3 l -0.1746,0.14 c -0.096,0.1 -0.2901,0.14 -0.4313,0.14 h -0.2565 z m 0.7573,-0.23 0.1223,-0.19 -0.1223,-0.18 -0.1223,-0.19 h -0.1834 -0.1832 l -0.1224,0.19 -0.1224,0.18 0.1224,0.19 0.1224,0.19 h 0.1832 0.1834 z m 1.4273,-3.4 0.239,-0.14 0.087,-0.32 c 0.109,-0.4 0.053,-1.54 -0.087,-1.76 -0.057,-0.1 -0.2092,-0.22 -0.3389,-0.28 l -0.2362,-0.11 h -8.228 -8.228 l -0.2191,0.11 c -0.1205,0.1 -0.2701,0.21 -0.3325,0.33 l -0.1133,0.22 v 0.71 c 0,0.84 0.064,1.04 0.3903,1.24 l 0.2447,0.15 h 8.2916 8.2916 z m -15.6831,-0.68 c -0.072,0 -0.1829,-0.17 -0.2468,-0.3 l -0.1162,-0.22 0.1348,-0.28 0.1349,-0.27 0.2054,-0.1 0.2054,-0.1 0.2015,0.1 c 0.1108,0 0.2658,0.19 0.3443,0.32 l 0.1428,0.24 -0.093,0.23 c -0.1624,0.39 -0.5786,0.56 -0.913,0.36 z m 9.9479,-0.14 -0.2183,-0.21 v -0.2 -0.2 l 0.2276,-0.23 0.2275,-0.23 h 0.2614 c 0.3195,0 0.5476,0.31 0.5509,0.62 l 0.01,0.23 -0.1969,0.2 -0.197,0.19 h -0.2196 -0.2197 l -0.2184,-0.22 z m 0.6781,-0.15 c 0.1695,-0.17 0.1819,-0.25 0.072,-0.45 l -0.077,-0.15 h -0.2508 -0.2508 l -0.045,0.12 c -0.1841,0.48 0.2098,0.82 0.5523,0.48 z m 1.1148,0.15 -0.2184,-0.21 v -0.2 -0.2 l 0.2321,-0.22 0.2319,-0.22 h 0.2095 0.2096 l 0.1934,0.23 c 0.2113,0.25 0.2403,0.44 0.1065,0.69 -0.1253,0.24 -0.2939,0.35 -0.5352,0.35 h -0.2111 z m 1.8667,0.13 c -0.3426,-0.27 -0.3731,-0.66 -0.074,-0.96 l 0.2184,-0.22 h 0.1982 0.1982 l 0.2184,0.22 c 0.2331,0.23 0.2716,0.44 0.1315,0.7 -0.1276,0.24 -0.2954,0.35 -0.5481,0.35 -0.1232,0 -0.2774,0 -0.3426,-0.1 z m 1.9339,-3.67 c 0.111,-0.1 0.2653,-0.18 0.3429,-0.26 l 0.141,-0.16 0.034,-0.65 c 0.019,-0.38 -0.01,-0.8 -0.051,-0.98 l -0.086,-0.32 -0.239,-0.14 -0.239,-0.15 h -8.355 -8.3551 l -0.2541,0.25 -0.2539,0.26 v 0.79 0.8 l 0.1082,0.21 c 0.059,0.11 0.2191,0.26 0.3547,0.33 l 0.2467,0.12 h 8.202 8.2019 l 0.2019,-0.1 z m -15.5001,-0.73 c -0.09,0 -0.2166,-0.19 -0.2806,-0.33 l -0.1165,-0.24 0.071,-0.19 c 0.211,-0.55 0.9965,-0.55 1.2085,0 l 0.073,0.19 -0.089,0.22 c -0.086,0.21 -0.4101,0.43 -0.6054,0.42 -0.053,0 -0.171,0 -0.2612,-0.1 z m 9.9538,-0.1 c -0.105,-0.1 -0.2107,-0.27 -0.2348,-0.4 l -0.044,-0.23 0.2,-0.24 0.2,-0.23 h 0.2582 0.2582 l 0.1834,0.18 0.1833,0.18 v 0.24 0.23 l -0.2183,0.22 c -0.2631,0.26 -0.5252,0.28 -0.786,0 z m 1.7457,0 c -0.2434,-0.25 -0.2712,-0.44 -0.1091,-0.75 0.1176,-0.23 0.2502,-0.31 0.5257,-0.31 0.2754,0 0.408,0.1 0.5256,0.31 0.1621,0.31 0.1343,0.5 -0.1091,0.75 l -0.2183,0.21 h -0.1982 -0.1983 z m 1.7835,0 -0.2275,-0.23 0.044,-0.28 c 0.097,-0.59 0.8649,-0.75 1.1344,-0.23 0.1621,0.31 0.1343,0.5 -0.109,0.75 l -0.2184,0.21 h -0.1982 -0.1983 z m 2.1582,-3.64 c 0.2826,-0.18 0.3972,-0.53 0.3923,-1.19 -0.01,-0.7 -0.1117,-1.04 -0.3934,-1.25 l -0.211,-0.16 h -8.3121 -8.3122 l -0.2044,0.11 c -0.1124,0.1 -0.252,0.2 -0.3101,0.32 l -0.1057,0.2 v 0.79 0.78 l 0.2179,0.25 0.218,0.24 h 3.0875 c 1.6981,0 5.4844,0 8.414,0 h 5.3264 z m -15.789,-0.79 c -0.2246,-0.25 -0.2583,-0.41 -0.1435,-0.68 l 0.1033,-0.25 0.2321,-0.1 0.2321,-0.1 0.2264,0.1 c 0.2666,0.1 0.4755,0.44 0.4038,0.68 -0.027,0.1 -0.119,0.24 -0.2036,0.33 l -0.1538,0.17 h -0.2728 -0.2727 z m 10.0622,0 c -0.3437,-0.34 -0.2565,-0.83 0.1814,-1.01 l 0.2577,-0.11 0.1828,0.1 c 0.4094,0.16 0.542,0.66 0.2671,1.01 l -0.1548,0.19 h -0.2934 -0.2933 z m 1.7501,0 c -0.3224,-0.32 -0.1996,-0.82 0.2481,-1.01 l 0.2134,-0.1 0.1965,0.1 c 0.1081,0 0.2529,0.16 0.3217,0.27 l 0.1251,0.19 -0.048,0.23 c -0.026,0.14 -0.1026,0.3 -0.1702,0.38 l -0.1227,0.13 h -0.2906 -0.2906 z m 0.7258,-0.17 c 0.1695,-0.15 0.1737,-0.3 0.013,-0.48 -0.1657,-0.19 -0.4402,-0.18 -0.5762,0 -0.1215,0.17 -0.089,0.35 0.089,0.5 0.1577,0.12 0.3106,0.11 0.4737,0 z m 1.0669,0.17 -0.1833,-0.18 v -0.23 c 0,-0.13 0.076,-0.31 0.1772,-0.43 l 0.1772,-0.2 h 0.2876 0.2876 l 0.1778,0.2 0.1778,0.21 -0.043,0.27 c -0.053,0.33 -0.2836,0.53 -0.6192,0.53 h -0.2566 z m 0.7131,-0.19 c 0.082,-0.1 0.1494,-0.18 0.1494,-0.21 0,-0.15 -0.2509,-0.39 -0.4134,-0.39 h -0.1807 l -0.1224,0.19 -0.1224,0.18 0.1224,0.19 c 0.1476,0.23 0.3648,0.24 0.5671,0 z m 1.465,-3.44 0.2502,-0.16 0.084,-0.31 c 0.046,-0.17 0.07,-0.6 0.054,-0.95 l -0.03,-0.63 -0.135,-0.21 c -0.077,-0.11 -0.2519,-0.24 -0.4069,-0.28 l -0.2719,-0.1 h -8.281 -8.2813 l -0.2158,0.26 -0.2159,0.25 v 0.79 0.79 l 0.1495,0.24 c 0.082,0.14 0.225,0.28 0.3172,0.32 0.096,0 3.7143,0.1 8.4504,0.1 h 8.2828 z m -15.6836,-0.68 c -0.075,0 -0.1856,-0.19 -0.2441,-0.33 l -0.1065,-0.26 0.1142,-0.22 c 0.2033,-0.39 0.6168,-0.49 0.9533,-0.23 0.2497,0.2 0.3116,0.47 0.1687,0.75 -0.1824,0.35 -0.5635,0.48 -0.8856,0.29 z m 9.9642,-0.12 -0.2276,-0.23 v -0.2 -0.2 l 0.2183,-0.22 c 0.2332,-0.23 0.4386,-0.27 0.7017,-0.13 0.2391,0.13 0.3451,0.3 0.3459,0.55 0,0.32 -0.2103,0.56 -0.5359,0.61 h -0.2749 z m 0.7427,-0.2 c 0.1328,-0.16 0.03,-0.48 -0.1877,-0.58 l -0.1844,-0.1 -0.1497,0.13 c -0.1659,0.15 -0.2021,0.53 -0.056,0.59 0.1919,0.1 0.4891,0 0.5782,-0.1 z m 1.0409,0.19 -0.2184,-0.22 v -0.2 -0.2 l 0.2184,-0.22 c 0.2335,-0.23 0.4127,-0.26 0.7036,-0.13 0.1799,0.1 0.3479,0.35 0.3479,0.55 0,0.2 -0.168,0.47 -0.3479,0.55 -0.2909,0.13 -0.4701,0.1 -0.7036,-0.13 z m 1.7927,0 c -0.2334,-0.24 -0.2679,-0.42 -0.1354,-0.71 0.082,-0.18 0.3485,-0.34 0.552,-0.34 0.2036,0 0.4701,0.16 0.552,0.34 0.1327,0.29 0.098,0.47 -0.1354,0.71 l -0.2184,0.21 h -0.1982 -0.1982 z m 0.6519,-0.14 c 0.1992,-0.13 0.1135,-0.58 -0.1242,-0.65 -0.3182,-0.1 -0.6083,0.26 -0.4487,0.55 l 0.081,0.16 h 0.2029 c 0.1115,0 0.2414,0 0.2886,-0.1 z m 1.6244,-3.6 0.2162,-0.22 0.036,-0.56 c 0.02,-0.3 0.012,-0.72 -0.017,-0.91 l -0.053,-0.36 -0.2119,-0.21 -0.212,-0.21 h -8.3685 -8.3686 l -0.178,0.1 c -0.098,0 -0.2338,0.18 -0.3022,0.29 l -0.1244,0.21 v 0.78 0.77 l 0.148,0.24 c 0.081,0.14 0.1569,0.25 0.1678,0.26 0.038,0 11.8579,0.1 14.4367,0.1 h 2.6145 l 0.2162,-0.21 z m -15.7284,-0.54 c -0.111,0 -0.2515,-0.18 -0.3181,-0.32 l -0.1191,-0.25 0.071,-0.19 c 0.092,-0.24 0.3594,-0.42 0.6252,-0.42 h 0.2132 l 0.2183,0.22 c 0.1201,0.12 0.2184,0.27 0.2184,0.34 0,0.24 -0.223,0.54 -0.4571,0.62 -0.1305,0 -0.2408,0.1 -0.245,0.1 -0.01,0 -0.097,0 -0.2064,-0.1 z m 10.0405,0 c -0.4239,-0.19 -0.5044,-0.68 -0.1662,-1.01 l 0.1475,-0.15 h 0.2648 0.2648 l 0.1834,0.18 0.1833,0.18 v 0.26 0.25 l -0.168,0.15 c -0.2383,0.22 -0.4306,0.26 -0.7096,0.14 z m 1.8689,0 c -0.2248,0 -0.4684,-0.36 -0.4684,-0.63 v -0.22 l 0.1834,-0.18 0.1833,-0.18 h 0.2566 c 0.1411,0 0.3351,0.1 0.4312,0.14 l 0.1747,0.14 v 0.3 0.3 l -0.1335,0.15 c -0.1427,0.16 -0.358,0.22 -0.6273,0.18 z m 0.4408,-0.36 c 0.189,-0.18 0.1708,-0.38 -0.047,-0.52 l -0.1831,-0.12 -0.1573,0.1 c -0.087,0 -0.19,0.14 -0.2299,0.24 l -0.072,0.19 0.1258,0.14 c 0.1556,0.17 0.3835,0.18 0.5635,0 z m 1.352,0.36 c -0.2253,0 -0.4684,-0.36 -0.4684,-0.63 v -0.22 l 0.1833,-0.18 0.1834,-0.18 h 0.2214 c 0.3258,0 0.4501,0.1 0.5772,0.31 l 0.1141,0.22 -0.047,0.21 c -0.075,0.35 -0.3763,0.53 -0.7646,0.47 z m -28.528,21.09 c -0.016,0 -0.021,-4.18 -0.01,-9.2 l 0.019,-9.12 0.2245,-0.37 0.2245,-0.36 0.4052,-0.21 0.4051,-0.2 h 4.4687 4.4685 v 1 1.01 h -4.0773 -4.0773 l -0.2179,0.25 -0.2179,0.24 v 0.86 0.85 l 0.2179,0.25 0.2179,0.24 h 4.0797 4.0798 l -0.021,0.84 -0.021,0.84 h -4.1085 c -2.2597,0 -4.1174,0.1 -4.1282,0.1 -0.011,0 -0.086,0.13 -0.1678,0.26 l -0.148,0.25 -3e-4,0.81 v 0.81 l 0.254,0.25 0.254,0.26 h 4.0412 4.0412 v 0.86 0.85 h -4.0412 -4.0412 l -0.254,0.26 -0.254,0.25 v 0.81 0.81 l 0.092,0.18 c 0.051,0.1 0.2093,0.24 0.3525,0.32 l 0.2604,0.14 h 3.9415 3.9415 v 0.82 0.82 h -3.9628 -3.9628 l -0.2158,0.11 c -0.1187,0.1 -0.2683,0.19 -0.3324,0.28 l -0.1166,0.17 v 0.85 0.85 l 0.254,0.25 0.254,0.26 h 4.0439 4.0439 l -0.022,0.72 -0.022,0.73 h -5.0697 -5.0697 z m 33.5468,-0.1 c -0.023,-0.1 -0.031,-0.42 -0.02,-0.73 l 0.023,-0.56 h 4.0338 c 2.2185,0 4.0906,-0.1 4.16,-0.1 0.069,0 0.1853,-0.15 0.2575,-0.26 l 0.1312,-0.2 0.032,-0.65 0.032,-0.66 -0.1204,-0.31 c -0.066,-0.18 -0.1965,-0.37 -0.2894,-0.43 l -0.1689,-0.11 h -4.0338 -4.0338 l -0.021,-0.8 -0.021,-0.8 h 4.0658 4.0658 l 0.1675,-0.15 c 0.2606,-0.23 0.371,-0.58 0.3706,-1.17 0,-0.66 -0.096,-1.04 -0.3066,-1.23 l -0.1569,-0.14 h -4.0819 -4.082 v -0.82 -0.83 h 4.0783 4.0785 l 0.1349,-0.11 c 0.2246,-0.19 0.3361,-0.57 0.3357,-1.14 0,-0.69 -0.1029,-1.06 -0.3484,-1.25 l -0.1943,-0.15 h -4.0223 -4.0222 l -0.042,-0.17 c -0.023,-0.1 -0.032,-0.47 -0.02,-0.84 l 0.022,-0.67 h 4.0338 4.0338 l 0.1578,-0.1 c 0.087,0 0.2044,-0.2 0.2614,-0.33 l 0.1036,-0.25 v -0.67 c 0,-0.73 -0.096,-1.06 -0.357,-1.24 l -0.1658,-0.11 h -4.0338 -4.0338 v -0.97 -0.97 h 4.3971 4.397 l 0.2914,0.1 c 0.3588,0.1 0.7739,0.45 0.9638,0.82 l 0.1429,0.28 0.01,9.12 c 0.01,5.01 -0.012,9.15 -0.036,9.19 l -0.044,0.1 h -5.0411 -5.0412 l -0.041,-0.17 z m -30.2399,-2.23 -0.1969,-0.15 v -0.3 -0.3 l 0.1834,-0.18 0.1833,-0.18 h 0.231 0.2308 l 0.1834,0.18 0.1833,0.18 v 0.3 0.3 l -0.1968,0.15 c -0.1083,0.1 -0.2886,0.16 -0.4007,0.16 -0.1123,0 -0.2926,-0.1 -0.4008,-0.16 z m 32.7721,0 -0.2059,-0.18 v -0.28 -0.28 l 0.2059,-0.18 c 0.2654,-0.22 0.5711,-0.22 0.8216,0 l 0.1976,0.19 v 0.27 0.26 l -0.1976,0.19 c -0.2505,0.23 -0.5562,0.23 -0.8216,0 z m 1.7355,0 c -0.2534,-0.3 -0.2458,-0.55 0.025,-0.83 0.2709,-0.27 0.5206,-0.27 0.8218,0 l 0.2298,0.19 v 0.24 0.24 l -0.2095,0.21 -0.2095,0.2 h -0.2321 -0.232 z m 1.7827,0 -0.1833,-0.18 0.01,-0.25 c 0.01,-0.27 0.104,-0.44 0.3475,-0.57 0.2631,-0.14 0.4686,-0.1 0.7017,0.14 0.2707,0.27 0.2784,0.52 0.025,0.82 l -0.1934,0.23 h -0.2582 -0.2582 z m 0.7694,-0.25 c 0.087,-0.11 0.063,-0.36 -0.046,-0.47 -0.026,0 -0.1215,-0.1 -0.2119,-0.1 h -0.1643 l -0.1532,0.16 c -0.084,0.1 -0.1532,0.2 -0.1532,0.26 0,0.1 0.069,0.18 0.1532,0.27 l 0.1532,0.15 0.1643,-0.1 c 0.09,0 0.2064,-0.1 0.258,-0.17 z m -36.9204,-4.06 c -0.2425,-0.13 -0.3362,-0.3 -0.3362,-0.59 v -0.28 l 0.1969,-0.16 c 0.2199,-0.17 0.4786,-0.19 0.7232,-0.1 0.2208,0.11 0.2726,0.2 0.274,0.48 0.01,0.34 -0.063,0.47 -0.303,0.59 -0.2493,0.13 -0.3534,0.13 -0.5549,0 z m 32.7556,0 c -0.234,-0.12 -0.401,-0.45 -0.342,-0.69 0.069,-0.27 0.3369,-0.48 0.6209,-0.48 h 0.2507 l 0.1835,0.18 0.1833,0.19 v 0.23 0.23 l -0.2183,0.22 c -0.2386,0.24 -0.3926,0.27 -0.6781,0.12 z m 1.8195,0 c -0.4135,-0.17 -0.518,-0.69 -0.2032,-1 l 0.1969,-0.2 h 0.2546 0.2547 l 0.1833,0.18 0.1834,0.19 v 0.22 c 0,0.42 -0.4896,0.76 -0.8697,0.61 z m 0.4643,-0.29 c 0.1549,-0.1 0.1858,-0.33 0.069,-0.51 l -0.1155,-0.18 h -0.1833 -0.1833 l -0.1223,0.19 -0.1224,0.19 0.1224,0.18 c 0.1197,0.19 0.3693,0.25 0.5351,0.13 z m 1.3284,0.29 c -0.407,-0.17 -0.5225,-0.71 -0.2168,-1.02 l 0.1834,-0.18 h 0.2462 c 0.556,0 0.8465,0.6 0.4889,1 -0.1922,0.21 -0.4687,0.29 -0.7017,0.19 z m 0.5405,-0.42 0.1224,-0.18 -0.1224,-0.19 -0.1224,-0.19 h -0.1833 -0.1833 l -0.1154,0.18 c -0.1166,0.18 -0.086,0.41 0.069,0.51 0.1659,0.12 0.4156,0.1 0.5353,-0.13 z m -37.0821,-4.17 -0.1624,-0.17 v -0.27 -0.28 l 0.1494,-0.15 0.1495,-0.15 h 0.2988 0.2988 l 0.1493,0.15 0.1494,0.15 v 0.29 0.28 l -0.1728,0.16 -0.1729,0.17 h -0.2623 -0.2624 z m 32.8718,0.13 c -0.052,0 -0.1468,-0.14 -0.2102,-0.26 l -0.1152,-0.23 0.048,-0.22 c 0.062,-0.28 0.2967,-0.44 0.6449,-0.44 h 0.2768 l 0.1548,0.2 c 0.085,0.11 0.1548,0.29 0.1548,0.41 v 0.22 l -0.1833,0.18 -0.1834,0.19 h -0.2461 c -0.1354,0 -0.2889,0 -0.3412,-0.1 z m 1.6601,-0.15 c -0.224,-0.24 -0.2346,-0.54 -0.028,-0.8 l 0.1549,-0.2 h 0.3253 0.3253 l 0.1548,0.2 c 0.085,0.11 0.1548,0.29 0.1548,0.41 v 0.22 l -0.1833,0.18 -0.1833,0.19 h -0.2684 -0.2685 z m 1.7929,0 -0.1833,-0.18 v -0.22 c 0,-0.12 0.069,-0.3 0.1548,-0.41 l 0.1548,-0.2 h 0.3253 0.3253 l 0.1548,0.2 c 0.2062,0.26 0.1957,0.56 -0.028,0.8 l -0.1831,0.2 h -0.2684 -0.2685 z m -36.1648,-4.29 c -0.2125,-0.1 -0.3224,-0.31 -0.3224,-0.63 v -0.26 l 0.1969,-0.15 c 0.1082,-0.1 0.2946,-0.16 0.4143,-0.16 h 0.2173 l 0.1834,0.18 0.1833,0.19 v 0.25 c 0,0.46 -0.448,0.76 -0.8728,0.58 z m 32.7694,0 c -0.4103,-0.2 -0.4542,-0.74 -0.085,-1.03 l 0.197,-0.15 h 0.2615 c 0.5892,0.1 0.7379,0.86 0.2188,1.13 -0.2568,0.13 -0.3508,0.14 -0.5923,0 z m 0.6076,-0.37 0.08,-0.15 -0.081,-0.17 c -0.076,-0.17 -0.2008,-0.22 -0.4575,-0.18 -0.2586,0 -0.3057,0.46 -0.07,0.62 0.1897,0.13 0.4214,0.1 0.5281,-0.12 z m 1.03,0.25 -0.2183,-0.22 v -0.19 -0.2 l 0.2183,-0.22 c 0.2709,-0.27 0.5206,-0.28 0.8218,0 l 0.2298,0.2 v 0.25 0.24 l -0.2298,0.2 c -0.3012,0.25 -0.5509,0.24 -0.8218,0 z m 1.9107,0.13 c -0.2297,-0.13 -0.3315,-0.3 -0.3315,-0.54 0,-0.26 0.1057,-0.42 0.3452,-0.55 0.2631,-0.14 0.4686,-0.1 0.7017,0.13 l 0.2183,0.22 v 0.2 0.19 l -0.2183,0.22 c -0.2293,0.23 -0.4654,0.27 -0.7154,0.13 z"
       id="path15850"
       inkscape:connector-curvature="0"
       inkscape:export-xdpi="200"
       inkscape:export-ydpi="200"
       inkscape:export-filename="C:\Users\fadjur\ansible_env_icon.png" />
    <path
       inkscape:connector-curvature="0"
       style="fill:#3a4d61;fill-opacity:0.94117647;stroke-width:0.06672651"
       d="m 5331.1872,1434.2733 1.4274,2.5679 c 0.5024,-0.042 1.0062,-0.02 1.5138,0.016 l 1.4275,-2.5773 c 0,4e-4 0.01,0 0.01,0 v -0.01 c 0.8493,0.138 1.6668,0.3618 2.4534,0.6592 l -0.042,2.9454 c 0.4464,0.2129 0.8934,0.457 1.3078,0.7442 l 2.52,-1.5099 c 0.6594,0.5315 1.2545,1.1376 1.7969,1.797 l -0.01,0.016 c 0,0 0.01,0.01 0.01,0.01 l -1.5046,2.5001 c 0.1448,0.2091 0.2756,0.4269 0.3987,0.6499 0,0 0,0 0,0.01 0.1289,0.2146 0.2488,0.4344 0.3562,0.6606 l 2.9293,-0.053 c 0,0.01 0,0.01 0.01,0.01 h 0.01 c 0.2999,0.7994 0.5272,1.6166 0.6672,2.4589 l -2.5771,1.4221 c 0.042,0.5024 0.029,1.0129 0,1.5112 l 2.5625,1.4287 c -0.1354,0.8304 -0.351,1.6505 -0.6567,2.4562 h -0.016 c -6e-4,0 0,0.01 0,0.01 l -1.5139,-0.029 -1.4141,-0.019 c -0.1046,0.2221 -0.2072,0.4449 -0.3349,0.6659 -0.086,0.1487 -0.1835,0.2857 -0.279,0.4253 -0.045,0.07 -0.084,0.1438 -0.1315,0.2127 l 1.5112,2.5146 c 0,0.01 -0.01,0.01 -0.01,0.01 v 0.01 c -0.5423,0.6594 -1.1376,1.2653 -1.797,1.8076 l -2.5199,-1.5205 c -0.381,0.264 -0.79,0.4894 -1.2002,0.6979 -0.036,0.019 -0.071,0.039 -0.1075,0.057 l 0.01,0.275 0.052,2.6688 c -0.7939,0.2906 -1.6225,0.5122 -2.4642,0.6525 v 0 c 0,10e-5 0,-1e-4 0,0 l -1.4314,-2.5651 c -0.077,0.01 -0.1552,0 -0.2324,0.01 -0.1702,0.013 -0.3389,0.029 -0.5158,0.029 -0.2552,0 -0.5106,-0.019 -0.7549,-0.044 l -1.4248,2.573 c -0.8505,-0.138 -1.6801,-0.3611 -2.4667,-0.6591 l 0.039,-2.1612 0.016,-0.7735 c -0.4574,-0.2234 -0.8945,-0.4685 -1.3199,-0.755 l -2.5199,1.5206 c -0.6486,-0.5424 -1.2545,-1.1488 -1.7969,-1.8076 l 0.01,-0.016 c 0,0 -0.01,-0.01 -0.01,-0.01 l 1.5032,-2.5001 c -0.1409,-0.2116 -0.2727,-0.4322 -0.3987,-0.6579 0,-0.01 -0.01,-0.01 -0.01,-0.016 -0.125,-0.211 -0.2435,-0.4239 -0.3509,-0.6406 l -2.9187,0.053 c 0,0 0,-0.01 0,-0.01 h -0.019 c -0.3001,-0.7994 -0.5214,-1.6272 -0.6579,-2.4548 l 1.5085,-0.848 h 0.042 l 1.0433,-0.5781 c -0.019,-0.2546 -0.042,-0.4985 -0.042,-0.7537 v 0 c 0,-0.2551 0.02,-0.4997 0.042,-0.7549 l -2.5744,-1.4247 c 0.138,-0.8507 0.3625,-1.6802 0.6605,-2.4669 l 2.9346,0.053 c 0.2234,-0.4572 0.4681,-0.9033 0.7444,-1.3184 l -0.6632,-1.1059 -0.848,-1.4101 c 0,0 0,0 0,0 v 0 c 0.2571,-0.3124 0.5301,-0.611 0.8134,-0.8972 0.016,-0.016 0.029,-0.033 0.044,-0.048 5e-4,-5e-4 0,0 0,0 0.3004,-0.3004 0.6141,-0.5846 0.9384,-0.8507 l 1.4886,0.8825 0.01,0.016 1.0302,0.6141 c 0.4076,-0.2802 0.8425,-0.5449 1.2984,-0.7603 l -0.048,-2.9373 c 0.7899,-0.3052 1.6126,-0.5179 2.4549,-0.6579 z m 2.1185,4.951 c -1.7957,0.019 -3.5506,0.6414 -4.9734,1.7729 -0.1844,0.1477 -0.3634,0.301 -0.5343,0.4639 -0.026,0.026 -0.056,0.05 -0.083,0.076 -1.507,1.4755 -2.4442,3.5277 -2.4442,5.8068 0,0.493 0.052,0.9733 0.1354,1.4421 0.02,0.1123 0.04,0.225 0.065,0.3362 0.029,0.1387 0.068,0.275 0.1048,0.4107 0.044,0.1562 0.092,0.3107 0.1449,0.4639 0.037,0.1077 0.075,0.2146 0.1168,0.3204 0.073,0.1858 0.1549,0.3687 0.2419,0.5489 0.034,0.07 0.065,0.1403 0.101,0.2085 0.1285,0.248 0.2669,0.4911 0.4213,0.7257 0,0 0,0.01 0,0.01 3e-4,3e-4 -2e-4,0 0,0 0.336,0.5099 0.733,0.9855 1.1869,1.4155 0.4542,0.4302 0.9661,0.8147 1.5324,1.1417 2.1859,1.262 4.7118,1.3955 6.9033,0.5795 0.2264,-0.085 0.4487,-0.1816 0.6672,-0.2858 0.032,-0.016 0.062,-0.029 0.093,-0.045 0.1828,-0.09 0.3609,-0.1883 0.5369,-0.2926 0.064,-0.039 0.1292,-0.077 0.1929,-0.1168 0.1438,-0.091 0.2841,-0.1884 0.4226,-0.2884 0.085,-0.062 0.1701,-0.1237 0.2526,-0.1886 0.1104,-0.086 0.2166,-0.1786 0.3231,-0.2711 0.1019,-0.089 0.2029,-0.1796 0.3004,-0.2737 0.08,-0.077 0.158,-0.1581 0.2354,-0.2393 0.1081,-0.1136 0.2149,-0.2286 0.3162,-0.3482 0.071,-0.084 0.138,-0.1708 0.2059,-0.2578 0.091,-0.1173 0.1821,-0.2351 0.2672,-0.3575 0.073,-0.1045 0.1403,-0.214 0.2087,-0.323 0.075,-0.1199 0.1517,-0.2391 0.2205,-0.3629 0.058,-0.1042 0.1091,-0.2104 0.1623,-0.3162 0.07,-0.139 0.1403,-0.278 0.202,-0.4213 0.034,-0.079 0.062,-0.1589 0.093,-0.2381 0.068,-0.1727 0.1363,-0.3453 0.1929,-0.5237 0.016,-0.054 0.029,-0.1101 0.045,-0.1649 0.062,-0.2092 0.1192,-0.4196 0.1636,-0.6353 0.01,-0.019 0.01,-0.041 0.01,-0.062 0.048,-0.2412 0.086,-0.4863 0.1117,-0.7349 0,-0.032 0.01,-0.062 0.01,-0.093 0.023,-0.2406 0.035,-0.4836 0.036,-0.7297 1e-4,-0.042 0,-0.084 0,-0.1263 0,-0.2049 -0.01,-0.4079 -0.029,-0.6087 -0.01,-0.079 -0.019,-0.1569 -0.029,-0.2354 -0.02,-0.1585 -0.037,-0.3166 -0.064,-0.4719 -0.026,-0.1532 -0.064,-0.3046 -0.1,-0.4559 -0.019,-0.087 -0.037,-0.1769 -0.061,-0.263 -0.065,-0.2403 -0.14,-0.479 -0.2273,-0.7124 -0.086,-0.2308 -0.1838,-0.4565 -0.2909,-0.6792 -0.05,-0.1029 -0.1069,-0.2013 -0.1611,-0.3016 -0.061,-0.1146 -0.1217,-0.2299 -0.1886,-0.3416 -0.071,-0.1182 -0.1477,-0.2326 -0.2247,-0.3469 -0.057,-0.086 -0.1133,-0.1718 -0.1741,-0.2552 -0.093,-0.1283 -0.1931,-0.2526 -0.2938,-0.3748 -0.05,-0.061 -0.1006,-0.1234 -0.1529,-0.1834 -0.1104,-0.1264 -0.2251,-0.2488 -0.3429,-0.3682 -0.053,-0.054 -0.1075,-0.1068 -0.162,-0.1594 -0.1215,-0.1163 -0.2452,-0.2293 -0.3735,-0.3376 -0.058,-0.049 -0.1188,-0.095 -0.1783,-0.1422 -0.137,-0.1095 -0.2747,-0.2185 -0.4186,-0.3192 -0.026,-0.016 -0.05,-0.034 -0.076,-0.05 -0.9413,-0.6411 -2.0239,-1.0919 -3.1925,-1.2932 v -0.01 c -0.482,-0.083 -0.9664,-0.1221 -1.4487,-0.1169 z"
       id="path30121-6"
       transform="matrix(2.1064717,0,0,2.1064717,-11061.235,-2907.203)" />
    <path
       id="path30123-7"
       d="m 5342.8738,1459.3517 v -1.597 l 0.088,-0.081 1.6339,-0.5507 0.4209,-1.1005 -0.8092,-1.6777 -0.089,-0.1881 0.506,-0.5102 0.6151,-0.6178 0.214,0.1076 1.597,0.8186 1.1004,-0.3084 0.6967,-1.7852 h 1.5842 l 0.081,0.081 0.5507,1.6305 1.1133,0.4192 1.8522,-0.8909 1.1279,1.1185 -0.1074,0.2104 -0.8187,1.5954 0.4562,1.0996 1.9329,0.6966 v 1.597 l -0.2286,0.067 -1.7044,0.5636 -0.4562,1.1004 0.8729,1.8522 -1.128,1.1408 -0.2147,-0.1074 -1.5969,-0.8187 -1.1005,0.4561 -0.6985,1.9338 h -1.597 l -0.067,-0.2285 -0.5635,-1.7045 -1.0876,-0.4562 -1.8659,0.8729 -1.1279,-1.128 0.1074,-0.2146 0.8187,-1.597 -0.3152,-1.1142 z m 6.7248,1.4768 c 1.2353,0 2.2413,-1.0069 2.2413,-2.2414 0,-1.2345 -1.0068,-2.2413 -2.2413,-2.2413 -1.2345,0 -2.2284,1.0068 -2.2284,2.2413 0,1.2345 0.9939,2.2414 2.2284,2.2414 z"
       inkscape:connector-curvature="0"
       style="fill:#3a4d61;fill-opacity:0.94117647;stroke-width:0.08423677"
       transform="matrix(2.1064717,0,0,2.1064717,-11061.235,-2907.203)" />
    <path
       inkscape:connector-curvature="0"
       id="path16535"
       d="m 5333.3958,1440.6398 a 6.7093269,6.7093269 0 0 0 -6.7093,6.7092 6.7093269,6.7093269 0 0 0 6.7093,6.7094 6.7093269,6.7093269 0 0 0 6.7093,-6.7094 6.7093269,6.7093269 0 0 0 -6.7093,-6.7092 z m 0.1054,2.6959 c 0.1843,-0.01 0.3512,0.1055 0.4127,0.2811 l 2.6609,6.4107 v 10e-5 c 0.026,0.07 0.036,0.1318 0.044,0.2108 v 0.01 c -0.01,0.2634 -0.2284,0.4739 -0.4918,0.4653 -0.1317,0 -0.2284,-0.053 -0.369,-0.1669 l -3.4511,-2.7925 -1.1593,2.898 h -1.0013 l 2.9333,-7.0342 c 0.061,-0.1756 0.2371,-0.2901 0.4216,-0.2811 z m 0,1.4315 -0.887,2.2131 2.6169,2.0637 z"
       style="fill:#3a4d61;fill-opacity:0.94117647;stroke-width:0.04168982"
       transform="matrix(2.1064717,0,0,2.1064717,-11061.235,-2907.203)" />
    <path
       transform="matrix(1.4325722,0,0,1.4325722,-1554.6045,421142.88)"
       style="opacity:1;fill:none;stroke:url(#linearGradient17445);stroke-width:2.09413552;stroke-linecap:butt;stroke-linejoin:round;stroke-miterlimit:4;stroke-dasharray:none;stroke-opacity:1;marker-mid:url(#marker17431);marker-end:url(#marker17414)"
       d="m 1126.9274,-293878.84 c 24.1652,-8.61 43.7333,-5.91 61.7556,0.98"
       id="path17435"
       inkscape:connector-curvature="0"
       sodipodi:nodetypes="cc"
       inkscape:export-xdpi="200"
       inkscape:export-ydpi="200" />
    <path
       transform="matrix(1.4325722,0,0,1.4325722,-1528.1854,421140.2)"
       style="opacity:1;fill:#ef9d10;fill-opacity:0.94117647;stroke:none;stroke-width:0.08739786;stroke-linecap:butt;stroke-linejoin:bevel;stroke-miterlimit:4;stroke-dasharray:none;stroke-dashoffset:0;stroke-opacity:1;paint-order:normal"
       d="m 1093.3632,-293901.87 c -1.8231,0.19 -3.1454,1.82 -2.9533,3.64 0.082,0.79 0.4405,1.51 1.0094,2.06 l -0.7339,0.1 c -4.2861,0.45 -3.7634,2.18 -3.5331,4.37 l 0.083,0.79 14.3983,-1.51 -0.084,-0.8 c -0.2303,-2.19 -0.1211,-3.98 -4.3646,-3.53 l -0.7376,0.1 c 0.445,-0.65 0.6447,-1.44 0.5638,-2.22 -0.192,-1.82 -1.8257,-3.15 -3.649,-2.95 z m 0.1571,1.49 c 0.9993,-0.11 1.8947,0.62 1.9996,1.62 0.1052,0.99 -0.6195,1.89 -1.6186,2 -0.9989,0.1 -1.894,-0.62 -1.9992,-1.62 -0.1052,-1 0.6193,-1.9 1.6182,-2 z"
       id="path6153"
       inkscape:connector-curvature="0"
       sodipodi:nodetypes="cccssccsscccccccc"
       inkscape:export-xdpi="200"
       inkscape:export-ydpi="200" />
    <path
       transform="matrix(1.4325722,0,0,1.4325722,-1528.1854,421140.2)"
       style="opacity:1;fill:#ef9d10;fill-opacity:0.94117647;stroke:none;stroke-width:0.10487197;stroke-linecap:butt;stroke-linejoin:bevel;stroke-miterlimit:4;stroke-dasharray:none;stroke-dashoffset:0;stroke-opacity:1;paint-order:normal"
       d="m 1085.1378,-293894.03 17.9029,-1.88 c 2.6251,-0.28 4.9609,1.61 5.2373,4.24 l 2.7734,26.34 c 0.2764,2.62 -1.6144,4.96 -4.2395,5.23 l -17.9029,1.89 c -2.6251,0.27 -4.9609,-1.62 -5.2373,-4.24 l -2.7734,-26.34 c -0.2764,-2.63 1.6144,-4.96 4.2395,-5.24 z"
       id="rect6145"
       inkscape:connector-curvature="0"
       inkscape:export-xdpi="200"
       inkscape:export-ydpi="200" />
    <path
       inkscape:connector-curvature="0"
       id="rect5785"
       d="m 5395.7958,1289.2899 v 30.1827 h 21.486 v -25.9519 l -4.472,-4.2308 z"
       style="opacity:1;fill:#ffffff;fill-opacity:1;stroke:none;stroke-width:0.24501382;stroke-linecap:butt;stroke-linejoin:miter;stroke-miterlimit:4;stroke-dasharray:none;stroke-dashoffset:0;stroke-opacity:1;paint-order:normal"
       transform="matrix(1.4312156,-0.06232927,0.06232927,1.4312156,-7777.0985,-1389.9252)" />
    <path
       style="opacity:1;fill:#845709;fill-opacity:0.99607843;stroke:none;stroke-width:0.18498194;stroke-linecap:butt;stroke-linejoin:bevel;stroke-miterlimit:4;stroke-dasharray:none;stroke-opacity:1"
       d="m 5417.2825,1293.5102 -4.5596,-0.094 0.085,-4.1359 z"
       id="path5798"
       inkscape:connector-curvature="0"
       sodipodi:nodetypes="cccc"
       transform="matrix(1.4312156,-0.06232927,0.06232927,1.4312156,-7777.0985,-1389.9252)" />
    <path
       style="opacity:1;fill:#ef9d10;fill-opacity:0.94117647;stroke:none;stroke-width:0.69914436;stroke-linecap:butt;stroke-linejoin:bevel;stroke-miterlimit:4;stroke-dasharray:none;stroke-dashoffset:0;stroke-opacity:1;paint-order:normal"
       d="m 20403.906,4920.3711 v 16.9922 h 16.992 v -16.9922 z m 2.44,2.4414 h 12.109 v 12.1094 h -12.109 z"
       transform="matrix(0.37868428,-0.01629517,0.01629517,0.37868428,-7776.9429,-1393.906)"
       id="rect6191"
       inkscape:connector-curvature="0" />
    <g
       style="fill:#ef9d10;fill-opacity:0.94117647;stroke-width:0.69804507"
       id="g6202"
       transform="matrix(1.4312477,-0.06158806,0.06158806,1.4312477,-7777.3879,-1393.2897)">
      <rect
         transform="scale(1,-1)"
         ry="0.31883869"
         rx="0.31883869"
         y="-1305.2327"
         x="5405.8022"
         height="0.91351891"
         width="8.4043741"
         id="rect6196"
         style="opacity:1;fill:#ef9d10;fill-opacity:0.94117647;stroke:none;stroke-width:0.18498194;stroke-linecap:butt;stroke-linejoin:bevel;stroke-miterlimit:4;stroke-dasharray:none;stroke-dashoffset:0;stroke-opacity:1;paint-order:normal" />
      <rect
         transform="scale(1,-1)"
         style="opacity:1;fill:#ef9d10;fill-opacity:0.94117647;stroke:none;stroke-width:0.20771334;stroke-linecap:butt;stroke-linejoin:bevel;stroke-miterlimit:4;stroke-dasharray:none;stroke-dashoffset:0;stroke-opacity:1;paint-order:normal"
         id="rect6198"
         width="10.59682"
         height="0.91351891"
         x="5405.8022"
         y="-1303.0402"
         rx="0.31883869"
         ry="0.31883869" />
    </g>
    <path
       inkscape:connector-curvature="0"
       id="path6210"
       transform="matrix(0.37868428,-0.01629517,0.01629517,0.37868428,-7776.5896,-1385.7)"
       d="m 20403.906,4920.3711 v 16.9922 h 16.992 v -16.9922 z m 2.44,2.4414 h 12.109 v 12.1094 h -12.109 z"
       style="opacity:1;fill:#ef9d10;fill-opacity:0.94117647;stroke:none;stroke-width:0.69914436;stroke-linecap:butt;stroke-linejoin:bevel;stroke-miterlimit:4;stroke-dasharray:none;stroke-dashoffset:0;stroke-opacity:1;paint-order:normal" />
    <g
       style="fill:#ef9d10;fill-opacity:0.94117647;stroke-width:0.69804507"
       transform="matrix(1.4312477,-0.06158806,0.06158806,1.4312477,-7777.0346,-1385.0837)"
       id="g6216">
      <rect
         style="opacity:1;fill:#ef9d10;fill-opacity:0.94117647;stroke:none;stroke-width:0.18498194;stroke-linecap:butt;stroke-linejoin:bevel;stroke-miterlimit:4;stroke-dasharray:none;stroke-dashoffset:0;stroke-opacity:1;paint-order:normal"
         id="rect6212"
         width="8.4043741"
         height="0.91351891"
         x="5405.8022"
         y="-1305.2327"
         rx="0.31883869"
         ry="0.31883869"
         transform="scale(1,-1)" />
      <rect
         ry="0.31883869"
         rx="0.31883869"
         y="-1303.0402"
         x="5405.8022"
         height="0.91351891"
         width="10.59682"
         id="rect6214"
         style="opacity:1;fill:#ef9d10;fill-opacity:0.94117647;stroke:none;stroke-width:0.20771334;stroke-linecap:butt;stroke-linejoin:bevel;stroke-miterlimit:4;stroke-dasharray:none;stroke-dashoffset:0;stroke-opacity:1;paint-order:normal"
         transform="scale(1,-1)" />
    </g>
    <path
       style="opacity:1;fill:#ef9d10;fill-opacity:0.94117647;stroke:none;stroke-width:0.69914436;stroke-linecap:butt;stroke-linejoin:bevel;stroke-miterlimit:4;stroke-dasharray:none;stroke-dashoffset:0;stroke-opacity:1;paint-order:normal"
       d="m 20403.906,4920.3711 v 16.9922 h 16.992 v -16.9922 z m 2.44,2.4414 h 12.109 v 12.1094 h -12.109 z"
       transform="matrix(0.37868428,-0.01629517,0.01629517,0.37868428,-7776.2361,-1377.488)"
       id="path6220"
       inkscape:connector-curvature="0" />
    <g
       style="fill:#ef9d10;fill-opacity:0.94117647;stroke-width:0.69804507"
       id="g6226"
       transform="matrix(1.4312477,-0.06158806,0.06158806,1.4312477,-7776.6811,-1376.8717)">
      <rect
         transform="scale(1,-1)"
         ry="0.31883869"
         rx="0.31883869"
         y="-1305.2327"
         x="5405.8022"
         height="0.91351891"
         width="8.4043741"
         id="rect6222"
         style="opacity:1;fill:#ef9d10;fill-opacity:0.94117647;stroke:none;stroke-width:0.18498194;stroke-linecap:butt;stroke-linejoin:bevel;stroke-miterlimit:4;stroke-dasharray:none;stroke-dashoffset:0;stroke-opacity:1;paint-order:normal" />
      <rect
         transform="scale(1,-1)"
         style="opacity:1;fill:#ef9d10;fill-opacity:0.94117647;stroke:none;stroke-width:0.20771334;stroke-linecap:butt;stroke-linejoin:bevel;stroke-miterlimit:4;stroke-dasharray:none;stroke-dashoffset:0;stroke-opacity:1;paint-order:normal"
         id="rect6224"
         width="10.59682"
         height="0.91351891"
         x="5405.8022"
         y="-1303.0402"
         rx="0.31883869"
         ry="0.31883869" />
    </g>
    <path
       transform="matrix(1.4325722,0,0,1.4325722,-1554.6045,421145.08)"
       style="opacity:1;fill:none;stroke:url(#linearGradient17583);stroke-width:2.09413552;stroke-linecap:butt;stroke-linejoin:round;stroke-miterlimit:4;stroke-dasharray:none;stroke-opacity:1;marker-mid:url(#marker17439);marker-end:url(#marker17575)"
       d="m 1220.9821,-293878.57 c 17.5859,-9.62 48.9897,-12.72 69.2387,-2.77"
       id="path17149"
       inkscape:connector-curvature="0"
       sodipodi:nodetypes="cc"
       inkscape:export-xdpi="200"
       inkscape:export-ydpi="200" />
    <path
       inkscape:connector-curvature="0"
       id="path7502"
       transform="matrix(0.37868428,-0.01629517,0.01629517,0.37868428,-7777.1345,-1403.478)"
       d="m 20403.906,4920.3711 v 16.9922 h 16.992 v -16.9922 z m 2.44,2.4414 h 12.109 v 12.1094 h -12.109 z"
       style="opacity:1;fill:#ef9d10;fill-opacity:0.94117647;stroke:none;stroke-width:0.69914436;stroke-linecap:butt;stroke-linejoin:bevel;stroke-miterlimit:4;stroke-dasharray:none;stroke-dashoffset:0;stroke-opacity:1;paint-order:normal" />
    <g
       style="fill:#ef9d10;fill-opacity:0.94117647;stroke-width:0.69804507"
       transform="matrix(1.4312477,-0.06158806,0.06158806,1.4312477,-7777.5795,-1402.8617)"
       id="g7508">
      <rect
         style="opacity:1;fill:#ef9d10;fill-opacity:0.94117647;stroke:none;stroke-width:0.18498194;stroke-linecap:butt;stroke-linejoin:bevel;stroke-miterlimit:4;stroke-dasharray:none;stroke-dashoffset:0;stroke-opacity:1;paint-order:normal"
         id="rect7504"
         width="8.4043741"
         height="0.91351891"
         x="5405.8022"
         y="-1305.2327"
         rx="0.31883869"
         ry="0.31883869"
         transform="scale(1,-1)" />
      <rect
         ry="0.31883869"
         rx="0.31883869"
         y="-1303.0402"
         x="5405.8022"
         height="0.91351891"
         width="10.59682"
         id="rect7506"
         style="opacity:1;fill:#ef9d10;fill-opacity:0.94117647;stroke:none;stroke-width:0.20771334;stroke-linecap:butt;stroke-linejoin:bevel;stroke-miterlimit:4;stroke-dasharray:none;stroke-dashoffset:0;stroke-opacity:1;paint-order:normal"
         transform="scale(1,-1)" />
    </g>
    <text
       inkscape:export-ydpi="200"
       inkscape:export-xdpi="200"
       inkscape:export-filename="/home/adm1n/Github/azure/images/iac/abstractions.png"
       id="text1256-2"
       y="199.89458"
       x="34.764439"
       style="font-style:normal;font-variant:normal;font-weight:normal;font-stretch:normal;font-size:9.52499962px;line-height:1.25;font-family:'JetBrains Mono';-inkscape-font-specification:'JetBrains Mono, Normal';font-variant-ligatures:normal;font-variant-position:normal;font-variant-caps:normal;font-variant-numeric:normal;font-variant-alternates:normal;font-feature-settings:normal;text-indent:0;text-align:start;text-decoration:none;text-decoration-line:none;text-decoration-style:solid;text-decoration-color:#000000;letter-spacing:0px;word-spacing:0px;text-transform:none;writing-mode:lr-tb;direction:ltr;text-orientation:mixed;dominant-baseline:auto;baseline-shift:baseline;text-anchor:start;white-space:normal;shape-padding:0;opacity:1;vector-effect:none;fill:#ef9d10;fill-opacity:0.94117647;stroke:none;stroke-width:0.18469107;stroke-linecap:butt;stroke-linejoin:miter;stroke-miterlimit:4;stroke-dasharray:none;stroke-dashoffset:0;stroke-opacity:1"
       xml:space="preserve"
       transform="matrix(1.4325722,0,0,1.4325722,-36.609005,-99.511214)"><tspan
         id="tspan1254-7"
         style="font-style:normal;font-variant:normal;font-weight:bold;font-stretch:normal;font-size:9.52499962px;font-family:'JetBrains Mono';-inkscape-font-specification:'JetBrains Mono Bold';font-variant-ligatures:normal;font-variant-caps:normal;font-variant-numeric:normal;font-feature-settings:normal;text-align:start;writing-mode:lr-tb;text-anchor:start;fill:#ef9d10;fill-opacity:0.94117647;stroke-width:0.18469107"
         y="199.89458"
         x="34.764439"
         sodipodi:role="line">Playbook</tspan></text>
    <text
       transform="matrix(1.4325722,0,0,1.4325722,78.839353,-85.432783)"
       xml:space="preserve"
       style="font-style:normal;font-variant:normal;font-weight:normal;font-stretch:normal;font-size:9.52499962px;line-height:1.25;font-family:'JetBrains Mono';-inkscape-font-specification:'JetBrains Mono, Normal';font-variant-ligatures:normal;font-variant-position:normal;font-variant-caps:normal;font-variant-numeric:normal;font-variant-alternates:normal;font-feature-settings:normal;text-indent:0;text-align:start;text-decoration:none;text-decoration-line:none;text-decoration-style:solid;text-decoration-color:#000000;letter-spacing:0px;word-spacing:0px;text-transform:none;writing-mode:lr-tb;direction:ltr;text-orientation:mixed;dominant-baseline:auto;baseline-shift:baseline;text-anchor:start;white-space:normal;shape-padding:0;opacity:1;vector-effect:none;fill:#3a4d61;fill-opacity:0.94117647;stroke:none;stroke-width:0.18469107;stroke-linecap:butt;stroke-linejoin:miter;stroke-miterlimit:4;stroke-dasharray:none;stroke-dashoffset:0;stroke-opacity:1"
       x="34.764439"
       y="199.89458"
       id="text7566"
       inkscape:export-filename="/home/adm1n/Github/azure/images/iac/abstractions.png"
       inkscape:export-xdpi="200"
       inkscape:export-ydpi="200"><tspan
         sodipodi:role="line"
         x="34.764439"
         y="199.89458"
         style="font-style:normal;font-variant:normal;font-weight:bold;font-stretch:normal;font-size:9.52499962px;font-family:'JetBrains Mono';-inkscape-font-specification:'JetBrains Mono Bold';font-variant-ligatures:normal;font-variant-caps:normal;font-variant-numeric:normal;font-feature-settings:normal;text-align:start;writing-mode:lr-tb;text-anchor:start;fill:#3a4d61;fill-opacity:0.94117647;stroke-width:0.18469107"
         id="tspan7564">Ansible Engine</tspan></text>
    <text
       inkscape:export-ydpi="200"
       inkscape:export-xdpi="200"
       inkscape:export-filename="/home/adm1n/Github/azure/images/iac/abstractions.png"
       id="text7582"
       y="199.89458"
       x="34.764439"
       style="font-style:normal;font-variant:normal;font-weight:normal;font-stretch:normal;font-size:9.52499962px;line-height:1.25;font-family:'JetBrains Mono';-inkscape-font-specification:'JetBrains Mono, Normal';font-variant-ligatures:normal;font-variant-position:normal;font-variant-caps:normal;font-variant-numeric:normal;font-variant-alternates:normal;font-feature-settings:normal;text-indent:0;text-align:start;text-decoration:none;text-decoration-line:none;text-decoration-style:solid;text-decoration-color:#000000;letter-spacing:0px;word-spacing:0px;text-transform:none;writing-mode:lr-tb;direction:ltr;text-orientation:mixed;dominant-baseline:auto;baseline-shift:baseline;text-anchor:start;white-space:normal;shape-padding:0;opacity:1;vector-effect:none;fill:#6b7b8c;fill-opacity:0.94117647;stroke:none;stroke-width:0.18469107;stroke-linecap:butt;stroke-linejoin:miter;stroke-miterlimit:4;stroke-dasharray:none;stroke-dashoffset:0;stroke-opacity:1"
       xml:space="preserve"
       transform="matrix(1.4325722,0,0,1.4325722,220.06611,-99.272416)"><tspan
         id="tspan7580"
         style="font-style:normal;font-variant:normal;font-weight:bold;font-stretch:normal;font-size:9.52499962px;font-family:'JetBrains Mono';-inkscape-font-specification:'JetBrains Mono Bold';font-variant-ligatures:normal;font-variant-caps:normal;font-variant-numeric:normal;font-feature-settings:normal;text-align:start;letter-spacing:-0.5291667px;writing-mode:lr-tb;text-anchor:start;fill:#6b7b8c;fill-opacity:0.94117647;stroke-width:0.18469107"
         y="199.89458"
         x="34.764439"
         sodipodi:role="line">Managed Environment</tspan></text>
  </g>
</svg>
