<?xml version="1.0" encoding="UTF-8" standalone="no"?>
<!-- Created with Inkscape (http://www.inkscape.org/) -->

<svg
   xmlns:dc="http://purl.org/dc/elements/1.1/"
   xmlns:cc="http://creativecommons.org/ns#"
   xmlns:rdf="http://www.w3.org/1999/02/22-rdf-syntax-ns#"
   xmlns:svg="http://www.w3.org/2000/svg"
   xmlns="http://www.w3.org/2000/svg"
   xmlns:xlink="http://www.w3.org/1999/xlink"
   xmlns:sodipodi="http://sodipodi.sourceforge.net/DTD/sodipodi-0.dtd"
   xmlns:inkscape="http://www.inkscape.org/namespaces/inkscape"
   width="187.24634mm"
   height="155.84064mm"
   viewBox="0 0 187.24634 155.84064"
   version="1.1"
   id="svg2456"
   inkscape:version="0.92.5 (2060ec1f9f, 2020-04-08)"
   sodipodi:docname="bg.svg"
   inkscape:export-filename="/home/adm1n/Git/net-sec-presentation/presentation/img/bg.jpg.png"
   inkscape:export-xdpi="96"
   inkscape:export-ydpi="96">
  <defs
     id="defs2450">
    <radialGradient
       inkscape:collect="always"
       xlink:href="#linearGradient2415"
       id="radialGradient2419"
       cx="12358.718"
       cy="1937.2504"
       fx="12358.718"
       fy="1937.2504"
       r="195.0145"
       gradientTransform="matrix(0.17501142,-0.1023963,0.08134842,0.13903728,-2180.3817,1066.5189)"
       gradientUnits="userSpaceOnUse" />
    <linearGradient
       inkscape:collect="always"
       id="linearGradient2415">
      <stop
         style="stop-color:#4f9aea;stop-opacity:1;"
         offset="0"
         id="stop2411" />
      <stop
         style="stop-color:#4f9aea;stop-opacity:0;"
         offset="1"
         id="stop2413" />
    </linearGradient>
    <radialGradient
       inkscape:collect="always"
       xlink:href="#linearGradient2415"
       id="radialGradient2380"
       cx="12340.653"
       cy="2014.0771"
       fx="12340.653"
       fy="2014.0771"
       r="274.505"
       gradientTransform="matrix(0.24505808,-0.09975408,0.06815492,0.16743089,-3048.2072,997.96275)"
       gradientUnits="userSpaceOnUse" />
    <radialGradient
       inkscape:collect="always"
       xlink:href="#linearGradient2332"
       id="radialGradient2425"
       cx="3244.2654"
       cy="532.87299"
       fx="3244.2654"
       fy="532.87299"
       r="72.603653"
       gradientTransform="matrix(1.0100456,0.81325105,-0.65203347,0.80981573,-2837.0313,-2965.7984)"
       gradientUnits="userSpaceOnUse" />
    <linearGradient
       inkscape:collect="always"
       id="linearGradient2332">
      <stop
         style="stop-color:#4f9aea;stop-opacity:0.7434555"
         offset="0"
         id="stop2328" />
      <stop
         style="stop-color:#4f9aea;stop-opacity:0;"
         offset="1"
         id="stop2330" />
    </linearGradient>
  </defs>
  <sodipodi:namedview
     id="base"
     pagecolor="#ffffff"
     bordercolor="#666666"
     borderopacity="1.0"
     inkscape:pageopacity="0.0"
     inkscape:pageshadow="2"
     inkscape:zoom="0.35"
     inkscape:cx="-316.14865"
     inkscape:cy="57.359156"
     inkscape:document-units="mm"
     inkscape:current-layer="layer1"
     showgrid="false"
     inkscape:window-width="1920"
     inkscape:window-height="1007"
     inkscape:window-x="0"
     inkscape:window-y="0"
     inkscape:window-maximized="1" />
  <metadata
     id="metadata2453">
    <rdf:RDF>
      <cc:Work
         rdf:about="">
        <dc:format>image/svg+xml</dc:format>
        <dc:type
           rdf:resource="http://purl.org/dc/dcmitype/StillImage" />
        <dc:title></dc:title>
      </cc:Work>
    </rdf:RDF>
  </metadata>
  <g
     inkscape:label="Layer 1"
     inkscape:groupmode="layer"
     id="layer1"
     transform="translate(-19.769688,-8.1689657)">
    <path
       style="fill:url(#radialGradient2425);fill-opacity:1;stroke-width:0.0548859"
       d="m 144.73219,44.411586 -20.2441,11.688177 v 23.376343 l 20.2441,11.68818 20.2448,-11.68818 V 56.099763 Z M 81.708688,80.626435 61.463787,92.314615 v 23.376335 l 20.244901,11.68818 20.244302,-11.68818 V 92.314615 Z m 42.228502,0 -20.2448,11.68818 v 23.376335 l 20.2448,11.68818 20.2446,-11.68818 V 92.314615 Z M 40.014587,80.893574 19.769688,92.581765 v 23.376365 l 20.244899,11.68818 20.244301,-11.68818 V 92.581765 Z m 63.017403,36.207636 -20.244903,11.68818 v 23.37633 l 20.244903,11.68818 20.2443,-11.68818 v -23.37633 z m 41.6941,0 -20.2449,11.68818 v 23.37633 l 20.2449,11.68818 20.2443,-11.68818 v -23.37633 z"
       id="path4309-6"
       inkscape:connector-curvature="0"
       inkscape:export-xdpi="96"
       inkscape:export-ydpi="96" />
    <path
       inkscape:connector-curvature="0"
       style="fill:url(#radialGradient2380);fill-opacity:1;stroke-width:0.0548859"
       d="M 60.85437,44.292343 40.609511,55.980524 V 79.356885 L 60.85437,91.045065 81.098699,79.356885 V 55.980524 Z m 41.96133,0 -20.24486,11.688181 v 23.376361 l 20.24486,11.68818 20.24407,-11.68818 V 55.980524 Z m 62.80812,36.615873 -20.24433,11.688154 v 23.37636 l 20.24433,11.68819 20.24459,-11.68819 V 92.59637 Z M 60.85437,117.25689 40.609511,128.94507 v 23.37636 l 20.244859,11.68818 20.244329,-11.68818 v -23.37636 z"
       id="path1658-0"
       inkscape:export-xdpi="96"
       inkscape:export-ydpi="96" />
    <path
       inkscape:connector-curvature="0"
       style="fill:url(#radialGradient2419);fill-opacity:1;stroke-width:0.0548859"
       d="M 124.06492,8.1689657 103.82085,19.857146 v 23.376361 l 20.24407,11.688181 20.24486,-11.688181 V 19.857146 Z m 41.76659,0 -20.24432,11.6881803 v 23.376361 l 20.24432,11.688181 20.2446,-11.688181 V 19.857146 Z M 186.77117,44.454612 166.5271,56.142793 v 23.37636 l 20.24407,11.688154 20.24486,-11.688154 v -23.37636 z"
       id="path2369-1"
       inkscape:export-xdpi="96"
       inkscape:export-ydpi="96" />
  </g>
</svg>
