<?xml version="1.0" encoding="UTF-8" standalone="no"?>
<!-- Created with Inkscape (http://www.inkscape.org/) -->

<svg
   xmlns:dc="http://purl.org/dc/elements/1.1/"
   xmlns:cc="http://creativecommons.org/ns#"
   xmlns:rdf="http://www.w3.org/1999/02/22-rdf-syntax-ns#"
   xmlns:svg="http://www.w3.org/2000/svg"
   xmlns="http://www.w3.org/2000/svg"
   xmlns:sodipodi="http://sodipodi.sourceforge.net/DTD/sodipodi-0.dtd"
   xmlns:inkscape="http://www.inkscape.org/namespaces/inkscape"
   width="420mm"
   height="297mm"
   viewBox="0 0 420 297"
   version="1.1"
   id="svg1305"
   inkscape:version="0.92.3 (2405546, 2018-03-11)"
   sodipodi:docname="devops_parts.svg">
  <defs
     id="defs1299">
    <marker
       inkscape:isstock="true"
       style="overflow:visible"
       id="marker17439"
       refX="0"
       refY="0"
       orient="auto"
       inkscape:stockid="Arrow1Send">
      <path
         inkscape:connector-curvature="0"
         transform="matrix(-0.2,0,0,-0.2,-1.2,0)"
         style="fill:#3a4d61;fill-opacity:1;fill-rule:evenodd;stroke:#3a4d61;stroke-width:1.00000003pt;stroke-opacity:1"
         d="M 0,0 5,-5 -12.5,0 5,5 Z"
         id="path17437" />
    </marker>
    <marker
       inkscape:stockid="Arrow1Send"
       orient="auto"
       refY="0"
       refX="0"
       id="marker17575"
       style="overflow:visible"
       inkscape:isstock="true">
      <path
         inkscape:connector-curvature="0"
         id="path17573"
         d="M 0,0 5,-5 -12.5,0 5,5 Z"
         style="fill:#6b7b8c;fill-opacity:1;fill-rule:evenodd;stroke:#6b7b8c;stroke-width:1.00000003pt;stroke-opacity:1"
         transform="matrix(-0.2,0,0,-0.2,-1.2,0)" />
    </marker>
    <marker
       inkscape:isstock="true"
       style="overflow:visible"
       id="marker8180"
       refX="0"
       refY="0"
       orient="auto"
       inkscape:stockid="Arrow1Send">
      <path
         transform="matrix(-0.2,0,0,-0.2,-1.2,0)"
         style="fill:#394d61;fill-opacity:1;fill-rule:evenodd;stroke:#394d61;stroke-width:1.00000003pt;stroke-opacity:1"
         d="M 0,0 5,-5 -12.5,0 5,5 Z"
         id="path8178"
         inkscape:connector-curvature="0" />
    </marker>
    <marker
       inkscape:isstock="true"
       style="overflow:visible"
       id="marker8184"
       refX="0"
       refY="0"
       orient="auto"
       inkscape:stockid="Arrow1Send">
      <path
         transform="matrix(-0.2,0,0,-0.2,-1.2,0)"
         style="fill:#ef9d10;fill-opacity:1;fill-rule:evenodd;stroke:#ef9d10;stroke-width:1.00000003pt;stroke-opacity:1"
         d="M 0,0 5,-5 -12.5,0 5,5 Z"
         id="path8182"
         inkscape:connector-curvature="0" />
    </marker>
    <marker
       inkscape:stockid="Arrow1Mstart"
       orient="auto"
       refY="0"
       refX="0"
       id="marker3236-6-8-08-4"
       style="overflow:visible"
       inkscape:isstock="true">
      <path
         inkscape:connector-curvature="0"
         id="path3234-0-5-0-0"
         d="M 0,0 5,-5 -12.5,0 5,5 Z"
         style="fill:#3b4d61;fill-opacity:0.94117647;fill-rule:evenodd;stroke:#3b4d61;stroke-width:1.00000003pt;stroke-opacity:0.94117647"
         transform="matrix(0.4,0,0,0.4,4,0)" />
    </marker>
    <marker
       inkscape:stockid="Arrow1Mstart"
       orient="auto"
       refY="0"
       refX="0"
       id="marker3236-6-8-6-6"
       style="overflow:visible"
       inkscape:isstock="true">
      <path
         inkscape:connector-curvature="0"
         id="path3234-0-5-3-2"
         d="M 0,0 5,-5 -12.5,0 5,5 Z"
         style="fill:#3b4d61;fill-opacity:0.94117647;fill-rule:evenodd;stroke:#3b4d61;stroke-width:1.00000003pt;stroke-opacity:0.94117647"
         transform="matrix(0.4,0,0,0.4,4,0)" />
    </marker>
    <marker
       inkscape:isstock="true"
       style="overflow:visible"
       id="marker3351-9"
       refX="0"
       refY="0"
       orient="auto"
       inkscape:stockid="Arrow1Mstart">
      <path
         transform="matrix(0.4,0,0,0.4,4,0)"
         style="fill:#3b4d61;fill-opacity:0.94117647;fill-rule:evenodd;stroke:#3b4d61;stroke-width:1.00000003pt;stroke-opacity:0.94117647"
         d="M 0,0 5,-5 -12.5,0 5,5 Z"
         id="path3349-9"
         inkscape:connector-curvature="0" />
    </marker>
    <marker
       inkscape:stockid="Arrow1Mstart"
       orient="auto"
       refY="0"
       refX="0"
       id="marker3345-0"
       style="overflow:visible"
       inkscape:isstock="true"
       inkscape:collect="always">
      <path
         inkscape:connector-curvature="0"
         id="path3343-8"
         d="M 0,0 5,-5 -12.5,0 5,5 Z"
         style="fill:#3b4d61;fill-opacity:0.94117647;fill-rule:evenodd;stroke:#3b4d61;stroke-width:1.00000003pt;stroke-opacity:0.94117647"
         transform="matrix(0.4,0,0,0.4,4,0)" />
    </marker>
    <marker
       inkscape:isstock="true"
       style="overflow:visible"
       id="marker3339-1"
       refX="0"
       refY="0"
       orient="auto"
       inkscape:stockid="Arrow1Mstart"
       inkscape:collect="always">
      <path
         transform="matrix(0.4,0,0,0.4,4,0)"
         style="fill:#3b4d61;fill-opacity:0.94117647;fill-rule:evenodd;stroke:#3b4d61;stroke-width:1.00000003pt;stroke-opacity:0.94117647"
         d="M 0,0 5,-5 -12.5,0 5,5 Z"
         id="path3337-3"
         inkscape:connector-curvature="0" />
    </marker>
    <marker
       inkscape:stockid="Arrow1Mstart"
       orient="auto"
       refY="0"
       refX="0"
       id="marker3236-6-8-0-1"
       style="overflow:visible"
       inkscape:isstock="true"
       inkscape:collect="always">
      <path
         inkscape:connector-curvature="0"
         id="path3234-0-5-8-1"
         d="M 0,0 5,-5 -12.5,0 5,5 Z"
         style="fill:#3b4d61;fill-opacity:0.94117647;fill-rule:evenodd;stroke:#3b4d61;stroke-width:1.00000003pt;stroke-opacity:0.94117647"
         transform="matrix(0.4,0,0,0.4,4,0)" />
    </marker>
    <marker
       inkscape:stockid="Arrow1Mstart"
       orient="auto"
       refY="0"
       refX="0"
       id="marker3236-6-8-03"
       style="overflow:visible"
       inkscape:isstock="true">
      <path
         inkscape:connector-curvature="0"
         id="path3234-0-5-4"
         d="M 0,0 5,-5 -12.5,0 5,5 Z"
         style="fill:#3b4d61;fill-opacity:0.94117647;fill-rule:evenodd;stroke:#3b4d61;stroke-width:1.00000003pt;stroke-opacity:0.94117647"
         transform="matrix(0.4,0,0,0.4,4,0)" />
    </marker>
  </defs>
  <sodipodi:namedview
     id="base"
     pagecolor="#ffffff"
     bordercolor="#666666"
     borderopacity="1.0"
     inkscape:pageopacity="0.0"
     inkscape:pageshadow="2"
     inkscape:zoom="0.49497475"
     inkscape:cx="751.98249"
     inkscape:cy="354.99902"
     inkscape:document-units="mm"
     inkscape:current-layer="layer1"
     showgrid="false"
     inkscape:window-width="1920"
     inkscape:window-height="1017"
     inkscape:window-x="-8"
     inkscape:window-y="-8"
     inkscape:window-maximized="1"
     showguides="true"
     inkscape:guide-bbox="true"
     inkscape:snap-global="false">
    <sodipodi:guide
       position="186.01959,223.97186"
       orientation="1,0"
       id="guide4023"
       inkscape:locked="false" />
    <sodipodi:guide
       position="253.90605,143.79101"
       orientation="0,1"
       id="guide4025"
       inkscape:locked="false" />
  </sodipodi:namedview>
  <metadata
     id="metadata1302">
    <rdf:RDF>
      <cc:Work
         rdf:about="">
        <dc:format>image/svg+xml</dc:format>
        <dc:type
           rdf:resource="http://purl.org/dc/dcmitype/StillImage" />
        <dc:title />
      </cc:Work>
    </rdf:RDF>
  </metadata>
  <g
     inkscape:label="Layer 1"
     inkscape:groupmode="layer"
     id="layer1">
    <path
       transform="matrix(0.70457271,0,0,0.70457271,-11826.102,-875.7737)"
       sodipodi:nodetypes="cccccccccccccccccccccccccccccccccccccccccccccccccccccccccccccccccccccccccccccccccccccccccccccccccccccccccccccccccccccccccccccccccccccccscscccccccccccccccccccccccccccccccccccccccccccccccccccccccccccccccccccccccccccccccccccccccccccccccccccccccccccccccccccccccccccccccccccccccccccccccccccccccccccccccccccccccccccccccsccccccccccccccccccccccccccccccccccccccccccccccccccccccccccccccccccccccccccccccccccsccccccccccccccccccccccccccccccccccccccccccccccccccccccccccccccccccccccccccccccccccccccccccccccccccccccccccccccccccccccccccccccccccccccccscccccccccccccccccccccccccccscsccscccccscccccccccccccccccccccsccccccccccccccccccscccccsccscscccccccccccccccccccccccccccsccccsssssscsssccccccccccccccccccccccccccccccccccccccccccccccccccccccccccccccsccccsccccsccccccccccccccccccccccccccccccccccccccccccccccccccccccccccccccccccccccccccccccccccccccccccccccccccccaccccccccccccccccccccccccccccccccccccccccccccccccccccccccccccccccc"
       inkscape:connector-curvature="0"
       id="path17598-9"
       d="m 16895.564,1345.6061 v 3.2277 3.2303 l 3.274,2.2929 3.272,2.2955 h 336.807 l 3.276,-2.2929 3.274,-2.2924 v -2.8623 -2.8624 l -196.353,-0.049 -130.721,-0.049 -11.413,-0.3193 z m 10.33,12.5197 0.81,3.314 0.805,3.3135 2.988,3.314 3.006,3.314 h 11.533 11.523 l 2.943,2.9461 2.945,2.9455 v 2.8391 2.8397 l 2.317,2.3156 2.311,2.3156 h 11.75 11.747 l 3.612,-3.6158 3.613,-3.6163 v -4.5594 -4.5569 l -2.198,-4.257 -2.2,-4.2551 -3.286,-2.2986 -3.278,-2.298 h -30.465 z m 51.096,2.9915 h 4.584 v 9.3209 h -4.584 z m 6.693,11.8608 h 9.319 v 4.5853 h -9.319 z m -30.806,1.2971 -22.093,7.615 -22.096,7.6145 -1.395,1.2486 -1.406,1.2484 8.031,-0.029 8.025,-0.029 18.228,-6.5329 18.218,-6.536 0.706,-0.7049 0.704,-0.7074 -0.969,-1.5705 -0.97,-1.571 -2.495,-0.031 z m 7.642,7.862 -14.882,5.1899 -14.882,5.1925 -0.387,0.2645 -0.392,0.2646 0.932,2.4226 0.93,2.419 1.679,0.024 1.704,0.018 13.992,-4.7754 13.992,-4.7755 0.451,-0.2558 0.446,-0.2563 -1.792,-2.8649 z m -75.544,11.3373 -1.767,1.7663 -1.769,1.7663 v 3.3115 3.3078 l 8.108,5.3769 8.098,5.3764 v 1.9823 1.9818 l 3.271,2.2929 3.276,2.2955 h 0.817 0.817 l 3.282,-2.2955 3.271,-2.2929 v -1.7575 -1.7549 l 6.26,-3.8432 6.257,-3.8437 2.37,-0.8196 2.371,-0.8196 0.779,-2.975 0.779,-2.9745 -2.131,-3.0406 -2.131,-3.0407 h -20.983 z m 2.009,4.3181 h 9.323 v 4.5827 h -9.323 z m 27.979,0 h 9.319 v 4.5827 h -9.319 z m -14.457,14.7433 h 9.32 v 4.5827 h -9.32 z m 15.567,1.9534 -1.104,0.6268 -1.106,0.6242 v 2.5002 2.4995 l 19.517,6.7748 19.515,6.7748 0.395,0.2129 0.442,0.2129 1.246,-3.314 1.245,-3.314 -20.079,-6.8006 z m 50.142,12.3868 c -4.83,0 -8.741,3.918 -8.741,8.7483 0,4.8291 3.912,8.7439 8.741,8.7452 4.831,0 8.753,-3.9143 8.753,-8.7452 0,-4.8321 -3.921,-8.7495 -8.753,-8.7483 z m 0,2.2381 c 3.595,0 6.51,2.9146 6.508,6.5102 0,3.5944 -2.913,6.5076 -6.508,6.5071 -3.594,0 -6.507,-2.9127 -6.508,-6.5071 0,-3.5956 2.912,-6.5106 6.508,-6.5102 z m 0,1.5767 c -2.722,0 -4.925,2.2081 -4.927,4.9304 0,2.7235 2.203,4.9321 4.927,4.9336 2.726,0 4.939,-2.2083 4.937,-4.9336 0,-2.7241 -2.213,-4.9314 -4.937,-4.9304 z m -5.242,15.0709 v 5.2761 5.2788 l 1.047,1.0501 1.053,1.0495 6.429,-0.055 1.965,-2.2929 -0.04,-10.3068 h -5.222 z m -4.316,8.1008 -5.21,4.5713 -5.203,4.5707 v 4.0189 4.0215 l 0.941,0.941 0.94,0.9436 1.268,-0.7855 1.269,-0.7823 v -2.5833 -2.5834 l 4.26,-4.0793 4.252,-4.0788 0.987,1.5937 0.984,1.5937 h 1.448 1.464 l -2.65,-3.6365 -2.644,-3.6359 -1.053,-0.043 z m 18.94,0 -1.053,0.043 -1.052,0.046 -2.645,3.6364 -2.649,3.636 h 1.454 1.458 l 0.983,-1.5937 0.988,-1.5937 4.241,4.0762 4.271,4.0794 v 2.4251 2.4252 l 0.941,0.9405 0.94,0.9436 1.269,-0.7855 1.267,-0.7854 v -4.1765 -4.1801 l -5.202,-4.5713 z m -23.465,14.7257 v 10.3105 10.3099 h 13.995 13.99 v -10.3099 -10.3105 h -13.99 z m 25.225,23.8745 -5.013,2.6929 -5.023,2.6898 -2.687,5.0198 -2.695,5.0168 v 4.4648 4.4648 l 2.578,4.7925 2.577,4.7925 4.419,2.9058 4.422,2.9083 39.396,0.015 39.4,0.015 v -2.2097 -2.2092 h -38.998 -39.01 l -4.811,-4.2979 -4.818,-4.2974 v -6.8699 -6.8693 l 4.818,-4.2979 4.811,-4.298 h 122.889 122.894 l 3.864,1.7606 3.863,1.7576 2.1,4.0591 2.089,4.0592 v 3.6851 3.6876 l -1.597,3.5068 -1.596,3.5098 -4.146,2.451 -4.154,2.4536 h -38.56 -38.567 l 0.615,1.8413 0.613,1.8412 38.573,0.3912 38.569,0.3938 4.459,-2.3043 4.457,-2.3068 2.867,-4.715 2.886,-4.7149 v -5.595 -5.5982 l -2.285,-4.41 -2.281,-4.4101 -4.716,-2.8768 -4.714,-2.8737 H 17081.1 Z m 79.568,6.6255 -0.391,31.5629 -0.391,31.5603 1.818,1.1225 1.813,1.1188 40.556,0.052 h 0.03 l 40.559,0.051 1.81,-1.1302 1.809,-1.1337 0.165,-30.6369 0.169,-32.366 z m -74.932,0.5581 c -0.88,0.1431 -1.726,0.3745 -2.539,0.6826 v 3.0505 c -0.445,0.2205 -0.931,0.4734 -1.359,0.771 l -2.61,-1.5637 c -0.679,0.5506 -1.297,1.1778 -1.859,1.8608 v 0.017 0.011 l 1.558,2.5895 c -0.167,0.2166 -0.278,0.4418 -0.389,0.6729 v 0.011 c -0.112,0.2221 -0.279,0.4498 -0.391,0.6842 l -3.034,-0.056 v 0.011 c -0.334,0.8281 -0.556,1.6747 -0.695,2.5471 l 2.672,1.4728 v 1.5653 l -2.655,1.48 c 0.167,0.8601 0.333,1.7095 0.678,2.544 v 0.011 l 1.571,-0.033 1.463,-0.017 c 0.112,0.2299 0.224,0.4612 0.335,0.6899 0.06,0.1542 0.167,0.2961 0.278,0.4403 0,0.073 0.06,0.1483 0.167,0.2201 l -1.565,2.6045 v 0.011 0.011 c 0.562,0.6829 1.181,1.3104 1.866,1.8722 l 2.605,-1.5751 c 0.39,0.2733 0.818,0.5072 1.247,0.723 0,0.017 0.06,0.039 0.111,0.059 v 0.2852 2.7642 c 0.819,0.3012 1.682,0.5306 2.549,0.6759 l 1.482,-2.6567 c 0.06,0.011 0.167,-1e-4 0.223,0.011 0.167,0.011 0.333,0.033 0.555,0.033 0.279,0 0.558,-0.017 0.786,-0.044 l 1.474,2.665 c 0.88,-0.143 1.738,-0.374 2.556,-0.6827 v -2.2386 -0.801 c 0.446,-0.2316 0.925,-0.4857 1.364,-0.7823 l 2.611,1.575 c 0.674,-0.5617 1.297,-1.1899 1.859,-1.8722 v -0.017 -0.011 l -1.554,-2.5895 c 0.167,-0.2193 0.28,-0.4473 0.391,-0.6811 v -0.017 c 0.111,-0.2188 0.278,-0.4394 0.334,-0.6636 l 3.022,0.056 v -0.011 c 0.335,-0.828 0.557,-1.6853 0.68,-2.5425 l -1.559,-0.8785 -1.085,-0.5989 v -0.7803 -0.7819 l 2.671,-1.4759 c -0.167,-0.8812 -0.389,-1.7401 -0.69,-2.5548 l -3.033,0.056 c -0.223,-0.4738 -0.502,-0.9358 -0.775,-1.3658 l 0.684,-1.1452 0.881,-1.4604 c -0.278,-0.3234 -0.557,-0.6332 -0.841,-0.9296 v -0.05 c -0.334,-0.3112 -0.64,-0.6055 -0.974,-0.8811 l -1.542,0.9136 v 0.017 l -1.07,0.6362 c -0.445,-0.29 -0.873,-0.5645 -1.34,-0.7876 v -3.0422 c -0.825,-0.3162 -1.67,-0.5368 -2.545,-0.6816 l -0.05,-0.029 -1.474,2.6598 c -0.501,-0.045 -1.041,-0.017 -1.57,0.017 l -1.48,-2.6696 z m 235.781,0 v 0.011 l -1.481,2.6696 c -0.529,-0.034 -1.069,-0.062 -1.57,-0.017 l -1.475,-2.6598 -0.05,0.029 c -0.874,0.1448 -1.72,0.3654 -2.544,0.6816 v 3.0422 c -0.467,0.2231 -0.896,0.4975 -1.341,0.7875 l -1.069,-0.6361 v -0.017 l -1.543,-0.9137 c -0.334,0.2756 -0.64,0.5699 -0.973,0.8811 v 0.05 c -0.285,0.2964 -0.562,0.6063 -0.841,0.9297 l 0.88,1.4604 0.683,1.1451 c -0.272,0.43 -0.55,0.892 -0.772,1.3658 l -3.034,-0.056 c -0.301,0.8148 -0.525,1.6737 -0.691,2.5549 l 2.673,1.4759 v 0.7818 0.7803 l -1.087,0.599 -1.558,0.8785 c 0.123,0.8572 0.345,1.7144 0.678,2.5424 v 0.011 l 3.024,-0.056 c 0.06,0.2242 0.223,0.4447 0.334,0.6635 v 0.017 c 0.112,0.2338 0.223,0.4618 0.39,0.6811 l -1.553,2.5895 v 0.011 0.017 c 0.562,0.6823 1.184,1.3104 1.858,1.8722 l 2.612,-1.5751 c 0.44,0.2966 0.918,0.5508 1.364,0.7824 v 0.801 2.2386 c 0.818,0.3086 1.675,0.5396 2.555,0.6826 l 1.475,-2.6649 c 0.228,0.027 0.507,0.044 0.785,0.044 0.223,0 0.39,-0.022 0.557,-0.033 0.06,-0.011 0.161,2e-4 0.221,-0.011 l 1.482,2.6567 c 0.869,-0.1453 1.731,-0.3748 2.55,-0.676 v -2.7641 -0.2853 c 0.05,-0.02 0.111,-0.042 0.111,-0.059 0.429,-0.2157 0.857,-0.4497 1.247,-0.7229 l 2.605,1.5751 c 0.685,-0.5618 1.303,-1.1893 1.865,-1.8723 v -0.011 -0.011 l -1.564,-2.6045 c 0.106,-0.072 0.167,-0.1471 0.167,-0.2201 0.111,-0.1443 0.218,-0.2861 0.278,-0.4403 0.112,-0.2287 0.223,-0.46 0.334,-0.6899 l 1.464,0.017 1.57,0.033 v -0.011 c 0.345,-0.8345 0.512,-1.684 0.679,-2.5441 l -2.656,-1.48 v -1.5653 l 2.673,-1.4727 c -0.139,-0.8725 -0.362,-1.7191 -0.696,-2.5472 v -0.011 l -3.034,0.056 c -0.111,-0.2344 -0.278,-0.4621 -0.389,-0.6842 v -0.011 c -0.112,-0.2311 -0.224,-0.4563 -0.39,-0.6728 l 1.559,-2.5895 v -0.011 -0.017 c -0.563,-0.683 -1.181,-1.3103 -1.86,-1.8609 l -2.611,1.5638 c -0.428,-0.2976 -0.913,-0.5506 -1.359,-0.7711 v -3.0504 c -0.813,-0.3081 -1.658,-0.5396 -2.537,-0.6827 z m -157.152,3.1269 h 39.768 39.771 v 24.3024 24.3024 h -39.771 -39.768 v -24.3024 z m -37.92,1.2563 -0.111,0.1085 -0.735,2.1745 -1.481,0.5592 -2.472,-1.1881 -1.502,1.4919 0.111,0.2806 1.091,2.1281 -0.607,1.4665 -2.583,0.9297 v 2.1301 l 0.334,0.09 2.272,0.7519 0.612,1.4676 -1.163,2.4707 1.502,1.5219 0.279,-0.1437 2.132,-1.0919 1.469,0.6082 0.936,2.5797 h 2.126 l 0.112,-0.3044 0.757,-2.2738 1.447,-0.6087 2.489,1.1643 1.503,-1.5043 -0.112,-0.2863 -1.091,-2.1301 0.446,-1.4862 2.365,-0.9137 v -2.1306 l -0.111,-0.1085 -2.177,-0.7343 -0.562,-1.4681 1.08,-2.2382 0.11,-0.2511 -0.678,-0.6801 -0.813,-0.8242 -0.333,0.1437 -2.132,1.0919 -1.465,-0.4114 -0.93,-2.3812 z m 152.246,0 -0.929,2.3812 -1.464,0.4114 -2.132,-1.0919 -0.334,-0.1437 -0.813,0.8242 -0.679,0.6801 0.111,0.2511 1.08,2.2382 -0.562,1.4681 -2.177,0.7343 -0.111,0.1085 v 2.1306 l 2.366,0.9137 0.445,1.4862 -1.091,2.1301 -0.111,0.2863 1.503,1.5043 2.488,-1.1643 1.447,0.6087 0.757,2.2738 0.112,0.3044 h 2.126 l 0.936,-2.5797 1.469,-0.6082 2.131,1.0919 0.279,0.1437 1.504,-1.5219 -1.165,-2.4707 0.613,-1.4676 2.272,-0.7519 0.333,-0.09 v -2.1301 l -2.582,-0.9297 -0.607,-1.4665 1.091,-2.1281 0.111,-0.2806 -1.503,-1.4919 -2.472,1.1881 -1.48,-0.5592 -0.735,-2.1745 -0.112,-0.1085 z m -190.502,0.7519 c 1.822,0.043 3.591,0.6864 5.028,1.8329 0.167,0.1531 0.39,0.3114 0.557,0.4801 0,0.028 0.06,0.05 0.06,0.079 1.565,1.5281 2.533,3.654 2.533,6.0146 0,0.5105 0,1.0078 -0.167,1.4934 0,0.1163 0,0.2331 -0.06,0.3478 0,0.1436 -0.06,0.285 -0.113,0.4253 0,0.162 -0.05,0.322 -0.166,0.4806 0,0.1119 -0.06,0.2221 -0.111,0.3318 -0.06,0.1926 -0.167,0.3818 -0.223,0.5684 0,0.073 -0.05,0.1453 -0.111,0.216 -0.167,0.2572 -0.278,0.5091 -0.445,0.7519 v 0.011 c -0.334,0.5283 -0.763,1.0206 -1.23,1.466 -0.446,0.4453 -1.002,0.8437 -1.587,1.1824 -2.266,1.3071 -4.882,1.4457 -7.149,0.6004 -0.222,-0.088 -0.445,-0.188 -0.696,-0.296 0,-0.017 -0.06,-0.033 -0.06,-0.045 -0.167,-0.093 -0.39,-0.1954 -0.557,-0.3028 -0.06,-0.039 -0.112,-0.08 -0.168,-0.121 -0.167,-0.094 -0.334,-0.1951 -0.444,-0.2986 -0.06,-0.064 -0.168,-0.1281 -0.28,-0.1954 -0.11,-0.089 -0.222,-0.1858 -0.334,-0.2816 -0.111,-0.092 -0.221,-0.1857 -0.333,-0.2837 -0.06,-0.08 -0.167,-0.1635 -0.222,-0.2475 -0.112,-0.1175 -0.223,-0.2372 -0.334,-0.3607 -0.06,-0.087 -0.168,-0.177 -0.224,-0.2672 -0.06,-0.1214 -0.167,-0.2436 -0.277,-0.3705 -0.06,-0.108 -0.167,-0.2214 -0.223,-0.3344 -0.06,-0.1241 -0.167,-0.2476 -0.223,-0.3762 -0.06,-0.108 -0.111,-0.2179 -0.167,-0.3276 -0.06,-0.1442 -0.168,-0.2876 -0.168,-0.4362 0,-0.082 -0.06,-0.1651 -0.06,-0.247 -0.06,-0.1787 -0.167,-0.3572 -0.167,-0.5421 v -0.171 c -0.06,-0.2165 -0.112,-0.4346 -0.167,-0.6579 v -0.064 c 0,-0.25 -0.06,-0.5038 -0.112,-0.7612 v -0.096 -0.7556 -0.1307 -0.6304 -0.244 c 0,-0.1642 0,-0.3279 0.06,-0.4888 0,-0.1586 0.06,-0.3149 0.111,-0.4718 0,-0.09 0,-0.1833 0.06,-0.2723 0.06,-0.2489 0.166,-0.4962 0.223,-0.738 0.06,-0.2394 0.167,-0.4725 0.334,-0.7033 0,-0.1069 0.111,-0.2086 0.167,-0.3127 0.06,-0.1186 0.111,-0.2382 0.167,-0.3534 0.06,-0.1225 0.166,-0.2406 0.221,-0.3592 0.06,-0.089 0.113,-0.1777 0.168,-0.2646 0.06,-0.1331 0.167,-0.2618 0.334,-0.388 0,-0.063 0.112,-0.1279 0.167,-0.1902 0.112,-0.1308 0.223,-0.2579 0.333,-0.3814 0,-0.056 0.113,-0.1108 0.168,-0.1648 0.112,-0.1208 0.278,-0.238 0.389,-0.3499 0.06,-0.05 0.112,-0.099 0.224,-0.1473 0.167,-0.1136 0.277,-0.2266 0.444,-0.3307 0,-0.017 0,-0.033 0.06,-0.05 0.974,-0.6641 2.098,-1.1311 3.306,-1.3395 v -0.011 c 0.487,-0.084 0.974,-0.1234 1.462,-0.1204 z m 230.872,0 c 0.488,0 0.975,0.037 1.462,0.1204 v 0.011 c 1.208,0.2084 2.332,0.6754 3.306,1.3395 0.06,0.017 0.06,0.033 0.06,0.05 0.167,0.1041 0.28,0.2171 0.447,0.3307 0.11,0.048 0.162,0.097 0.222,0.1473 0.112,0.1119 0.278,0.2291 0.389,0.3499 0.06,0.054 0.168,0.1088 0.168,0.1648 0.111,0.1235 0.223,0.2506 0.334,0.3814 0.06,0.062 0.167,0.1272 0.167,0.1902 0.167,0.1262 0.274,0.2549 0.334,0.388 0.06,0.087 0.106,0.1756 0.166,0.2646 0.06,0.1186 0.163,0.2367 0.224,0.3592 0.06,0.1152 0.106,0.2348 0.166,0.3534 0.06,0.1041 0.168,0.2058 0.168,0.3127 0.167,0.2308 0.274,0.4639 0.334,0.7033 0.06,0.2418 0.162,0.4891 0.221,0.738 0.06,0.089 0.06,0.1823 0.06,0.2723 0.05,0.1569 0.111,0.3132 0.111,0.4718 0.06,0.1609 0.06,0.3246 0.06,0.4888 v 0.244 0.6304 0.1307 0.7556 0.096 c -0.05,0.2574 -0.11,0.5111 -0.11,0.7611 v 0.064 c -0.06,0.2233 -0.107,0.4415 -0.167,0.6579 v 0.171 c 0,0.185 -0.107,0.3634 -0.167,0.5421 0,0.082 -0.06,0.1651 -0.06,0.2471 0,0.1486 -0.107,0.2919 -0.167,0.4362 -0.06,0.1096 -0.106,0.2195 -0.166,0.3275 -0.06,0.1287 -0.163,0.2521 -0.223,0.3762 -0.06,0.1131 -0.162,0.2264 -0.222,0.3344 -0.112,0.127 -0.219,0.2491 -0.279,0.3706 -0.05,0.09 -0.163,0.1801 -0.223,0.2672 -0.112,0.1234 -0.222,0.2431 -0.333,0.3606 -0.06,0.084 -0.163,0.1675 -0.224,0.2476 -0.111,0.098 -0.222,0.1916 -0.333,0.2836 -0.111,0.096 -0.223,0.1927 -0.335,0.2816 -0.11,0.067 -0.217,0.1314 -0.277,0.1954 -0.112,0.1035 -0.279,0.2046 -0.446,0.2986 -0.06,0.041 -0.107,0.082 -0.167,0.121 -0.167,0.1074 -0.39,0.2099 -0.557,0.3028 0,0.012 -0.06,0.028 -0.06,0.045 -0.251,0.108 -0.474,0.208 -0.697,0.296 -2.266,0.8454 -4.881,0.7068 -7.147,-0.6004 -0.584,-0.3387 -1.141,-0.7371 -1.586,-1.1824 -0.468,-0.4454 -0.898,-0.9376 -1.232,-1.466 v -0.011 c -0.167,-0.2428 -0.277,-0.4947 -0.444,-0.7519 -0.05,-0.071 -0.111,-0.143 -0.111,-0.216 -0.06,-0.1866 -0.163,-0.3758 -0.223,-0.5684 -0.05,-0.1097 -0.111,-0.2199 -0.111,-0.3318 -0.107,-0.1586 -0.167,-0.3186 -0.167,-0.4806 -0.05,-0.1403 -0.113,-0.2817 -0.113,-0.4253 -0.06,-0.1147 -0.06,-0.2315 -0.06,-0.3478 -0.167,-0.4856 -0.167,-0.9829 -0.167,-1.4934 0,-2.3606 0.968,-4.4865 2.533,-6.0146 0,-0.029 0.06,-0.051 0.06,-0.079 0.167,-0.1687 0.39,-0.327 0.557,-0.4801 1.438,-1.1463 3.205,-1.7894 5.026,-1.8329 z m -191.463,5.2301 c 1.648,0 2.972,1.3433 2.972,2.99 0,1.6467 -1.324,2.99 -2.972,2.99 -1.642,0 -2.99,-1.3433 -2.99,-2.99 0,-1.6467 1.348,-2.99 2.99,-2.99 z m 152.056,0 c 1.643,0 2.99,1.3433 2.99,2.99 0,1.6467 -1.347,2.99 -2.99,2.99 -1.647,0 -2.973,-1.3433 -2.973,-2.99 0,-1.6467 1.326,-2.99 2.973,-2.99 z m 43.801,23.6399 -36.085,0.3943 -36.089,0.3943 v 1.4728 1.4728 l 33.879,0.3943 33.88,0.3968 v 42.659 h -113.929 -115.863 v -42.7137 h 34.61 34.616 v -2.2092 -2.2092 h -36.825 -36.819 v 25.7752 25.7757 h 119.3 119.303 z m -72.558,5.8658 0.152,24.7887 66.499,0.1002 0.09,-24.8661 z m -92.36,0.024 -33.281,0.3938 -33.285,0.3968 0.06,11.4148 0.06,11.4148 0.04,0.5153 0.06,0.5177 33.139,0.1148 h 0.06 l 33.14,0.1152 v -12.4421 z m 96.317,4.0643 h 12.552 v 6.1733 h -12.552 z m 15.538,0 h 12.553 v 6.1733 h -12.553 z m 15.54,0 h 12.557 v 6.1733 h -12.557 z m 15.532,0 h 12.556 v 6.1733 h -12.556 z m -195.94,0.2646 c 4.211,0 7.624,3.4148 7.625,7.6264 0,4.2125 -3.413,7.6281 -7.625,7.629 -4.214,0 -7.628,-3.4159 -7.628,-7.629 0,-4.2122 3.415,-7.6264 7.628,-7.6264 z m 19.729,0 c 4.211,0 7.625,3.4148 7.627,7.6264 0,4.2125 -3.415,7.6281 -7.627,7.629 -4.214,0 -7.63,-3.4153 -7.63,-7.629 0,-4.2128 3.418,-7.6272 7.63,-7.6264 z m 19.326,0 c 4.211,0 7.625,3.4148 7.626,7.6264 0,4.2125 -3.414,7.6281 -7.626,7.629 -4.214,0 -7.631,-3.4153 -7.631,-7.629 0,-4.2128 3.418,-7.6272 7.631,-7.6264 z m -1.588,0.8806 v 13.4142 h 3.576 v -13.4142 z m -14.289,0.8542 -9.485,9.4847 2.529,2.5285 9.481,-9.4842 z m -30.051,4.2204 v 3.5755 h 13.415 v -3.5755 z m 156.203,4.4328 h 12.552 v 6.1764 h -12.552 z m 15.538,0 h 12.553 v 6.1764 h -12.553 z m 15.54,0 h 12.557 v 6.1764 h -12.557 z m 15.532,0 h 12.556 v 6.1764 h -12.556 z m -209.282,11.2453 v 6.596 h 13.413 v -6.596 z m 14.974,0 v 6.596 h 13.41 v -6.596 z m 14.97,0 v 6.596 h 13.414 v -6.596 z m 14.967,0 v 6.596 h 13.405 v -6.596 z m 14.488,0 v 6.596 h 13.413 v -6.596 z m 14.97,0 v 6.596 h 13.408 v -6.596 z m 62.326,0 v 6.596 h 13.415 v -6.596 z m 14.971,0 v 6.596 h 13.418 v -6.596 z m 14.97,0 v 6.596 h 13.418 v -6.596 z m 14.972,0 v 6.596 h 13.41 v -6.596 z m 14.483,0 v 6.596 h 13.417 v -6.596 z m 14.974,0 v 6.596 h 13.414 v -6.596 z m -109.104,0.601 -1.796,5.7304 -9.082,7.5256 h 20.744 20.696 l -7.599,-7.3788 -1.896,-5.8772 h -11.265 z m -101.961,7.0425 v 6.5959 h 13.413 v -6.5959 z m 14.974,0 v 6.5959 h 13.41 v -6.5959 z m 14.97,0 v 6.5959 h 13.414 v -6.5959 z m 14.967,0 v 6.5959 h 13.405 v -6.5959 z m 14.488,0 v 6.5959 h 13.413 v -6.5959 z m 14.97,0 v 6.5959 h 13.408 v -6.5959 z m 62.326,0 v 6.5959 h 13.415 v -6.5959 z m 14.971,0 v 6.5959 h 13.418 v -6.5959 z m 14.97,0 v 6.5959 h 13.418 v -6.5959 z m 14.972,0 v 6.5959 h 13.41 v -6.5959 z m 14.483,0 v 6.5959 h 13.417 v -6.5959 z m 14.974,0 v 6.5959 h 13.414 v -6.5959 z"
       style="fill:#6b7b8c;fill-opacity:0.94117647;stroke-width:1.41929984" />
    <rect
       transform="matrix(0.70457271,0,0,0.70457271,-11826.102,-875.7737)"
       y="1471.8153"
       x="17034.244"
       height="20.670572"
       width="28.111979"
       id="rect17602-3"
       style="opacity:1;vector-effect:none;fill:#ef9d10;fill-opacity:0.94117647;fill-rule:evenodd;stroke:none;stroke-width:1.32515264;stroke-linecap:butt;stroke-linejoin:miter;stroke-miterlimit:4;stroke-dasharray:none;stroke-dashoffset:0;stroke-opacity:1" />
    <rect
       transform="matrix(0.70457271,0,0,0.70457271,-11826.102,-875.7737)"
       style="opacity:1;vector-effect:none;fill:#ef9d10;fill-opacity:0.94117647;fill-rule:evenodd;stroke:none;stroke-width:1.32515264;stroke-linecap:butt;stroke-linejoin:miter;stroke-miterlimit:4;stroke-dasharray:none;stroke-dashoffset:0;stroke-opacity:1"
       id="rect17604-8"
       width="28.111979"
       height="20.670572"
       x="17126.848"
       y="1471.8153" />
    <rect
       transform="matrix(0.60018128,0.36905977,-0.36905977,0.60018128,-11826.102,-875.7737)"
       y="-7761.1138"
       x="15437.343"
       height="20.670572"
       width="28.111979"
       id="rect17606-0"
       style="opacity:1;vector-effect:none;fill:#ef9d10;fill-opacity:0.94117647;fill-rule:evenodd;stroke:none;stroke-width:1.32515264;stroke-linecap:butt;stroke-linejoin:miter;stroke-miterlimit:4;stroke-dasharray:none;stroke-dashoffset:0;stroke-opacity:1" />
    <path
       transform="matrix(0.1864182,0,0,0.1864182,-11826.102,-875.7737)"
       style="fill:#ef9d10;fill-opacity:0.94117647;stroke-width:5.36428356"
       d="m 65160.582,5782.998 c -2.608,-0.1096 -5.412,0.7606 -8.152,1.2852 l -110.153,21.168 -7.121,1.3945 c -5.688,0.9747 -7.193,3.5182 -1.554,6.9395 9.581,7.7635 18.892,15.8796 27.691,24.5117 -7.378,11.1008 -14.751,22.2023 -22.129,33.3047 -1.44,3.0803 -4.46,5.8459 -5.998,8.9062 -2.124,4.3245 -10e-4,7.2717 4.772,8.2227 37.613,13.1614 75.109,26.6481 112.734,39.7929 3.186,1.1131 4.265,1.1458 6.351,-2.125 7.926,-10.165 13.638,-21.8685 20.608,-32.6972 1.678,-3.8344 4.876,-7.246 6.826,-11.0039 1.417,-2.7561 2.076,-5.3496 0.549,-6.8985 -2.748,-1.7816 -6.183,-1.8353 -9.426,-3.0976 -35.75,-10.5355 -70.239,-23.0677 -105.328,-33.8457 l 122.436,-32.0684 2.224,45.3184 2.617,-45.3282 124.2,32.9122 c -29.809,9.129 -73.802,22.6246 -116.627,35.6152 -1.399,0.805 -2.166,2.1023 -1.399,4.5254 7.022,14.0073 17.14,29.9797 25.674,45.5683 3.058,5.5956 4.538,8.8834 11.625,5.9161 3.069,-1.0341 6.132,-2.408 9.492,-3.6583 32.738,-12.6798 65.574,-25.1187 98.358,-37.7011 3.828,-2.2265 10.84,-1.5827 8.818,-7.7754 -9.853,-14.5126 -19.441,-29.2443 -29.389,-43.6602 7.616,-8.0371 16.496,-14.6977 24.811,-21.9707 1.557,-1.3614 3.089,-2.4056 4.34,-3.6914 2.948,-3.0731 2.485,-5.0437 -2.133,-6.125 -2.317,-0.5915 -4.955,-1.0037 -6.338,-1.291 -37.875,-6.7616 -75.598,-14.4012 -113.42,-21.4844 -3.311,-0.6187 -6.069,-1.3133 -8.877,-0.1484 -2.211,1.1614 -4.115,2.8204 -6.432,4.1269 -8.088,5.1183 -16.394,10.3713 -24.502,16.3418 l -1.968,-1.1386 c -9.593,-5.0627 -20.316,-13.361 -30.649,-19.6543 -0.816,-0.3024 -1.662,-0.4497 -2.531,-0.4864 z m 35.293,93.3067 0.791,143.2363 c 42.58,-12.3477 82.25,-31.527 125.775,-47.0351 l -1.804,-68.0547 -83.883,32.4043 c -1.954,0.7067 -3.81,0.7903 -5.359,-1.002 -11.384,-20.0205 -21.362,-41.3734 -35.52,-59.5488 z m -4.061,0.1953 c -11.403,20.4373 -23.097,37.8425 -36.066,57.6602 -3.428,-1.1677 -6.854,-2.3471 -10.279,-3.5332 l -21.496,20.9668 -23.02,22.4589 -12.726,-4.4629 c -6.995,-2.4525 -12.723,-4.4618 -12.721,-4.4941 0.03,-0.062 7.949,-6.1629 17.646,-13.6602 l 17.676,-13.6562 18.434,-4.7383 c 7.309,-1.8773 10.341,-2.6493 13.338,-3.4121 -24.84,-8.6381 -49.72,-17.7451 -75.723,-27.1992 l 0.01,0.2773 c -0.01,-0.01 -0.08,-0.031 -0.09,-0.035 0,0 0.118,0.7867 0.121,0.8047 l 3.412,73.0683 121.703,42.9453 z m 105.581,41.3984 1.273,0.2461 1.258,0.2461 1.679,1.1133 1.674,1.1113 0.725,1.3164 0.725,1.3164 0.189,1.1758 0.187,1.1758 0.815,-0.4531 0.814,-0.4531 2.606,-1.002 2.609,-1.0039 1.565,-0.2578 1.547,-0.2559 1.197,0.1094 1.178,0.1133 0.484,0.25 0.486,0.248 -0.519,1.2598 -0.524,1.2637 -0.826,1.3906 -0.828,1.3906 -1.397,1.6348 -1.392,1.6348 -1.252,1.1152 -1.238,1.1152 -1.92,1.2969 -1.924,1.2969 -2.268,0.9902 -2.261,0.9902 -1.047,2.3731 -1.047,2.373 -1.572,3.1172 -1.571,3.1172 -1.455,2.4824 -1.459,2.4825 -1.445,2.1777 -1.441,2.1777 -2.663,3.3731 -2.669,3.375 -2.385,2.4961 -2.389,2.498 -2.312,2.1055 -2.305,2.1035 -2.402,1.8672 -2.405,1.8672 -2.285,1.5664 -2.283,1.5683 -2.443,1.4746 -2.436,1.4727 -3.156,1.6484 -3.157,1.6485 -5.173,2.0722 -5.17,2.0703 -2.135,0.629 -2.137,0.6308 -2.166,0.4863 -2.166,0.4864 -1.804,0.2656 -1.815,0.2637 -1.826,0.076 -1.828,0.076 -1.414,-0.2168 -1.418,-0.2148 -1.563,-0.5918 -1.558,-0.5899 -1.301,-1.1308 -1.295,-1.1289 -0.863,-1.1797 -0.85,-1.1797 -0.783,-1.6953 -0.776,-1.6934 -0.587,-2.3828 -0.59,-2.3848 -0.229,-2.3808 -0.224,-2.3809 0.07,-2.6562 0.08,-2.6563 0.482,-0.9277 0.493,-0.9297 0.695,-0.7168 0.699,-0.7168 35.401,-13.7305 35.41,-13.7304 1.992,-1.334 1.998,-1.3379 0.303,-0.3164 0.263,-0.3184 -0.504,-0.8691 -0.502,-0.8692 -0.3,-1.164 -0.303,-1.166 0.187,-2.2266 0.192,-2.2285 0.656,-1.9668 0.652,-1.9668 1.202,-2.3438 1.197,-2.3437 0.492,-0.5664 z m -22.954,6.627 -0.337,4.3418 -0.303,4.3457 -5,1.9609 -4.942,1.959 -0.3,-0.1621 -0.303,-0.166 0.303,-3.9082 0.3,-3.9082 0.268,-0.3555 0.264,-0.3555 5.027,-1.875 z m -12.519,4.7988 -0.301,4.3438 -0.305,4.3418 -5.017,1.9765 -5,1.9805 -0.113,-0.2402 -0.116,-0.2422 0.377,-4.1367 0.381,-4.1368 5.049,-1.9433 z m 23.301,1.2969 0.443,0.057 0.434,0.057 -0.34,4.2031 -0.303,4.1973 -0.383,0.2773 -0.386,0.2754 -4.618,1.7969 -4.672,1.7968 -0.224,-0.3359 -0.229,-0.3379 0.305,-3.7851 0.264,-3.7852 0.386,-0.4922 0.401,-0.4922 4.463,-1.7148 z m -35.655,3.4941 -0.298,4.3438 -0.342,4.3437 -5.162,2.0059 -5.088,2.0137 -0.153,-0.2969 -0.111,-0.2988 0.303,-3.8243 0.262,-3.8222 0.267,-0.3555 0.264,-0.3555 5.027,-1.875 z m -98.982,0.1465 c 0,-0.042 7.082,15.7162 17.094,38.1602 l 17.17,38.5078 0.113,0.291 -42.734,-14.9902 -42.743,-14.9922 26.571,5.5976 v -0.017 l 26.83,5.6523 0.265,0.053 -11.097,-16.9043 c -3.723,-5.6465 -7.418,-11.3002 -11.086,-16.9609 0,-0.072 19.523,-24.3213 19.621,-24.3965 z m 122.168,1.1563 0.432,0.057 0.445,0.057 -0.301,4.0665 -0.305,4.0683 -0.3,0.375 -0.266,0.375 -4.705,1.8086 -4.717,1.8184 -0.305,-0.1563 -0.261,-0.1543 0.261,-3.9492 0.305,-3.9473 0.401,-0.4921 0.39,-0.4922 4.459,-1.7168 z m -12.233,4.7402 0.383,0.123 0.377,0.125 -0.377,4.2559 -0.383,4.2539 -4.996,1.9629 -4.945,1.9649 -0.113,-0.09 -0.113,-0.092 0.3,-4.2793 0.305,-4.2851 0.385,-0.2793 0.381,-0.2754 4.4,-1.6934 z m -12.615,4.8398 0.436,0.057 0.433,0.057 -0.3,4.0684 -0.303,4.0683 -0.301,0.375 -0.305,0.375 -4.712,1.8086 -4.719,1.8164 -0.303,-0.1542 -0.268,-0.1543 0.305,-4.0684 0.34,-4.0684 0.469,-0.4062 0.467,-0.4063 4.384,-1.6836 z m -12.033,4.668 0.266,0.064 0.3,0.062 -0.384,4.3535 -0.385,4.3496 -5.045,1.9668 -4.951,1.9629 -0.113,-0.09 -0.116,-0.092 0.303,-4.1503 0.34,-4.1504 0.303,-0.3731 0.3,-0.3711 4.588,-1.7676 z"
       id="path17608-5"
       inkscape:connector-curvature="0"
       sodipodi:nodetypes="ccccccccccccccccccccccccccccccccccccccccccccccccccccccccccccccccccccccccccccccccccccccccccccccccccccccccccccccccccccccccccccccccccccccccccccccccccccccccccccccccccccccccccccccccccccccccccccccccccccccccccccccccccccccccccccccccccccccccccccccccccccccccccccccccccccccccccccccccccccccccccccccccccccccccc" />
    <path
       transform="matrix(0.70457271,0,0,0.70457271,-11826.102,-875.7737)"
       inkscape:connector-curvature="0"
       id="path17618-0"
       d="m 16906.893,1586.5216 -28.753,0.024 v -3.513 -3.513 h 1.828 1.831 v -7.4104 -7.4105 h 5.656 5.657 l 0.114,-1.0827 0.113,-1.0827 0.242,-0.8964 0.24,-0.8965 0.298,-0.7142 0.297,-0.7143 0.473,-0.7856 0.472,-0.7858 0.381,-0.4928 0.379,-0.4928 0.691,-0.6988 0.694,-0.6989 0.78,-0.5837 0.781,-0.5839 1.059,-0.513 1.059,-0.513 0.6,-0.1744 0.603,-0.1742 v -0.072 -0.072 l -0.762,-1.6601 -0.759,-1.6601 -0.984,-2.1655 -0.985,-2.1654 -0.334,-0.7218 -0.335,-0.7218 -0.07,-0.1925 -0.08,-0.1924 -1.058,-2.3098 -1.057,-2.3098 -0.937,-2.0691 -0.939,-2.0692 -0.31,-0.6736 -0.309,-0.6737 -1.235,-2.7201 -1.235,-2.7203 -0.199,0.064 -0.201,0.064 -0.991,0.4672 -0.992,0.4674 h -0.08 -0.08 l -0.269,-0.6016 -0.266,-0.6015 -0.275,-0.6014 -0.275,-0.6016 -0.276,-0.6015 -0.275,-0.6015 -1.421,-3.1278 -1.419,-3.1278 -0.309,-0.6737 -0.308,-0.6736 -0.321,-0.6989 -0.32,-0.699 0.04,-0.032 0.04,-0.032 3.977,-1.8056 3.976,-1.8057 0.04,0.046 0.04,0.046 1.156,2.5392 1.155,2.539 0.133,0.2886 0.132,0.2888 1.549,3.3951 1.547,3.3953 v 0.07 0.07 l -0.952,0.4269 -0.954,0.4273 0.218,0.4863 0.216,0.4863 0.94,2.0692 0.939,2.0692 1.95,4.2826 1.949,4.2827 1.9,4.1864 1.9,4.1865 0.374,0.7996 0.375,0.7996 v 0.033 0.032 l 0.474,1.0096 0.475,1.0098 0.152,0.3414 0.151,0.3414 0.464,0.064 0.466,0.064 0.686,0.1365 0.688,0.1364 0.612,0.1951 0.612,0.195 1.155,0.5688 1.154,0.569 1.012,0.8078 1.01,0.808 0.535,0.6159 0.537,0.6161 0.485,0.7218 0.485,0.7218 0.354,0.7015 0.352,0.7013 0.285,0.8466 0.284,0.8465 0.133,0.6656 0.132,0.6655 0.08,0.8421 0.08,0.8421 h 6.868 6.867 v 7.4105 7.4104 h 1.879 1.878 l -0.02,3.4887 -0.02,3.4888 z m -0.362,-11.8136 h 20.113 v -1.9248 -1.9248 h -20.113 -20.114 v 1.9248 1.9248 z m -0.962,-12.6075 h 6.352 v -1.5879 -1.588 h -6.352 -6.353 v 1.588 1.5879 z"
       style="fill:#6b7b8c;fill-opacity:0.94117647;stroke-width:1.41929984" />
    <text
       transform="matrix(0.70457271,0,0,0.70457271,-11826.102,-875.7737)"
       inkscape:export-filename="/home/adm1n/Github/azure/images/iac/ansible_flow.png"
       inkscape:export-ydpi="50"
       inkscape:export-xdpi="50"
       id="text3101-0-4"
       y="1467.5414"
       x="16838.188"
       style="font-style:normal;font-variant:normal;font-weight:bold;font-stretch:normal;font-size:19.50574875px;line-height:1.25;font-family:'JetBrains Mono';-inkscape-font-specification:'JetBrains Mono, Bold';font-variant-ligatures:normal;font-variant-caps:normal;font-variant-numeric:normal;font-feature-settings:normal;text-align:start;letter-spacing:0px;word-spacing:0px;writing-mode:lr-tb;text-anchor:start;fill:#3a4d61;fill-opacity:0.94117647;stroke:none;stroke-width:0.37552309"
       xml:space="preserve"><tspan
         style="font-style:normal;font-variant:normal;font-weight:bold;font-stretch:normal;font-size:19.50574875px;font-family:'JetBrains Mono';-inkscape-font-specification:'JetBrains Mono, Bold';font-variant-ligatures:normal;font-variant-caps:normal;font-variant-numeric:normal;font-feature-settings:normal;text-align:start;writing-mode:lr-tb;text-anchor:start;fill:#3a4d61;fill-opacity:0.94117647;stroke-width:0.37552309"
         sodipodi:role="line"
         id="tspan3103-2-6"
         x="16838.188"
         y="1467.5414">Trigger</tspan></text>
    <text
       transform="matrix(0.70457271,0,0,0.70457271,-11833.054,-875.7737)"
       inkscape:export-filename="/home/adm1n/Github/azure/images/iac/ansible_flow.png"
       inkscape:export-ydpi="50"
       inkscape:export-xdpi="50"
       id="text3101-0-5-2"
       y="1421.7019"
       x="17062.535"
       style="font-style:normal;font-variant:normal;font-weight:bold;font-stretch:normal;font-size:19.50574875px;line-height:1.25;font-family:'JetBrains Mono';-inkscape-font-specification:'JetBrains Mono, Bold';font-variant-ligatures:normal;font-variant-caps:normal;font-variant-numeric:normal;font-feature-settings:normal;text-align:start;letter-spacing:0px;word-spacing:0px;writing-mode:lr-tb;text-anchor:start;fill:#3a4d61;fill-opacity:0.94117647;stroke:none;stroke-width:0.37552309"
       xml:space="preserve"><tspan
         style="font-style:normal;font-variant:normal;font-weight:bold;font-stretch:normal;font-size:19.50574875px;font-family:'JetBrains Mono';-inkscape-font-specification:'JetBrains Mono, Bold';font-variant-ligatures:normal;font-variant-caps:normal;font-variant-numeric:normal;font-feature-settings:normal;text-align:start;writing-mode:lr-tb;text-anchor:start;fill:#3a4d61;fill-opacity:0.94117647;stroke-width:0.37552309"
         sodipodi:role="line"
         id="tspan17664-67"
         x="17062.535"
         y="1421.7019">Steps</tspan></text>
    <text
       transform="matrix(0.70457271,0,0,0.70457271,-11826.102,-875.7737)"
       inkscape:export-filename="/home/adm1n/Github/azure/images/iac/ansible_flow.png"
       inkscape:export-ydpi="50"
       inkscape:export-xdpi="50"
       id="text3101-0-5-1-5"
       y="1485.2084"
       x="17246.453"
       style="font-style:normal;font-variant:normal;font-weight:bold;font-stretch:normal;font-size:19.50574875px;line-height:1.25;font-family:'JetBrains Mono';-inkscape-font-specification:'JetBrains Mono, Bold';font-variant-ligatures:normal;font-variant-caps:normal;font-variant-numeric:normal;font-feature-settings:normal;text-align:start;letter-spacing:0px;word-spacing:0px;writing-mode:lr-tb;text-anchor:start;fill:#3a4d61;fill-opacity:0.94117647;stroke:none;stroke-width:0.37552309"
       xml:space="preserve"><tspan
         style="font-style:normal;font-variant:normal;font-weight:bold;font-stretch:normal;font-size:19.50574875px;font-family:'JetBrains Mono';-inkscape-font-specification:'JetBrains Mono, Bold';font-variant-ligatures:normal;font-variant-caps:normal;font-variant-numeric:normal;font-feature-settings:normal;text-align:start;writing-mode:lr-tb;text-anchor:start;fill:#3a4d61;fill-opacity:0.94117647;stroke-width:0.37552309"
         sodipodi:role="line"
         id="tspan17664-5-6"
         x="17246.453"
         y="1485.2084">Artifacts</tspan></text>
    <text
       transform="matrix(0.70457271,0,0,0.70457271,-11826.102,-874.13763)"
       inkscape:export-filename="/home/adm1n/Github/azure/images/iac/ansible_flow.png"
       inkscape:export-ydpi="50"
       inkscape:export-xdpi="50"
       id="text3101-0-0-9"
       y="1604.1879"
       x="16979.572"
       style="font-style:normal;font-variant:normal;font-weight:bold;font-stretch:normal;font-size:19.50574875px;line-height:1.25;font-family:'JetBrains Mono';-inkscape-font-specification:'JetBrains Mono, Bold';font-variant-ligatures:normal;font-variant-caps:normal;font-variant-numeric:normal;font-feature-settings:normal;text-align:start;letter-spacing:0px;word-spacing:0px;writing-mode:lr-tb;text-anchor:start;fill:#3a4d61;fill-opacity:0.94117647;stroke:none;stroke-width:0.37552309"
       xml:space="preserve"><tspan
         style="font-style:normal;font-variant:normal;font-weight:bold;font-stretch:normal;font-size:19.50574875px;font-family:'JetBrains Mono';-inkscape-font-specification:'JetBrains Mono, Bold';font-variant-ligatures:normal;font-variant-caps:normal;font-variant-numeric:normal;font-feature-settings:normal;text-align:start;writing-mode:lr-tb;text-anchor:start;fill:#3a4d61;fill-opacity:0.94117647;stroke-width:0.37552309"
         sodipodi:role="line"
         id="tspan3103-2-7-8"
         x="16979.572"
         y="1604.1879">Pipeline</tspan></text>
    <path
       transform="matrix(0.70457271,0,0,0.70457271,-11826.102,-875.7737)"
       inkscape:connector-curvature="0"
       id="path2668-7-2-1-72"
       d="m 16879.443,1511.7292 c -21.035,-8.0722 -29.202,-13.8425 -26.01,-39.15"
       style="fill:none;stroke:#3b4d61;stroke-width:2.12894988;stroke-linecap:butt;stroke-linejoin:miter;stroke-miterlimit:4;stroke-dasharray:none;stroke-opacity:0.94117647;marker-start:url(#marker3236-6-8-03)"
       sodipodi:nodetypes="cc"
       inkscape:export-filename="/home/adm1n/Github/azure/images/iac/workflow_repo.png"
       inkscape:export-xdpi="50"
       inkscape:export-ydpi="50" />
    <path
       transform="matrix(0.70457271,0,0,0.70457271,-11826.102,-875.7737)"
       inkscape:connector-curvature="0"
       id="path2668-7-2-1-7-8"
       d="m 16963.984,1478.5223 c 42.119,2.2631 105.218,-24.5912 114.015,-51.9657"
       style="fill:none;stroke:#3b4d61;stroke-width:2.12894988;stroke-linecap:round;stroke-linejoin:miter;stroke-miterlimit:4;stroke-dasharray:none;stroke-opacity:0.94117647;marker-start:url(#marker3236-6-8-0-1)"
       sodipodi:nodetypes="cc"
       inkscape:export-filename="/home/adm1n/Github/azure/images/iac/workflow_repo.png"
       inkscape:export-xdpi="50"
       inkscape:export-ydpi="50" />
    <path
       transform="matrix(0.70457271,0,0,0.70457271,-11826.102,-875.7737)"
       inkscape:export-ydpi="50"
       inkscape:export-xdpi="50"
       inkscape:export-filename="/home/adm1n/Github/azure/images/iac/workflow_repo.png"
       sodipodi:nodetypes="cc"
       style="fill:none;stroke:#3b4d61;stroke-width:2.12894988;stroke-linecap:butt;stroke-linejoin:miter;stroke-miterlimit:4;stroke-dasharray:none;stroke-opacity:0.94117647;marker-start:url(#marker3339-1)"
       d="m 17052.661,1471.0809 c 25.169,-17.1672 25.688,-25.8314 25.39,-44.9377"
       id="path3335-2"
       inkscape:connector-curvature="0" />
    <path
       transform="matrix(0.70457271,0,0,0.70457271,-11826.102,-875.7737)"
       inkscape:connector-curvature="0"
       id="path3341-9"
       d="m 17128.729,1473.9748 c -34.471,-12.1268 -44.437,-33.9446 -50.523,-47.4699"
       style="fill:none;stroke:#3b4d61;stroke-width:2.12894988;stroke-linecap:round;stroke-linejoin:miter;stroke-miterlimit:4;stroke-dasharray:none;stroke-opacity:0.94117647;marker-start:url(#marker3345-0)"
       sodipodi:nodetypes="cc"
       inkscape:export-filename="/home/adm1n/Github/azure/images/iac/workflow_repo.png"
       inkscape:export-xdpi="50"
       inkscape:export-ydpi="50" />
    <path
       transform="matrix(0.70457271,0,0,0.70457271,-11826.102,-875.7737)"
       inkscape:export-ydpi="50"
       inkscape:export-xdpi="50"
       inkscape:export-filename="/home/adm1n/Github/azure/images/iac/workflow_repo.png"
       sodipodi:nodetypes="cc"
       style="fill:none;stroke:#3b4d61;stroke-width:2.12894988;stroke-linecap:round;stroke-linejoin:miter;stroke-miterlimit:4;stroke-dasharray:none;stroke-opacity:0.94117647;marker-start:url(#marker3351-9)"
       d="m 17215.132,1477.2821 c -75.104,-9.4959 -117.703,-33.933 -137.236,-50.6738"
       id="path3347-9"
       inkscape:connector-curvature="0" />
    <path
       transform="matrix(0.70457271,0,0,0.70457271,-11826.102,-875.7737)"
       inkscape:connector-curvature="0"
       id="path2668-7-2-1-5-6"
       d="m 16951.42,1529.8964 c -9.467,29.8048 -12.467,69.543 24.534,69.8589"
       style="fill:none;stroke:#3b4d61;stroke-width:2.12894988;stroke-linecap:butt;stroke-linejoin:miter;stroke-miterlimit:4;stroke-dasharray:none;stroke-opacity:0.94117647;marker-start:url(#marker3236-6-8-6-6)"
       sodipodi:nodetypes="cc"
       inkscape:export-filename="/home/adm1n/Github/azure/images/iac/workflow_repo.png"
       inkscape:export-xdpi="50"
       inkscape:export-ydpi="50" />
    <path
       transform="matrix(0.70457271,0,0,0.70457271,-11826.102,-875.7737)"
       inkscape:connector-curvature="0"
       id="path2668-7-2-1-4-0"
       d="m 17265.235,1532.5835 c 26.005,-14.2111 23.94,-25.2433 19.579,-42.0734"
       style="fill:none;stroke:#3b4d61;stroke-width:2.83859968;stroke-linecap:butt;stroke-linejoin:miter;stroke-miterlimit:4;stroke-dasharray:none;stroke-opacity:0.94117647;marker-start:url(#marker3236-6-8-08-4)"
       sodipodi:nodetypes="cc"
       inkscape:export-filename="/home/adm1n/Github/azure/images/iac/workflow_repo.png"
       inkscape:export-xdpi="50"
       inkscape:export-ydpi="50" />
    <path
       transform="matrix(0.70457271,0,0,0.70457271,-11826.102,-875.7737)"
       d="m 17100.352,1513.671 v 26.1421 l -10.737,8.8035 -16.639,-6.0657 v 6.0119 l -9.421,-12.3193 27.457,2.147 v -23.5383 z m -9.152,1.3153 -15.408,-9.3671 v 6.1463 l -14.143,4.1601 -4.241,5.4484 v 12.3733 l 6.066,2.684 v -15.8623 z"
       data-name="Path 1"
       id="a91f0ca4-8fb7-4019-9c09-0a52e2c05754-3-1"
       inkscape:connector-curvature="0"
       style="fill:#ef9d10;fill-opacity:0.94117647;stroke-width:0.37552309" />
    <rect
       transform="matrix(0.70457271,0,0,0.70457271,-11898.148,-878.03501)"
       y="1471.8153"
       x="17034.244"
       height="20.670572"
       width="28.111979"
       id="rect17602-3-2"
       style="opacity:1;vector-effect:none;fill:#ef9d10;fill-opacity:0.94117647;fill-rule:evenodd;stroke:none;stroke-width:1.32515264;stroke-linecap:butt;stroke-linejoin:miter;stroke-miterlimit:4;stroke-dasharray:none;stroke-dashoffset:0;stroke-opacity:1" />
  </g>
</svg>
