<?xml version="1.0" encoding="UTF-8" standalone="no"?>
<!-- Created with Inkscape (http://www.inkscape.org/) -->

<svg
   xmlns:dc="http://purl.org/dc/elements/1.1/"
   xmlns:cc="http://creativecommons.org/ns#"
   xmlns:rdf="http://www.w3.org/1999/02/22-rdf-syntax-ns#"
   xmlns:svg="http://www.w3.org/2000/svg"
   xmlns="http://www.w3.org/2000/svg"
   xmlns:xlink="http://www.w3.org/1999/xlink"
   xmlns:sodipodi="http://sodipodi.sourceforge.net/DTD/sodipodi-0.dtd"
   xmlns:inkscape="http://www.inkscape.org/namespaces/inkscape"
   width="420mm"
   height="297mm"
   viewBox="0 0 420 297"
   version="1.1"
   id="svg1305"
   inkscape:version="0.92.3 (2405546, 2018-03-11)"
   sodipodi:docname="docker_parts.svg">
  <defs
     id="defs1299">
    <marker
       inkscape:isstock="true"
       style="overflow:visible"
       id="marker17439"
       refX="0"
       refY="0"
       orient="auto"
       inkscape:stockid="Arrow1Send">
      <path
         inkscape:connector-curvature="0"
         transform="matrix(-0.2,0,0,-0.2,-1.2,0)"
         style="fill:#3a4d61;fill-opacity:1;fill-rule:evenodd;stroke:#3a4d61;stroke-width:1.00000003pt;stroke-opacity:1"
         d="M 0,0 5,-5 -12.5,0 5,5 Z"
         id="path17437" />
    </marker>
    <marker
       inkscape:stockid="Arrow1Send"
       orient="auto"
       refY="0"
       refX="0"
       id="marker17575"
       style="overflow:visible"
       inkscape:isstock="true">
      <path
         inkscape:connector-curvature="0"
         id="path17573"
         d="M 0,0 5,-5 -12.5,0 5,5 Z"
         style="fill:#6b7b8c;fill-opacity:1;fill-rule:evenodd;stroke:#6b7b8c;stroke-width:1.00000003pt;stroke-opacity:1"
         transform="matrix(-0.2,0,0,-0.2,-1.2,0)" />
    </marker>
    <linearGradient
       inkscape:collect="always"
       xlink:href="#linearGradient8192"
       id="linearGradient8186"
       gradientUnits="userSpaceOnUse"
       gradientTransform="translate(-4147.286,-295301.2)"
       x1="5288.835"
       y1="1419.0519"
       x2="5333.77"
       y2="1409.5503" />
    <linearGradient
       inkscape:collect="always"
       id="linearGradient8192">
      <stop
         style="stop-color:#394d61;stop-opacity:0.94117647"
         offset="0"
         id="stop8188" />
      <stop
         style="stop-color:#ef9d10;stop-opacity:0.94117647"
         offset="1"
         id="stop8190" />
    </linearGradient>
    <marker
       inkscape:isstock="true"
       style="overflow:visible"
       id="marker8180"
       refX="0"
       refY="0"
       orient="auto"
       inkscape:stockid="Arrow1Send">
      <path
         transform="matrix(-0.2,0,0,-0.2,-1.2,0)"
         style="fill:#394d61;fill-opacity:1;fill-rule:evenodd;stroke:#394d61;stroke-width:1.00000003pt;stroke-opacity:1"
         d="M 0,0 5,-5 -12.5,0 5,5 Z"
         id="path8178"
         inkscape:connector-curvature="0" />
    </marker>
    <marker
       inkscape:isstock="true"
       style="overflow:visible"
       id="marker8184"
       refX="0"
       refY="0"
       orient="auto"
       inkscape:stockid="Arrow1Send">
      <path
         transform="matrix(-0.2,0,0,-0.2,-1.2,0)"
         style="fill:#ef9d10;fill-opacity:1;fill-rule:evenodd;stroke:#ef9d10;stroke-width:1.00000003pt;stroke-opacity:1"
         d="M 0,0 5,-5 -12.5,0 5,5 Z"
         id="path8182"
         inkscape:connector-curvature="0" />
    </marker>
    <linearGradient
       inkscape:collect="always"
       xlink:href="#linearGradient7989"
       id="linearGradient7983"
       gradientUnits="userSpaceOnUse"
       gradientTransform="translate(-4147.286,-295301.2)"
       x1="5293.0835"
       y1="1416.0122"
       x2="5341.4517"
       y2="1413.0485" />
    <linearGradient
       id="linearGradient7989"
       inkscape:collect="always">
      <stop
         id="stop7985"
         offset="0"
         style="stop-color:#6b7b8c;stop-opacity:0.94117647" />
      <stop
         id="stop7987"
         offset="1"
         style="stop-color:#3a4d61;stop-opacity:0.94117647" />
    </linearGradient>
    <marker
       inkscape:stockid="Arrow1Send"
       orient="auto"
       refY="0"
       refX="0"
       id="marker17431-3"
       style="overflow:visible"
       inkscape:isstock="true"
       inkscape:collect="always">
      <path
         inkscape:connector-curvature="0"
         id="path17429-5"
         d="M 0,0 5,-5 -12.5,0 5,5 Z"
         style="fill:#6b7b8c;fill-opacity:1;fill-rule:evenodd;stroke:#6b7b8c;stroke-width:1.00000003pt;stroke-opacity:1"
         transform="matrix(-0.2,0,0,-0.2,-1.2,0)" />
    </marker>
    <marker
       inkscape:stockid="Arrow1Send"
       orient="auto"
       refY="0"
       refX="0"
       id="marker17414-9"
       style="overflow:visible"
       inkscape:isstock="true"
       inkscape:collect="always">
      <path
         inkscape:connector-curvature="0"
         id="path17166-9"
         d="M 0,0 5,-5 -12.5,0 5,5 Z"
         style="fill:#3a4d61;fill-opacity:1;fill-rule:evenodd;stroke:#3a4d61;stroke-width:1.00000003pt;stroke-opacity:1"
         transform="matrix(-0.2,0,0,-0.2,-1.2,0)" />
    </marker>
  </defs>
  <sodipodi:namedview
     id="base"
     pagecolor="#ffffff"
     bordercolor="#666666"
     borderopacity="1.0"
     inkscape:pageopacity="0.0"
     inkscape:pageshadow="2"
     inkscape:zoom="0.35"
     inkscape:cx="633.90613"
     inkscape:cy="514.74129"
     inkscape:document-units="mm"
     inkscape:current-layer="layer1"
     showgrid="false"
     inkscape:window-width="1366"
     inkscape:window-height="739"
     inkscape:window-x="0"
     inkscape:window-y="0"
     inkscape:window-maximized="1"
     showguides="true"
     inkscape:guide-bbox="true"
     inkscape:snap-global="false">
    <sodipodi:guide
       position="202.59524,219.22619"
       orientation="1,0"
       id="guide4023"
       inkscape:locked="false" />
    <sodipodi:guide
       position="253.90605,143.79101"
       orientation="0,1"
       id="guide4025"
       inkscape:locked="false" />
  </sodipodi:namedview>
  <metadata
     id="metadata1302">
    <rdf:RDF>
      <cc:Work
         rdf:about="">
        <dc:format>image/svg+xml</dc:format>
        <dc:type
           rdf:resource="http://purl.org/dc/dcmitype/StillImage" />
        <dc:title />
      </cc:Work>
    </rdf:RDF>
  </metadata>
  <g
     inkscape:label="Layer 1"
     inkscape:groupmode="layer"
     id="layer1">
    <g
       id="g906"
       transform="matrix(0.88990582,0,0,0.88990582,18.903956,-2.7441656)"
       style="stroke-width:1.12371445">
      <path
         inkscape:connector-curvature="0"
         id="path8240"
         transform="matrix(0.25556788,0.0684792,-0.0684792,0.25556788,97.616593,-381.7448)"
         d="m 953.23242,1721.459 v 0.1074 c 0,0 -0.10742,0 -0.10742,0 l -15.29297,27.6094 c -5.43785,-0.3857 -10.83465,-0.6218 -16.2168,-0.1719 l -15.17187,-27.2891 c -9.01593,1.4999 -17.82199,3.778 -26.27734,7.045 l 0.51367,31.4668 c -4.884,2.3075 -9.54359,5.1427 -13.91016,8.1445 l -11.03515,-6.5781 -0.10743,-0.1719 -15.94726,-9.4531 c -3.47419,2.8507 -6.83459,5.8951 -10.05274,9.1132 -0.16069,0.1607 -0.30125,0.3423 -0.47265,0.5137 -3.03496,3.066 -5.95862,6.2646 -8.71289,9.6113 l 9.08398,15.1055 7.10547,11.8477 c -2.95997,4.4469 -5.58135,9.2271 -7.97461,14.125 l -31.4375,-0.5684 c -3.19244,8.4278 -5.5978,17.3143 -7.07617,26.4278 l 27.57812,15.2617 c -0.23568,2.7339 -0.44922,5.355 -0.44922,8.0879 0,2.7339 0.24568,5.3467 0.44922,8.0742 l -11.17578,6.1933 h -0.45117 l -16.16016,9.084 c 1.46231,8.866 3.8339,17.735 7.04883,26.2989 h 0.20313 v 0.1074 l 31.26757,-0.5684 c 1.15057,2.3215 2.42066,4.6029 3.75977,6.8633 0,0.064 0.10742,0.063 0.10742,0.1699 1.34982,2.4179 2.76009,4.782 4.26953,7.0488 l -16.10351,26.7832 0.10742,0.1075 -0.10742,0.1718 c 5.81066,7.0577 12.30163,13.5527 19.25,19.3633 l 26.99609,-16.289 c 4.55726,3.0692 9.24056,5.6946 14.14063,8.0879 l -0.17188,8.2871 -0.41797,23.1523 c 8.42675,3.1924 17.31449,5.5822 26.42578,7.0606 l 15.26368,-27.5645 c 2.61715,0.2678 5.35201,0.4707 8.08593,0.4707 1.89511,0 3.70402,-0.1713 5.52735,-0.3105 0.82703,-0.1072 1.66339,-3e-4 2.48828,-0.1075 l 15.33594,27.4805 c 9.01702,-1.503 17.89349,-3.8771 26.39843,-6.9902 l -0.55859,-28.5899 -0.10547,-2.9472 c 0.39102,-0.1929 0.76473,-0.4059 1.15039,-0.6094 4.39442,-2.2336 8.77582,-4.6484 12.85742,-7.4766 l 26.99606,16.2891 c 7.0641,-5.8096 13.4404,-12.3012 19.25,-19.3652 v -0.1075 c 0,0 0.1075,-3e-4 0.1075,-0.1074 l -16.1895,-26.9375 c 0.5089,-0.7381 0.9281,-1.5294 1.4102,-2.2793 1.023,-1.4955 2.0669,-2.9636 2.9882,-4.5566 1.3681,-2.3676 2.4674,-4.7535 3.5879,-7.1328 l 15.1485,0.2031 16.2187,0.3105 c 0,0 -0.01,-0.1074 0,-0.1074 h 0.1719 c 3.2749,-8.6314 5.5846,-17.4165 7.0352,-26.3125 l -27.4532,-15.3047 c 0.3107,-5.3382 0.45,-10.8073 0,-16.1894 l 27.6094,-15.2364 c -1.4998,-9.0234 -3.9356,-17.7779 -7.1484,-26.3418 h -0.1075 c -0.1071,0 -0.1054,0 -0.1054,-0.1054 l -31.3828,0.5664 c -1.1506,-2.4233 -2.4336,-4.7772 -3.8145,-7.0762 v -0.1074 c -1.3187,-2.389 -2.7203,-4.7228 -4.2715,-6.9629 l 16.1172,-26.7832 -0.1055,-0.1074 0.1055,-0.17 c -5.8106,-7.064 -12.1859,-13.558 -19.25,-19.2519 l -26.99608,16.1758 c -4.43941,-3.0768 -9.22754,-5.6919 -14.00977,-7.9727 l 0.44922,-31.5527 c -8.42674,-3.186 -17.18281,-5.5841 -26.28125,-7.0625 z"
         style="fill:#3a4d61;fill-opacity:0.94117647;stroke-width:0.59696317" />
      <path
         id="path8238"
         transform="matrix(0.26458333,0,0,0.26458333,-38.246747,-334.84322)"
         d="m 906.44336,1721.7148 c 0.007,0 0.0143,0 0.0215,0 l -0.14257,-0.2148 z"
         style="fill:#3a4d61;fill-opacity:0.94117647;stroke-width:0.59696317"
         inkscape:connector-curvature="0" />
      <path
         inkscape:connector-curvature="0"
         id="path6914"
         d="m 3416.0344,-294375.41 c -3.8401,0 -5.5034,0.23 -8.74,1.29 -5.4848,1.78 -9.8501,4.88 -13.2394,9.42 -1.6937,2.27 -3.526,5.78 -4.3783,8.39 -3.3076,10.12 0.2121,22.16 8.4126,28.79 4.9191,3.98 10.3184,6.16 15.8979,6.41 4.8003,0.22 8.6156,-0.47 12.7949,-2.31 3.2984,-1.46 5.6027,-3.05 8.1945,-5.66 6.1311,-6.18 9.0753,-15.27 7.6049,-23.48 -1.861,-10.39 -8.2063,-17.91 -18.1025,-21.45 -3.2178,-1.15 -4.6435,-1.38 -8.4446,-1.4 z m -0.3894,0.63 c 5.1644,0 10.1714,1.51 14.8903,4.65 5.9048,3.93 9.5035,9.29 11.1276,16.58 0.5106,2.29 0.5549,8.08 0.079,10.24 -0.802,3.65 -2.5687,7.66 -4.68,10.63 -4.0849,5.74 -10.4512,9.56 -17.7714,10.67 -1.4902,0.22 -5.1963,0.29 -6.6677,0.12 -2.5287,-0.29 -6.3907,-1.53 -8.9586,-2.88 -6.6356,-3.49 -11.0446,-8.64 -13.1981,-15.42 -2.5498,-8.02 -1.4132,-15.75 3.362,-22.87 3.4837,-5.2 7.6751,-8.38 13.5914,-10.32 2.7726,-0.91 5.5209,-1.37 8.2259,-1.4 z m 0.7355,1.16 c -1.6845,0 -3.4627,0.1 -4.8075,0.32 -4.3764,0.75 -9.0218,2.82 -11.9162,5.29 -0.5161,0.44 -1.1181,0.95 -1.3375,1.13 -0.6785,0.56 -2.9282,3.32 -3.7438,4.59 -2.0346,3.16 -3.5321,6.89 -4.0572,10.08 -0.3718,2.27 -0.2457,6.49 0.2593,8.69 0.5763,2.52 1.0171,3.7 1.346,3.6 0.1554,-0.1 2.1252,-0.59 4.3771,-1.21 2.2519,-0.62 4.4721,-1.23 4.9337,-1.37 0.4617,-0.14 0.8692,-0.22 0.9052,-0.18 0.036,0 -0.2646,0.29 -0.6687,0.56 -3.5299,2.4 -8.0318,5.61 -8.0968,5.78 -0.1879,0.49 2.1188,3.77 4.0961,5.83 3.805,3.97 9.7137,6.9 15.1756,7.54 6.1606,0.71 13.0557,-1.17 18.1276,-4.96 4.7156,-3.51 8.2849,-9.24 9.5406,-15.3 0.6465,-3.13 0.6724,-7.05 0.067,-10.13 -0.1728,-0.87 -0.2349,-0.98 -0.5565,-0.9 -0.1993,0 -1.8976,0.35 -3.7742,0.68 -4.2515,0.76 -7.0671,1.27 -7.4885,1.36 -0.5332,0.12 -0.066,-0.2 0.6251,-0.42 2.0653,-0.66 10.1038,-3.75 10.1562,-3.91 0.098,-0.29 -0.7102,-2.23 -0.9308,-2.23 -0.1092,0 -2.5276,1.04 -5.3744,2.32 -7.2892,3.27 -7.1396,3.21 -6.6265,2.8 0.2346,-0.18 2.7823,-1.96 5.6617,-3.94 l 5.2354,-3.61 -0.4429,-0.71 c -1.6041,-2.55 -4.1635,-5.22 -6.7893,-7.07 -2.8743,-2.04 -7.1152,-3.82 -10.3832,-4.38 -0.9488,-0.16 -2.2025,-0.24 -3.5127,-0.25 z m -0.4985,15.17 c 0.8841,0 1.7826,0.14 2.6771,0.4 1.7694,0.52 3.0711,1.3 4.4832,2.69 1.1616,1.15 1.839,2.31 2.4883,4.25 0.4724,1.42 0.4315,4.68 -0.076,6.05 -1.2201,3.29 -3.8931,5.83 -7.0394,6.67 -1.4293,0.38 -3.4908,0.45 -4.7691,0.16 -5.3751,-1.2 -9.0423,-6.67 -7.9525,-11.85 1.0607,-5.05 5.4151,-8.43 10.1885,-8.37 z m -0.1455,4.8 c -2.0612,0 -4.0502,1.24 -4.9172,3.14 -1.4138,3.09 0.2214,6.61 3.5007,7.54 1.7657,0.5 4.329,-0.26 5.4109,-1.61 1.069,-1.33 1.3305,-2.05 1.3305,-3.63 0,-1.15 -0.083,-1.63 -0.4062,-2.35 -0.5401,-1.21 -1.9406,-2.46 -3.1934,-2.85 -0.5654,-0.18 -1.1482,-0.26 -1.7253,-0.24 z"
         style="fill:#ef9d10;fill-opacity:0.94117647;stroke-width:0.78349799"
         transform="matrix(1.4342275,0,0,1.4342275,-4543.7573,422328.28)" />
      <path
         inkscape:export-ydpi="200"
         inkscape:export-xdpi="200"
         sodipodi:nodetypes="cc"
         inkscape:connector-curvature="0"
         id="path17435-5"
         d="m 1126.9274,-293878.84 c 23.4092,-19.95 55.1342,-24.62 88.0731,-11.47"
         style="opacity:1;fill:none;stroke:url(#linearGradient7983);stroke-width:5.61857224;stroke-linecap:butt;stroke-linejoin:round;stroke-miterlimit:4;stroke-dasharray:none;stroke-opacity:1;marker-mid:url(#marker17431-3);marker-end:url(#marker17414-9)"
         transform="translate(-1038.7957,294039.55)" />
      <path
         style="opacity:1;fill:#ffffff;fill-opacity:1;stroke:#6b7b8c;stroke-width:1.39768302;stroke-miterlimit:4;stroke-dasharray:none;stroke-opacity:0.94117647"
         d="m 704.96997,-295143.54 c -2.05814,0 -3.69984,1.66 -3.71494,3.72 l -0.59045,80.57 c -0.0151,2.06 1.6568,3.72 3.71494,3.72 h 61.68336 c 2.05814,0 3.69733,-1.66 3.71494,-3.72 l 0.59045,-69.09 -15.19952,-15.2 z"
         id="path3497"
         inkscape:connector-curvature="0"
         sodipodi:nodetypes="ssssssccs"
         transform="rotate(-8.517644,1982874,-142900.91)" />
      <path
         style="opacity:1;fill:#6b7b8c;fill-opacity:0.94117647;stroke:none;stroke-width:1.47528219;stroke-miterlimit:4;stroke-dasharray:none;stroke-opacity:1"
         d="m 771.11047,-295128.07 -16.05013,-16.05 v 12.13 c 0,2.17 1.74885,3.92 3.92135,3.92 z"
         id="path3499"
         inkscape:connector-curvature="0"
         sodipodi:nodetypes="ccssc"
         transform="rotate(-8.517644,1982874,-142900.91)" />
      <rect
         style="opacity:1;fill:#6b7b8c;fill-opacity:0.94117647;stroke:none;stroke-width:0.85242152;stroke-miterlimit:4;stroke-dasharray:none;stroke-opacity:1"
         id="rect3501"
         width="58.050591"
         height="10.244223"
         x="697.2157"
         y="-295127.88"
         rx="0"
         ry="0"
         transform="rotate(-8.517644,1982874,-142900.91)" />
      <text
         xml:space="preserve"
         style="font-style:normal;font-weight:normal;font-size:2.91748762px;line-height:0%;font-family:sans-serif;letter-spacing:0px;word-spacing:0px;opacity:1;fill:#ffffff;fill-opacity:1;fill-rule:evenodd;stroke:none;stroke-width:0.27320194px;stroke-linecap:butt;stroke-linejoin:miter;stroke-opacity:1"
         x="727.49701"
         y="-295120.06"
         id="text3505"
         inkscape:export-xdpi="150"
         inkscape:export-ydpi="150"
         transform="rotate(-8.517644,1982881.3,-142892.69)"><tspan
           id="tspan3503"
           style="font-style:normal;font-variant:normal;font-weight:normal;font-stretch:normal;font-size:9.72502518px;line-height:2.25;font-family:'JetBrains Mono';-inkscape-font-specification:'JetBrains Mono, Normal';font-variant-ligatures:normal;font-variant-caps:normal;font-variant-numeric:normal;font-feature-settings:normal;text-align:center;letter-spacing:-0.25135416px;writing-mode:lr-tb;text-anchor:middle;fill:#ffffff;stroke-width:0.27320194px"
           sodipodi:role="line"
           x="727.37134"
           y="-295120.06">Dockerfile</tspan></text>
      <path
         transform="rotate(30,-547969.8,-148529.09)"
         style="opacity:1;fill:none;stroke:url(#linearGradient8186);stroke-width:5.61857224;stroke-linecap:butt;stroke-linejoin:round;stroke-miterlimit:4;stroke-dasharray:none;stroke-opacity:1;marker-mid:url(#marker8180);marker-end:url(#marker8184)"
         d="m 1130.1973,-293872.24 c 20.3995,-20.22 36.3652,-29.71 73.2461,-32.9"
         id="path8176"
         inkscape:connector-curvature="0"
         sodipodi:nodetypes="cc"
         inkscape:export-xdpi="200"
         inkscape:export-ydpi="200" />
      <path
         transform="matrix(2.8344466,0,0,2.8344466,-14916.597,-3937.9319)"
         style="fill:#3a4d61;fill-opacity:0.94117647;stroke-width:0.07034691"
         inkscape:connector-curvature="0"
         d="m 5342.8738,1459.3517 v -1.597 l 0.088,-0.081 1.6339,-0.5507 0.4209,-1.1005 -0.8092,-1.6777 -0.089,-0.1881 0.506,-0.5102 0.6151,-0.6178 0.214,0.1076 1.597,0.8186 1.1004,-0.3084 0.6967,-1.7852 h 1.5842 l 0.081,0.081 0.5507,1.6305 1.1133,0.4192 1.8522,-0.8909 1.1279,1.1185 -0.1074,0.2104 -0.8187,1.5954 0.4562,1.0996 1.9329,0.6966 v 1.597 l -0.2286,0.067 -1.7044,0.5636 -0.4562,1.1004 0.8729,1.8522 -1.128,1.1408 -0.2147,-0.1074 -1.5969,-0.8187 -1.1005,0.4561 -0.6985,1.9338 h -1.597 l -0.067,-0.2285 -0.5635,-1.7045 -1.0876,-0.4562 -1.8659,0.8729 -1.1279,-1.128 0.1074,-0.2146 0.8187,-1.597 -0.3152,-1.1142 z m 6.7248,1.4768 c 1.2353,0 2.2413,-1.0069 2.2413,-2.2414 0,-1.2345 -1.0068,-2.2413 -2.2413,-2.2413 -1.2345,0 -2.2284,1.0068 -2.2284,2.2413 0,1.2345 0.9939,2.2414 2.2284,2.2414 z"
         id="path30123-7-8" />
      <path
         inkscape:connector-curvature="0"
         id="path8219"
         transform="matrix(0.26458333,0,0,0.26458333,8.4333103,-316.88933)"
         d="m 742.79883,1719.5449 v 20.8106 h -20.78321 -0.52734 -21.31055 v 21.1523 h -20.96875 v 21.127 h -17.16992 l -0.29101,3.0859 c -0.36925,4.0617 -0.39563,8.1219 0,12.1309 -8.70372,2.532 -20.41425,3.3248 -29.77735,-5.4317 0,0 -5.1951,8.6246 -12.58008,9.9961 h 42.96485 c 0.79125,4.5629 2.13713,9.0202 4.0625,13.293 l 1.81836,3.7441 0.21094,0.3438 c 12.6072,21.39 34.70974,30.3828 58.8164,30.3828 40.14261,0 74.21876,-15.4027 94.21094,-47.7383 h 56.39062 c 0,0 -14.19031,-1.3979 -14.58593,-9.9961 0,0 -21.1524,14.5338 -37.63672,2.6387 1.58249,-3.1123 3.06014,-6.3311 4.43164,-9.707 11.81596,0.633 23.89577,-2.8756 29.67187,-14.1641 l 1.44922,-2.8731 -2.79492,-1.6367 c -6.8311,-3.9562 -15.93132,-4.4831 -23.68555,-2.2148 -0.94949,-8.229 -6.3565,-15.4829 -12.81836,-20.6524 l -2.53125,-2.0293 -2.16211,2.5039 c -4.29909,4.9849 -5.56657,13.2677 -4.98632,19.6504 0.422,4.6684 1.9269,9.4423 4.77539,13.1875 -2.21549,1.3188 -4.69467,2.3729 -6.91016,3.1114 -4.53648,1.5297 -9.41559,2.375 -14.18945,2.375 h -9.91797 v -21.127 h -21.31055 v -20.5723 -0.58 -20.8106 z m 3.13867,3.377 h 1.66211 v 14.6894 h -1.66211 z m 3.19141,0 h 1.66211 v 14.6894 h -1.66211 z m 3.58789,0 h 1.66015 v 14.6894 h -1.66015 z m 3.58593,0 h 1.66211 v 14.6894 h -1.66211 z m 3.56055,0 h 1.66211 v 14.6894 h -1.66211 z m -56.57422,20.7832 h 1.66211 v 14.6914 h -1.66211 z m 3.19141,0 h 1.66211 v 14.6914 h -1.66211 z m 3.58789,0 h 1.66016 v 14.6914 h -1.66016 z m 3.58594,0 h 1.66211 v 14.6914 h -1.66211 z m 3.58789,0 h 1.66015 v 14.6914 h -1.66015 z m 7.35742,0 h 1.66211 v 14.6914 h -1.66211 z m 3.19141,0 h 1.6621 v 14.6914 h -1.6621 z m 3.58789,0 h 1.66211 v 14.6914 h -1.66211 z m 3.58593,0 h 1.66211 v 14.6914 h -1.66211 z m 3.58789,0 h 1.66211 v 14.6914 h -1.66211 z m 7.38477,0 h 1.66211 v 14.6914 h -1.66211 z m 3.19141,0 h 1.66211 v 14.6914 h -1.66211 z m 3.58789,0 h 1.66015 v 14.6914 h -1.66015 z m 3.58593,0 h 1.66211 v 14.6914 h -1.66211 z m 3.56055,0 h 1.66211 v 14.6914 h -1.66211 z m -77.7793,21.4961 h 1.66211 v 14.6894 h -1.66211 z m 3.19141,0 h 1.66211 v 14.6894 h -1.66211 z m 3.58594,0 h 1.66211 v 14.6894 h -1.66211 z m 3.58789,0 h 1.66211 v 14.6894 h -1.66211 z m 3.58789,0 h 1.66016 v 14.6894 h -1.66016 z m 7.25195,0 h 1.66211 v 14.6894 h -1.66211 z m 3.19141,0 h 1.66211 v 14.6894 h -1.66211 z m 3.58789,0 h 1.66016 v 14.6894 h -1.66016 z m 3.58594,0 h 1.66211 v 14.6894 h -1.66211 z m 3.58789,0 h 1.66015 v 14.6894 h -1.66015 z m 7.35742,0 h 1.66211 v 14.6894 h -1.66211 z m 3.19141,0 h 1.6621 v 14.6894 h -1.6621 z m 3.58789,0 h 1.66211 v 14.6894 h -1.66211 z m 3.58593,0 h 1.66211 v 14.6894 h -1.66211 z m 3.58789,0 h 1.66211 v 14.6894 h -1.66211 z m 7.38477,0 h 1.66211 v 14.6894 h -1.66211 z m 3.19141,0 h 1.66211 v 14.6894 h -1.66211 z m 3.58789,0 h 1.66015 v 14.6894 h -1.66015 z m 3.58593,0 h 1.66211 v 14.6894 h -1.66211 z m 3.56055,0 h 1.66211 v 14.6894 h -1.66211 z m 7.38477,0 h 1.66211 v 14.6894 h -1.66211 z m 3.1914,0 h 1.66211 v 14.6894 h -1.66211 z m 3.58789,0 h 1.66211 v 14.6894 h -1.66211 z m 3.58594,0 h 1.66211 v 14.6894 h -1.66211 z m 3.58789,0 h 1.66211 v 14.6894 h -1.66211 z m -65.41015,41.3554 c 4.48373,0 8.09765,3.6384 8.09765,8.0957 0,4.4574 -3.64029,8.0977 -8.09765,8.0977 -4.45736,0 -8.09766,-3.6139 -8.09766,-8.0977 0,-4.4837 3.6403,-8.0957 8.09766,-8.0957 z m -0.16797,3.0372 c -2.86033,0 -5.19727,2.3369 -5.19727,5.1972 0,2.8603 2.33694,5.1953 5.19727,5.1953 2.86032,0 5.19531,-2.3111 5.19531,-5.1953 0,-0.3099 -0.0226,-0.5968 -0.0703,-0.8828 h -5.125 l 2.43164,-3.7187 c -0.71508,-0.3814 -1.54971,-0.5957 -2.43164,-0.5957 z m -15.12891,13.9472 c 0,0 7.0936,13.1362 30.96289,24.8731 0,0.026 -36.476,4.2972 -58.41992,-23.7129 l 0.89648,-0.078 c 14.09117,1.4753 19.97412,-0.1186 26.56055,-1.082 z"
         style="fill:#ffffff;stroke-width:1.12371433" />
      <text
         inkscape:export-ydpi="200"
         inkscape:export-xdpi="200"
         inkscape:export-filename="/home/adm1n/Github/azure/images/iac/abstractions.png"
         id="text8346"
         y="199.89458"
         x="34.764439"
         style="font-style:normal;font-variant:normal;font-weight:normal;font-stretch:normal;font-size:9.52499962px;line-height:1.25;font-family:'JetBrains Mono';-inkscape-font-specification:'JetBrains Mono, Normal';font-variant-ligatures:normal;font-variant-position:normal;font-variant-caps:normal;font-variant-numeric:normal;font-variant-alternates:normal;font-feature-settings:normal;text-indent:0;text-align:start;text-decoration:none;text-decoration-line:none;text-decoration-style:solid;text-decoration-color:#000000;letter-spacing:0px;word-spacing:0px;text-transform:none;writing-mode:lr-tb;direction:ltr;text-orientation:mixed;dominant-baseline:auto;baseline-shift:baseline;text-anchor:start;white-space:normal;shape-padding:0;opacity:1;vector-effect:none;fill:#ef9d10;fill-opacity:0.94117647;stroke:none;stroke-width:0.29731607;stroke-linecap:butt;stroke-linejoin:miter;stroke-miterlimit:4;stroke-dasharray:none;stroke-dashoffset:0;stroke-opacity:1"
         xml:space="preserve"
         transform="translate(269.52003,22.913956)"><tspan
           id="tspan8344"
           style="font-style:normal;font-variant:normal;font-weight:bold;font-stretch:normal;font-size:14.11111069px;font-family:'JetBrains Mono';-inkscape-font-specification:'JetBrains Mono Bold';font-variant-ligatures:normal;font-variant-caps:normal;font-variant-numeric:normal;font-feature-settings:normal;text-align:start;writing-mode:lr-tb;text-anchor:start;fill:#ef9d10;fill-opacity:0.94117647;stroke-width:0.29731607"
           y="199.89458"
           x="34.764439"
           sodipodi:role="line">Docker Image</tspan></text>
      <text
         transform="translate(127.46577,38.415576)"
         xml:space="preserve"
         style="font-style:normal;font-variant:normal;font-weight:normal;font-stretch:normal;font-size:9.52499962px;line-height:1.25;font-family:'JetBrains Mono';-inkscape-font-specification:'JetBrains Mono, Normal';font-variant-ligatures:normal;font-variant-position:normal;font-variant-caps:normal;font-variant-numeric:normal;font-variant-alternates:normal;font-feature-settings:normal;text-indent:0;text-align:start;text-decoration:none;text-decoration-line:none;text-decoration-style:solid;text-decoration-color:#000000;letter-spacing:0px;word-spacing:0px;text-transform:none;writing-mode:lr-tb;direction:ltr;text-orientation:mixed;dominant-baseline:auto;baseline-shift:baseline;text-anchor:start;white-space:normal;shape-padding:0;opacity:1;vector-effect:none;fill:#394d61;fill-opacity:0.94117647;stroke:none;stroke-width:0.29731607;stroke-linecap:butt;stroke-linejoin:miter;stroke-miterlimit:4;stroke-dasharray:none;stroke-dashoffset:0;stroke-opacity:1"
         x="34.764439"
         y="199.89458"
         id="text8350"
         inkscape:export-filename="/home/adm1n/Github/azure/images/iac/abstractions.png"
         inkscape:export-xdpi="200"
         inkscape:export-ydpi="200"><tspan
           sodipodi:role="line"
           x="34.764439"
           y="199.89458"
           style="font-style:normal;font-variant:normal;font-weight:bold;font-stretch:normal;font-size:14.11111069px;font-family:'JetBrains Mono';-inkscape-font-specification:'JetBrains Mono Bold';font-variant-ligatures:normal;font-variant-caps:normal;font-variant-numeric:normal;font-feature-settings:normal;text-align:start;writing-mode:lr-tb;text-anchor:start;fill:#394d61;fill-opacity:0.94117647;stroke-width:0.29731607"
           id="tspan8348">Docker Engine</tspan></text>
      <text
         transform="translate(-15.119473,24.254517)"
         xml:space="preserve"
         style="font-style:normal;font-variant:normal;font-weight:normal;font-stretch:normal;font-size:9.52499962px;line-height:1.25;font-family:'JetBrains Mono';-inkscape-font-specification:'JetBrains Mono, Normal';font-variant-ligatures:normal;font-variant-position:normal;font-variant-caps:normal;font-variant-numeric:normal;font-variant-alternates:normal;font-feature-settings:normal;text-indent:0;text-align:start;text-decoration:none;text-decoration-line:none;text-decoration-style:solid;text-decoration-color:#000000;letter-spacing:0px;word-spacing:0px;text-transform:none;writing-mode:lr-tb;direction:ltr;text-orientation:mixed;dominant-baseline:auto;baseline-shift:baseline;text-anchor:start;white-space:normal;shape-padding:0;opacity:1;vector-effect:none;fill:#6b7b8c;fill-opacity:0.94117647;stroke:none;stroke-width:0.29731607;stroke-linecap:butt;stroke-linejoin:miter;stroke-miterlimit:4;stroke-dasharray:none;stroke-dashoffset:0;stroke-opacity:1"
         x="34.764439"
         y="199.89458"
         id="text8359"
         inkscape:export-filename="/home/adm1n/Github/azure/images/iac/abstractions.png"
         inkscape:export-xdpi="200"
         inkscape:export-ydpi="200"><tspan
           sodipodi:role="line"
           x="34.764439"
           y="199.89458"
           style="font-style:normal;font-variant:normal;font-weight:bold;font-stretch:normal;font-size:14.11111069px;font-family:'JetBrains Mono';-inkscape-font-specification:'JetBrains Mono Bold';font-variant-ligatures:normal;font-variant-caps:normal;font-variant-numeric:normal;font-feature-settings:normal;text-align:start;writing-mode:lr-tb;text-anchor:start;fill:#6b7b8c;fill-opacity:0.94117647;stroke-width:0.29731607"
           id="tspan8357">Dockerfile</tspan></text>
    </g>
  </g>
</svg>
