<?xml version="1.0" encoding="UTF-8" standalone="no"?>
<!-- Created with Inkscape (http://www.inkscape.org/) -->

<svg
   xmlns:dc="http://purl.org/dc/elements/1.1/"
   xmlns:cc="http://creativecommons.org/ns#"
   xmlns:rdf="http://www.w3.org/1999/02/22-rdf-syntax-ns#"
   xmlns:svg="http://www.w3.org/2000/svg"
   xmlns="http://www.w3.org/2000/svg"
   xmlns:xlink="http://www.w3.org/1999/xlink"
   xmlns:sodipodi="http://sodipodi.sourceforge.net/DTD/sodipodi-0.dtd"
   xmlns:inkscape="http://www.inkscape.org/namespaces/inkscape"
   width="420mm"
   height="297mm"
   viewBox="0 0 420 297"
   version="1.1"
   id="svg1305"
   inkscape:version="0.92.3 (2405546, 2018-03-11)"
   sodipodi:docname="flow.svg">
  <defs
     id="defs1299">
    <marker
       inkscape:isstock="true"
       style="overflow:visible"
       id="marker17439"
       refX="0"
       refY="0"
       orient="auto"
       inkscape:stockid="Arrow1Send">
      <path
         inkscape:connector-curvature="0"
         transform="matrix(-0.2,0,0,-0.2,-1.2,0)"
         style="fill:#3a4d61;fill-opacity:1;fill-rule:evenodd;stroke:#3a4d61;stroke-width:1.00000003pt;stroke-opacity:1"
         d="M 0,0 5,-5 -12.5,0 5,5 Z"
         id="path17437" />
    </marker>
    <marker
       inkscape:stockid="Arrow1Send"
       orient="auto"
       refY="0"
       refX="0"
       id="marker17575"
       style="overflow:visible"
       inkscape:isstock="true">
      <path
         inkscape:connector-curvature="0"
         id="path17573"
         d="M 0,0 5,-5 -12.5,0 5,5 Z"
         style="fill:#6b7b8c;fill-opacity:1;fill-rule:evenodd;stroke:#6b7b8c;stroke-width:1.00000003pt;stroke-opacity:1"
         transform="matrix(-0.2,0,0,-0.2,-1.2,0)" />
    </marker>
    <marker
       inkscape:isstock="true"
       style="overflow:visible"
       id="marker8180"
       refX="0"
       refY="0"
       orient="auto"
       inkscape:stockid="Arrow1Send">
      <path
         transform="matrix(-0.2,0,0,-0.2,-1.2,0)"
         style="fill:#394d61;fill-opacity:1;fill-rule:evenodd;stroke:#394d61;stroke-width:1.00000003pt;stroke-opacity:1"
         d="M 0,0 5,-5 -12.5,0 5,5 Z"
         id="path8178"
         inkscape:connector-curvature="0" />
    </marker>
    <marker
       inkscape:isstock="true"
       style="overflow:visible"
       id="marker8184"
       refX="0"
       refY="0"
       orient="auto"
       inkscape:stockid="Arrow1Send">
      <path
         transform="matrix(-0.2,0,0,-0.2,-1.2,0)"
         style="fill:#ef9d10;fill-opacity:1;fill-rule:evenodd;stroke:#ef9d10;stroke-width:1.00000003pt;stroke-opacity:1"
         d="M 0,0 5,-5 -12.5,0 5,5 Z"
         id="path8182"
         inkscape:connector-curvature="0" />
    </marker>
    <clipPath
       clipPathUnits="userSpaceOnUse"
       id="clipPath2103">
      <rect
         y="780.41144"
         x="1352.526"
         height="210.91074"
         width="349.25"
         id="rect2105"
         style="opacity:0.478;vector-effect:none;fill:#ff0000;fill-opacity:1;fill-rule:evenodd;stroke:none;stroke-width:0.93366641;stroke-linecap:butt;stroke-linejoin:miter;stroke-miterlimit:4;stroke-dasharray:none;stroke-dashoffset:0;stroke-opacity:1" />
    </clipPath>
    <linearGradient
       inkscape:collect="always"
       xlink:href="#linearGradient24825"
       id="linearGradient24827"
       x1="6323.4995"
       y1="1665.8149"
       x2="6398.8447"
       y2="1747.3848"
       gradientUnits="userSpaceOnUse" />
    <linearGradient
       inkscape:collect="always"
       id="linearGradient24825">
      <stop
         style="stop-color:#ffffff;stop-opacity:1;"
         offset="0"
         id="stop24821" />
      <stop
         style="stop-color:#ffffff;stop-opacity:0;"
         offset="1"
         id="stop24823" />
    </linearGradient>
    <filter
       height="1.1423987"
       y="-0.071199343"
       width="1.1001576"
       x="-0.050078794"
       id="filter4915-2-3"
       style="color-interpolation-filters:sRGB"
       inkscape:collect="always">
      <feGaussianBlur
         id="feGaussianBlur4917-8-6"
         stdDeviation="6.8263314"
         inkscape:collect="always" />
    </filter>
  </defs>
  <sodipodi:namedview
     id="base"
     pagecolor="#ffffff"
     bordercolor="#666666"
     borderopacity="1.0"
     inkscape:pageopacity="0.0"
     inkscape:pageshadow="2"
     inkscape:zoom="0.98994949"
     inkscape:cx="1113.0476"
     inkscape:cy="219.23656"
     inkscape:document-units="mm"
     inkscape:current-layer="layer1"
     showgrid="false"
     inkscape:window-width="1920"
     inkscape:window-height="1017"
     inkscape:window-x="-8"
     inkscape:window-y="-8"
     inkscape:window-maximized="1"
     showguides="false"
     inkscape:guide-bbox="true"
     inkscape:snap-global="false">
    <sodipodi:guide
       position="202.59524,219.22619"
       orientation="1,0"
       id="guide4023"
       inkscape:locked="false" />
    <sodipodi:guide
       position="253.90605,143.79101"
       orientation="0,1"
       id="guide4025"
       inkscape:locked="false" />
  </sodipodi:namedview>
  <metadata
     id="metadata1302">
    <rdf:RDF>
      <cc:Work
         rdf:about="">
        <dc:format>image/svg+xml</dc:format>
        <dc:type
           rdf:resource="http://purl.org/dc/dcmitype/StillImage" />
        <dc:title></dc:title>
      </cc:Work>
    </rdf:RDF>
  </metadata>
  <g
     inkscape:label="Layer 1"
     inkscape:groupmode="layer"
     id="layer1">
    <text
       inkscape:export-ydpi="200"
       inkscape:export-xdpi="200"
       inkscape:export-filename="/home/adm1n/Github/azure/images/iac/abstractions.png"
       id="text875"
       y="199.89458"
       x="65.378235"
       style="font-style:normal;font-variant:normal;font-weight:normal;font-stretch:normal;font-size:9.52499962px;line-height:1.25;font-family:'JetBrains Mono';-inkscape-font-specification:'JetBrains Mono, Normal';font-variant-ligatures:normal;font-variant-position:normal;font-variant-caps:normal;font-variant-numeric:normal;font-variant-alternates:normal;font-feature-settings:normal;text-indent:0;text-align:center;text-decoration:none;text-decoration-line:none;text-decoration-style:solid;text-decoration-color:#000000;letter-spacing:0px;word-spacing:0px;text-transform:none;writing-mode:lr-tb;direction:ltr;text-orientation:mixed;dominant-baseline:auto;baseline-shift:baseline;text-anchor:middle;white-space:normal;shape-padding:0;opacity:1;vector-effect:none;fill:#3a4d61;fill-opacity:0.94117647;stroke:none;stroke-width:0.26458329;stroke-linecap:butt;stroke-linejoin:miter;stroke-miterlimit:4;stroke-dasharray:none;stroke-dashoffset:0;stroke-opacity:1"
       xml:space="preserve"
       transform="translate(282.88164,-20.560639)"><tspan
         style="font-style:normal;font-variant:normal;font-weight:500;font-stretch:normal;font-size:22.57777786px;font-family:'JetBrains Mono';-inkscape-font-specification:'JetBrains Mono Medium';font-variant-ligatures:normal;font-variant-caps:normal;font-variant-numeric:normal;font-feature-settings:normal;text-align:center;writing-mode:lr-tb;text-anchor:middle;fill:#3a4d61;fill-opacity:0.94117647;stroke-width:0.26458329"
         y="208.74408"
         x="65.378235"
         sodipodi:role="line"
         id="tspan873" /></text>
    <rect
       style="opacity:1;fill:#000000;fill-opacity:1;stroke:none;stroke-width:0.92869377;stroke-linecap:round;stroke-linejoin:bevel;stroke-miterlimit:4;stroke-dasharray:none;stroke-dashoffset:0;stroke-opacity:1;filter:url(#filter4915-2-3)"
       id="rect2131"
       width="327.14835"
       height="230.1032"
       x="5621.6655"
       y="-1293.2194"
       rx="1.2907569"
       ry="1.2706155"
       transform="matrix(0.74784283,0,0,0.75969749,-4104.3011,1063.5881)" />
    <rect
       style="fill:#f0f1f4;stroke-width:1.0119077;stroke-miterlimit:4;stroke-dasharray:none"
       x="1458.0083"
       y="995.77881"
       width="349.47479"
       height="213.77003"
       id="rect2133"
       transform="matrix(0.69176268,0,0,0.69176268,-912.08647,-587.98224)" />
    <rect
       style="fill:#ffffff;stroke-width:1.0119077;stroke-miterlimit:4;stroke-dasharray:none"
       x="1458.0083"
       y="1004.4698"
       width="349.47479"
       height="198.09126"
       id="rect2135"
       transform="matrix(0.69176268,0,0,0.69176268,-912.08647,-587.98224)" />
    <g
       transform="translate(-49.040893,-19.799189)"
       id="g1213">
      <path
         transform="matrix(0.19786675,0,0,0.2010033,127.92015,83.494045)"
         style="fill:#6b7b8c;fill-opacity:0.94117647;stroke-width:3.51002359;stroke-miterlimit:4;stroke-dasharray:none"
         inkscape:connector-curvature="0"
         d="m 1310.9,124.3 c 0,3.6 -2.9,6.5 -6.5,6.5 H 95.6 c -3.6,0 -6.5,-2.9 -6.5,-6.5 V 65.9 c 0,-3.6 2.9,-6.5 6.5,-6.5 h 1208.8 c 3.6,0 6.5,2.9 6.5,6.5 z"
         id="path2137" />
      <g
         transform="matrix(0.19786675,0,0,0.2010033,127.92015,83.494045)"
         style="fill:#3a4d61;fill-opacity:0.94117647;stroke-width:3.51002359;stroke-miterlimit:4;stroke-dasharray:none"
         id="g2143">
        <path
           style="fill:#3a4d61;fill-opacity:0.94117647;stroke-width:3.51002359;stroke-miterlimit:4;stroke-dasharray:none"
           inkscape:connector-curvature="0"
           d="m 1291,83.5 c -0.4,0 -0.8,-0.2 -1.1,-0.5 -0.3,-0.3 -0.5,-0.7 -0.5,-1.2 0,-0.4 0.2,-0.8 0.5,-1.1 l 2.6,-2.6 -2.8,-2.8 h 8 v 8 l -2.8,-2.8 -2.6,2.6 c -0.5,0.2 -0.9,0.4 -1.3,0.4 z"
           id="path2139" />
        <path
           style="fill:#3a4d61;fill-opacity:0.94117647;stroke-width:3.51002359;stroke-miterlimit:4;stroke-dasharray:none"
           inkscape:connector-curvature="0"
           d="m 1280,92.8 v -8 l 3,3 2.7,-2.7 c 0.3,-0.3 0.7,-0.5 1.1,-0.5 0.4,0 0.8,0.2 1.1,0.5 0.3,0.3 0.5,0.7 0.5,1.1 0,0.4 -0.2,0.8 -0.5,1.1 l -2.7,2.7 2.7,2.7 h -7.9 z"
           id="path2141" />
      </g>
      <circle
         transform="matrix(0.19786675,0,0,0.2010033,127.92015,83.494045)"
         id="circle2145"
         r="7.8000002"
         cy="85.400002"
         cx="116.4"
         style="fill:#3a4d61;fill-opacity:0.94117647;stroke-width:3.51002359;stroke-miterlimit:4;stroke-dasharray:none" />
      <circle
         transform="matrix(0.19786675,0,0,0.2010033,127.92015,83.494045)"
         id="circle2147"
         r="7.8000002"
         cy="85.400002"
         cx="143.7"
         style="fill:#ef9d10;fill-opacity:0.94117647;stroke-width:3.51002359;stroke-miterlimit:4;stroke-dasharray:none" />
      <circle
         transform="matrix(0.19786675,0,0,0.2010033,127.92015,83.494045)"
         id="circle2149"
         r="7.8000002"
         cy="85.400002"
         cx="171"
         style="fill:#3a4d61;fill-opacity:0.94117647;stroke-width:3.51002359;stroke-miterlimit:4;stroke-dasharray:none" />
      <path
         transform="matrix(0.19786675,0,0,0.2010033,127.92015,83.494045)"
         style="fill:#e0e3e8;stroke-width:3.51002359;stroke-miterlimit:4;stroke-dasharray:none"
         inkscape:connector-curvature="0"
         d="m 473.2,110.1 c -7.8,0 -10.4,-32.5 -20.8,-32.5 -7.8,0 -234,0 -241.8,0 -10.4,0 -13,32.5 -20.8,32.5 H 89.1 v 74.6 0.2 h 1221.8 v -0.2 -74.6 z"
         id="path2153" />
      <path
         transform="matrix(0.19786675,0,0,0.2010033,127.92015,83.494045)"
         style="fill:#ffffff;stroke-width:3.51002359;stroke-miterlimit:4;stroke-dasharray:none"
         inkscape:connector-curvature="0"
         d="M 1222.8,172.8 H 227 c -1.8,0 -3.2,-1.4 -3.2,-3.2 v -41.9 c 0,-1.7 1.4,-3.2 3.2,-3.2 h 995.9 c 1.8,0 3.2,1.4 3.2,3.2 v 41.9 c -0.1,1.8 -1.5,3.2 -3.3,3.2 z"
         id="path2155" />
      <g
         transform="matrix(0.19786675,0,0,0.2010033,127.92015,83.494045)"
         id="g2163"
         style="fill:#3a4d61;fill-opacity:0.94117647;stroke-width:3.51002359;stroke-miterlimit:4;stroke-dasharray:none">
        <path
           id="path2157"
           d="m 130.9,146.9 h -10.6 l 4.3,-3.9 c 0.6,-0.6 0.6,-1.6 0,-2.1 -0.6,-0.6 -1.6,-0.6 -2.1,0 l -7.4,6.8 c -0.6,0.6 -0.6,1.6 0,2.1 l 7.4,7.1 c 0.3,0.3 0.7,0.4 1.1,0.4 0.4,0 0.8,-0.1 1.1,-0.4 0.6,-0.6 0.6,-1.6 0,-2.1 l -4.1,-3.9 H 131 c 1.1,0 1.9,-0.9 1.9,-1.9 -0.1,-1.2 -0.9,-2.1 -2,-2.1 z"
           inkscape:connector-curvature="0"
           style="fill:#3a4d61;fill-opacity:0.94117647;stroke-width:3.51002359;stroke-miterlimit:4;stroke-dasharray:none" />
        <path
           id="path2159"
           d="m 164.9,148 -7.4,-7.1 c -0.3,-0.3 -0.7,-0.4 -1.1,-0.4 -0.4,0 -0.8,0.1 -1.1,0.4 -0.6,0.6 -0.6,1.6 0,2.1 l 4.1,3.9 H 149 c -1.1,0 -1.9,0.9 -1.9,1.9 0,1.1 0.9,1.9 1.9,1.9 h 10.6 l -4.3,3.9 c -0.6,0.6 -0.6,1.6 0,2.1 0.6,0.6 1.6,0.6 2.1,0 l 7.4,-6.8 c 0.7,-0.4 0.7,-1.3 0.1,-1.9 z"
           inkscape:connector-curvature="0"
           style="fill:#3a4d61;fill-opacity:0.94117647;stroke-width:3.51002359;stroke-miterlimit:4;stroke-dasharray:none" />
        <path
           id="path2161"
           d="m 199.1,148.1 v -7.7 l -2.6,2.6 c -1.4,-1.2 -3.2,-1.9 -5.1,-1.9 -4.4,0 -8,3.6 -8,8 0,4.4 3.6,8 8,8 2.6,0 4.9,-1.2 6.4,-3.1 0.5,-0.6 0.4,-1.5 -0.3,-2 -0.3,-0.2 -0.6,-0.3 -0.9,-0.3 -0.4,0 -0.9,0.2 -1.1,0.6 -1,1.2 -2.4,2 -4.1,2 -1.4,0 -2.7,-0.6 -3.7,-1.5 -0.9,-0.9 -1.5,-2.2 -1.5,-3.7 0,-1.4 0.6,-2.7 1.5,-3.7 0.9,-0.9 2.2,-1.5 3.7,-1.5 1.2,0 2.2,0.4 3.1,1 l -3,3 h 7.6 z"
           inkscape:connector-curvature="0"
           style="fill:#3a4d61;fill-opacity:0.94117647;stroke-width:3.51002359;stroke-miterlimit:4;stroke-dasharray:none" />
      </g>
      <g
         transform="matrix(0.19786675,0,0,0.2010033,127.92015,83.494045)"
         id="g2171"
         style="fill:#3a4d61;fill-opacity:0.94117647;stroke-width:3.51002359;stroke-miterlimit:4;stroke-dasharray:none">
        <path
           id="path2165"
           d="m 1282.4,142 h -26.5 c -1.6,0 -3,-1.3 -3,-3 0,-1.6 1.3,-2.9 3,-2.9 h 26.5 c 1.6,0 2.9,1.3 2.9,2.9 0,1.7 -1.3,3 -2.9,3 z"
           inkscape:connector-curvature="0"
           style="fill:#3a4d61;fill-opacity:0.94117647;stroke-width:3.51002359;stroke-miterlimit:4;stroke-dasharray:none" />
        <path
           id="path2167"
           d="m 1282.4,151.8 h -26.5 c -1.6,0 -3,-1.3 -3,-3 0,-1.6 1.3,-2.9 3,-2.9 h 26.5 c 1.6,0 2.9,1.3 2.9,2.9 0,1.7 -1.3,3 -2.9,3 z"
           inkscape:connector-curvature="0"
           style="fill:#3a4d61;fill-opacity:0.94117647;stroke-width:3.51002359;stroke-miterlimit:4;stroke-dasharray:none" />
        <path
           id="path2169"
           d="m 1282.4,161.7 h -26.5 c -1.6,0 -3,-1.3 -3,-2.9 0,-1.6 1.3,-2.9 3,-2.9 h 26.5 c 1.6,0 2.9,1.3 2.9,2.9 0,1.5 -1.3,2.9 -2.9,2.9 z"
           inkscape:connector-curvature="0"
           style="fill:#3a4d61;fill-opacity:0.94117647;stroke-width:3.51002359;stroke-miterlimit:4;stroke-dasharray:none" />
      </g>
      <path
         transform="matrix(0.19786675,0,0,0.2010033,127.92015,83.494045)"
         id="path2173"
         d="m 1210.3,146.3 c -0.3,-0.8 -1,-1.3 -1.8,-1.3 h -5.2 l -1.6,-4.9 c -0.3,-0.8 -1,-1.3 -1.8,-1.3 -0.8,0 -1.6,0.5 -1.8,1.3 l -1.6,4.9 h -5.2 c -0.8,0 -1.6,0.5 -1.8,1.3 -0.3,0.8 0,1.7 0.7,2.2 l 4.2,3 -1.6,4.9 c -0.3,0.8 0,1.7 0.7,2.2 0.3,0.2 0.7,0.4 1.1,0.4 0.4,0 0.8,-0.1 1.1,-0.4 l 4.2,-3 4.2,3 c 0.3,0.2 0.7,0.4 1.1,0.4 0.4,0 0.8,-0.1 1.1,-0.4 0.7,-0.5 1,-1.4 0.7,-2.2 l -1.6,-4.9 4.2,-3 c 0.7,-0.5 1,-1.4 0.7,-2.2 z"
         inkscape:connector-curvature="0"
         style="fill:#ef9d10;fill-opacity:0.94117647;stroke-width:3.51002359;stroke-miterlimit:4;stroke-dasharray:none" />
      <path
         transform="matrix(0.19786675,0,0,0.2010033,127.92015,83.494045)"
         id="path2175"
         d="m 251.1,136.1 c -7,0 -12.7,5.7 -12.7,12.8 0,7.1 5.7,12.8 12.7,12.8 7,0 12.7,-5.7 12.7,-12.8 0,-7.1 -5.7,-12.8 -12.7,-12.8 z m -1.1,23.8 v 0 c -5.6,-0.6 -9.9,-5.3 -9.9,-11.1 0,-3.8 1.9,-7.1 4.7,-9.1 l -0.9,1.2 0.3,1.6 -0.5,0.8 v 0.8 l -0.3,1.7 0.1,1 0.6,0.7 0.8,1.5 0.7,1.3 h 1 l 1.5,1.5 0.8,0.5 0.6,0.7 v 0.7 l -0.5,0.8 v 1 l 0.5,1 1.4,0.7 0.3,1.5 -0.5,1.1 c -0.2,0 -0.4,0 -0.6,0 z m 4.3,-0.5 0.1,-0.2 1.3,-0.8 1,-1.7 0.7,-1.2 0.1,-0.8 -1.3,-0.7 -1.9,-1.2 -0.4,-0.7 -1.6,-0.3 h -1.7 l -1.2,-0.1 -1,-0.9 -0.8,-0.6 -0.9,-1.2 -0.5,-0.1 v -0.9 -0.9 h 0.6 1.2 l 0.7,0.1 v 0.8 l 0.9,0.1 -0.4,-1.4 v -0.6 l 0.7,-0.4 0.5,-0.3 0.9,-0.7 0.9,-1.4 0.5,-0.5 -1,-0.8 -1,-0.5 -0.5,0.5 h -0.5 l -0.7,0.7 v 0.6 l -0.9,-0.5 1,-1.3 -0.9,-0.7 0.7,-0.4 0.8,-0.6 0.6,-0.6 -0.9,-0.1 h -0.8 l -0.8,0.5 -0.8,-0.6 -0.6,-0.5 h -0.1 c 1.2,-0.6 2.5,-1 4,-1.1 l -0.5,0.1 1,0.9 1.2,0.6 0.6,1 1,-0.1 0.5,-0.9 -0.5,-0.9 -0.9,-0.6 c 1.9,0.2 3.6,1 5.1,2 l 0.6,1.9 0.7,0.8 -1.5,2.4 c 0,0 0.5,0.6 1.1,0.7 0,0 0,0 0,0 0.2,0 0.3,-0.2 0.4,-0.3 0.1,-0.2 0.2,-0.3 0.4,-0.3 0,0 0,0 0.1,0 0.6,0.1 1.4,0.7 1.5,0.8 0.1,0.3 -2.6,2.6 -2.6,2.6 l 0.9,1.7 1.4,1.4 0.8,-0.8 0.4,0.6 c -1.2,4.2 -4,7.3 -7.7,8.4 z"
         inkscape:connector-curvature="0"
         style="fill:#ccd1d9;stroke-width:3.51002359;stroke-miterlimit:4;stroke-dasharray:none" />
      <text
         inkscape:export-ydpi="100"
         inkscape:export-xdpi="100"
         id="text2183"
         y="1015.7376"
         x="1545.8146"
         style="font-style:normal;font-variant:normal;font-weight:500;font-stretch:normal;font-size:12.23926544px;line-height:1.25;font-family:'JetBrains Mono';-inkscape-font-specification:'JetBrains Mono, Medium';font-variant-ligatures:normal;font-variant-position:normal;font-variant-caps:normal;font-variant-numeric:normal;font-variant-alternates:normal;font-feature-settings:normal;text-indent:0;text-align:center;text-decoration:none;text-decoration-line:none;text-decoration-style:solid;text-decoration-color:#000000;letter-spacing:0px;word-spacing:0px;text-transform:none;writing-mode:lr-tb;direction:ltr;text-orientation:mixed;dominant-baseline:auto;baseline-shift:baseline;text-anchor:middle;white-space:normal;shape-padding:0;opacity:1;vector-effect:none;fill:#000000;fill-opacity:1;stroke:none;stroke-width:1.01190782;stroke-linecap:butt;stroke-linejoin:miter;stroke-miterlimit:4;stroke-dasharray:none;stroke-dashoffset:0;stroke-opacity:1"
         xml:space="preserve"
         transform="matrix(0.71093805,0,0,0.67310448,-836.66825,-567.45028)"><tspan
           sodipodi:role="line"
           id="tspan34467"
           style="font-style:normal;font-variant:normal;font-weight:500;font-stretch:normal;font-size:12.23926544px;font-family:'JetBrains Mono';-inkscape-font-specification:'JetBrains Mono, Medium';font-variant-ligatures:normal;font-variant-caps:normal;font-variant-numeric:normal;font-feature-settings:normal;text-align:center;writing-mode:lr-tb;text-anchor:middle"
           x="1545.8146"
           y="1015.7376">https://emea.flow.microsoft.com</tspan></text>
    </g>
    <circle
       style="opacity:1;fill:#ef9d10;fill-opacity:0.94117647;stroke:none;stroke-width:2.13361144;stroke-linecap:round;stroke-linejoin:bevel;stroke-miterlimit:4;stroke-dasharray:none;stroke-dashoffset:0;stroke-opacity:0.94117647;paint-order:normal"
       id="path24715"
       cx="6362.8569"
       cy="1718.234"
       r="47.142857"
       transform="matrix(0.93737792,0,0,0.93737792,-5751.5615,-1443.7696)" />
    <path
       inkscape:connector-curvature="0"
       style="opacity:0.40800003;fill:url(#linearGradient24827);fill-opacity:1;stroke:none;stroke-width:2.56723809;stroke-linecap:round;stroke-linejoin:bevel;stroke-miterlimit:4;stroke-dasharray:none;stroke-dashoffset:0;stroke-opacity:0.94117647;paint-order:normal"
       d="m 6363.5703,1647.209 a 56.739305,56.739305 0 0 0 -56.7383,56.7402 56.739305,56.739305 0 0 0 56.7383,56.7383 56.739305,56.739305 0 0 0 56.7402,-56.7383 56.739305,56.739305 0 0 0 -56.7402,-56.7402 z m 0,7.0703 a 49.668237,49.668237 0 0 1 49.6699,49.6699 49.668237,49.668237 0 0 1 -49.6699,49.668 49.668237,49.668237 0 0 1 -49.668,-49.668 49.668237,49.668237 0 0 1 49.668,-49.6699 z"
       transform="matrix(0.77904736,0,0,0.77904736,-4744.6833,-1160.5914)"
       id="circle24781" />
    <text
       transform="matrix(2.944431,0,0,2.944431,20.647647,-409.77782)"
       xml:space="preserve"
       style="font-style:normal;font-variant:normal;font-weight:normal;font-stretch:normal;font-size:9.52499962px;line-height:1.25;font-family:'JetBrains Mono';-inkscape-font-specification:'JetBrains Mono, Normal';font-variant-ligatures:normal;font-variant-position:normal;font-variant-caps:normal;font-variant-numeric:normal;font-variant-alternates:normal;font-feature-settings:normal;text-indent:0;text-align:center;text-decoration:none;text-decoration-line:none;text-decoration-style:solid;text-decoration-color:#000000;letter-spacing:0px;word-spacing:0px;text-transform:none;writing-mode:lr-tb;direction:ltr;text-orientation:mixed;dominant-baseline:auto;baseline-shift:baseline;text-anchor:middle;white-space:normal;shape-padding:0;opacity:1;vector-effect:none;fill:#45576a;fill-opacity:1;stroke:none;stroke-width:0.0898589;stroke-linecap:butt;stroke-linejoin:miter;stroke-miterlimit:4;stroke-dasharray:none;stroke-dashoffset:0;stroke-opacity:1"
       x="65.378235"
       y="199.89458"
       id="text24595-4"
       inkscape:export-filename="/home/adm1n/Github/azure/images/iac/abstractions.png"
       inkscape:export-xdpi="200"
       inkscape:export-ydpi="200"><tspan
         id="tspan24593-1"
         sodipodi:role="line"
         x="65.378235"
         y="199.89458"
         style="font-style:normal;font-variant:normal;font-weight:500;font-stretch:normal;font-size:11.28888893px;font-family:'JetBrains Mono';-inkscape-font-specification:'JetBrains Mono Medium';font-variant-ligatures:normal;font-variant-caps:normal;font-variant-numeric:normal;font-feature-settings:normal;text-align:center;writing-mode:lr-tb;text-anchor:middle;fill:#45576a;fill-opacity:1;stroke:none;stroke-width:0.0898589">GUI</tspan></text>
    <path
       inkscape:connector-curvature="0"
       style="opacity:1;fill:#6b7b8c;fill-opacity:1;stroke:none;stroke-width:2.56723809;stroke-linecap:round;stroke-linejoin:bevel;stroke-miterlimit:4;stroke-dasharray:none;stroke-dashoffset:0;stroke-opacity:0.94117647;paint-order:normal"
       d="m 6381.627,1723.2539 a 31.819805,31.819805 0 0 0 -31.8204,31.8184 31.819805,31.819805 0 0 0 31.8204,31.8203 31.819805,31.819805 0 0 0 31.8203,-31.8203 31.819805,31.819805 0 0 0 -31.8203,-31.8184 z m 0,5.1758 a 26.642773,26.642773 0 0 1 26.6425,26.6426 26.642773,26.642773 0 0 1 -26.6425,26.6425 26.642773,26.642773 0 0 1 -26.6426,-26.6425 26.642773,26.642773 0 0 1 26.6426,-26.6426 z m 0,4.9258 a 21.718279,21.718279 0 0 0 -21.7188,21.7168 21.718279,21.718279 0 0 0 21.7188,21.7187 21.718279,21.718279 0 0 0 21.7187,-21.7187 21.718279,21.718279 0 0 0 -21.7187,-21.7168 z m 0,5.3027 a 16.414978,16.414978 0 0 1 16.416,16.4141 16.414978,16.414978 0 0 1 -16.416,16.416 16.414978,16.414978 0 0 1 -16.4141,-16.416 16.414978,16.414978 0 0 1 16.4141,-16.4141 z"
       transform="matrix(0.77904736,0,0,0.77904736,-4744.6833,-1160.5914)"
       id="path24848" />
    <g
       id="g34503"
       transform="matrix(0.47498389,0,0,0.47498389,35.568114,124.09128)"
       style="stroke-width:2.10533452">
      <path
         inkscape:connector-curvature="0"
         id="path34499"
         transform="matrix(0.26458333,0,0,0.26458333,380.08914,158.21002)"
         d="m 218.3825,464.08625 c -2.26462,-1.0284 -4.79392,-2.83555 -5.62067,-4.01589 -0.82674,-1.18034 -12.69886,-29.11804 -26.3825,-62.08379 L 161.5,338.04886 l -32,31.93981 c -22.25613,22.21427 -33.180508,32.42768 -35.876927,33.54202 -7.402749,3.05933 -16.338815,-0.48676 -19.659253,-7.80135 -1.87042,-4.12035 -1.919896,-8.86798 -1.919896,-184.22934 0,-175.361362 0.04948,-180.108991 1.919896,-184.22934 3.178326,-7.001535 11.328445,-10.598996 18.721001,-8.263447 3.096061,0.978147 27.724949,25.076238 130.665129,127.849067 74.59245,74.47117 127.42672,127.96937 128.25,129.8616 3.00898,6.91585 0.85174,15.39681 -4.97324,19.55181 -3.10254,2.21307 -3.49163,2.23418 -50.33338,2.73031 l -47.20667,0.5 25.45667,61.23375 C 291.83226,402.32073 300,423.1274 300,425.58262 c 0,4.64315 -2.53068,9.94997 -5.87329,12.31626 -4.18539,2.96292 -65.86562,28.10343 -68.88996,28.07916 -1.50521,-0.0121 -4.58962,-0.86338 -6.85425,-1.89179 z"
         style="fill:#ffffff;fill-opacity:1;stroke-width:7.95717001" />
      <path
         transform="matrix(0.26458333,0,0,0.26458333,380.08914,158.21002)"
         inkscape:connector-curvature="0"
         id="path34493"
         d="m 218.3825,464.08625 c -2.26462,-1.0284 -4.79392,-2.83555 -5.62067,-4.01589 -0.82674,-1.18034 -12.69886,-29.11804 -26.3825,-62.08379 L 161.5,338.04886 l -32,31.93981 c -22.25613,22.21427 -33.180508,32.42768 -35.876927,33.54202 -7.402749,3.05933 -16.338815,-0.48676 -19.659253,-7.80135 -1.87042,-4.12035 -1.919896,-8.86798 -1.919896,-184.22934 0,-175.361362 0.04948,-180.108991 1.919896,-184.22934 3.178326,-7.001535 11.328445,-10.598996 18.721001,-8.263447 3.096061,0.978147 27.724949,25.076238 130.665129,127.849067 74.59245,74.47117 127.42672,127.96937 128.25,129.8616 3.00898,6.91585 0.85174,15.39681 -4.97324,19.55181 -3.10254,2.21307 -3.49163,2.23418 -50.33338,2.73031 l -47.20667,0.5 25.45667,61.23375 C 291.83226,402.32073 300,423.1274 300,425.58262 c 0,4.64315 -2.53068,9.94997 -5.87329,12.31626 -4.18539,2.96292 -65.86562,28.10343 -68.88996,28.07916 -1.50521,-0.0121 -4.58962,-0.86338 -6.85425,-1.89179 z M 248,423.41208 c 7.425,-3.07045 13.88964,-5.95641 14.36587,-6.41323 0.48,-0.46044 -12.53427,-33.06668 -29.20254,-73.16472 C 216.62569,304.05036 202.80041,270.7125 202.44046,269.75 201.82286,268.09852 204.49419,268 249.89301,268 276.35186,268 298,267.66163 298,267.24807 298,266.8345 254.35,222.84787 201,169.5 L 104,72.503866 V 211.4965 350.48913 l 34.25658,-34.24578 34.25658,-34.24579 30.49342,73.48238 c 16.77138,40.41531 30.71842,73.48967 30.99342,73.49858 0.275,0.009 6.575,-2.49599 14,-5.56644 z"
         style="fill:#45576a;fill-opacity:1;stroke-width:7.95717001" />
    </g>
  </g>
</svg>
