<?xml version="1.0" encoding="UTF-8" standalone="no"?>
<!-- Created with Inkscape (http://www.inkscape.org/) -->

<svg
   xmlns:dc="http://purl.org/dc/elements/1.1/"
   xmlns:cc="http://creativecommons.org/ns#"
   xmlns:rdf="http://www.w3.org/1999/02/22-rdf-syntax-ns#"
   xmlns:svg="http://www.w3.org/2000/svg"
   xmlns="http://www.w3.org/2000/svg"
   xmlns:xlink="http://www.w3.org/1999/xlink"
   xmlns:sodipodi="http://sodipodi.sourceforge.net/DTD/sodipodi-0.dtd"
   xmlns:inkscape="http://www.inkscape.org/namespaces/inkscape"
   width="420mm"
   height="297mm"
   viewBox="0 0 420 297"
   version="1.1"
   id="svg1305"
   inkscape:version="0.92.3 (2405546, 2018-03-11)"
   sodipodi:docname="formula.svg">
  <defs
     id="defs1299">
    <marker
       inkscape:stockid="Arrow2Send"
       orient="auto"
       refY="0.0"
       refX="0.0"
       id="marker3415"
       style="overflow:visible;"
       inkscape:isstock="true">
      <path
         id="path3413"
         style="fill-rule:evenodd;stroke-width:0.625;stroke-linejoin:round;stroke:#ef9d10;stroke-opacity:0.94117647;fill:#ef9d10;fill-opacity:0.94117647"
         d="M 8.7185878,4.0337352 L -2.2072895,0.016013256 L 8.7185884,-4.0017078 C 6.9730900,-1.6296469 6.9831476,1.6157441 8.7185878,4.0337352 z "
         transform="scale(0.3) rotate(180) translate(-2.3,0)" />
    </marker>
    <marker
       inkscape:isstock="true"
       style="overflow:visible;"
       id="marker35911"
       refX="0.0"
       refY="0.0"
       orient="auto"
       inkscape:stockid="Arrow2Send"
       inkscape:collect="always">
      <path
         transform="scale(0.3) rotate(180) translate(-2.3,0)"
         d="M 8.7185878,4.0337352 L -2.2072895,0.016013256 L 8.7185884,-4.0017078 C 6.9730900,-1.6296469 6.9831476,1.6157441 8.7185878,4.0337352 z "
         style="fill-rule:evenodd;stroke-width:0.625;stroke-linejoin:round;stroke:#ef9d10;stroke-opacity:0.94117647;fill:#ef9d10;fill-opacity:0.94117647"
         id="path35909" />
    </marker>
    <marker
       inkscape:isstock="true"
       style="overflow:visible"
       id="marker17439"
       refX="0"
       refY="0"
       orient="auto"
       inkscape:stockid="Arrow1Send">
      <path
         inkscape:connector-curvature="0"
         transform="matrix(-0.2,0,0,-0.2,-1.2,0)"
         style="fill:#3a4d61;fill-opacity:1;fill-rule:evenodd;stroke:#3a4d61;stroke-width:1.00000003pt;stroke-opacity:1"
         d="M 0,0 5,-5 -12.5,0 5,5 Z"
         id="path17437" />
    </marker>
    <marker
       inkscape:stockid="Arrow1Send"
       orient="auto"
       refY="0"
       refX="0"
       id="marker17575"
       style="overflow:visible"
       inkscape:isstock="true">
      <path
         inkscape:connector-curvature="0"
         id="path17573"
         d="M 0,0 5,-5 -12.5,0 5,5 Z"
         style="fill:#6b7b8c;fill-opacity:1;fill-rule:evenodd;stroke:#6b7b8c;stroke-width:1.00000003pt;stroke-opacity:1"
         transform="matrix(-0.2,0,0,-0.2,-1.2,0)" />
    </marker>
    <marker
       inkscape:isstock="true"
       style="overflow:visible"
       id="marker8180"
       refX="0"
       refY="0"
       orient="auto"
       inkscape:stockid="Arrow1Send">
      <path
         transform="matrix(-0.2,0,0,-0.2,-1.2,0)"
         style="fill:#394d61;fill-opacity:1;fill-rule:evenodd;stroke:#394d61;stroke-width:1.00000003pt;stroke-opacity:1"
         d="M 0,0 5,-5 -12.5,0 5,5 Z"
         id="path8178"
         inkscape:connector-curvature="0" />
    </marker>
    <marker
       inkscape:isstock="true"
       style="overflow:visible"
       id="marker8184"
       refX="0"
       refY="0"
       orient="auto"
       inkscape:stockid="Arrow1Send">
      <path
         transform="matrix(-0.2,0,0,-0.2,-1.2,0)"
         style="fill:#ef9d10;fill-opacity:1;fill-rule:evenodd;stroke:#ef9d10;stroke-width:1.00000003pt;stroke-opacity:1"
         d="M 0,0 5,-5 -12.5,0 5,5 Z"
         id="path8182"
         inkscape:connector-curvature="0" />
    </marker>
    <clipPath
       clipPathUnits="userSpaceOnUse"
       id="clipPath2103">
      <rect
         y="780.41144"
         x="1352.526"
         height="210.91074"
         width="349.25"
         id="rect2105"
         style="opacity:0.478;vector-effect:none;fill:#ff0000;fill-opacity:1;fill-rule:evenodd;stroke:none;stroke-width:0.93366641;stroke-linecap:butt;stroke-linejoin:miter;stroke-miterlimit:4;stroke-dasharray:none;stroke-dashoffset:0;stroke-opacity:1" />
    </clipPath>
    <linearGradient
       inkscape:collect="always"
       xlink:href="#linearGradient24825"
       id="linearGradient24827"
       x1="6323.4995"
       y1="1665.8149"
       x2="6398.8447"
       y2="1747.3848"
       gradientUnits="userSpaceOnUse" />
    <linearGradient
       inkscape:collect="always"
       id="linearGradient24825">
      <stop
         style="stop-color:#ffffff;stop-opacity:1;"
         offset="0"
         id="stop24821" />
      <stop
         style="stop-color:#ffffff;stop-opacity:0;"
         offset="1"
         id="stop24823" />
    </linearGradient>
    <filter
       height="1.1423987"
       y="-0.071199343"
       width="1.1001576"
       x="-0.050078794"
       id="filter4915-2-3"
       style="color-interpolation-filters:sRGB"
       inkscape:collect="always">
      <feGaussianBlur
         id="feGaussianBlur4917-8-6"
         stdDeviation="6.8263314"
         inkscape:collect="always" />
    </filter>
    <marker
       inkscape:isstock="true"
       style="overflow:visible"
       id="marker8180-1"
       refX="0"
       refY="0"
       orient="auto"
       inkscape:stockid="Arrow1Send">
      <path
         transform="matrix(-0.2,0,0,-0.2,-1.2,0)"
         style="fill:#394d61;fill-opacity:1;fill-rule:evenodd;stroke:#394d61;stroke-width:1.00000003pt;stroke-opacity:1"
         d="M 0,0 5,-5 -12.5,0 5,5 Z"
         id="path8178-3"
         inkscape:connector-curvature="0" />
    </marker>
    <marker
       inkscape:isstock="true"
       style="overflow:visible"
       id="marker8184-3"
       refX="0"
       refY="0"
       orient="auto"
       inkscape:stockid="Arrow1Send">
      <path
         transform="matrix(-0.2,0,0,-0.2,-1.2,0)"
         style="fill:#ef9d10;fill-opacity:1;fill-rule:evenodd;stroke:#ef9d10;stroke-width:1.00000003pt;stroke-opacity:1"
         d="M 0,0 5,-5 -12.5,0 5,5 Z"
         id="path8182-6"
         inkscape:connector-curvature="0" />
    </marker>
    <marker
       inkscape:isstock="true"
       style="overflow:visible"
       id="marker17439-6"
       refX="0"
       refY="0"
       orient="auto"
       inkscape:stockid="Arrow1Send">
      <path
         inkscape:connector-curvature="0"
         transform="matrix(-0.2,0,0,-0.2,-1.2,0)"
         style="fill:#3a4d61;fill-opacity:1;fill-rule:evenodd;stroke:#3a4d61;stroke-width:1.00000003pt;stroke-opacity:1"
         d="M 0,0 5,-5 -12.5,0 5,5 Z"
         id="path17437-0" />
    </marker>
    <marker
       inkscape:stockid="Arrow1Send"
       orient="auto"
       refY="0"
       refX="0"
       id="marker17575-4"
       style="overflow:visible"
       inkscape:isstock="true">
      <path
         inkscape:connector-curvature="0"
         id="path17573-5"
         d="M 0,0 5,-5 -12.5,0 5,5 Z"
         style="fill:#6b7b8c;fill-opacity:1;fill-rule:evenodd;stroke:#6b7b8c;stroke-width:1.00000003pt;stroke-opacity:1"
         transform="matrix(-0.2,0,0,-0.2,-1.2,0)" />
    </marker>
    <marker
       inkscape:isstock="true"
       style="overflow:visible"
       id="marker35911-4"
       refX="0"
       refY="0"
       orient="auto"
       inkscape:stockid="Arrow2Send">
      <path
         inkscape:connector-curvature="0"
         transform="matrix(-0.3,0,0,-0.3,0.69,0)"
         d="M 8.7185878,4.0337352 -2.2072895,0.01601326 8.7185884,-4.0017078 c -1.7454984,2.3720609 -1.7354408,5.6174519 -6e-7,8.035443 z"
         style="fill:#6b7b8c;fill-opacity:1;fill-rule:evenodd;stroke:#6b7b8c;stroke-width:0.625;stroke-linejoin:round;stroke-opacity:1"
         id="path35909-6" />
    </marker>
  </defs>
  <sodipodi:namedview
     id="base"
     pagecolor="#ffffff"
     bordercolor="#666666"
     borderopacity="1.0"
     inkscape:pageopacity="0.0"
     inkscape:pageshadow="2"
     inkscape:zoom="0.98994949"
     inkscape:cx="607.91056"
     inkscape:cy="816.79354"
     inkscape:document-units="mm"
     inkscape:current-layer="layer1"
     showgrid="false"
     inkscape:window-width="1366"
     inkscape:window-height="739"
     inkscape:window-x="0"
     inkscape:window-y="0"
     inkscape:window-maximized="1"
     showguides="false"
     inkscape:guide-bbox="true"
     inkscape:snap-global="false">
    <sodipodi:guide
       position="202.59524,219.22619"
       orientation="1,0"
       id="guide4023"
       inkscape:locked="false" />
    <sodipodi:guide
       position="253.90605,143.79101"
       orientation="0,1"
       id="guide4025"
       inkscape:locked="false" />
  </sodipodi:namedview>
  <metadata
     id="metadata1302">
    <rdf:RDF>
      <cc:Work
         rdf:about="">
        <dc:format>image/svg+xml</dc:format>
        <dc:type
           rdf:resource="http://purl.org/dc/dcmitype/StillImage" />
        <dc:title />
      </cc:Work>
    </rdf:RDF>
  </metadata>
  <g
     inkscape:label="Layer 1"
     inkscape:groupmode="layer"
     id="layer1">
    <path
       style="fill:#ef9d10;fill-opacity:0.94117647;stroke-width:10.2979641"
       d="M 207.5,583.40372 C 130.18631,575.53933 60.636447,516.90658 41,441.48666 28.04183,390.6467 34.850114,346.3223 51.668448,301.71281 69.286096,255.33061 95.242912,212.1807 127.412,174.26098 c 37.31271,-45.4832 70.36595,-95.012957 91.57716,-150.153116 11.76093,5.292616 18.86521,37.724316 30.41772,51.951973 37.26512,68.839993 92.56739,125.212783 135.64041,190.082753 24.10876,37.43828 41.77554,80.51238 39.7341,125.78184 2.90121,98.6025 -84.34518,189.30204 -182.68062,191.44887 -11.5297,0.15615 -23.07408,0.43635 -34.60077,0.0304 z"
       id="path35733"
       inkscape:connector-curvature="0"
       transform="matrix(0.09710657,0,0,0.09710657,194.17857,212.46094)"
       sodipodi:nodetypes="ccccccccccc" />
    <text
       inkscape:export-ydpi="200"
       inkscape:export-xdpi="200"
       inkscape:export-filename="/home/adm1n/Github/azure/images/iac/abstractions.png"
       id="text875"
       y="199.89458"
       x="65.378235"
       style="font-style:normal;font-variant:normal;font-weight:normal;font-stretch:normal;font-size:9.52499962px;line-height:1.25;font-family:'JetBrains Mono';-inkscape-font-specification:'JetBrains Mono, Normal';font-variant-ligatures:normal;font-variant-position:normal;font-variant-caps:normal;font-variant-numeric:normal;font-variant-alternates:normal;font-feature-settings:normal;text-indent:0;text-align:center;text-decoration:none;text-decoration-line:none;text-decoration-style:solid;text-decoration-color:#000000;letter-spacing:0px;word-spacing:0px;text-transform:none;writing-mode:lr-tb;direction:ltr;text-orientation:mixed;dominant-baseline:auto;baseline-shift:baseline;text-anchor:middle;white-space:normal;shape-padding:0;opacity:1;vector-effect:none;fill:#3a4d61;fill-opacity:0.94117647;stroke:none;stroke-width:0.26458329;stroke-linecap:butt;stroke-linejoin:miter;stroke-miterlimit:4;stroke-dasharray:none;stroke-dashoffset:0;stroke-opacity:1"
       xml:space="preserve"
       transform="translate(282.88164,-20.560639)"><tspan
         style="font-style:normal;font-variant:normal;font-weight:500;font-stretch:normal;font-size:22.57777786px;font-family:'JetBrains Mono';-inkscape-font-specification:'JetBrains Mono Medium';font-variant-ligatures:normal;font-variant-caps:normal;font-variant-numeric:normal;font-feature-settings:normal;text-align:center;writing-mode:lr-tb;text-anchor:middle;fill:#3a4d61;fill-opacity:0.94117647;stroke-width:0.26458329"
         y="208.74408"
         x="65.378235"
         sodipodi:role="line"
         id="tspan873" /></text>
    <rect
       style="opacity:1;fill:#000000;fill-opacity:1;stroke:none;stroke-width:2.512007;stroke-linecap:round;stroke-linejoin:bevel;stroke-miterlimit:4;stroke-dasharray:none;stroke-dashoffset:0;stroke-opacity:1;filter:url(#filter4915-2-3)"
       id="rect2131"
       width="327.14835"
       height="230.1032"
       x="5621.6655"
       y="-1293.2194"
       rx="3.4849212"
       ry="3.4431999"
       transform="matrix(0.27698856,0,0,0.28034485,-924.87447,524.31507)" />
    <rect
       style="fill:#f0f1f4;stroke-width:2.73709083;stroke-miterlimit:4;stroke-dasharray:none"
       x="1458.0083"
       y="995.77881"
       width="349.47479"
       height="213.77003"
       id="rect2133"
       transform="matrix(0.25621741,0,0,0.25527543,257.46886,-85.150217)" />
    <rect
       style="fill:#ffffff;stroke-width:2.73709083;stroke-miterlimit:4;stroke-dasharray:none"
       x="1458.0083"
       y="1004.4698"
       width="349.47479"
       height="198.09126"
       id="rect2135"
       transform="matrix(0.25621741,0,0,0.25527543,257.46886,-85.150217)" />
    <g
       transform="matrix(0.37038339,0,0,0.36902169,577.1266,124.52166)"
       id="g1213"
       style="stroke-width:2.70488191">
      <path
         transform="matrix(0.19786675,0,0,0.2010033,127.92015,83.494045)"
         style="fill:#6b7b8c;fill-opacity:0.94117647;stroke-width:9.4941988;stroke-miterlimit:4;stroke-dasharray:none"
         inkscape:connector-curvature="0"
         d="m 1310.9,124.3 c 0,3.6 -2.9,6.5 -6.5,6.5 H 95.6 c -3.6,0 -6.5,-2.9 -6.5,-6.5 V 65.9 c 0,-3.6 2.9,-6.5 6.5,-6.5 h 1208.8 c 3.6,0 6.5,2.9 6.5,6.5 z"
         id="path2137" />
      <g
         transform="matrix(0.19786675,0,0,0.2010033,127.92015,83.494045)"
         style="fill:#3a4d61;fill-opacity:0.94117647;stroke-width:9.4941988;stroke-miterlimit:4;stroke-dasharray:none"
         id="g2143">
        <path
           style="fill:#3a4d61;fill-opacity:0.94117647;stroke-width:9.4941988;stroke-miterlimit:4;stroke-dasharray:none"
           inkscape:connector-curvature="0"
           d="m 1291,83.5 c -0.4,0 -0.8,-0.2 -1.1,-0.5 -0.3,-0.3 -0.5,-0.7 -0.5,-1.2 0,-0.4 0.2,-0.8 0.5,-1.1 l 2.6,-2.6 -2.8,-2.8 h 8 v 8 l -2.8,-2.8 -2.6,2.6 c -0.5,0.2 -0.9,0.4 -1.3,0.4 z"
           id="path2139" />
        <path
           style="fill:#3a4d61;fill-opacity:0.94117647;stroke-width:9.4941988;stroke-miterlimit:4;stroke-dasharray:none"
           inkscape:connector-curvature="0"
           d="m 1280,92.8 v -8 l 3,3 2.7,-2.7 c 0.3,-0.3 0.7,-0.5 1.1,-0.5 0.4,0 0.8,0.2 1.1,0.5 0.3,0.3 0.5,0.7 0.5,1.1 0,0.4 -0.2,0.8 -0.5,1.1 l -2.7,2.7 2.7,2.7 h -7.9 z"
           id="path2141" />
      </g>
      <circle
         transform="matrix(0.19786675,0,0,0.2010033,127.92015,83.494045)"
         id="circle2145"
         r="7.8000002"
         cy="85.400002"
         cx="116.4"
         style="fill:#3a4d61;fill-opacity:0.94117647;stroke-width:9.4941988;stroke-miterlimit:4;stroke-dasharray:none" />
      <circle
         transform="matrix(0.19786675,0,0,0.2010033,127.92015,83.494045)"
         id="circle2147"
         r="7.8000002"
         cy="85.400002"
         cx="143.7"
         style="fill:#ef9d10;fill-opacity:0.94117647;stroke-width:9.4941988;stroke-miterlimit:4;stroke-dasharray:none" />
      <circle
         transform="matrix(0.19786675,0,0,0.2010033,127.92015,83.494045)"
         id="circle2149"
         r="7.8000002"
         cy="85.400002"
         cx="171"
         style="fill:#3a4d61;fill-opacity:0.94117647;stroke-width:9.4941988;stroke-miterlimit:4;stroke-dasharray:none" />
      <path
         transform="matrix(0.19786675,0,0,0.2010033,127.92015,83.494045)"
         style="fill:#e0e3e8;stroke-width:9.4941988;stroke-miterlimit:4;stroke-dasharray:none"
         inkscape:connector-curvature="0"
         d="m 473.2,110.1 c -7.8,0 -10.4,-32.5 -20.8,-32.5 -7.8,0 -234,0 -241.8,0 -10.4,0 -13,32.5 -20.8,32.5 H 89.1 v 74.6 0.2 h 1221.8 v -0.2 -74.6 z"
         id="path2153" />
      <path
         transform="matrix(0.19786675,0,0,0.2010033,127.92015,83.494045)"
         style="fill:#ffffff;stroke-width:9.4941988;stroke-miterlimit:4;stroke-dasharray:none"
         inkscape:connector-curvature="0"
         d="M 1222.8,172.8 H 227 c -1.8,0 -3.2,-1.4 -3.2,-3.2 v -41.9 c 0,-1.7 1.4,-3.2 3.2,-3.2 h 995.9 c 1.8,0 3.2,1.4 3.2,3.2 v 41.9 c -0.1,1.8 -1.5,3.2 -3.3,3.2 z"
         id="path2155" />
      <g
         transform="matrix(0.19786675,0,0,0.2010033,127.92015,83.494045)"
         id="g2163"
         style="fill:#3a4d61;fill-opacity:0.94117647;stroke-width:9.4941988;stroke-miterlimit:4;stroke-dasharray:none">
        <path
           id="path2157"
           d="m 130.9,146.9 h -10.6 l 4.3,-3.9 c 0.6,-0.6 0.6,-1.6 0,-2.1 -0.6,-0.6 -1.6,-0.6 -2.1,0 l -7.4,6.8 c -0.6,0.6 -0.6,1.6 0,2.1 l 7.4,7.1 c 0.3,0.3 0.7,0.4 1.1,0.4 0.4,0 0.8,-0.1 1.1,-0.4 0.6,-0.6 0.6,-1.6 0,-2.1 l -4.1,-3.9 H 131 c 1.1,0 1.9,-0.9 1.9,-1.9 -0.1,-1.2 -0.9,-2.1 -2,-2.1 z"
           inkscape:connector-curvature="0"
           style="fill:#3a4d61;fill-opacity:0.94117647;stroke-width:9.4941988;stroke-miterlimit:4;stroke-dasharray:none" />
        <path
           id="path2159"
           d="m 164.9,148 -7.4,-7.1 c -0.3,-0.3 -0.7,-0.4 -1.1,-0.4 -0.4,0 -0.8,0.1 -1.1,0.4 -0.6,0.6 -0.6,1.6 0,2.1 l 4.1,3.9 H 149 c -1.1,0 -1.9,0.9 -1.9,1.9 0,1.1 0.9,1.9 1.9,1.9 h 10.6 l -4.3,3.9 c -0.6,0.6 -0.6,1.6 0,2.1 0.6,0.6 1.6,0.6 2.1,0 l 7.4,-6.8 c 0.7,-0.4 0.7,-1.3 0.1,-1.9 z"
           inkscape:connector-curvature="0"
           style="fill:#3a4d61;fill-opacity:0.94117647;stroke-width:9.4941988;stroke-miterlimit:4;stroke-dasharray:none" />
        <path
           id="path2161"
           d="m 199.1,148.1 v -7.7 l -2.6,2.6 c -1.4,-1.2 -3.2,-1.9 -5.1,-1.9 -4.4,0 -8,3.6 -8,8 0,4.4 3.6,8 8,8 2.6,0 4.9,-1.2 6.4,-3.1 0.5,-0.6 0.4,-1.5 -0.3,-2 -0.3,-0.2 -0.6,-0.3 -0.9,-0.3 -0.4,0 -0.9,0.2 -1.1,0.6 -1,1.2 -2.4,2 -4.1,2 -1.4,0 -2.7,-0.6 -3.7,-1.5 -0.9,-0.9 -1.5,-2.2 -1.5,-3.7 0,-1.4 0.6,-2.7 1.5,-3.7 0.9,-0.9 2.2,-1.5 3.7,-1.5 1.2,0 2.2,0.4 3.1,1 l -3,3 h 7.6 z"
           inkscape:connector-curvature="0"
           style="fill:#3a4d61;fill-opacity:0.94117647;stroke-width:9.4941988;stroke-miterlimit:4;stroke-dasharray:none" />
      </g>
      <g
         transform="matrix(0.19786675,0,0,0.2010033,127.92015,83.494045)"
         id="g2171"
         style="fill:#3a4d61;fill-opacity:0.94117647;stroke-width:9.4941988;stroke-miterlimit:4;stroke-dasharray:none">
        <path
           id="path2165"
           d="m 1282.4,142 h -26.5 c -1.6,0 -3,-1.3 -3,-3 0,-1.6 1.3,-2.9 3,-2.9 h 26.5 c 1.6,0 2.9,1.3 2.9,2.9 0,1.7 -1.3,3 -2.9,3 z"
           inkscape:connector-curvature="0"
           style="fill:#3a4d61;fill-opacity:0.94117647;stroke-width:9.4941988;stroke-miterlimit:4;stroke-dasharray:none" />
        <path
           id="path2167"
           d="m 1282.4,151.8 h -26.5 c -1.6,0 -3,-1.3 -3,-3 0,-1.6 1.3,-2.9 3,-2.9 h 26.5 c 1.6,0 2.9,1.3 2.9,2.9 0,1.7 -1.3,3 -2.9,3 z"
           inkscape:connector-curvature="0"
           style="fill:#3a4d61;fill-opacity:0.94117647;stroke-width:9.4941988;stroke-miterlimit:4;stroke-dasharray:none" />
        <path
           id="path2169"
           d="m 1282.4,161.7 h -26.5 c -1.6,0 -3,-1.3 -3,-2.9 0,-1.6 1.3,-2.9 3,-2.9 h 26.5 c 1.6,0 2.9,1.3 2.9,2.9 0,1.5 -1.3,2.9 -2.9,2.9 z"
           inkscape:connector-curvature="0"
           style="fill:#3a4d61;fill-opacity:0.94117647;stroke-width:9.4941988;stroke-miterlimit:4;stroke-dasharray:none" />
      </g>
      <path
         transform="matrix(0.19786675,0,0,0.2010033,127.92015,83.494045)"
         id="path2173"
         d="m 1210.3,146.3 c -0.3,-0.8 -1,-1.3 -1.8,-1.3 h -5.2 l -1.6,-4.9 c -0.3,-0.8 -1,-1.3 -1.8,-1.3 -0.8,0 -1.6,0.5 -1.8,1.3 l -1.6,4.9 h -5.2 c -0.8,0 -1.6,0.5 -1.8,1.3 -0.3,0.8 0,1.7 0.7,2.2 l 4.2,3 -1.6,4.9 c -0.3,0.8 0,1.7 0.7,2.2 0.3,0.2 0.7,0.4 1.1,0.4 0.4,0 0.8,-0.1 1.1,-0.4 l 4.2,-3 4.2,3 c 0.3,0.2 0.7,0.4 1.1,0.4 0.4,0 0.8,-0.1 1.1,-0.4 0.7,-0.5 1,-1.4 0.7,-2.2 l -1.6,-4.9 4.2,-3 c 0.7,-0.5 1,-1.4 0.7,-2.2 z"
         inkscape:connector-curvature="0"
         style="fill:#ef9d10;fill-opacity:0.94117647;stroke-width:9.4941988;stroke-miterlimit:4;stroke-dasharray:none" />
      <path
         transform="matrix(0.19786675,0,0,0.2010033,127.92015,83.494045)"
         id="path2175"
         d="m 251.1,136.1 c -7,0 -12.7,5.7 -12.7,12.8 0,7.1 5.7,12.8 12.7,12.8 7,0 12.7,-5.7 12.7,-12.8 0,-7.1 -5.7,-12.8 -12.7,-12.8 z m -1.1,23.8 v 0 c -5.6,-0.6 -9.9,-5.3 -9.9,-11.1 0,-3.8 1.9,-7.1 4.7,-9.1 l -0.9,1.2 0.3,1.6 -0.5,0.8 v 0.8 l -0.3,1.7 0.1,1 0.6,0.7 0.8,1.5 0.7,1.3 h 1 l 1.5,1.5 0.8,0.5 0.6,0.7 v 0.7 l -0.5,0.8 v 1 l 0.5,1 1.4,0.7 0.3,1.5 -0.5,1.1 c -0.2,0 -0.4,0 -0.6,0 z m 4.3,-0.5 0.1,-0.2 1.3,-0.8 1,-1.7 0.7,-1.2 0.1,-0.8 -1.3,-0.7 -1.9,-1.2 -0.4,-0.7 -1.6,-0.3 h -1.7 l -1.2,-0.1 -1,-0.9 -0.8,-0.6 -0.9,-1.2 -0.5,-0.1 v -0.9 -0.9 h 0.6 1.2 l 0.7,0.1 v 0.8 l 0.9,0.1 -0.4,-1.4 v -0.6 l 0.7,-0.4 0.5,-0.3 0.9,-0.7 0.9,-1.4 0.5,-0.5 -1,-0.8 -1,-0.5 -0.5,0.5 h -0.5 l -0.7,0.7 v 0.6 l -0.9,-0.5 1,-1.3 -0.9,-0.7 0.7,-0.4 0.8,-0.6 0.6,-0.6 -0.9,-0.1 h -0.8 l -0.8,0.5 -0.8,-0.6 -0.6,-0.5 h -0.1 c 1.2,-0.6 2.5,-1 4,-1.1 l -0.5,0.1 1,0.9 1.2,0.6 0.6,1 1,-0.1 0.5,-0.9 -0.5,-0.9 -0.9,-0.6 c 1.9,0.2 3.6,1 5.1,2 l 0.6,1.9 0.7,0.8 -1.5,2.4 c 0,0 0.5,0.6 1.1,0.7 0,0 0,0 0,0 0.2,0 0.3,-0.2 0.4,-0.3 0.1,-0.2 0.2,-0.3 0.4,-0.3 0,0 0,0 0.1,0 0.6,0.1 1.4,0.7 1.5,0.8 0.1,0.3 -2.6,2.6 -2.6,2.6 l 0.9,1.7 1.4,1.4 0.8,-0.8 0.4,0.6 c -1.2,4.2 -4,7.3 -7.7,8.4 z"
         inkscape:connector-curvature="0"
         style="fill:#ccd1d9;stroke-width:9.4941988;stroke-miterlimit:4;stroke-dasharray:none" />
      <text
         inkscape:export-ydpi="100"
         inkscape:export-xdpi="100"
         id="text2183"
         y="1015.7376"
         x="1545.8146"
         style="font-style:normal;font-variant:normal;font-weight:500;font-stretch:normal;font-size:12.23926544px;line-height:1.25;font-family:'JetBrains Mono';-inkscape-font-specification:'JetBrains Mono, Medium';font-variant-ligatures:normal;font-variant-position:normal;font-variant-caps:normal;font-variant-numeric:normal;font-variant-alternates:normal;font-feature-settings:normal;text-indent:0;text-align:center;text-decoration:none;text-decoration-line:none;text-decoration-style:solid;text-decoration-color:#000000;letter-spacing:0px;word-spacing:0px;text-transform:none;writing-mode:lr-tb;direction:ltr;text-orientation:mixed;dominant-baseline:auto;baseline-shift:baseline;text-anchor:middle;white-space:normal;shape-padding:0;opacity:1;vector-effect:none;fill:#000000;fill-opacity:1;stroke:none;stroke-width:2.73709106;stroke-linecap:butt;stroke-linejoin:miter;stroke-miterlimit:4;stroke-dasharray:none;stroke-dashoffset:0;stroke-opacity:1"
         xml:space="preserve"
         transform="matrix(0.71093805,0,0,0.67310448,-836.66825,-567.45028)"><tspan
           sodipodi:role="line"
           id="tspan34467"
           style="font-style:normal;font-variant:normal;font-weight:500;font-stretch:normal;font-size:12.23926544px;font-family:'JetBrains Mono';-inkscape-font-specification:'JetBrains Mono, Medium';font-variant-ligatures:normal;font-variant-caps:normal;font-variant-numeric:normal;font-feature-settings:normal;text-align:center;writing-mode:lr-tb;text-anchor:middle;stroke-width:2.73709106"
           x="1545.8146"
           y="1015.7376">https://emea.flow.microsoft.com</tspan></text>
    </g>
    <circle
       style="opacity:1;fill:#ef9d10;fill-opacity:0.94117647;stroke:none;stroke-width:5.7711668;stroke-linecap:round;stroke-linejoin:bevel;stroke-miterlimit:4;stroke-dasharray:none;stroke-dashoffset:0;stroke-opacity:0.94117647;paint-order:normal"
       id="path24715"
       cx="6362.8569"
       cy="1718.234"
       r="47.142857"
       transform="matrix(0.34718921,0,0,0.34591278,-1534.9924,-400.9543)" />
    <path
       inkscape:connector-curvature="0"
       style="opacity:0.40800003;fill:url(#linearGradient24827);fill-opacity:1;stroke:none;stroke-width:6.94407558;stroke-linecap:round;stroke-linejoin:bevel;stroke-miterlimit:4;stroke-dasharray:none;stroke-dashoffset:0;stroke-opacity:0.94117647;paint-order:normal"
       d="m 6363.5703,1647.209 a 56.739305,56.739305 0 0 0 -56.7383,56.7402 56.739305,56.739305 0 0 0 56.7383,56.7383 56.739305,56.739305 0 0 0 56.7402,-56.7383 56.739305,56.739305 0 0 0 -56.7402,-56.7402 z m 0,7.0703 a 49.668237,49.668237 0 0 1 49.6699,49.6699 49.668237,49.668237 0 0 1 -49.6699,49.668 49.668237,49.668237 0 0 1 -49.668,-49.668 49.668237,49.668237 0 0 1 49.668,-49.6699 z"
       transform="matrix(0.2885462,0,0,0.28748537,-1162.0614,-296.45541)"
       id="circle24781" />
    <text
       transform="matrix(1.0905683,0,0,1.0865589,602.93807,-19.388917)"
       xml:space="preserve"
       style="font-style:normal;font-variant:normal;font-weight:normal;font-stretch:normal;font-size:9.52499962px;line-height:1.25;font-family:'JetBrains Mono';-inkscape-font-specification:'JetBrains Mono, Normal';font-variant-ligatures:normal;font-variant-position:normal;font-variant-caps:normal;font-variant-numeric:normal;font-variant-alternates:normal;font-feature-settings:normal;text-indent:0;text-align:center;text-decoration:none;text-decoration-line:none;text-decoration-style:solid;text-decoration-color:#000000;letter-spacing:0px;word-spacing:0px;text-transform:none;writing-mode:lr-tb;direction:ltr;text-orientation:mixed;dominant-baseline:auto;baseline-shift:baseline;text-anchor:middle;white-space:normal;shape-padding:0;opacity:1;vector-effect:none;fill:#45576a;fill-opacity:1;stroke:none;stroke-width:0.2430577;stroke-linecap:butt;stroke-linejoin:miter;stroke-miterlimit:4;stroke-dasharray:none;stroke-dashoffset:0;stroke-opacity:1"
       x="65.378235"
       y="199.89458"
       id="text24595-4"
       inkscape:export-filename="/home/adm1n/Github/azure/images/iac/abstractions.png"
       inkscape:export-xdpi="200"
       inkscape:export-ydpi="200"><tspan
         id="tspan24593-1"
         sodipodi:role="line"
         x="65.378235"
         y="199.89458"
         style="font-style:normal;font-variant:normal;font-weight:500;font-stretch:normal;font-size:11.28888893px;font-family:'JetBrains Mono';-inkscape-font-specification:'JetBrains Mono Medium';font-variant-ligatures:normal;font-variant-caps:normal;font-variant-numeric:normal;font-feature-settings:normal;text-align:center;writing-mode:lr-tb;text-anchor:middle;fill:#45576a;fill-opacity:1;stroke:none;stroke-width:0.2430577">GUI</tspan></text>
    <path
       inkscape:connector-curvature="0"
       style="opacity:1;fill:#6b7b8c;fill-opacity:1;stroke:none;stroke-width:6.94407558;stroke-linecap:round;stroke-linejoin:bevel;stroke-miterlimit:4;stroke-dasharray:none;stroke-dashoffset:0;stroke-opacity:0.94117647;paint-order:normal"
       d="m 6381.627,1723.2539 a 31.819805,31.819805 0 0 0 -31.8204,31.8184 31.819805,31.819805 0 0 0 31.8204,31.8203 31.819805,31.819805 0 0 0 31.8203,-31.8203 31.819805,31.819805 0 0 0 -31.8203,-31.8184 z m 0,5.1758 a 26.642773,26.642773 0 0 1 26.6425,26.6426 26.642773,26.642773 0 0 1 -26.6425,26.6425 26.642773,26.642773 0 0 1 -26.6426,-26.6425 26.642773,26.642773 0 0 1 26.6426,-26.6426 z m 0,4.9258 a 21.718279,21.718279 0 0 0 -21.7188,21.7168 21.718279,21.718279 0 0 0 21.7188,21.7187 21.718279,21.718279 0 0 0 21.7187,-21.7187 21.718279,21.718279 0 0 0 -21.7187,-21.7168 z m 0,5.3027 a 16.414978,16.414978 0 0 1 16.416,16.4141 16.414978,16.414978 0 0 1 -16.416,16.416 16.414978,16.414978 0 0 1 -16.4141,-16.416 16.414978,16.414978 0 0 1 16.4141,-16.4141 z"
       transform="matrix(0.2885462,0,0,0.28748537,-1162.0614,-296.45541)"
       id="path24848" />
    <g
       id="g34509"
       transform="matrix(0.37038339,0,0,0.36902169,542.79199,131.82799)"
       style="stroke-width:2.70488191">
      <path
         inkscape:connector-curvature="0"
         id="path34499"
         transform="matrix(0.12567282,0,0,0.12567282,358.22338,199.23849)"
         d="m 218.3825,464.08625 c -2.26462,-1.0284 -4.79392,-2.83555 -5.62067,-4.01589 -0.82674,-1.18034 -12.69886,-29.11804 -26.3825,-62.08379 L 161.5,338.04886 l -32,31.93981 c -22.25613,22.21427 -33.180508,32.42768 -35.876927,33.54202 -7.402749,3.05933 -16.338815,-0.48676 -19.659253,-7.80135 -1.87042,-4.12035 -1.919896,-8.86798 -1.919896,-184.22934 0,-175.361362 0.04948,-180.108991 1.919896,-184.22934 3.178326,-7.001535 11.328445,-10.598996 18.721001,-8.263447 3.096061,0.978147 27.724949,25.076238 130.665129,127.849067 74.59245,74.47117 127.42672,127.96937 128.25,129.8616 3.00898,6.91585 0.85174,15.39681 -4.97324,19.55181 -3.10254,2.21307 -3.49163,2.23418 -50.33338,2.73031 l -47.20667,0.5 25.45667,61.23375 C 291.83226,402.32073 300,423.1274 300,425.58262 c 0,4.64315 -2.53068,9.94997 -5.87329,12.31626 -4.18539,2.96292 -65.86562,28.10343 -68.88996,28.07916 -1.50521,-0.0121 -4.58962,-0.86338 -6.85425,-1.89179 z"
         style="fill:#ffffff;fill-opacity:1;stroke-width:21.5232048" />
      <path
         transform="matrix(0.13158291,0,0,0.13158291,356.96749,197.80744)"
         inkscape:connector-curvature="0"
         id="path34493"
         d="m 218.3825,464.08625 c -2.26462,-1.0284 -4.79392,-2.83555 -5.62067,-4.01589 -0.82674,-1.18034 -12.69886,-29.11804 -26.3825,-62.08379 L 161.5,338.04886 l -32,31.93981 c -22.25613,22.21427 -33.180508,32.42768 -35.876927,33.54202 -7.402749,3.05933 -16.338815,-0.48676 -19.659253,-7.80135 -1.87042,-4.12035 -1.919896,-8.86798 -1.919896,-184.22934 0,-175.361362 0.04948,-180.108991 1.919896,-184.22934 3.178326,-7.001535 11.328445,-10.598996 18.721001,-8.263447 3.096061,0.978147 27.724949,25.076238 130.665129,127.849067 74.59245,74.47117 127.42672,127.96937 128.25,129.8616 3.00898,6.91585 0.85174,15.39681 -4.97324,19.55181 -3.10254,2.21307 -3.49163,2.23418 -50.33338,2.73031 l -47.20667,0.5 25.45667,61.23375 C 291.83226,402.32073 300,423.1274 300,425.58262 c 0,4.64315 -2.53068,9.94997 -5.87329,12.31626 -4.18539,2.96292 -65.86562,28.10343 -68.88996,28.07916 -1.50521,-0.0121 -4.58962,-0.86338 -6.85425,-1.89179 z M 248,423.41208 c 7.425,-3.07045 13.88964,-5.95641 14.36587,-6.41323 0.48,-0.46044 -12.53427,-33.06668 -29.20254,-73.16472 C 216.62569,304.05036 202.80041,270.7125 202.44046,269.75 201.82286,268.09852 204.49419,268 249.89301,268 276.35186,268 298,267.66163 298,267.24807 298,266.8345 254.35,222.84787 201,169.5 L 104,72.503866 V 211.4965 350.48913 l 34.25658,-34.24578 34.25658,-34.24579 30.49342,73.48238 c 16.77138,40.41531 30.71842,73.48967 30.99342,73.49858 0.275,0.009 6.575,-2.49599 14,-5.56644 z"
         style="fill:#45576a;fill-opacity:1;stroke-width:20.55648422" />
    </g>
    <g
       id="g35668"
       transform="matrix(0.67701486,0,0,0.67701486,383.18339,37.417918)"
       style="fill:#ef9d10;fill-opacity:0.94117647;stroke-width:1.47707248">
      <path
         transform="matrix(2.1064717,0,0,2.1064717,-11482.875,-3015.3199)"
         id="path30121-6"
         d="m 5331.1872,1434.2733 1.4274,2.5679 c 0.5024,-0.042 1.0062,-0.02 1.5138,0.016 l 1.4275,-2.5773 c 0,4e-4 0.01,0 0.01,0 v -0.01 c 0.8493,0.138 1.6668,0.3618 2.4534,0.6592 l -0.042,2.9454 c 0.4464,0.2129 0.8934,0.457 1.3078,0.7442 l 2.52,-1.5099 c 0.6594,0.5315 1.2545,1.1376 1.7969,1.797 l -0.01,0.016 c 0,0 0.01,0.01 0.01,0.01 l -1.5046,2.5001 c 0.1448,0.2091 0.2756,0.4269 0.3987,0.6499 0,0 0,0 0,0.01 0.1289,0.2146 0.2488,0.4344 0.3562,0.6606 l 2.9293,-0.053 c 0,0.01 0,0.01 0.01,0.01 h 0.01 c 0.2999,0.7994 0.5272,1.6166 0.6672,2.4589 l -2.5771,1.4221 c 0.042,0.5024 0.029,1.0129 0,1.5112 l 2.5625,1.4287 c -0.1354,0.8304 -0.351,1.6505 -0.6567,2.4562 h -0.016 c -6e-4,0 0,0.01 0,0.01 l -1.5139,-0.029 -1.4141,-0.019 c -0.1046,0.2221 -0.2072,0.4449 -0.3349,0.6659 -0.086,0.1487 -0.1835,0.2857 -0.279,0.4253 -0.045,0.07 -0.084,0.1438 -0.1315,0.2127 l 1.5112,2.5146 c 0,0.01 -0.01,0.01 -0.01,0.01 v 0.01 c -0.5423,0.6594 -1.1376,1.2653 -1.797,1.8076 l -2.5199,-1.5205 c -0.381,0.264 -0.79,0.4894 -1.2002,0.6979 -0.036,0.019 -0.071,0.039 -0.1075,0.057 l 0.01,0.275 0.052,2.6688 c -0.7939,0.2906 -1.6225,0.5122 -2.4642,0.6525 v 0 c 0,10e-5 0,-1e-4 0,0 l -1.4314,-2.5651 c -0.077,0.01 -0.1552,0 -0.2324,0.01 -0.1702,0.013 -0.3389,0.029 -0.5158,0.029 -0.2552,0 -0.5106,-0.019 -0.7549,-0.044 l -1.4248,2.573 c -0.8505,-0.138 -1.6801,-0.3611 -2.4667,-0.6591 l 0.039,-2.1612 0.016,-0.7735 c -0.4574,-0.2234 -0.8945,-0.4685 -1.3199,-0.755 l -2.5199,1.5206 c -0.6486,-0.5424 -1.2545,-1.1488 -1.7969,-1.8076 l 0.01,-0.016 c 0,0 -0.01,-0.01 -0.01,-0.01 l 1.5032,-2.5001 c -0.1409,-0.2116 -0.2727,-0.4322 -0.3987,-0.6579 0,-0.01 -0.01,-0.01 -0.01,-0.016 -0.125,-0.211 -0.2435,-0.4239 -0.3509,-0.6406 l -2.9187,0.053 c 0,0 0,-0.01 0,-0.01 h -0.019 c -0.3001,-0.7994 -0.5214,-1.6272 -0.6579,-2.4548 l 1.5085,-0.848 h 0.042 l 1.0433,-0.5781 c -0.019,-0.2546 -0.042,-0.4985 -0.042,-0.7537 v 0 c 0,-0.2551 0.02,-0.4997 0.042,-0.7549 l -2.5744,-1.4247 c 0.138,-0.8507 0.3625,-1.6802 0.6605,-2.4669 l 2.9346,0.053 c 0.2234,-0.4572 0.4681,-0.9033 0.7444,-1.3184 l -0.6632,-1.1059 -0.848,-1.4101 c 0,0 0,0 0,0 v 0 c 0.2571,-0.3124 0.5301,-0.611 0.8134,-0.8972 0.016,-0.016 0.029,-0.033 0.044,-0.048 5e-4,-5e-4 0,0 0,0 0.3004,-0.3004 0.6141,-0.5846 0.9384,-0.8507 l 1.4886,0.8825 0.01,0.016 1.0302,0.6141 c 0.4076,-0.2802 0.8425,-0.5449 1.2984,-0.7603 l -0.048,-2.9373 c 0.7899,-0.3052 1.6126,-0.5179 2.4549,-0.6579 z m 2.1185,4.951 c -1.7957,0.019 -3.5506,0.6414 -4.9734,1.7729 -0.1844,0.1477 -0.3634,0.301 -0.5343,0.4639 -0.026,0.026 -0.056,0.05 -0.083,0.076 -1.507,1.4755 -2.4442,3.5277 -2.4442,5.8068 0,0.493 0.052,0.9733 0.1354,1.4421 0.02,0.1123 0.04,0.225 0.065,0.3362 0.029,0.1387 0.068,0.275 0.1048,0.4107 0.044,0.1562 0.092,0.3107 0.1449,0.4639 0.037,0.1077 0.075,0.2146 0.1168,0.3204 0.073,0.1858 0.1549,0.3687 0.2419,0.5489 0.034,0.07 0.065,0.1403 0.101,0.2085 0.1285,0.248 0.2669,0.4911 0.4213,0.7257 0,0 0,0.01 0,0.01 3e-4,3e-4 -2e-4,0 0,0 0.336,0.5099 0.733,0.9855 1.1869,1.4155 0.4542,0.4302 0.9661,0.8147 1.5324,1.1417 2.1859,1.262 4.7118,1.3955 6.9033,0.5795 0.2264,-0.085 0.4487,-0.1816 0.6672,-0.2858 0.032,-0.016 0.062,-0.029 0.093,-0.045 0.1828,-0.09 0.3609,-0.1883 0.5369,-0.2926 0.064,-0.039 0.1292,-0.077 0.1929,-0.1168 0.1438,-0.091 0.2841,-0.1884 0.4226,-0.2884 0.085,-0.062 0.1701,-0.1237 0.2526,-0.1886 0.1104,-0.086 0.2166,-0.1786 0.3231,-0.2711 0.1019,-0.089 0.2029,-0.1796 0.3004,-0.2737 0.08,-0.077 0.158,-0.1581 0.2354,-0.2393 0.1081,-0.1136 0.2149,-0.2286 0.3162,-0.3482 0.071,-0.084 0.138,-0.1708 0.2059,-0.2578 0.091,-0.1173 0.1821,-0.2351 0.2672,-0.3575 0.073,-0.1045 0.1403,-0.214 0.2087,-0.323 0.075,-0.1199 0.1517,-0.2391 0.2205,-0.3629 0.058,-0.1042 0.1091,-0.2104 0.1623,-0.3162 0.07,-0.139 0.1403,-0.278 0.202,-0.4213 0.034,-0.079 0.062,-0.1589 0.093,-0.2381 0.068,-0.1727 0.1363,-0.3453 0.1929,-0.5237 0.016,-0.054 0.029,-0.1101 0.045,-0.1649 0.062,-0.2092 0.1192,-0.4196 0.1636,-0.6353 0.01,-0.019 0.01,-0.041 0.01,-0.062 0.048,-0.2412 0.086,-0.4863 0.1117,-0.7349 0,-0.032 0.01,-0.062 0.01,-0.093 0.023,-0.2406 0.035,-0.4836 0.036,-0.7297 1e-4,-0.042 0,-0.084 0,-0.1263 0,-0.2049 -0.01,-0.4079 -0.029,-0.6087 -0.01,-0.079 -0.019,-0.1569 -0.029,-0.2354 -0.02,-0.1585 -0.037,-0.3166 -0.064,-0.4719 -0.026,-0.1532 -0.064,-0.3046 -0.1,-0.4559 -0.019,-0.087 -0.037,-0.1769 -0.061,-0.263 -0.065,-0.2403 -0.14,-0.479 -0.2273,-0.7124 -0.086,-0.2308 -0.1838,-0.4565 -0.2909,-0.6792 -0.05,-0.1029 -0.1069,-0.2013 -0.1611,-0.3016 -0.061,-0.1146 -0.1217,-0.2299 -0.1886,-0.3416 -0.071,-0.1182 -0.1477,-0.2326 -0.2247,-0.3469 -0.057,-0.086 -0.1133,-0.1718 -0.1741,-0.2552 -0.093,-0.1283 -0.1931,-0.2526 -0.2938,-0.3748 -0.05,-0.061 -0.1006,-0.1234 -0.1529,-0.1834 -0.1104,-0.1264 -0.2251,-0.2488 -0.3429,-0.3682 -0.053,-0.054 -0.1075,-0.1068 -0.162,-0.1594 -0.1215,-0.1163 -0.2452,-0.2293 -0.3735,-0.3376 -0.058,-0.049 -0.1188,-0.095 -0.1783,-0.1422 -0.137,-0.1095 -0.2747,-0.2185 -0.4186,-0.3192 -0.026,-0.016 -0.05,-0.034 -0.076,-0.05 -0.9413,-0.6411 -2.0239,-1.0919 -3.1925,-1.2932 v -0.01 c -0.482,-0.083 -0.9664,-0.1221 -1.4487,-0.1169 z"
         style="fill:#ef9d10;fill-opacity:0.94117647;stroke-width:0.09855989"
         inkscape:connector-curvature="0" />
      <path
         transform="matrix(2.1064717,0,0,2.1064717,-11482.875,-3015.3199)"
         style="fill:#ef9d10;fill-opacity:0.94117647;stroke-width:0.1244238"
         inkscape:connector-curvature="0"
         d="m 5342.8738,1459.3517 v -1.597 l 0.088,-0.081 1.6339,-0.5507 0.4209,-1.1005 -0.8092,-1.6777 -0.089,-0.1881 0.506,-0.5102 0.6151,-0.6178 0.214,0.1076 1.597,0.8186 1.1004,-0.3084 0.6967,-1.7852 h 1.5842 l 0.081,0.081 0.5507,1.6305 1.1133,0.4192 1.8522,-0.8909 1.1279,1.1185 -0.1074,0.2104 -0.8187,1.5954 0.4562,1.0996 1.9329,0.6966 v 1.597 l -0.2286,0.067 -1.7044,0.5636 -0.4562,1.1004 0.8729,1.8522 -1.128,1.1408 -0.2147,-0.1074 -1.5969,-0.8187 -1.1005,0.4561 -0.6985,1.9338 h -1.597 l -0.067,-0.2285 -0.5635,-1.7045 -1.0876,-0.4562 -1.8659,0.8729 -1.1279,-1.128 0.1074,-0.2146 0.8187,-1.597 -0.3152,-1.1142 z m 6.7248,1.4768 c 1.2353,0 2.2413,-1.0069 2.2413,-2.2414 0,-1.2345 -1.0068,-2.2413 -2.2413,-2.2413 -1.2345,0 -2.2284,1.0068 -2.2284,2.2413 0,1.2345 0.9939,2.2414 2.2284,2.2414 z"
         id="path30123-7" />
      <path
         transform="matrix(2.1064717,0,0,2.1064717,-11482.875,-3015.3199)"
         style="fill:#ef9d10;fill-opacity:0.94117647;stroke-width:0.06157888"
         d="m 5333.3958,1440.6398 a 6.7093269,6.7093269 0 0 0 -6.7093,6.7092 6.7093269,6.7093269 0 0 0 6.7093,6.7094 6.7093269,6.7093269 0 0 0 6.7093,-6.7094 6.7093269,6.7093269 0 0 0 -6.7093,-6.7092 z m 0.1054,2.6959 c 0.1843,-0.01 0.3512,0.1055 0.4127,0.2811 l 2.6609,6.4107 v 10e-5 c 0.026,0.07 0.036,0.1318 0.044,0.2108 v 0.01 c -0.01,0.2634 -0.2284,0.4739 -0.4918,0.4653 -0.1317,0 -0.2284,-0.053 -0.369,-0.1669 l -3.4511,-2.7925 -1.1593,2.898 h -1.0013 l 2.9333,-7.0342 c 0.061,-0.1756 0.2371,-0.2901 0.4216,-0.2811 z m 0,1.4315 -0.887,2.2131 2.6169,2.0637 z"
         id="path16535"
         inkscape:connector-curvature="0" />
    </g>
    <path
       sodipodi:nodetypes="ccccccccccc"
       transform="matrix(0.08604253,0,0,0.08737974,196.71875,215.79063)"
       inkscape:connector-curvature="0"
       id="path35736"
       d="M 207.5,583.40372 C 130.18631,575.53933 60.636447,516.90658 41,441.48666 28.04183,390.6467 34.850114,346.3223 51.668448,301.71281 69.286096,255.33061 95.242912,212.1807 127.412,174.26098 c 37.31271,-45.4832 70.36595,-95.012957 91.57716,-150.153116 11.76093,5.292616 18.86521,37.724316 30.41772,51.951973 37.26512,68.839993 92.56739,125.212783 135.64041,190.082753 24.10876,37.43828 41.77554,80.51238 39.7341,125.78184 2.90121,98.6025 -84.34518,189.30204 -182.68062,191.44887 -11.5297,0.15615 -23.07408,0.43635 -34.60077,0.0304 z"
       style="fill:#ffffff;fill-opacity:1;stroke-width:11.53288651" />
    <ellipse
       style="opacity:1;fill:#6b7b8c;fill-opacity:1;stroke:none;stroke-width:12.15138531;stroke-linecap:round;stroke-linejoin:bevel;stroke-miterlimit:4;stroke-dasharray:none;stroke-dashoffset:0;stroke-opacity:1;paint-order:normal"
       id="path35702"
       cx="-991.46472"
       cy="772.50183"
       transform="matrix(0.16459028,0,0,0.16459028,378.67107,38.744735)"
       rx="198.49498"
       ry="59.093925" />
    <path
       style="fill:#3a4d61;fill-opacity:1;stroke-width:2.49079442"
       d="m 87.059537,195.9083 c -2.992255,-0.52067 -6.817255,-1.75017 -8.5,-2.73223 L 75.5,191.3905 75,160.44525 C 74.575268,134.1584 74.250542,129.04527 72.842877,126.47927 71.93146,124.81786 56.757266,105.46786 39.122447,83.479265 8.5634258,45.375673 7.0577513,43.302582 7.0295693,39.292107 7.0047917,35.766104 7.6162942,34.436354 10.803102,31.086323 17.873899,23.653372 35.915479,16.882194 58.060179,13.350291 66.979144,11.927787 75.229307,11.522896 95.5,11.512865 c 27.99651,-0.01385 37.80156,1.03592 56.55727,6.055278 21.69556,5.806113 34.36332,15.935031 30.9983,24.785693 -0.55245,1.453057 -15.59721,20.837775 -33.4328,43.077153 -28.9537,36.102651 -32.52704,40.951351 -33.34935,45.252121 -0.50655,2.64929 -0.84455,16.74189 -0.75111,31.31689 0.0947,14.7665 -0.2426,27.3165 -0.76173,28.34406 -2.29646,4.54559 -16.805905,7.46007 -27.701043,5.56424 z M 126.69878,55.457918 c 20.63275,-2.69611 36.31069,-7.645737 41.4096,-13.073281 6.53037,-6.951264 -7.56367,-14.59229 -35.76866,-19.391833 C 113.07747,19.715016 76.3589,19.989904 55.147856,23.570689 35.713432,26.851551 20,33.704098 20,38.89849 c 0,6.277386 21.308303,14.209571 45.5,16.937735 13.640568,1.538285 48.16474,1.32487 61.19878,-0.378307 z"
       id="path35681"
       inkscape:connector-curvature="0"
       transform="matrix(0.40147833,0,0,0.40147833,177.53838,150.50138)"
       sodipodi:nodetypes="cccscsssssscsccscsssssss" />
    <path
       transform="matrix(0.55583016,0,0,0.55583016,-9277.6515,-661.97823)"
       d="m 17100.352,1513.671 v 26.1421 l -10.737,8.8035 -16.639,-6.0657 v 6.0119 l -9.421,-12.3193 27.457,2.147 v -23.5383 z m -9.152,1.3153 -15.408,-9.3671 v 6.1463 l -14.143,4.1601 -4.241,5.4484 v 12.3733 l 6.066,2.684 v -15.8623 z"
       data-name="Path 1"
       id="a91f0ca4-8fb7-4019-9c09-0a52e2c05754-3-1"
       inkscape:connector-curvature="0"
       style="fill:#ef9d10;fill-opacity:0.94117647;stroke-width:0.4760147" />
    <g
       id="g35629"
       transform="matrix(0.56277124,0.08170106,-0.08180381,0.56206432,171.11894,216.28663)"
       style="stroke-width:1.75954628">
      <path
         style="opacity:1;fill:#ffffff;fill-opacity:1;stroke:#6b7b8c;stroke-width:2.45928788;stroke-miterlimit:4;stroke-dasharray:none;stroke-opacity:0.94117647"
         d="m 704.96997,-295143.54 c -2.05814,0 -3.69984,1.66 -3.71494,3.72 l -0.59045,80.57 c -0.0151,2.06 1.6568,3.72 3.71494,3.72 h 61.68336 c 2.05814,0 3.69733,-1.66 3.71494,-3.72 l 0.59045,-69.09 -15.19952,-15.2 z"
         id="path3497"
         inkscape:connector-curvature="0"
         sodipodi:nodetypes="ssssssccs"
         transform="matrix(0.88009043,-0.13180748,0.13180748,0.88009043,38309.494,259679.59)" />
      <path
         style="opacity:1;fill:#6b7b8c;fill-opacity:0.94117647;stroke:none;stroke-width:2.59582734;stroke-miterlimit:4;stroke-dasharray:none;stroke-opacity:1"
         d="m 771.11047,-295128.07 -16.05013,-16.05 v 12.13 c 0,2.17 1.74885,3.92 3.92135,3.92 z"
         id="path3499"
         inkscape:connector-curvature="0"
         sodipodi:nodetypes="ccssc"
         transform="matrix(0.88009043,-0.13180748,0.13180748,0.88009043,38309.494,259679.59)" />
      <rect
         style="opacity:1;fill:#6b7b8c;fill-opacity:0.94117647;stroke:none;stroke-width:1.49987507;stroke-miterlimit:4;stroke-dasharray:none;stroke-opacity:1"
         id="rect3501"
         width="58.050591"
         height="10.244223"
         x="697.2157"
         y="-295127.88"
         rx="0"
         ry="0"
         transform="matrix(0.88009043,-0.13180748,0.13180748,0.88009043,38309.494,259679.59)" />
      <text
         xml:space="preserve"
         style="font-style:normal;font-weight:normal;font-size:2.91748762px;line-height:0%;font-family:sans-serif;letter-spacing:0px;word-spacing:0px;opacity:1;fill:#ffffff;fill-opacity:1;fill-rule:evenodd;stroke:none;stroke-width:0.48071146px;stroke-linecap:butt;stroke-linejoin:miter;stroke-opacity:1"
         x="727.49701"
         y="-295120.06"
         id="text3505"
         inkscape:export-xdpi="150"
         inkscape:export-ydpi="150"
         transform="matrix(0.88009043,-0.13180748,0.13180748,0.88009043,38308.482,259680.64)"><tspan
           id="tspan3503"
           style="font-style:normal;font-variant:normal;font-weight:normal;font-stretch:normal;font-size:9.72502518px;line-height:2.25;font-family:'JetBrains Mono';-inkscape-font-specification:'JetBrains Mono, Normal';font-variant-ligatures:normal;font-variant-caps:normal;font-variant-numeric:normal;font-feature-settings:normal;text-align:center;letter-spacing:-0.25135416px;writing-mode:lr-tb;text-anchor:middle;fill:#ffffff;stroke-width:0.48071146px"
           sodipodi:role="line"
           x="727.37134"
           y="-295120.06">Dockerfile</tspan></text>
    </g>
    <g
       id="g35755"
       transform="matrix(0.62207352,0,0,0.62207352,378.33854,39.576042)"
       style="stroke-width:1.60752702">
      <path
         sodipodi:nodetypes="ccccccccccccccccccccccccccccccccsccccccccccccccsccccccccc"
         inkscape:connector-curvature="0"
         id="path6914-1"
         d="m 3416.0344,-294375.41 c -3.8401,0 -5.5034,0.23 -8.74,1.29 -5.4848,1.78 -9.8501,4.88 -13.2394,9.42 -1.6937,2.27 -3.526,5.78 -4.3783,8.39 -3.3076,10.12 0.2121,22.16 8.4126,28.79 4.9191,3.98 10.3184,6.16 15.8979,6.41 4.8003,0.22 8.6156,-0.47 12.7949,-2.31 3.2984,-1.46 5.6027,-3.05 8.1945,-5.66 6.1311,-6.18 9.0753,-15.27 7.6049,-23.48 -1.861,-10.39 -8.2063,-17.91 -18.1025,-21.45 -3.2178,-1.15 -4.6435,-1.38 -8.4446,-1.4 z m -0.3894,0.63 c 5.1644,0 10.1714,1.51 14.8903,4.65 5.9048,3.93 9.5035,9.29 11.1276,16.58 0.5106,2.29 0.5549,8.08 0.079,10.24 -0.802,3.65 -2.5687,7.66 -4.68,10.63 -4.0849,5.74 -10.4512,9.56 -17.7714,10.67 -1.4902,0.22 -5.1963,0.29 -6.6677,0.12 -2.5287,-0.29 -6.3907,-1.53 -8.9586,-2.88 -6.6356,-3.49 -11.0446,-8.64 -13.1981,-15.42 -2.5498,-8.02 -1.4132,-15.75 3.362,-22.87 3.4837,-5.2 7.6751,-8.38 13.5914,-10.32 2.7726,-0.91 5.5209,-1.37 8.2259,-1.4 z m 0.7355,1.16 c -1.6845,0 -3.4627,0.1 -4.8075,0.32 -4.3764,0.75 -9.0218,2.82 -11.9162,5.29 -0.5161,0.44 -1.1181,0.95 -1.3375,1.13 -0.6785,0.56 -2.9282,3.32 -3.7438,4.59 -2.0346,3.16 -3.5321,6.89 -4.0572,10.08 -0.3718,2.27 -0.2457,6.49 0.2593,8.69 0.5763,2.52 1.0171,3.7 1.346,3.6 0.1554,-0.1 2.1252,-0.59 4.3771,-1.21 2.2519,-0.62 4.4721,-1.23 4.9337,-1.37 0.4617,-0.14 0.8692,-0.22 0.9052,-0.18 0.036,0 -0.2646,0.29 -0.6687,0.56 -3.5299,2.4 -8.0318,5.61 -8.0968,5.78 -0.1879,0.49 2.1188,3.77 4.0961,5.83 3.805,3.97 9.7137,6.9 15.1756,7.54 6.1606,0.71 13.0557,-1.17 18.1276,-4.96 4.7156,-3.51 8.2849,-9.24 9.5406,-15.3 0.6465,-3.13 0.6724,-7.05 0.067,-10.13 -0.1728,-0.87 -0.2349,-0.98 -0.5565,-0.9 -0.1993,0 -1.8976,0.35 -3.7742,0.68 -4.2515,0.76 -7.0671,1.27 -7.4885,1.36 -0.5332,0.12 -0.066,-0.2 0.6251,-0.42 2.0653,-0.66 10.1038,-3.75 10.1562,-3.91 0.098,-0.29 -0.7102,-2.23 -0.9308,-2.23 -0.1092,0 -2.5276,1.04 -5.3744,2.32 -7.2892,3.27 -7.1396,3.21 -6.6265,2.8 0.2346,-0.18 2.7823,-1.96 5.6617,-3.94 l 5.2354,-3.61 -0.4429,-0.71 c -1.6041,-2.55 -4.1635,-5.22 -6.7893,-7.07 -2.8743,-2.04 -7.1152,-3.82 -10.3832,-4.38 -0.9488,-0.16 -2.2025,-0.24 -3.5127,-0.25 z"
         style="fill:#ef9d10;fill-opacity:0.94117647;stroke-width:2.04217339"
         transform="matrix(0,0.78716476,-0.78716476,0,-231961.07,-2348.9295)" />
      <path
         inkscape:connector-curvature="0"
         id="path8219-8"
         transform="matrix(0.15941289,0,0,0.15941289,-379.36753,53.378397)"
         d="m 742.79883,1719.5449 v 20.8106 h -20.78321 -0.52734 -21.31055 v 21.1523 h -20.96875 v 21.127 h -17.16992 l -0.29101,3.0859 c -0.36925,4.0617 -0.39563,8.1219 0,12.1309 -8.70372,2.532 -20.41425,3.3248 -29.77735,-5.4317 0,0 -5.1951,8.6246 -12.58008,9.9961 h 42.96485 c 0.79125,4.5629 2.13713,9.0202 4.0625,13.293 l 1.81836,3.7441 0.21094,0.3438 c 12.6072,21.39 34.70974,30.3828 58.8164,30.3828 40.14261,0 74.21876,-15.4027 94.21094,-47.7383 h 56.39062 c 0,0 -14.19031,-1.3979 -14.58593,-9.9961 0,0 -21.1524,14.5338 -37.63672,2.6387 1.58249,-3.1123 3.06014,-6.3311 4.43164,-9.707 11.81596,0.633 23.89577,-2.8756 29.67187,-14.1641 l 1.44922,-2.8731 -2.79492,-1.6367 c -6.8311,-3.9562 -15.93132,-4.4831 -23.68555,-2.2148 -0.94949,-8.229 -6.3565,-15.4829 -12.81836,-20.6524 l -2.53125,-2.0293 -2.16211,2.5039 c -4.29909,4.9849 -5.56657,13.2677 -4.98632,19.6504 0.422,4.6684 1.9269,9.4423 4.77539,13.1875 -2.21549,1.3188 -4.69467,2.3729 -6.91016,3.1114 -4.53648,1.5297 -9.41559,2.375 -14.18945,2.375 h -9.91797 v -21.127 h -21.31055 v -20.5723 -0.58 -20.8106 z m 3.13867,3.377 h 1.66211 v 14.6894 h -1.66211 z m 3.19141,0 h 1.66211 v 14.6894 h -1.66211 z m 3.58789,0 h 1.66015 v 14.6894 h -1.66015 z m 3.58593,0 h 1.66211 v 14.6894 h -1.66211 z m 3.56055,0 h 1.66211 v 14.6894 h -1.66211 z m -56.57422,20.7832 h 1.66211 v 14.6914 h -1.66211 z m 3.19141,0 h 1.66211 v 14.6914 h -1.66211 z m 3.58789,0 h 1.66016 v 14.6914 h -1.66016 z m 3.58594,0 h 1.66211 v 14.6914 h -1.66211 z m 3.58789,0 h 1.66015 v 14.6914 h -1.66015 z m 7.35742,0 h 1.66211 v 14.6914 h -1.66211 z m 3.19141,0 h 1.6621 v 14.6914 h -1.6621 z m 3.58789,0 h 1.66211 v 14.6914 h -1.66211 z m 3.58593,0 h 1.66211 v 14.6914 h -1.66211 z m 3.58789,0 h 1.66211 v 14.6914 h -1.66211 z m 7.38477,0 h 1.66211 v 14.6914 h -1.66211 z m 3.19141,0 h 1.66211 v 14.6914 h -1.66211 z m 3.58789,0 h 1.66015 v 14.6914 h -1.66015 z m 3.58593,0 h 1.66211 v 14.6914 h -1.66211 z m 3.56055,0 h 1.66211 v 14.6914 h -1.66211 z m -77.7793,21.4961 h 1.66211 v 14.6894 h -1.66211 z m 3.19141,0 h 1.66211 v 14.6894 h -1.66211 z m 3.58594,0 h 1.66211 v 14.6894 h -1.66211 z m 3.58789,0 h 1.66211 v 14.6894 h -1.66211 z m 3.58789,0 h 1.66016 v 14.6894 h -1.66016 z m 7.25195,0 h 1.66211 v 14.6894 h -1.66211 z m 3.19141,0 h 1.66211 v 14.6894 h -1.66211 z m 3.58789,0 h 1.66016 v 14.6894 h -1.66016 z m 3.58594,0 h 1.66211 v 14.6894 h -1.66211 z m 3.58789,0 h 1.66015 v 14.6894 h -1.66015 z m 7.35742,0 h 1.66211 v 14.6894 h -1.66211 z m 3.19141,0 h 1.6621 v 14.6894 h -1.6621 z m 3.58789,0 h 1.66211 v 14.6894 h -1.66211 z m 3.58593,0 h 1.66211 v 14.6894 h -1.66211 z m 3.58789,0 h 1.66211 v 14.6894 h -1.66211 z m 7.38477,0 h 1.66211 v 14.6894 h -1.66211 z m 3.19141,0 h 1.66211 v 14.6894 h -1.66211 z m 3.58789,0 h 1.66015 v 14.6894 h -1.66015 z m 3.58593,0 h 1.66211 v 14.6894 h -1.66211 z m 3.56055,0 h 1.66211 v 14.6894 h -1.66211 z m 7.38477,0 h 1.66211 v 14.6894 h -1.66211 z m 3.1914,0 h 1.66211 v 14.6894 h -1.66211 z m 3.58789,0 h 1.66211 v 14.6894 h -1.66211 z m 3.58594,0 h 1.66211 v 14.6894 h -1.66211 z m 3.58789,0 h 1.66211 v 14.6894 h -1.66211 z m -65.41015,41.3554 c 4.48373,0 8.09765,3.6384 8.09765,8.0957 0,4.4574 -3.64029,8.0977 -8.09765,8.0977 -4.45736,0 -8.09766,-3.6139 -8.09766,-8.0977 0,-4.4837 3.6403,-8.0957 8.09766,-8.0957 z m -0.16797,3.0372 c -2.86033,0 -5.19727,2.3369 -5.19727,5.1972 0,2.8603 2.33694,5.1953 5.19727,5.1953 2.86032,0 5.19531,-2.3111 5.19531,-5.1953 0,-0.3099 -0.0226,-0.5968 -0.0703,-0.8828 h -5.125 l 2.43164,-3.7187 c -0.71508,-0.3814 -1.54971,-0.5957 -2.43164,-0.5957 z m -15.12891,13.9472 c 0,0 7.0936,13.1362 30.96289,24.8731 0,0.026 -36.476,4.2972 -58.41992,-23.7129 l 0.89648,-0.078 c 14.09117,1.4753 19.97412,-0.1186 26.56055,-1.082 z"
         style="fill:#ffffff;stroke-width:2.66807055" />
    </g>
    <rect
       style="opacity:1;vector-effect:none;fill:#6b7b8c;fill-opacity:1;fill-rule:evenodd;stroke:none;stroke-width:3.77952766;stroke-linecap:round;stroke-linejoin:bevel;stroke-miterlimit:4;stroke-dasharray:none;stroke-dashoffset:0;stroke-opacity:1;paint-order:normal"
       id="rect35757"
       width="161.07143"
       height="15.714286"
       x="699.28571"
       y="642.87683"
       transform="matrix(0.26458333,0,0,0.26458333,9.5049238,-3.7417733)" />
    <text
       inkscape:export-ydpi="200"
       inkscape:export-xdpi="200"
       inkscape:export-filename="/home/adm1n/Github/azure/images/iac/abstractions.png"
       id="text8350-0"
       y="105.70963"
       x="85.927124"
       style="font-style:normal;font-variant:normal;font-weight:normal;font-stretch:normal;font-size:8.47635269px;line-height:1.25;font-family:'JetBrains Mono';-inkscape-font-specification:'JetBrains Mono, Normal';font-variant-ligatures:normal;font-variant-position:normal;font-variant-caps:normal;font-variant-numeric:normal;font-variant-alternates:normal;font-feature-settings:normal;text-indent:0;text-align:start;text-decoration:none;text-decoration-line:none;text-decoration-style:solid;text-decoration-color:#000000;letter-spacing:0px;word-spacing:0px;text-transform:none;writing-mode:lr-tb;direction:ltr;text-orientation:mixed;dominant-baseline:auto;baseline-shift:baseline;text-anchor:start;white-space:normal;shape-padding:0;opacity:1;vector-effect:none;fill:#3a4d61;fill-opacity:0.94117647;stroke:none;stroke-width:0.26458332;stroke-linecap:butt;stroke-linejoin:miter;stroke-miterlimit:4;stroke-dasharray:none;stroke-dashoffset:0;stroke-opacity:1"
       xml:space="preserve"><tspan
         id="tspan8348-3"
         style="font-style:normal;font-variant:normal;font-weight:bold;font-stretch:normal;font-size:12.55755997px;font-family:'JetBrains Mono';-inkscape-font-specification:'JetBrains Mono Bold';font-variant-ligatures:normal;font-variant-caps:normal;font-variant-numeric:normal;font-feature-settings:normal;text-align:start;writing-mode:lr-tb;text-anchor:start;fill:#3a4d61;fill-opacity:0.94117647;stroke-width:0.26458332"
         y="105.70963"
         x="85.927124"
         sodipodi:role="line">1.</tspan></text>
    <path
       sodipodi:nodetypes="cc"
       inkscape:connector-curvature="0"
       id="path35907"
       d="m 189.30628,95.543621 c 22.24172,0.72612 18.39289,13.847519 19.00578,27.763609"
       style="fill:none;stroke:#ef9d10;stroke-width:2;stroke-linecap:butt;stroke-linejoin:miter;stroke-miterlimit:4;stroke-dasharray:none;stroke-opacity:0.94117647;marker-end:url(#marker35911)" />
    <g
       id="g35663"
       transform="matrix(0.65830669,0.17639275,-0.17639275,0.65830669,437.10409,148.2439)"
       style="stroke-width:1.46728849">
      <path
         inkscape:export-ydpi="200"
         inkscape:export-xdpi="200"
         sodipodi:nodetypes="cccssccsscccccccc"
         inkscape:connector-curvature="0"
         id="path6153"
         d="m 1093.3632,-293901.87 c -1.8231,0.19 -3.1454,1.82 -2.9533,3.64 0.082,0.79 0.4405,1.51 1.0094,2.06 l -0.7339,0.1 c -4.2861,0.45 -3.7634,2.18 -3.5331,4.37 l 0.083,0.79 14.3983,-1.51 -0.084,-0.8 c -0.2303,-2.19 -0.1211,-3.98 -4.3646,-3.53 l -0.7376,0.1 c 0.445,-0.65 0.6447,-1.44 0.5638,-2.22 -0.192,-1.82 -1.8257,-3.15 -3.649,-2.95 z m 0.1571,1.49 c 0.9993,-0.11 1.8947,0.62 1.9996,1.62 0.1052,0.99 -0.6195,1.89 -1.6186,2 -0.9989,0.1 -1.894,-0.62 -1.9992,-1.62 -0.1052,-1 0.6193,-1.9 1.6182,-2 z"
         style="opacity:1;fill:#ef9d10;fill-opacity:0.94117647;stroke:none;stroke-width:0.12823787;stroke-linecap:butt;stroke-linejoin:bevel;stroke-miterlimit:4;stroke-dasharray:none;stroke-dashoffset:0;stroke-opacity:1;paint-order:normal"
         transform="matrix(1.4325722,0,0,1.4325722,-1959.1282,421028.57)" />
      <path
         inkscape:export-ydpi="200"
         inkscape:export-xdpi="200"
         inkscape:connector-curvature="0"
         id="rect6145"
         d="m 1085.1378,-293894.03 17.9029,-1.88 c 2.6251,-0.28 4.9609,1.61 5.2373,4.24 l 2.7734,26.34 c 0.2764,2.62 -1.6144,4.96 -4.2395,5.23 l -17.9029,1.89 c -2.6251,0.27 -4.9609,-1.62 -5.2373,-4.24 l -2.7734,-26.34 c -0.2764,-2.63 1.6144,-4.96 4.2395,-5.24 z"
         style="opacity:1;fill:#ef9d10;fill-opacity:0.94117647;stroke:none;stroke-width:0.15387744;stroke-linecap:butt;stroke-linejoin:bevel;stroke-miterlimit:4;stroke-dasharray:none;stroke-dashoffset:0;stroke-opacity:1;paint-order:normal"
         transform="matrix(1.4325722,0,0,1.4325722,-1959.1282,421028.57)" />
      <path
         transform="matrix(1.4312156,-0.06232927,0.06232927,1.4312156,-8208.0413,-1501.5452)"
         style="opacity:1;fill:#ffffff;fill-opacity:1;stroke:none;stroke-width:0.35950595;stroke-linecap:butt;stroke-linejoin:miter;stroke-miterlimit:4;stroke-dasharray:none;stroke-dashoffset:0;stroke-opacity:1;paint-order:normal"
         d="m 5395.7958,1289.2899 v 30.1827 h 21.486 v -25.9519 l -4.472,-4.2308 z"
         id="rect5785"
         inkscape:connector-curvature="0" />
      <path
         transform="matrix(1.4312156,-0.06232927,0.06232927,1.4312156,-8208.0413,-1501.5452)"
         sodipodi:nodetypes="cccc"
         inkscape:connector-curvature="0"
         id="path5798"
         d="m 5417.2825,1293.5102 -4.5596,-0.094 0.085,-4.1359 z"
         style="opacity:1;fill:#845709;fill-opacity:0.99607843;stroke:none;stroke-width:0.27142185;stroke-linecap:butt;stroke-linejoin:bevel;stroke-miterlimit:4;stroke-dasharray:none;stroke-opacity:1" />
      <path
         inkscape:connector-curvature="0"
         id="rect6191"
         transform="matrix(0.37868429,-0.01629517,0.01629517,0.37868429,-8207.8858,-1505.526)"
         d="m 20403.906,4920.3711 v 16.9922 h 16.992 v -16.9922 z m 2.44,2.4414 h 12.109 v 12.1094 h -12.109 z"
         style="opacity:1;fill:#ef9d10;fill-opacity:0.94117647;stroke:none;stroke-width:1.02584648;stroke-linecap:butt;stroke-linejoin:bevel;stroke-miterlimit:4;stroke-dasharray:none;stroke-dashoffset:0;stroke-opacity:1;paint-order:normal" />
      <g
         transform="matrix(1.4312477,-0.06158806,0.06158806,1.4312477,-8208.3308,-1504.9097)"
         id="g6202"
         style="fill:#ef9d10;fill-opacity:0.94117647;stroke-width:1.02423346">
        <rect
           style="opacity:1;fill:#ef9d10;fill-opacity:0.94117647;stroke:none;stroke-width:0.27142185;stroke-linecap:butt;stroke-linejoin:bevel;stroke-miterlimit:4;stroke-dasharray:none;stroke-dashoffset:0;stroke-opacity:1;paint-order:normal"
           id="rect6196"
           width="8.4043741"
           height="0.91351891"
           x="5405.8022"
           y="-1305.2327"
           rx="0.46782836"
           ry="0.46782836"
           transform="scale(1,-1)" />
        <rect
           ry="0.46782836"
           rx="0.46782836"
           y="-1303.0402"
           x="5405.8022"
           height="0.91351891"
           width="10.59682"
           id="rect6198"
           style="opacity:1;fill:#ef9d10;fill-opacity:0.94117647;stroke:none;stroke-width:0.30477539;stroke-linecap:butt;stroke-linejoin:bevel;stroke-miterlimit:4;stroke-dasharray:none;stroke-dashoffset:0;stroke-opacity:1;paint-order:normal"
           transform="scale(1,-1)" />
      </g>
      <path
         style="opacity:1;fill:#ef9d10;fill-opacity:0.94117647;stroke:none;stroke-width:1.02584648;stroke-linecap:butt;stroke-linejoin:bevel;stroke-miterlimit:4;stroke-dasharray:none;stroke-dashoffset:0;stroke-opacity:1;paint-order:normal"
         d="m 20403.906,4920.3711 v 16.9922 h 16.992 v -16.9922 z m 2.44,2.4414 h 12.109 v 12.1094 h -12.109 z"
         transform="matrix(0.37868429,-0.01629517,0.01629517,0.37868429,-8207.5325,-1497.32)"
         id="path6210"
         inkscape:connector-curvature="0" />
      <g
         id="g6216"
         transform="matrix(1.4312477,-0.06158806,0.06158806,1.4312477,-8207.9776,-1496.7037)"
         style="fill:#ef9d10;fill-opacity:0.94117647;stroke-width:1.02423346">
        <rect
           transform="scale(1,-1)"
           ry="0.46782836"
           rx="0.46782836"
           y="-1305.2327"
           x="5405.8022"
           height="0.91351891"
           width="8.4043741"
           id="rect6212"
           style="opacity:1;fill:#ef9d10;fill-opacity:0.94117647;stroke:none;stroke-width:0.27142185;stroke-linecap:butt;stroke-linejoin:bevel;stroke-miterlimit:4;stroke-dasharray:none;stroke-dashoffset:0;stroke-opacity:1;paint-order:normal" />
        <rect
           transform="scale(1,-1)"
           style="opacity:1;fill:#ef9d10;fill-opacity:0.94117647;stroke:none;stroke-width:0.30477539;stroke-linecap:butt;stroke-linejoin:bevel;stroke-miterlimit:4;stroke-dasharray:none;stroke-dashoffset:0;stroke-opacity:1;paint-order:normal"
           id="rect6214"
           width="10.59682"
           height="0.91351891"
           x="5405.8022"
           y="-1303.0402"
           rx="0.46782836"
           ry="0.46782836" />
      </g>
      <path
         inkscape:connector-curvature="0"
         id="path6220"
         transform="matrix(0.37868429,-0.01629517,0.01629517,0.37868429,-8207.1791,-1489.108)"
         d="m 20403.906,4920.3711 v 16.9922 h 16.992 v -16.9922 z m 2.44,2.4414 h 12.109 v 12.1094 h -12.109 z"
         style="opacity:1;fill:#ef9d10;fill-opacity:0.94117647;stroke:none;stroke-width:1.02584648;stroke-linecap:butt;stroke-linejoin:bevel;stroke-miterlimit:4;stroke-dasharray:none;stroke-dashoffset:0;stroke-opacity:1;paint-order:normal" />
      <g
         transform="matrix(1.4312477,-0.06158806,0.06158806,1.4312477,-8207.6241,-1488.4917)"
         id="g6226"
         style="fill:#ef9d10;fill-opacity:0.94117647;stroke-width:1.02423346">
        <rect
           style="opacity:1;fill:#ef9d10;fill-opacity:0.94117647;stroke:none;stroke-width:0.27142185;stroke-linecap:butt;stroke-linejoin:bevel;stroke-miterlimit:4;stroke-dasharray:none;stroke-dashoffset:0;stroke-opacity:1;paint-order:normal"
           id="rect6222"
           width="8.4043741"
           height="0.91351891"
           x="5405.8022"
           y="-1305.2327"
           rx="0.46782836"
           ry="0.46782836"
           transform="scale(1,-1)" />
        <rect
           ry="0.46782836"
           rx="0.46782836"
           y="-1303.0402"
           x="5405.8022"
           height="0.91351891"
           width="10.59682"
           id="rect6224"
           style="opacity:1;fill:#ef9d10;fill-opacity:0.94117647;stroke:none;stroke-width:0.30477539;stroke-linecap:butt;stroke-linejoin:bevel;stroke-miterlimit:4;stroke-dasharray:none;stroke-dashoffset:0;stroke-opacity:1;paint-order:normal"
           transform="scale(1,-1)" />
      </g>
      <path
         transform="matrix(0.9495381,-0.06231158,0.06231158,0.9495381,-5544.615,-1026.2997)"
         style="fill:#ef9e10;fill-opacity:0.99607843;stroke-width:0.13541155"
         d="m 5333.3958,1440.6398 a 6.7093269,6.7093269 0 0 0 -6.7093,6.7092 6.7093269,6.7093269 0 0 0 6.7093,6.7094 6.7093269,6.7093269 0 0 0 6.7093,-6.7094 6.7093269,6.7093269 0 0 0 -6.7093,-6.7092 z m 0.1054,2.6959 c 0.1843,-0.01 0.3512,0.1055 0.4127,0.2811 l 2.6609,6.4107 v 10e-5 c 0.026,0.07 0.036,0.1318 0.044,0.2108 v 0.01 c -0.01,0.2634 -0.2284,0.4739 -0.4918,0.4653 -0.1317,0 -0.2284,-0.053 -0.369,-0.1669 l -3.4511,-2.7925 -1.1593,2.898 h -1.0013 l 2.9333,-7.0342 c 0.061,-0.1756 0.2371,-0.2901 0.4216,-0.2811 z m 0,1.4315 -0.887,2.2131 2.6169,2.0637 z"
         id="path16535-1"
         inkscape:connector-curvature="0" />
    </g>
    <path
       sodipodi:nodetypes="cc"
       inkscape:connector-curvature="0"
       id="path35907-6"
       d="m 121.75993,101.11621 c 11.1582,-3.573058 28.46632,-5.447246 40.84726,0.7275"
       style="fill:none;stroke:#6b7b8c;stroke-width:2;stroke-linecap:butt;stroke-linejoin:miter;stroke-miterlimit:4;stroke-dasharray:none;stroke-opacity:1;marker-end:url(#marker35911-4)" />
    <g
       id="g35583"
       transform="matrix(0.73801733,-0.11604046,0.11604046,0.73801733,490.21158,-2.0750692)"
       style="stroke-width:1.3385371">
      <path
         transform="matrix(1.5045529,-0.0655231,0.0655231,1.5045529,-8740.2048,-1555.3558)"
         style="opacity:1;fill:#6b7b8c;fill-opacity:0.94117647;stroke:none;stroke-width:0.31197414;stroke-linecap:butt;stroke-linejoin:miter;stroke-miterlimit:4;stroke-dasharray:none;stroke-dashoffset:0;stroke-opacity:1;paint-order:normal"
         d="m 5395.7958,1289.2899 v 30.1827 h 21.486 v -25.9519 l -4.472,-4.2308 z"
         id="path35525"
         inkscape:connector-curvature="0" />
      <path
         inkscape:connector-curvature="0"
         id="path35489"
         d="m 5395.7958,1289.2899 v 30.1827 h 21.486 v -25.9519 l -4.472,-4.2308 z"
         style="opacity:1;fill:#ffffff;fill-opacity:1;stroke:none;stroke-width:0.32796007;stroke-linecap:butt;stroke-linejoin:miter;stroke-miterlimit:4;stroke-dasharray:none;stroke-dashoffset:0;stroke-opacity:1;paint-order:normal"
         transform="matrix(1.4312156,-0.06232927,0.06232927,1.4312156,-8339.5379,-1476.9564)" />
      <path
         style="opacity:1;fill:#6b7b8c;fill-opacity:0.94117647;stroke:none;stroke-width:0.21339105;stroke-linecap:butt;stroke-linejoin:bevel;stroke-miterlimit:4;stroke-dasharray:none;stroke-opacity:1"
         d="m 5417.073,1293.2396 -0.5475,0.4916 -3.9074,0.4751 0.057,-4.1211 0.2693,-0.6984 z"
         id="path35491"
         inkscape:connector-curvature="0"
         sodipodi:nodetypes="cccccc"
         transform="matrix(1.66069,-0.07232285,0.07232285,1.66069,-9594.373,-1720.0301)" />
      <g
         style="fill:#6b7b8c;fill-opacity:0.94117647;stroke-width:0.62327868"
         id="g35499"
         transform="matrix(2.1455884,-0.09232687,0.09232687,2.1455884,-12247.679,-2239.8828)">
        <rect
           transform="scale(1,-1)"
           ry="0.28468841"
           rx="0.28468841"
           y="-1305.2327"
           x="5405.8022"
           height="0.91351891"
           width="8.4043741"
           id="rect35495"
           style="opacity:1;fill:#6b7b8c;fill-opacity:0.94117647;stroke:none;stroke-width:0.16516884;stroke-linecap:butt;stroke-linejoin:bevel;stroke-miterlimit:4;stroke-dasharray:none;stroke-dashoffset:0;stroke-opacity:1;paint-order:normal" />
        <rect
           transform="scale(1,-1)"
           style="opacity:1;fill:#6b7b8c;fill-opacity:0.94117647;stroke:none;stroke-width:0.18546551;stroke-linecap:butt;stroke-linejoin:bevel;stroke-miterlimit:4;stroke-dasharray:none;stroke-dashoffset:0;stroke-opacity:1;paint-order:normal"
           id="rect35497"
           width="10.59682"
           height="0.91351891"
           x="5405.8022"
           y="-1303.0402"
           rx="0.28468841"
           ry="0.28468841" />
      </g>
      <g
         style="fill:#6b7b8c;fill-opacity:0.94117647;stroke-width:0.62327868"
         transform="matrix(2.1455884,-0.09232687,0.09232687,2.1455884,-12249.132,-2229.0932)"
         id="g35507">
        <rect
           style="opacity:1;fill:#6b7b8c;fill-opacity:0.94117647;stroke:none;stroke-width:0.16516884;stroke-linecap:butt;stroke-linejoin:bevel;stroke-miterlimit:4;stroke-dasharray:none;stroke-dashoffset:0;stroke-opacity:1;paint-order:normal"
           id="rect35503"
           width="8.4043741"
           height="0.91351891"
           x="5405.8022"
           y="-1305.2327"
           rx="0.28468841"
           ry="0.28468841"
           transform="scale(1,-1)" />
        <rect
           ry="0.28468841"
           rx="0.28468841"
           y="-1303.0402"
           x="5405.8022"
           height="0.91351891"
           width="10.59682"
           id="rect35505"
           style="opacity:1;fill:#6b7b8c;fill-opacity:0.94117647;stroke:none;stroke-width:0.18546551;stroke-linecap:butt;stroke-linejoin:bevel;stroke-miterlimit:4;stroke-dasharray:none;stroke-dashoffset:0;stroke-opacity:1;paint-order:normal"
           transform="scale(1,-1)" />
      </g>
      <g
         style="fill:#6b7b8c;fill-opacity:0.94117647;stroke-width:0.62327868"
         transform="matrix(2.1455884,-0.09232687,0.09232687,2.1455884,-12250.8,-2250.925)"
         id="g35523">
        <rect
           style="opacity:1;fill:#6b7b8c;fill-opacity:0.94117647;stroke:none;stroke-width:0.16516884;stroke-linecap:butt;stroke-linejoin:bevel;stroke-miterlimit:4;stroke-dasharray:none;stroke-dashoffset:0;stroke-opacity:1;paint-order:normal"
           id="rect35519"
           width="8.4043741"
           height="0.91351891"
           x="5405.8022"
           y="-1305.2327"
           rx="0.28468841"
           ry="0.28468841"
           transform="scale(1,-1)" />
        <rect
           ry="0.28468841"
           rx="0.28468841"
           y="-1303.0402"
           x="5405.8022"
           height="0.91351891"
           width="10.59682"
           id="rect35521"
           style="opacity:1;fill:#6b7b8c;fill-opacity:0.94117647;stroke:none;stroke-width:0.18546551;stroke-linecap:butt;stroke-linejoin:bevel;stroke-miterlimit:4;stroke-dasharray:none;stroke-dashoffset:0;stroke-opacity:1;paint-order:normal"
           transform="scale(1,-1)" />
      </g>
      <rect
         transform="matrix(0.26425777,-0.01312139,0.01312139,0.26425777,3.368835,-26.069778)"
         y="122.51968"
         x="-2057.5"
         height="24.285715"
         width="72.85714"
         id="rect35545"
         style="opacity:1;vector-effect:none;fill:#6b7b8c;fill-opacity:0.94117647;fill-rule:evenodd;stroke:none;stroke-width:5.05903769;stroke-linecap:round;stroke-linejoin:bevel;stroke-miterlimit:4;stroke-dasharray:none;stroke-dashoffset:0;stroke-opacity:1;paint-order:normal" />
      <text
         inkscape:export-ydpi="200"
         inkscape:export-xdpi="200"
         inkscape:export-filename="/home/adm1n/Github/azure/images/iac/abstractions.png"
         id="text7566-7"
         y="199.89458"
         x="34.764439"
         style="font-style:normal;font-variant:normal;font-weight:normal;font-stretch:normal;font-size:9.52499962px;line-height:1.25;font-family:'JetBrains Mono';-inkscape-font-specification:'JetBrains Mono, Normal';font-variant-ligatures:normal;font-variant-position:normal;font-variant-caps:normal;font-variant-numeric:normal;font-variant-alternates:normal;font-feature-settings:normal;text-indent:0;text-align:start;text-decoration:none;text-decoration-line:none;text-decoration-style:solid;text-decoration-color:#000000;letter-spacing:0px;word-spacing:0px;text-transform:none;writing-mode:lr-tb;direction:ltr;text-orientation:mixed;dominant-baseline:auto;baseline-shift:baseline;text-anchor:start;white-space:normal;shape-padding:0;opacity:1;vector-effect:none;fill:#ffffff;fill-opacity:1;stroke:none;stroke-width:0.48442832;stroke-linecap:butt;stroke-linejoin:miter;stroke-miterlimit:4;stroke-dasharray:none;stroke-dashoffset:0;stroke-opacity:1"
         xml:space="preserve"
         transform="matrix(0.72973693,-0.04425042,0.04425042,0.72973693,-568.6965,-105.37474)"><tspan
           id="tspan7564-0"
           style="font-style:normal;font-variant:normal;font-weight:bold;font-stretch:normal;font-size:9.52499962px;font-family:'JetBrains Mono';-inkscape-font-specification:'JetBrains Mono Bold';font-variant-ligatures:normal;font-variant-caps:normal;font-variant-numeric:normal;font-feature-settings:normal;text-align:start;writing-mode:lr-tb;text-anchor:start;fill:#ffffff;fill-opacity:1;stroke-width:0.48442832"
           y="199.89458"
           x="34.764439"
           sodipodi:role="line">ARM</tspan></text>
    </g>
    <text
       xml:space="preserve"
       style="font-style:normal;font-variant:normal;font-weight:normal;font-stretch:normal;font-size:8.47635269px;line-height:1.25;font-family:'JetBrains Mono';-inkscape-font-specification:'JetBrains Mono, Normal';font-variant-ligatures:normal;font-variant-position:normal;font-variant-caps:normal;font-variant-numeric:normal;font-variant-alternates:normal;font-feature-settings:normal;text-indent:0;text-align:start;text-decoration:none;text-decoration-line:none;text-decoration-style:solid;text-decoration-color:#000000;letter-spacing:0px;word-spacing:0px;text-transform:none;writing-mode:lr-tb;direction:ltr;text-orientation:mixed;dominant-baseline:auto;baseline-shift:baseline;text-anchor:start;white-space:normal;shape-padding:0;opacity:1;vector-effect:none;fill:#3a4d61;fill-opacity:0.94117647;stroke:none;stroke-width:0.26458332;stroke-linecap:butt;stroke-linejoin:miter;stroke-miterlimit:4;stroke-dasharray:none;stroke-dashoffset:0;stroke-opacity:1"
       x="147.41293"
       y="94.195335"
       id="text36554"
       inkscape:export-filename="/home/adm1n/Github/azure/images/iac/abstractions.png"
       inkscape:export-xdpi="200"
       inkscape:export-ydpi="200"><tspan
         sodipodi:role="line"
         x="147.41293"
         y="94.195335"
         style="font-style:normal;font-variant:normal;font-weight:bold;font-stretch:normal;font-size:12.55755997px;font-family:'JetBrains Mono';-inkscape-font-specification:'JetBrains Mono Bold';font-variant-ligatures:normal;font-variant-caps:normal;font-variant-numeric:normal;font-feature-settings:normal;text-align:start;writing-mode:lr-tb;text-anchor:start;fill:#3a4d61;fill-opacity:0.94117647;stroke-width:0.26458332"
         id="tspan36552">2.</tspan></text>
    <text
       inkscape:export-ydpi="200"
       inkscape:export-xdpi="200"
       inkscape:export-filename="/home/adm1n/Github/azure/images/iac/abstractions.png"
       id="text36558"
       y="199.89458"
       x="34.764439"
       style="font-style:normal;font-variant:normal;font-weight:normal;font-stretch:normal;font-size:9.52499962px;line-height:1.25;font-family:'JetBrains Mono';-inkscape-font-specification:'JetBrains Mono, Normal';font-variant-ligatures:normal;font-variant-position:normal;font-variant-caps:normal;font-variant-numeric:normal;font-variant-alternates:normal;font-feature-settings:normal;text-indent:0;text-align:start;text-decoration:none;text-decoration-line:none;text-decoration-style:solid;text-decoration-color:#000000;letter-spacing:0px;word-spacing:0px;text-transform:none;writing-mode:lr-tb;direction:ltr;text-orientation:mixed;dominant-baseline:auto;baseline-shift:baseline;text-anchor:start;white-space:normal;shape-padding:0;opacity:1;vector-effect:none;fill:#3a4d61;fill-opacity:0.94117647;stroke:none;stroke-width:0.29731607;stroke-linecap:butt;stroke-linejoin:miter;stroke-miterlimit:4;stroke-dasharray:none;stroke-dashoffset:0;stroke-opacity:1"
       xml:space="preserve"
       transform="matrix(0.88990583,0,0,0.88990583,144.88337,-31.872244)"><tspan
         id="tspan36556"
         style="font-style:normal;font-variant:normal;font-weight:bold;font-stretch:normal;font-size:14.11111069px;font-family:'JetBrains Mono';-inkscape-font-specification:'JetBrains Mono Bold';font-variant-ligatures:normal;font-variant-caps:normal;font-variant-numeric:normal;font-feature-settings:normal;text-align:start;writing-mode:lr-tb;text-anchor:start;fill:#3a4d61;fill-opacity:0.94117647;stroke-width:0.29731607"
         y="199.89458"
         x="34.764439"
         sodipodi:role="line">3.</tspan></text>
    <text
       transform="matrix(0.88990583,0,0,0.88990583,141.48158,10.083113)"
       xml:space="preserve"
       style="font-style:normal;font-variant:normal;font-weight:normal;font-stretch:normal;font-size:9.52499962px;line-height:1.25;font-family:'JetBrains Mono';-inkscape-font-specification:'JetBrains Mono, Normal';font-variant-ligatures:normal;font-variant-position:normal;font-variant-caps:normal;font-variant-numeric:normal;font-variant-alternates:normal;font-feature-settings:normal;text-indent:0;text-align:start;text-decoration:none;text-decoration-line:none;text-decoration-style:solid;text-decoration-color:#000000;letter-spacing:0px;word-spacing:0px;text-transform:none;writing-mode:lr-tb;direction:ltr;text-orientation:mixed;dominant-baseline:auto;baseline-shift:baseline;text-anchor:start;white-space:normal;shape-padding:0;opacity:1;vector-effect:none;fill:#3a4d61;fill-opacity:0.94117647;stroke:none;stroke-width:0.29731607;stroke-linecap:butt;stroke-linejoin:miter;stroke-miterlimit:4;stroke-dasharray:none;stroke-dashoffset:0;stroke-opacity:1"
       x="34.764439"
       y="199.89458"
       id="text36562"
       inkscape:export-filename="/home/adm1n/Github/azure/images/iac/abstractions.png"
       inkscape:export-xdpi="200"
       inkscape:export-ydpi="200"><tspan
         sodipodi:role="line"
         x="34.764439"
         y="199.89458"
         style="font-style:normal;font-variant:normal;font-weight:bold;font-stretch:normal;font-size:14.11111069px;font-family:'JetBrains Mono';-inkscape-font-specification:'JetBrains Mono Bold';font-variant-ligatures:normal;font-variant-caps:normal;font-variant-numeric:normal;font-feature-settings:normal;text-align:start;writing-mode:lr-tb;text-anchor:start;fill:#3a4d61;fill-opacity:0.94117647;stroke-width:0.29731607"
         id="tspan36560">4.</tspan></text>
    <text
       inkscape:export-ydpi="200"
       inkscape:export-xdpi="200"
       inkscape:export-filename="/home/adm1n/Github/azure/images/iac/abstractions.png"
       id="text36566"
       y="199.89458"
       x="34.764439"
       style="font-style:normal;font-variant:normal;font-weight:normal;font-stretch:normal;font-size:9.52499962px;line-height:1.25;font-family:'JetBrains Mono';-inkscape-font-specification:'JetBrains Mono, Normal';font-variant-ligatures:normal;font-variant-position:normal;font-variant-caps:normal;font-variant-numeric:normal;font-variant-alternates:normal;font-feature-settings:normal;text-indent:0;text-align:start;text-decoration:none;text-decoration-line:none;text-decoration-style:solid;text-decoration-color:#000000;letter-spacing:0px;word-spacing:0px;text-transform:none;writing-mode:lr-tb;direction:ltr;text-orientation:mixed;dominant-baseline:auto;baseline-shift:baseline;text-anchor:start;white-space:normal;shape-padding:0;opacity:1;vector-effect:none;fill:#3a4d61;fill-opacity:0.94117647;stroke:none;stroke-width:0.29731607;stroke-linecap:butt;stroke-linejoin:miter;stroke-miterlimit:4;stroke-dasharray:none;stroke-dashoffset:0;stroke-opacity:1"
       xml:space="preserve"
       transform="matrix(0.88990583,0,0,0.88990583,141.48158,76.417934)"><tspan
         id="tspan36564"
         style="font-style:normal;font-variant:normal;font-weight:bold;font-stretch:normal;font-size:14.11111069px;font-family:'JetBrains Mono';-inkscape-font-specification:'JetBrains Mono Bold';font-variant-ligatures:normal;font-variant-caps:normal;font-variant-numeric:normal;font-feature-settings:normal;text-align:start;writing-mode:lr-tb;text-anchor:start;fill:#3a4d61;fill-opacity:0.94117647;stroke-width:0.29731607"
         y="199.89458"
         x="34.764439"
         sodipodi:role="line">5.</tspan></text>
    <path
       style="fill:none;stroke:#ef9d10;stroke-width:2;stroke-linecap:butt;stroke-linejoin:miter;stroke-miterlimit:4;stroke-dasharray:none;stroke-opacity:0.94117647;marker-end:url(#marker3415)"
       d="m 214.88357,74.963867 0.29691,48.343363"
       id="path3411"
       inkscape:connector-curvature="0"
       sodipodi:nodetypes="cc" />
  </g>
</svg>
