<?xml version="1.0" encoding="UTF-8" standalone="no"?>
<!-- Created with Inkscape (http://www.inkscape.org/) -->

<svg
   xmlns:dc="http://purl.org/dc/elements/1.1/"
   xmlns:cc="http://creativecommons.org/ns#"
   xmlns:rdf="http://www.w3.org/1999/02/22-rdf-syntax-ns#"
   xmlns:svg="http://www.w3.org/2000/svg"
   xmlns="http://www.w3.org/2000/svg"
   xmlns:xlink="http://www.w3.org/1999/xlink"
   xmlns:sodipodi="http://sodipodi.sourceforge.net/DTD/sodipodi-0.dtd"
   xmlns:inkscape="http://www.inkscape.org/namespaces/inkscape"
   width="420mm"
   height="297mm"
   viewBox="0 0 420 297"
   version="1.1"
   id="svg1305"
   inkscape:version="0.92.3 (2405546, 2018-03-11)"
   sodipodi:docname="result.svg">
  <defs
     id="defs1299">
    <marker
       inkscape:isstock="true"
       style="overflow:visible;"
       id="marker35911"
       refX="0.0"
       refY="0.0"
       orient="auto"
       inkscape:stockid="Arrow2Send">
      <path
         transform="scale(0.3) rotate(180) translate(-2.3,0)"
         d="M 8.7185878,4.0337352 L -2.2072895,0.016013256 L 8.7185884,-4.0017078 C 6.9730900,-1.6296469 6.9831476,1.6157441 8.7185878,4.0337352 z "
         style="fill-rule:evenodd;stroke-width:0.625;stroke-linejoin:round;stroke:#ef9d10;stroke-opacity:0.94117647;fill:#ef9d10;fill-opacity:0.94117647"
         id="path35909" />
    </marker>
    <marker
       inkscape:stockid="Arrow2Send"
       orient="auto"
       refY="0.0"
       refX="0.0"
       id="Arrow2Send"
       style="overflow:visible;"
       inkscape:isstock="true"
       inkscape:collect="always">
      <path
         id="path19019"
         style="fill-rule:evenodd;stroke-width:0.625;stroke-linejoin:round;stroke:#394d61;stroke-opacity:0.94117647;fill:#394d61;fill-opacity:0.94117647"
         d="M 8.7185878,4.0337352 L -2.2072895,0.016013256 L 8.7185884,-4.0017078 C 6.9730900,-1.6296469 6.9831476,1.6157441 8.7185878,4.0337352 z "
         transform="scale(0.3) rotate(180) translate(-2.3,0)" />
    </marker>
    <marker
       inkscape:isstock="true"
       style="overflow:visible"
       id="marker17439"
       refX="0"
       refY="0"
       orient="auto"
       inkscape:stockid="Arrow1Send">
      <path
         inkscape:connector-curvature="0"
         transform="matrix(-0.2,0,0,-0.2,-1.2,0)"
         style="fill:#3a4d61;fill-opacity:1;fill-rule:evenodd;stroke:#3a4d61;stroke-width:1.00000003pt;stroke-opacity:1"
         d="M 0,0 5,-5 -12.5,0 5,5 Z"
         id="path17437" />
    </marker>
    <marker
       inkscape:stockid="Arrow1Send"
       orient="auto"
       refY="0"
       refX="0"
       id="marker17575"
       style="overflow:visible"
       inkscape:isstock="true">
      <path
         inkscape:connector-curvature="0"
         id="path17573"
         d="M 0,0 5,-5 -12.5,0 5,5 Z"
         style="fill:#6b7b8c;fill-opacity:1;fill-rule:evenodd;stroke:#6b7b8c;stroke-width:1.00000003pt;stroke-opacity:1"
         transform="matrix(-0.2,0,0,-0.2,-1.2,0)" />
    </marker>
    <marker
       inkscape:isstock="true"
       style="overflow:visible"
       id="marker8180"
       refX="0"
       refY="0"
       orient="auto"
       inkscape:stockid="Arrow1Send">
      <path
         transform="matrix(-0.2,0,0,-0.2,-1.2,0)"
         style="fill:#394d61;fill-opacity:1;fill-rule:evenodd;stroke:#394d61;stroke-width:1.00000003pt;stroke-opacity:1"
         d="M 0,0 5,-5 -12.5,0 5,5 Z"
         id="path8178"
         inkscape:connector-curvature="0" />
    </marker>
    <marker
       inkscape:isstock="true"
       style="overflow:visible"
       id="marker8184"
       refX="0"
       refY="0"
       orient="auto"
       inkscape:stockid="Arrow1Send">
      <path
         transform="matrix(-0.2,0,0,-0.2,-1.2,0)"
         style="fill:#ef9d10;fill-opacity:1;fill-rule:evenodd;stroke:#ef9d10;stroke-width:1.00000003pt;stroke-opacity:1"
         d="M 0,0 5,-5 -12.5,0 5,5 Z"
         id="path8182"
         inkscape:connector-curvature="0" />
    </marker>
    <clipPath
       clipPathUnits="userSpaceOnUse"
       id="clipPath2103">
      <rect
         y="780.41144"
         x="1352.526"
         height="210.91074"
         width="349.25"
         id="rect2105"
         style="opacity:0.478;vector-effect:none;fill:#ff0000;fill-opacity:1;fill-rule:evenodd;stroke:none;stroke-width:0.93366641;stroke-linecap:butt;stroke-linejoin:miter;stroke-miterlimit:4;stroke-dasharray:none;stroke-dashoffset:0;stroke-opacity:1" />
    </clipPath>
    <linearGradient
       inkscape:collect="always"
       xlink:href="#linearGradient24825"
       id="linearGradient24827"
       x1="6323.4995"
       y1="1665.8149"
       x2="6398.8447"
       y2="1747.3848"
       gradientUnits="userSpaceOnUse"
       gradientTransform="matrix(0.2885462,0,0,0.28748537,-1853.4043,-323.03884)" />
    <linearGradient
       inkscape:collect="always"
       id="linearGradient24825">
      <stop
         style="stop-color:#ffffff;stop-opacity:1;"
         offset="0"
         id="stop24821" />
      <stop
         style="stop-color:#ffffff;stop-opacity:0;"
         offset="1"
         id="stop24823" />
    </linearGradient>
    <marker
       inkscape:isstock="true"
       style="overflow:visible"
       id="marker8180-1"
       refX="0"
       refY="0"
       orient="auto"
       inkscape:stockid="Arrow1Send">
      <path
         transform="matrix(-0.2,0,0,-0.2,-1.2,0)"
         style="fill:#394d61;fill-opacity:1;fill-rule:evenodd;stroke:#394d61;stroke-width:1.00000003pt;stroke-opacity:1"
         d="M 0,0 5,-5 -12.5,0 5,5 Z"
         id="path8178-3"
         inkscape:connector-curvature="0" />
    </marker>
    <marker
       inkscape:isstock="true"
       style="overflow:visible"
       id="marker8184-3"
       refX="0"
       refY="0"
       orient="auto"
       inkscape:stockid="Arrow1Send">
      <path
         transform="matrix(-0.2,0,0,-0.2,-1.2,0)"
         style="fill:#ef9d10;fill-opacity:1;fill-rule:evenodd;stroke:#ef9d10;stroke-width:1.00000003pt;stroke-opacity:1"
         d="M 0,0 5,-5 -12.5,0 5,5 Z"
         id="path8182-6"
         inkscape:connector-curvature="0" />
    </marker>
    <marker
       inkscape:isstock="true"
       style="overflow:visible"
       id="marker17439-6"
       refX="0"
       refY="0"
       orient="auto"
       inkscape:stockid="Arrow1Send">
      <path
         inkscape:connector-curvature="0"
         transform="matrix(-0.2,0,0,-0.2,-1.2,0)"
         style="fill:#3a4d61;fill-opacity:1;fill-rule:evenodd;stroke:#3a4d61;stroke-width:1.00000003pt;stroke-opacity:1"
         d="M 0,0 5,-5 -12.5,0 5,5 Z"
         id="path17437-0" />
    </marker>
    <marker
       inkscape:stockid="Arrow1Send"
       orient="auto"
       refY="0"
       refX="0"
       id="marker17575-4"
       style="overflow:visible"
       inkscape:isstock="true">
      <path
         inkscape:connector-curvature="0"
         id="path17573-5"
         d="M 0,0 5,-5 -12.5,0 5,5 Z"
         style="fill:#6b7b8c;fill-opacity:1;fill-rule:evenodd;stroke:#6b7b8c;stroke-width:1.00000003pt;stroke-opacity:1"
         transform="matrix(-0.2,0,0,-0.2,-1.2,0)" />
    </marker>
    <marker
       inkscape:isstock="true"
       style="overflow:visible"
       id="marker35911-4"
       refX="0"
       refY="0"
       orient="auto"
       inkscape:stockid="Arrow2Send">
      <path
         inkscape:connector-curvature="0"
         transform="matrix(-0.3,0,0,-0.3,0.69,0)"
         d="M 8.7185878,4.0337352 -2.2072895,0.01601326 8.7185884,-4.0017078 c -1.7454984,2.3720609 -1.7354408,5.6174519 -6e-7,8.035443 z"
         style="fill:#6b7b8c;fill-opacity:1;fill-rule:evenodd;stroke:#6b7b8c;stroke-width:0.625;stroke-linejoin:round;stroke-opacity:1"
         id="path35909-6" />
    </marker>
    <marker
       inkscape:stockid="Arrow1Mstart"
       orient="auto"
       refY="0"
       refX="0"
       id="marker3236-6-8-08-4"
       style="overflow:visible"
       inkscape:isstock="true">
      <path
         inkscape:connector-curvature="0"
         id="path3234-0-5-0-0"
         d="M 0,0 5,-5 -12.5,0 5,5 Z"
         style="fill:#3b4d61;fill-opacity:0.94117647;fill-rule:evenodd;stroke:#3b4d61;stroke-width:1.00000003pt;stroke-opacity:0.94117647"
         transform="matrix(0.4,0,0,0.4,4,0)" />
    </marker>
    <marker
       inkscape:stockid="Arrow1Mstart"
       orient="auto"
       refY="0"
       refX="0"
       id="marker3236-6-8-6-6"
       style="overflow:visible"
       inkscape:isstock="true">
      <path
         inkscape:connector-curvature="0"
         id="path3234-0-5-3-2"
         d="M 0,0 5,-5 -12.5,0 5,5 Z"
         style="fill:#3b4d61;fill-opacity:0.94117647;fill-rule:evenodd;stroke:#3b4d61;stroke-width:1.00000003pt;stroke-opacity:0.94117647"
         transform="matrix(0.4,0,0,0.4,4,0)" />
    </marker>
    <marker
       inkscape:isstock="true"
       style="overflow:visible"
       id="marker3351-9"
       refX="0"
       refY="0"
       orient="auto"
       inkscape:stockid="Arrow1Mstart">
      <path
         transform="matrix(0.4,0,0,0.4,4,0)"
         style="fill:#3b4d61;fill-opacity:0.94117647;fill-rule:evenodd;stroke:#3b4d61;stroke-width:1.00000003pt;stroke-opacity:0.94117647"
         d="M 0,0 5,-5 -12.5,0 5,5 Z"
         id="path3349-9"
         inkscape:connector-curvature="0" />
    </marker>
    <marker
       inkscape:stockid="Arrow1Mstart"
       orient="auto"
       refY="0"
       refX="0"
       id="marker3236-6-8-03"
       style="overflow:visible"
       inkscape:isstock="true">
      <path
         inkscape:connector-curvature="0"
         id="path3234-0-5-4"
         d="M 0,0 5,-5 -12.5,0 5,5 Z"
         style="fill:#3b4d61;fill-opacity:0.94117647;fill-rule:evenodd;stroke:#3b4d61;stroke-width:1.00000003pt;stroke-opacity:0.94117647"
         transform="matrix(0.4,0,0,0.4,4,0)" />
    </marker>
    <marker
       inkscape:isstock="true"
       style="overflow:visible"
       id="marker35911-4-3"
       refX="0"
       refY="0"
       orient="auto"
       inkscape:stockid="Arrow2Send">
      <path
         inkscape:connector-curvature="0"
         transform="matrix(-0.3,0,0,-0.3,0.69,0)"
         d="M 8.7185878,4.0337352 -2.2072895,0.01601326 8.7185884,-4.0017078 c -1.7454984,2.3720609 -1.7354408,5.6174519 -6e-7,8.035443 z"
         style="fill:#6b7b8c;fill-opacity:1;fill-rule:evenodd;stroke:#6b7b8c;stroke-width:0.625;stroke-linejoin:round;stroke-opacity:1"
         id="path35909-6-0" />
    </marker>
    <marker
       inkscape:isstock="true"
       style="overflow:visible"
       id="marker35911-4-3-3"
       refX="0"
       refY="0"
       orient="auto"
       inkscape:stockid="Arrow2Send">
      <path
         inkscape:connector-curvature="0"
         transform="matrix(-0.3,0,0,-0.3,0.69,0)"
         d="M 8.7185878,4.0337352 -2.2072895,0.01601326 8.7185884,-4.0017078 c -1.7454984,2.3720609 -1.7354408,5.6174519 -6e-7,8.035443 z"
         style="fill:#6b7b8c;fill-opacity:1;fill-rule:evenodd;stroke:#6b7b8c;stroke-width:0.625;stroke-linejoin:round;stroke-opacity:1"
         id="path35909-6-0-0" />
    </marker>
    <marker
       inkscape:isstock="true"
       style="overflow:visible"
       id="marker35911-4-3-3-4"
       refX="0"
       refY="0"
       orient="auto"
       inkscape:stockid="Arrow2Send">
      <path
         inkscape:connector-curvature="0"
         transform="matrix(-0.3,0,0,-0.3,0.69,0)"
         d="M 8.7185878,4.0337352 -2.2072895,0.01601326 8.7185884,-4.0017078 c -1.7454984,2.3720609 -1.7354408,5.6174519 -6e-7,8.035443 z"
         style="fill:#6b7b8c;fill-opacity:1;fill-rule:evenodd;stroke:#6b7b8c;stroke-width:0.625;stroke-linejoin:round;stroke-opacity:1"
         id="path35909-6-0-0-4" />
    </marker>
    <marker
       inkscape:isstock="true"
       style="overflow:visible"
       id="marker35911-4-3-3-4-3"
       refX="0"
       refY="0"
       orient="auto"
       inkscape:stockid="Arrow2Send">
      <path
         inkscape:connector-curvature="0"
         transform="matrix(-0.3,0,0,-0.3,0.69,0)"
         d="M 8.7185878,4.0337352 -2.2072895,0.01601326 8.7185884,-4.0017078 c -1.7454984,2.3720609 -1.7354408,5.6174519 -6e-7,8.035443 z"
         style="fill:#6b7b8c;fill-opacity:1;fill-rule:evenodd;stroke:#6b7b8c;stroke-width:0.625;stroke-linejoin:round;stroke-opacity:1"
         id="path35909-6-0-0-4-9" />
    </marker>
  </defs>
  <sodipodi:namedview
     id="base"
     pagecolor="#ffffff"
     bordercolor="#666666"
     borderopacity="1.0"
     inkscape:pageopacity="0.0"
     inkscape:pageshadow="2"
     inkscape:zoom="0.24748737"
     inkscape:cx="754.86807"
     inkscape:cy="-22.552492"
     inkscape:document-units="mm"
     inkscape:current-layer="layer1"
     showgrid="false"
     inkscape:window-width="1366"
     inkscape:window-height="739"
     inkscape:window-x="0"
     inkscape:window-y="0"
     inkscape:window-maximized="1"
     showguides="false"
     inkscape:guide-bbox="true"
     inkscape:snap-global="false">
    <sodipodi:guide
       position="202.59524,219.22619"
       orientation="1,0"
       id="guide4023"
       inkscape:locked="false" />
    <sodipodi:guide
       position="253.90605,143.79101"
       orientation="0,1"
       id="guide4025"
       inkscape:locked="false" />
  </sodipodi:namedview>
  <metadata
     id="metadata1302">
    <rdf:RDF>
      <cc:Work
         rdf:about="">
        <dc:format>image/svg+xml</dc:format>
        <dc:type
           rdf:resource="http://purl.org/dc/dcmitype/StillImage" />
        <dc:title />
      </cc:Work>
    </rdf:RDF>
  </metadata>
  <g
     inkscape:label="Layer 1"
     inkscape:groupmode="layer"
     id="layer1">
    <path
       style="fill:#ef9d10;fill-opacity:0.94117647;stroke-width:10.2979641"
       d="M 207.5,583.40372 C 130.18631,575.53933 60.636447,516.90658 41,441.48666 28.04183,390.6467 34.850114,346.3223 51.668448,301.71281 69.286096,255.33061 95.242912,212.1807 127.412,174.26098 c 37.31271,-45.4832 70.36595,-95.012957 91.57716,-150.153116 11.76093,5.292616 18.86521,37.724316 30.41772,51.951973 37.26512,68.839993 92.56739,125.212783 135.64041,190.082753 24.10876,37.43828 41.77554,80.51238 39.7341,125.78184 2.90121,98.6025 -84.34518,189.30204 -182.68062,191.44887 -11.5297,0.15615 -23.07408,0.43635 -34.60077,0.0304 z"
       id="path35733"
       inkscape:connector-curvature="0"
       transform="matrix(0.09710657,0,0,0.09710657,506.56493,217.32124)"
       sodipodi:nodetypes="ccccccccccc" />
    <text
       inkscape:export-ydpi="200"
       inkscape:export-xdpi="200"
       inkscape:export-filename="/home/adm1n/Github/azure/images/iac/abstractions.png"
       id="text875"
       y="199.89458"
       x="65.378235"
       style="font-style:normal;font-variant:normal;font-weight:normal;font-stretch:normal;font-size:9.52499962px;line-height:1.25;font-family:'JetBrains Mono';-inkscape-font-specification:'JetBrains Mono, Normal';font-variant-ligatures:normal;font-variant-position:normal;font-variant-caps:normal;font-variant-numeric:normal;font-variant-alternates:normal;font-feature-settings:normal;text-indent:0;text-align:center;text-decoration:none;text-decoration-line:none;text-decoration-style:solid;text-decoration-color:#000000;letter-spacing:0px;word-spacing:0px;text-transform:none;writing-mode:lr-tb;direction:ltr;text-orientation:mixed;dominant-baseline:auto;baseline-shift:baseline;text-anchor:middle;white-space:normal;shape-padding:0;opacity:1;vector-effect:none;fill:#3a4d61;fill-opacity:0.94117647;stroke:none;stroke-width:0.26458329;stroke-linecap:butt;stroke-linejoin:miter;stroke-miterlimit:4;stroke-dasharray:none;stroke-dashoffset:0;stroke-opacity:1"
       xml:space="preserve"
       transform="translate(282.88164,-20.560639)"><tspan
         style="font-style:normal;font-variant:normal;font-weight:500;font-stretch:normal;font-size:22.57777786px;font-family:'JetBrains Mono';-inkscape-font-specification:'JetBrains Mono Medium';font-variant-ligatures:normal;font-variant-caps:normal;font-variant-numeric:normal;font-feature-settings:normal;text-align:center;writing-mode:lr-tb;text-anchor:middle;fill:#3a4d61;fill-opacity:0.94117647;stroke-width:0.26458329"
         y="208.74408"
         x="65.378235"
         sodipodi:role="line"
         id="tspan873" /></text>
    <g
       id="g35668"
       transform="matrix(0.56364402,0,0,0.56364402,634.21031,80.637305)"
       style="stroke-width:1.77416945">
      <path
         transform="matrix(2.1064717,0,0,2.1064717,-11482.875,-3015.3199)"
         id="path30121-6"
         d="m 5331.1872,1434.2733 1.4274,2.5679 c 0.5024,-0.042 1.0062,-0.02 1.5138,0.016 l 1.4275,-2.5773 c 0,4e-4 0.01,0 0.01,0 v -0.01 c 0.8493,0.138 1.6668,0.3618 2.4534,0.6592 l -0.042,2.9454 c 0.4464,0.2129 0.8934,0.457 1.3078,0.7442 l 2.52,-1.5099 c 0.6594,0.5315 1.2545,1.1376 1.7969,1.797 l -0.01,0.016 c 0,0 0.01,0.01 0.01,0.01 l -1.5046,2.5001 c 0.1448,0.2091 0.2756,0.4269 0.3987,0.6499 0,0 0,0 0,0.01 0.1289,0.2146 0.2488,0.4344 0.3562,0.6606 l 2.9293,-0.053 c 0,0.01 0,0.01 0.01,0.01 h 0.01 c 0.2999,0.7994 0.5272,1.6166 0.6672,2.4589 l -2.5771,1.4221 c 0.042,0.5024 0.029,1.0129 0,1.5112 l 2.5625,1.4287 c -0.1354,0.8304 -0.351,1.6505 -0.6567,2.4562 h -0.016 c -6e-4,0 0,0.01 0,0.01 l -1.5139,-0.029 -1.4141,-0.019 c -0.1046,0.2221 -0.2072,0.4449 -0.3349,0.6659 -0.086,0.1487 -0.1835,0.2857 -0.279,0.4253 -0.045,0.07 -0.084,0.1438 -0.1315,0.2127 l 1.5112,2.5146 c 0,0.01 -0.01,0.01 -0.01,0.01 v 0.01 c -0.5423,0.6594 -1.1376,1.2653 -1.797,1.8076 l -2.5199,-1.5205 c -0.381,0.264 -0.79,0.4894 -1.2002,0.6979 -0.036,0.019 -0.071,0.039 -0.1075,0.057 l 0.01,0.275 0.052,2.6688 c -0.7939,0.2906 -1.6225,0.5122 -2.4642,0.6525 v 0 c 0,10e-5 0,-1e-4 0,0 l -1.4314,-2.5651 c -0.077,0.01 -0.1552,0 -0.2324,0.01 -0.1702,0.013 -0.3389,0.029 -0.5158,0.029 -0.2552,0 -0.5106,-0.019 -0.7549,-0.044 l -1.4248,2.573 c -0.8505,-0.138 -1.6801,-0.3611 -2.4667,-0.6591 l 0.039,-2.1612 0.016,-0.7735 c -0.4574,-0.2234 -0.8945,-0.4685 -1.3199,-0.755 l -2.5199,1.5206 c -0.6486,-0.5424 -1.2545,-1.1488 -1.7969,-1.8076 l 0.01,-0.016 c 0,0 -0.01,-0.01 -0.01,-0.01 l 1.5032,-2.5001 c -0.1409,-0.2116 -0.2727,-0.4322 -0.3987,-0.6579 0,-0.01 -0.01,-0.01 -0.01,-0.016 -0.125,-0.211 -0.2435,-0.4239 -0.3509,-0.6406 l -2.9187,0.053 c 0,0 0,-0.01 0,-0.01 h -0.019 c -0.3001,-0.7994 -0.5214,-1.6272 -0.6579,-2.4548 l 1.5085,-0.848 h 0.042 l 1.0433,-0.5781 c -0.019,-0.2546 -0.042,-0.4985 -0.042,-0.7537 v 0 c 0,-0.2551 0.02,-0.4997 0.042,-0.7549 l -2.5744,-1.4247 c 0.138,-0.8507 0.3625,-1.6802 0.6605,-2.4669 l 2.9346,0.053 c 0.2234,-0.4572 0.4681,-0.9033 0.7444,-1.3184 l -0.6632,-1.1059 -0.848,-1.4101 c 0,0 0,0 0,0 v 0 c 0.2571,-0.3124 0.5301,-0.611 0.8134,-0.8972 0.016,-0.016 0.029,-0.033 0.044,-0.048 5e-4,-5e-4 0,0 0,0 0.3004,-0.3004 0.6141,-0.5846 0.9384,-0.8507 l 1.4886,0.8825 0.01,0.016 1.0302,0.6141 c 0.4076,-0.2802 0.8425,-0.5449 1.2984,-0.7603 l -0.048,-2.9373 c 0.7899,-0.3052 1.6126,-0.5179 2.4549,-0.6579 z m 2.1185,4.951 c -1.7957,0.019 -3.5506,0.6414 -4.9734,1.7729 -0.1844,0.1477 -0.3634,0.301 -0.5343,0.4639 -0.026,0.026 -0.056,0.05 -0.083,0.076 -1.507,1.4755 -2.4442,3.5277 -2.4442,5.8068 0,0.493 0.052,0.9733 0.1354,1.4421 0.02,0.1123 0.04,0.225 0.065,0.3362 0.029,0.1387 0.068,0.275 0.1048,0.4107 0.044,0.1562 0.092,0.3107 0.1449,0.4639 0.037,0.1077 0.075,0.2146 0.1168,0.3204 0.073,0.1858 0.1549,0.3687 0.2419,0.5489 0.034,0.07 0.065,0.1403 0.101,0.2085 0.1285,0.248 0.2669,0.4911 0.4213,0.7257 0,0 0,0.01 0,0.01 3e-4,3e-4 -2e-4,0 0,0 0.336,0.5099 0.733,0.9855 1.1869,1.4155 0.4542,0.4302 0.9661,0.8147 1.5324,1.1417 2.1859,1.262 4.7118,1.3955 6.9033,0.5795 0.2264,-0.085 0.4487,-0.1816 0.6672,-0.2858 0.032,-0.016 0.062,-0.029 0.093,-0.045 0.1828,-0.09 0.3609,-0.1883 0.5369,-0.2926 0.064,-0.039 0.1292,-0.077 0.1929,-0.1168 0.1438,-0.091 0.2841,-0.1884 0.4226,-0.2884 0.085,-0.062 0.1701,-0.1237 0.2526,-0.1886 0.1104,-0.086 0.2166,-0.1786 0.3231,-0.2711 0.1019,-0.089 0.2029,-0.1796 0.3004,-0.2737 0.08,-0.077 0.158,-0.1581 0.2354,-0.2393 0.1081,-0.1136 0.2149,-0.2286 0.3162,-0.3482 0.071,-0.084 0.138,-0.1708 0.2059,-0.2578 0.091,-0.1173 0.1821,-0.2351 0.2672,-0.3575 0.073,-0.1045 0.1403,-0.214 0.2087,-0.323 0.075,-0.1199 0.1517,-0.2391 0.2205,-0.3629 0.058,-0.1042 0.1091,-0.2104 0.1623,-0.3162 0.07,-0.139 0.1403,-0.278 0.202,-0.4213 0.034,-0.079 0.062,-0.1589 0.093,-0.2381 0.068,-0.1727 0.1363,-0.3453 0.1929,-0.5237 0.016,-0.054 0.029,-0.1101 0.045,-0.1649 0.062,-0.2092 0.1192,-0.4196 0.1636,-0.6353 0.01,-0.019 0.01,-0.041 0.01,-0.062 0.048,-0.2412 0.086,-0.4863 0.1117,-0.7349 0,-0.032 0.01,-0.062 0.01,-0.093 0.023,-0.2406 0.035,-0.4836 0.036,-0.7297 1e-4,-0.042 0,-0.084 0,-0.1263 0,-0.2049 -0.01,-0.4079 -0.029,-0.6087 -0.01,-0.079 -0.019,-0.1569 -0.029,-0.2354 -0.02,-0.1585 -0.037,-0.3166 -0.064,-0.4719 -0.026,-0.1532 -0.064,-0.3046 -0.1,-0.4559 -0.019,-0.087 -0.037,-0.1769 -0.061,-0.263 -0.065,-0.2403 -0.14,-0.479 -0.2273,-0.7124 -0.086,-0.2308 -0.1838,-0.4565 -0.2909,-0.6792 -0.05,-0.1029 -0.1069,-0.2013 -0.1611,-0.3016 -0.061,-0.1146 -0.1217,-0.2299 -0.1886,-0.3416 -0.071,-0.1182 -0.1477,-0.2326 -0.2247,-0.3469 -0.057,-0.086 -0.1133,-0.1718 -0.1741,-0.2552 -0.093,-0.1283 -0.1931,-0.2526 -0.2938,-0.3748 -0.05,-0.061 -0.1006,-0.1234 -0.1529,-0.1834 -0.1104,-0.1264 -0.2251,-0.2488 -0.3429,-0.3682 -0.053,-0.054 -0.1075,-0.1068 -0.162,-0.1594 -0.1215,-0.1163 -0.2452,-0.2293 -0.3735,-0.3376 -0.058,-0.049 -0.1188,-0.095 -0.1783,-0.1422 -0.137,-0.1095 -0.2747,-0.2185 -0.4186,-0.3192 -0.026,-0.016 -0.05,-0.034 -0.076,-0.05 -0.9413,-0.6411 -2.0239,-1.0919 -3.1925,-1.2932 v -0.01 c -0.482,-0.083 -0.9664,-0.1221 -1.4487,-0.1169 z"
         style="fill:#3a4d61;fill-opacity:0.94117647;stroke-width:0.11838414"
         inkscape:connector-curvature="0" />
      <path
         transform="matrix(2.1064717,0,0,2.1064717,-11482.875,-3015.3199)"
         style="fill:#3a4d61;fill-opacity:0.94117647;stroke-width:0.14945029"
         inkscape:connector-curvature="0"
         d="m 5342.8738,1459.3517 v -1.597 l 0.088,-0.081 1.6339,-0.5507 0.4209,-1.1005 -0.8092,-1.6777 -0.089,-0.1881 0.506,-0.5102 0.6151,-0.6178 0.214,0.1076 1.597,0.8186 1.1004,-0.3084 0.6967,-1.7852 h 1.5842 l 0.081,0.081 0.5507,1.6305 1.1133,0.4192 1.8522,-0.8909 1.1279,1.1185 -0.1074,0.2104 -0.8187,1.5954 0.4562,1.0996 1.9329,0.6966 v 1.597 l -0.2286,0.067 -1.7044,0.5636 -0.4562,1.1004 0.8729,1.8522 -1.128,1.1408 -0.2147,-0.1074 -1.5969,-0.8187 -1.1005,0.4561 -0.6985,1.9338 h -1.597 l -0.067,-0.2285 -0.5635,-1.7045 -1.0876,-0.4562 -1.8659,0.8729 -1.1279,-1.128 0.1074,-0.2146 0.8187,-1.597 -0.3152,-1.1142 z m 6.7248,1.4768 c 1.2353,0 2.2413,-1.0069 2.2413,-2.2414 0,-1.2345 -1.0068,-2.2413 -2.2413,-2.2413 -1.2345,0 -2.2284,1.0068 -2.2284,2.2413 0,1.2345 0.9939,2.2414 2.2284,2.2414 z"
         id="path30123-7" />
      <path
         transform="matrix(2.1064717,0,0,2.1064717,-11482.875,-3015.3199)"
         style="fill:#3a4d61;fill-opacity:0.94117647;stroke-width:0.0739648"
         d="m 5333.3958,1440.6398 a 6.7093269,6.7093269 0 0 0 -6.7093,6.7092 6.7093269,6.7093269 0 0 0 6.7093,6.7094 6.7093269,6.7093269 0 0 0 6.7093,-6.7094 6.7093269,6.7093269 0 0 0 -6.7093,-6.7092 z m 0.1054,2.6959 c 0.1843,-0.01 0.3512,0.1055 0.4127,0.2811 l 2.6609,6.4107 v 10e-5 c 0.026,0.07 0.036,0.1318 0.044,0.2108 v 0.01 c -0.01,0.2634 -0.2284,0.4739 -0.4918,0.4653 -0.1317,0 -0.2284,-0.053 -0.369,-0.1669 l -3.4511,-2.7925 -1.1593,2.898 h -1.0013 l 2.9333,-7.0342 c 0.061,-0.1756 0.2371,-0.2901 0.4216,-0.2811 z m 0,1.4315 -0.887,2.2131 2.6169,2.0637 z"
         id="path16535"
         inkscape:connector-curvature="0" />
    </g>
    <path
       sodipodi:nodetypes="ccccccccccc"
       transform="matrix(0.08604253,0,0,0.08737974,509.10511,220.65093)"
       inkscape:connector-curvature="0"
       id="path35736"
       d="M 207.5,583.40372 C 130.18631,575.53933 60.636447,516.90658 41,441.48666 28.04183,390.6467 34.850114,346.3223 51.668448,301.71281 69.286096,255.33061 95.242912,212.1807 127.412,174.26098 c 37.31271,-45.4832 70.36595,-95.012957 91.57716,-150.153116 11.76093,5.292616 18.86521,37.724316 30.41772,51.951973 37.26512,68.839993 92.56739,125.212783 135.64041,190.082753 24.10876,37.43828 41.77554,80.51238 39.7341,125.78184 2.90121,98.6025 -84.34518,189.30204 -182.68062,191.44887 -11.5297,0.15615 -23.07408,0.43635 -34.60077,0.0304 z"
       style="fill:#ffffff;fill-opacity:1;stroke-width:11.53288651" />
    <ellipse
       style="opacity:1;fill:#6b7b8c;fill-opacity:1;stroke:none;stroke-width:12.15138531;stroke-linecap:round;stroke-linejoin:bevel;stroke-miterlimit:4;stroke-dasharray:none;stroke-dashoffset:0;stroke-opacity:1;paint-order:normal"
       id="path35702"
       cx="-991.46472"
       cy="772.50183"
       transform="matrix(0.16459028,0,0,0.16459028,691.05743,43.605025)"
       rx="198.49498"
       ry="59.093925" />
    <path
       style="fill:#3a4d61;fill-opacity:1;stroke-width:2.49079442"
       d="m 87.059537,195.9083 c -2.992255,-0.52067 -6.817255,-1.75017 -8.5,-2.73223 L 75.5,191.3905 75,160.44525 C 74.575268,134.1584 74.250542,129.04527 72.842877,126.47927 71.93146,124.81786 56.757266,105.46786 39.122447,83.479265 8.5634258,45.375673 7.0577513,43.302582 7.0295693,39.292107 7.0047917,35.766104 7.6162942,34.436354 10.803102,31.086323 17.873899,23.653372 35.915479,16.882194 58.060179,13.350291 66.979144,11.927787 75.229307,11.522896 95.5,11.512865 c 27.99651,-0.01385 37.80156,1.03592 56.55727,6.055278 21.69556,5.806113 34.36332,15.935031 30.9983,24.785693 -0.55245,1.453057 -15.59721,20.837775 -33.4328,43.077153 -28.9537,36.102651 -32.52704,40.951351 -33.34935,45.252121 -0.50655,2.64929 -0.84455,16.74189 -0.75111,31.31689 0.0947,14.7665 -0.2426,27.3165 -0.76173,28.34406 -2.29646,4.54559 -16.805905,7.46007 -27.701043,5.56424 z M 126.69878,55.457918 c 20.63275,-2.69611 36.31069,-7.645737 41.4096,-13.073281 6.53037,-6.951264 -7.56367,-14.59229 -35.76866,-19.391833 C 113.07747,19.715016 76.3589,19.989904 55.147856,23.570689 35.713432,26.851551 20,33.704098 20,38.89849 c 0,6.277386 21.308303,14.209571 45.5,16.937735 13.640568,1.538285 48.16474,1.32487 61.19878,-0.378307 z"
       id="path35681"
       inkscape:connector-curvature="0"
       transform="matrix(0.40147833,0,0,0.40147833,489.92474,155.36168)"
       sodipodi:nodetypes="cccscsssssscsccscsssssss" />
    <path
       transform="matrix(0.55583016,0,0,0.55583016,-8965.2651,-657.11793)"
       d="m 17100.352,1513.671 v 26.1421 l -10.737,8.8035 -16.639,-6.0657 v 6.0119 l -9.421,-12.3193 27.457,2.147 v -23.5383 z m -9.152,1.3153 -15.408,-9.3671 v 6.1463 l -14.143,4.1601 -4.241,5.4484 v 12.3733 l 6.066,2.684 v -15.8623 z"
       data-name="Path 1"
       id="a91f0ca4-8fb7-4019-9c09-0a52e2c05754-3-1"
       inkscape:connector-curvature="0"
       style="fill:#ef9d10;fill-opacity:0.94117647;stroke-width:0.4760147" />
    <g
       id="g35629"
       transform="matrix(0.56277124,0.08170106,-0.08180381,0.56206432,483.5053,221.14693)"
       style="stroke-width:1.75954628">
      <path
         style="opacity:1;fill:#ffffff;fill-opacity:1;stroke:#6b7b8c;stroke-width:2.45928788;stroke-miterlimit:4;stroke-dasharray:none;stroke-opacity:0.94117647"
         d="m 704.96997,-295143.54 c -2.05814,0 -3.69984,1.66 -3.71494,3.72 l -0.59045,80.57 c -0.0151,2.06 1.6568,3.72 3.71494,3.72 h 61.68336 c 2.05814,0 3.69733,-1.66 3.71494,-3.72 l 0.59045,-69.09 -15.19952,-15.2 z"
         id="path3497"
         inkscape:connector-curvature="0"
         sodipodi:nodetypes="ssssssccs"
         transform="matrix(0.88009043,-0.13180748,0.13180748,0.88009043,38309.494,259679.59)" />
      <path
         style="opacity:1;fill:#6b7b8c;fill-opacity:0.94117647;stroke:none;stroke-width:2.59582734;stroke-miterlimit:4;stroke-dasharray:none;stroke-opacity:1"
         d="m 771.11047,-295128.07 -16.05013,-16.05 v 12.13 c 0,2.17 1.74885,3.92 3.92135,3.92 z"
         id="path3499"
         inkscape:connector-curvature="0"
         sodipodi:nodetypes="ccssc"
         transform="matrix(0.88009043,-0.13180748,0.13180748,0.88009043,38309.494,259679.59)" />
      <rect
         style="opacity:1;fill:#6b7b8c;fill-opacity:0.94117647;stroke:none;stroke-width:1.49987507;stroke-miterlimit:4;stroke-dasharray:none;stroke-opacity:1"
         id="rect3501"
         width="58.050591"
         height="10.244223"
         x="697.2157"
         y="-295127.88"
         rx="0"
         ry="0"
         transform="matrix(0.88009043,-0.13180748,0.13180748,0.88009043,38309.494,259679.59)" />
      <text
         xml:space="preserve"
         style="font-style:normal;font-weight:normal;font-size:2.91748762px;line-height:0%;font-family:sans-serif;letter-spacing:0px;word-spacing:0px;opacity:1;fill:#ffffff;fill-opacity:1;fill-rule:evenodd;stroke:none;stroke-width:0.48071146px;stroke-linecap:butt;stroke-linejoin:miter;stroke-opacity:1"
         x="727.49701"
         y="-295120.06"
         id="text3505"
         inkscape:export-xdpi="150"
         inkscape:export-ydpi="150"
         transform="matrix(0.88009043,-0.13180748,0.13180748,0.88009043,38308.482,259680.64)"><tspan
           id="tspan3503"
           style="font-style:normal;font-variant:normal;font-weight:normal;font-stretch:normal;font-size:9.72502518px;line-height:2.25;font-family:'JetBrains Mono';-inkscape-font-specification:'JetBrains Mono, Normal';font-variant-ligatures:normal;font-variant-caps:normal;font-variant-numeric:normal;font-feature-settings:normal;text-align:center;letter-spacing:-0.25135416px;writing-mode:lr-tb;text-anchor:middle;fill:#ffffff;stroke-width:0.48071146px"
           sodipodi:role="line"
           x="727.37134"
           y="-295120.06">Dockerfile</tspan></text>
    </g>
    <g
       id="g37406"
       transform="matrix(1.5306696,0,0,1.5306696,-172.87743,-39.474313)"
       style="stroke-width:0.65330887">
      <g
         style="stroke-width:1.05021167"
         transform="matrix(0.62207352,0,0,0.62207352,357.17187,-94.983484)"
         id="g35755">
        <path
           transform="matrix(0,0.78716476,-0.78716476,0,-231961.07,-2348.9295)"
           style="fill:#ef9d10;fill-opacity:0.94117647;stroke-width:1.33416998"
           d="m 3416.0344,-294375.41 c -3.8401,0 -5.5034,0.23 -8.74,1.29 -5.4848,1.78 -9.8501,4.88 -13.2394,9.42 -1.6937,2.27 -3.526,5.78 -4.3783,8.39 -3.3076,10.12 0.2121,22.16 8.4126,28.79 4.9191,3.98 10.3184,6.16 15.8979,6.41 4.8003,0.22 8.6156,-0.47 12.7949,-2.31 3.2984,-1.46 5.6027,-3.05 8.1945,-5.66 6.1311,-6.18 9.0753,-15.27 7.6049,-23.48 -1.861,-10.39 -8.2063,-17.91 -18.1025,-21.45 -3.2178,-1.15 -4.6435,-1.38 -8.4446,-1.4 z m -0.3894,0.63 c 5.1644,0 10.1714,1.51 14.8903,4.65 5.9048,3.93 9.5035,9.29 11.1276,16.58 0.5106,2.29 0.5549,8.08 0.079,10.24 -0.802,3.65 -2.5687,7.66 -4.68,10.63 -4.0849,5.74 -10.4512,9.56 -17.7714,10.67 -1.4902,0.22 -5.1963,0.29 -6.6677,0.12 -2.5287,-0.29 -6.3907,-1.53 -8.9586,-2.88 -6.6356,-3.49 -11.0446,-8.64 -13.1981,-15.42 -2.5498,-8.02 -1.4132,-15.75 3.362,-22.87 3.4837,-5.2 7.6751,-8.38 13.5914,-10.32 2.7726,-0.91 5.5209,-1.37 8.2259,-1.4 z m 0.7355,1.16 c -1.6845,0 -3.4627,0.1 -4.8075,0.32 -4.3764,0.75 -9.0218,2.82 -11.9162,5.29 -0.5161,0.44 -1.1181,0.95 -1.3375,1.13 -0.6785,0.56 -2.9282,3.32 -3.7438,4.59 -2.0346,3.16 -3.5321,6.89 -4.0572,10.08 -0.3718,2.27 -0.2457,6.49 0.2593,8.69 0.5763,2.52 1.0171,3.7 1.346,3.6 0.1554,-0.1 2.1252,-0.59 4.3771,-1.21 2.2519,-0.62 4.4721,-1.23 4.9337,-1.37 0.4617,-0.14 0.8692,-0.22 0.9052,-0.18 0.036,0 -0.2646,0.29 -0.6687,0.56 -3.5299,2.4 -8.0318,5.61 -8.0968,5.78 -0.1879,0.49 2.1188,3.77 4.0961,5.83 3.805,3.97 9.7137,6.9 15.1756,7.54 6.1606,0.71 13.0557,-1.17 18.1276,-4.96 4.7156,-3.51 8.2849,-9.24 9.5406,-15.3 0.6465,-3.13 0.6724,-7.05 0.067,-10.13 -0.1728,-0.87 -0.2349,-0.98 -0.5565,-0.9 -0.1993,0 -1.8976,0.35 -3.7742,0.68 -4.2515,0.76 -7.0671,1.27 -7.4885,1.36 -0.5332,0.12 -0.066,-0.2 0.6251,-0.42 2.0653,-0.66 10.1038,-3.75 10.1562,-3.91 0.098,-0.29 -0.7102,-2.23 -0.9308,-2.23 -0.1092,0 -2.5276,1.04 -5.3744,2.32 -7.2892,3.27 -7.1396,3.21 -6.6265,2.8 0.2346,-0.18 2.7823,-1.96 5.6617,-3.94 l 5.2354,-3.61 -0.4429,-0.71 c -1.6041,-2.55 -4.1635,-5.22 -6.7893,-7.07 -2.8743,-2.04 -7.1152,-3.82 -10.3832,-4.38 -0.9488,-0.16 -2.2025,-0.24 -3.5127,-0.25 z"
           id="path6914-1"
           inkscape:connector-curvature="0"
           sodipodi:nodetypes="ccccccccccccccccccccccccccccccccsccccccccccccccsccccccccc" />
        <path
           style="fill:#ffffff;stroke-width:1.74307418"
           d="m 742.79883,1719.5449 v 20.8106 h -20.78321 -0.52734 -21.31055 v 21.1523 h -20.96875 v 21.127 h -17.16992 l -0.29101,3.0859 c -0.36925,4.0617 -0.39563,8.1219 0,12.1309 -8.70372,2.532 -20.41425,3.3248 -29.77735,-5.4317 0,0 -5.1951,8.6246 -12.58008,9.9961 h 42.96485 c 0.79125,4.5629 2.13713,9.0202 4.0625,13.293 l 1.81836,3.7441 0.21094,0.3438 c 12.6072,21.39 34.70974,30.3828 58.8164,30.3828 40.14261,0 74.21876,-15.4027 94.21094,-47.7383 h 56.39062 c 0,0 -14.19031,-1.3979 -14.58593,-9.9961 0,0 -21.1524,14.5338 -37.63672,2.6387 1.58249,-3.1123 3.06014,-6.3311 4.43164,-9.707 11.81596,0.633 23.89577,-2.8756 29.67187,-14.1641 l 1.44922,-2.8731 -2.79492,-1.6367 c -6.8311,-3.9562 -15.93132,-4.4831 -23.68555,-2.2148 -0.94949,-8.229 -6.3565,-15.4829 -12.81836,-20.6524 l -2.53125,-2.0293 -2.16211,2.5039 c -4.29909,4.9849 -5.56657,13.2677 -4.98632,19.6504 0.422,4.6684 1.9269,9.4423 4.77539,13.1875 -2.21549,1.3188 -4.69467,2.3729 -6.91016,3.1114 -4.53648,1.5297 -9.41559,2.375 -14.18945,2.375 h -9.91797 v -21.127 h -21.31055 v -20.5723 -0.58 -20.8106 z m 3.13867,3.377 h 1.66211 v 14.6894 h -1.66211 z m 3.19141,0 h 1.66211 v 14.6894 h -1.66211 z m 3.58789,0 h 1.66015 v 14.6894 h -1.66015 z m 3.58593,0 h 1.66211 v 14.6894 h -1.66211 z m 3.56055,0 h 1.66211 v 14.6894 h -1.66211 z m -56.57422,20.7832 h 1.66211 v 14.6914 h -1.66211 z m 3.19141,0 h 1.66211 v 14.6914 h -1.66211 z m 3.58789,0 h 1.66016 v 14.6914 h -1.66016 z m 3.58594,0 h 1.66211 v 14.6914 h -1.66211 z m 3.58789,0 h 1.66015 v 14.6914 h -1.66015 z m 7.35742,0 h 1.66211 v 14.6914 h -1.66211 z m 3.19141,0 h 1.6621 v 14.6914 h -1.6621 z m 3.58789,0 h 1.66211 v 14.6914 h -1.66211 z m 3.58593,0 h 1.66211 v 14.6914 h -1.66211 z m 3.58789,0 h 1.66211 v 14.6914 h -1.66211 z m 7.38477,0 h 1.66211 v 14.6914 h -1.66211 z m 3.19141,0 h 1.66211 v 14.6914 h -1.66211 z m 3.58789,0 h 1.66015 v 14.6914 h -1.66015 z m 3.58593,0 h 1.66211 v 14.6914 h -1.66211 z m 3.56055,0 h 1.66211 v 14.6914 h -1.66211 z m -77.7793,21.4961 h 1.66211 v 14.6894 h -1.66211 z m 3.19141,0 h 1.66211 v 14.6894 h -1.66211 z m 3.58594,0 h 1.66211 v 14.6894 h -1.66211 z m 3.58789,0 h 1.66211 v 14.6894 h -1.66211 z m 3.58789,0 h 1.66016 v 14.6894 h -1.66016 z m 7.25195,0 h 1.66211 v 14.6894 h -1.66211 z m 3.19141,0 h 1.66211 v 14.6894 h -1.66211 z m 3.58789,0 h 1.66016 v 14.6894 h -1.66016 z m 3.58594,0 h 1.66211 v 14.6894 h -1.66211 z m 3.58789,0 h 1.66015 v 14.6894 h -1.66015 z m 7.35742,0 h 1.66211 v 14.6894 h -1.66211 z m 3.19141,0 h 1.6621 v 14.6894 h -1.6621 z m 3.58789,0 h 1.66211 v 14.6894 h -1.66211 z m 3.58593,0 h 1.66211 v 14.6894 h -1.66211 z m 3.58789,0 h 1.66211 v 14.6894 h -1.66211 z m 7.38477,0 h 1.66211 v 14.6894 h -1.66211 z m 3.19141,0 h 1.66211 v 14.6894 h -1.66211 z m 3.58789,0 h 1.66015 v 14.6894 h -1.66015 z m 3.58593,0 h 1.66211 v 14.6894 h -1.66211 z m 3.56055,0 h 1.66211 v 14.6894 h -1.66211 z m 7.38477,0 h 1.66211 v 14.6894 h -1.66211 z m 3.1914,0 h 1.66211 v 14.6894 h -1.66211 z m 3.58789,0 h 1.66211 v 14.6894 h -1.66211 z m 3.58594,0 h 1.66211 v 14.6894 h -1.66211 z m 3.58789,0 h 1.66211 v 14.6894 h -1.66211 z m -65.41015,41.3554 c 4.48373,0 8.09765,3.6384 8.09765,8.0957 0,4.4574 -3.64029,8.0977 -8.09765,8.0977 -4.45736,0 -8.09766,-3.6139 -8.09766,-8.0977 0,-4.4837 3.6403,-8.0957 8.09766,-8.0957 z m -0.16797,3.0372 c -2.86033,0 -5.19727,2.3369 -5.19727,5.1972 0,2.8603 2.33694,5.1953 5.19727,5.1953 2.86032,0 5.19531,-2.3111 5.19531,-5.1953 0,-0.3099 -0.0226,-0.5968 -0.0703,-0.8828 h -5.125 l 2.43164,-3.7187 c -0.71508,-0.3814 -1.54971,-0.5957 -2.43164,-0.5957 z m -15.12891,13.9472 c 0,0 7.0936,13.1362 30.96289,24.8731 0,0.026 -36.476,4.2972 -58.41992,-23.7129 l 0.89648,-0.078 c 14.09117,1.4753 19.97412,-0.1186 26.56055,-1.082 z"
           transform="matrix(0.15941289,0,0,0.15941289,-379.36753,53.378397)"
           id="path8219-8"
           inkscape:connector-curvature="0" />
      </g>
    </g>
    <rect
       style="opacity:1;vector-effect:none;fill:#6b7b8c;fill-opacity:1;fill-rule:evenodd;stroke:none;stroke-width:3.77952766;stroke-linecap:round;stroke-linejoin:bevel;stroke-miterlimit:4;stroke-dasharray:none;stroke-dashoffset:0;stroke-opacity:1;paint-order:normal"
       id="rect35757"
       width="161.07143"
       height="15.714286"
       x="699.28571"
       y="642.87683"
       transform="matrix(0.26458333,0,0,0.26458333,321.89128,1.1185253)" />
    <text
       inkscape:export-ydpi="200"
       inkscape:export-xdpi="200"
       inkscape:export-filename="/home/adm1n/Github/azure/images/iac/abstractions.png"
       id="text8350-0"
       y="199.89458"
       x="34.764439"
       style="font-style:normal;font-variant:normal;font-weight:normal;font-stretch:normal;font-size:9.52499962px;line-height:1.25;font-family:'JetBrains Mono';-inkscape-font-specification:'JetBrains Mono, Normal';font-variant-ligatures:normal;font-variant-position:normal;font-variant-caps:normal;font-variant-numeric:normal;font-variant-alternates:normal;font-feature-settings:normal;text-indent:0;text-align:start;text-decoration:none;text-decoration-line:none;text-decoration-style:solid;text-decoration-color:#000000;letter-spacing:0px;word-spacing:0px;text-transform:none;writing-mode:lr-tb;direction:ltr;text-orientation:mixed;dominant-baseline:auto;baseline-shift:baseline;text-anchor:start;white-space:normal;shape-padding:0;opacity:1;vector-effect:none;fill:#3a4d61;fill-opacity:0.94117647;stroke:none;stroke-width:0.29731607;stroke-linecap:butt;stroke-linejoin:miter;stroke-miterlimit:4;stroke-dasharray:none;stroke-dashoffset:0;stroke-opacity:1"
       xml:space="preserve"
       transform="matrix(0.88990583,0,0,0.88990583,469.93193,-110.73367)"><tspan
         id="tspan8348-3"
         style="font-style:normal;font-variant:normal;font-weight:bold;font-stretch:normal;font-size:14.11111069px;font-family:'JetBrains Mono';-inkscape-font-specification:'JetBrains Mono Bold';font-variant-ligatures:normal;font-variant-caps:normal;font-variant-numeric:normal;font-feature-settings:normal;text-align:start;writing-mode:lr-tb;text-anchor:start;fill:#3a4d61;fill-opacity:0.94117647;stroke-width:0.29731607"
         y="199.89458"
         x="34.764439"
         sodipodi:role="line">1.</tspan></text>
    <path
       style="fill:none;stroke:#394d61;stroke-width:7.55905533;stroke-linecap:butt;stroke-linejoin:miter;stroke-miterlimit:4;stroke-dasharray:none;stroke-opacity:0.94117647;marker-end:url(#Arrow2Send)"
       d="m 159.6041,361.87482 c 84.06317,2.74439 69.51644,52.33705 71.83287,104.93331"
       id="path35789"
       inkscape:connector-curvature="0"
       transform="matrix(0.26458333,0,0,0.26458333,463.98707,3.5239453)"
       sodipodi:nodetypes="cc" />
    <path
       sodipodi:nodetypes="cc"
       transform="matrix(-0.26458333,0,0,0.26458333,591.76944,3.5239453)"
       inkscape:connector-curvature="0"
       id="path35907"
       d="m 159.6041,361.87482 c 84.06317,2.74439 69.51644,52.33705 71.83287,104.93331"
       style="fill:none;stroke:#ef9d10;stroke-width:7.55905533;stroke-linecap:butt;stroke-linejoin:miter;stroke-miterlimit:4;stroke-dasharray:none;stroke-opacity:0.94117647;marker-end:url(#marker35911)" />
    <g
       id="g37442"
       transform="matrix(1.1517467,-0.11032722,0.11032722,1.1517467,-105.81,11.603334)"
       style="stroke-width:0.86429018">
      <path
         inkscape:export-ydpi="200"
         inkscape:export-xdpi="200"
         sodipodi:nodetypes="cccssccsscccccccc"
         inkscape:connector-curvature="0"
         id="path6153"
         d="m 1093.3632,-293901.87 c -1.8231,0.19 -3.1454,1.82 -2.9533,3.64 0.082,0.79 0.4405,1.51 1.0094,2.06 l -0.7339,0.1 c -4.2861,0.45 -3.7634,2.18 -3.5331,4.37 l 0.083,0.79 14.3983,-1.51 -0.084,-0.8 c -0.2303,-2.19 -0.1211,-3.98 -4.3646,-3.53 l -0.7376,0.1 c 0.445,-0.65 0.6447,-1.44 0.5638,-2.22 -0.192,-1.82 -1.8257,-3.15 -3.649,-2.95 z m 0.1571,1.49 c 0.9993,-0.11 1.8947,0.62 1.9996,1.62 0.1052,0.99 -0.6195,1.89 -1.6186,2 -0.9989,0.1 -1.894,-0.62 -1.9992,-1.62 -0.1052,-1 0.6193,-1.9 1.6182,-2 z"
         style="opacity:1;fill:#3a4d61;fill-opacity:1;stroke:none;stroke-width:0.12142795;stroke-linecap:butt;stroke-linejoin:bevel;stroke-miterlimit:4;stroke-dasharray:none;stroke-dashoffset:0;stroke-opacity:1;paint-order:normal"
         transform="matrix(0.86079951,0.23065054,-0.23065054,0.86079951,-68480.995,252851.28)" />
      <path
         inkscape:export-ydpi="200"
         inkscape:export-xdpi="200"
         inkscape:connector-curvature="0"
         id="rect6145"
         d="m 1085.1378,-293894.03 17.9029,-1.88 c 2.6251,-0.28 4.9609,1.61 5.2373,4.24 l 2.7734,26.34 c 0.2764,2.62 -1.6144,4.96 -4.2395,5.23 l -17.9029,1.89 c -2.6251,0.27 -4.9609,-1.62 -5.2373,-4.24 l -2.7734,-26.34 c -0.2764,-2.63 1.6144,-4.96 4.2395,-5.24 z"
         style="opacity:1;fill:#3a4d61;fill-opacity:1;stroke:none;stroke-width:0.14570595;stroke-linecap:butt;stroke-linejoin:bevel;stroke-miterlimit:4;stroke-dasharray:none;stroke-dashoffset:0;stroke-opacity:1;paint-order:normal"
         transform="matrix(0.86079951,0.23065054,-0.23065054,0.86079951,-68480.995,252851.28)" />
      <path
         transform="matrix(0.87001966,0.19297991,-0.19297991,0.87001966,-4206.5811,-2043.4039)"
         style="opacity:1;fill:#ffffff;fill-opacity:1;stroke:none;stroke-width:0.34041479;stroke-linecap:butt;stroke-linejoin:miter;stroke-miterlimit:4;stroke-dasharray:none;stroke-dashoffset:0;stroke-opacity:1;paint-order:normal"
         d="m 5395.7958,1289.2899 v 30.1827 h 21.486 v -25.9519 l -4.472,-4.2308 z"
         id="rect5785"
         inkscape:connector-curvature="0" />
      <path
         transform="matrix(0.87001966,0.19297991,-0.19297991,0.87001966,-4206.5811,-2043.4039)"
         sodipodi:nodetypes="cccc"
         inkscape:connector-curvature="0"
         id="path5798"
         d="m 5417.2825,1293.5102 -4.5596,-0.094 0.085,-4.1359 z"
         style="opacity:0.61499999;fill:#3a4d61;fill-opacity:1;stroke:none;stroke-width:0.25700831;stroke-linecap:butt;stroke-linejoin:bevel;stroke-miterlimit:4;stroke-dasharray:none;stroke-opacity:1" />
      <path
         inkscape:connector-curvature="0"
         id="rect6191"
         transform="matrix(0.23016623,0.05117848,-0.05117848,0.23016623,-4205.8467,-2045.7708)"
         d="m 20403.906,4920.3711 v 16.9922 h 16.992 v -16.9922 z m 2.44,2.4414 h 12.109 v 12.1094 h -12.109 z"
         style="opacity:1;fill:#3a4d61;fill-opacity:1;stroke:none;stroke-width:0.9713701;stroke-linecap:butt;stroke-linejoin:bevel;stroke-miterlimit:4;stroke-dasharray:none;stroke-dashoffset:0;stroke-opacity:1;paint-order:normal" />
      <g
         transform="matrix(0.86991961,0.19343045,-0.19343045,0.86991961,-4206.2133,-2045.4722)"
         id="g6202"
         style="fill:#3a4d61;fill-opacity:1;stroke-width:0.96984279">
        <rect
           style="opacity:1;fill:#3a4d61;fill-opacity:1;stroke:none;stroke-width:0.25700831;stroke-linecap:butt;stroke-linejoin:bevel;stroke-miterlimit:4;stroke-dasharray:none;stroke-dashoffset:0;stroke-opacity:1;paint-order:normal"
           id="rect6196"
           width="8.4043741"
           height="0.91351891"
           x="5405.8022"
           y="-1305.2327"
           rx="0.44298488"
           ry="0.44298488"
           transform="scale(1,-1)" />
        <rect
           ry="0.44298488"
           rx="0.44298488"
           y="-1303.0402"
           x="5405.8022"
           height="0.91351891"
           width="10.59682"
           id="rect6198"
           style="opacity:1;fill:#3a4d61;fill-opacity:1;stroke:none;stroke-width:0.28859064;stroke-linecap:butt;stroke-linejoin:bevel;stroke-miterlimit:4;stroke-dasharray:none;stroke-dashoffset:0;stroke-opacity:1;paint-order:normal"
           transform="scale(1,-1)" />
      </g>
      <path
         style="opacity:1;fill:#3a4d61;fill-opacity:1;stroke:none;stroke-width:0.9713701;stroke-linecap:butt;stroke-linejoin:bevel;stroke-miterlimit:4;stroke-dasharray:none;stroke-dashoffset:0;stroke-opacity:1;paint-order:normal"
         d="m 20403.906,4920.3711 v 16.9922 h 16.992 v -16.9922 z m 2.44,2.4414 h 12.109 v 12.1094 h -12.109 z"
         transform="matrix(0.23016623,0.05117848,-0.05117848,0.23016623,-4206.9556,-2040.7832)"
         id="path6210"
         inkscape:connector-curvature="0" />
      <g
         id="g6216"
         transform="matrix(0.86991961,0.19343045,-0.19343045,0.86991961,-4207.3223,-2040.4845)"
         style="fill:#3a4d61;fill-opacity:1;stroke-width:0.96984279">
        <rect
           transform="scale(1,-1)"
           ry="0.44298488"
           rx="0.44298488"
           y="-1305.2327"
           x="5405.8022"
           height="0.91351891"
           width="8.4043741"
           id="rect6212"
           style="opacity:1;fill:#3a4d61;fill-opacity:1;stroke:none;stroke-width:0.25700831;stroke-linecap:butt;stroke-linejoin:bevel;stroke-miterlimit:4;stroke-dasharray:none;stroke-dashoffset:0;stroke-opacity:1;paint-order:normal" />
        <rect
           transform="scale(1,-1)"
           style="opacity:1;fill:#3a4d61;fill-opacity:1;stroke:none;stroke-width:0.28859064;stroke-linecap:butt;stroke-linejoin:bevel;stroke-miterlimit:4;stroke-dasharray:none;stroke-dashoffset:0;stroke-opacity:1;paint-order:normal"
           id="rect6214"
           width="10.59682"
           height="0.91351891"
           x="5405.8022"
           y="-1303.0402"
           rx="0.44298488"
           ry="0.44298488" />
      </g>
      <path
         inkscape:connector-curvature="0"
         id="path6220"
         transform="matrix(0.23016623,0.05117848,-0.05117848,0.23016623,-4208.0654,-2035.7919)"
         d="m 20403.906,4920.3711 v 16.9922 h 16.992 v -16.9922 z m 2.44,2.4414 h 12.109 v 12.1094 h -12.109 z"
         style="opacity:1;fill:#3a4d61;fill-opacity:1;stroke:none;stroke-width:0.9713701;stroke-linecap:butt;stroke-linejoin:bevel;stroke-miterlimit:4;stroke-dasharray:none;stroke-dashoffset:0;stroke-opacity:1;paint-order:normal" />
      <g
         transform="matrix(0.86991961,0.19343045,-0.19343045,0.86991961,-4208.432,-2035.4932)"
         id="g6226"
         style="fill:#3a4d61;fill-opacity:1;stroke-width:0.96984279">
        <rect
           style="opacity:1;fill:#3a4d61;fill-opacity:1;stroke:none;stroke-width:0.25700831;stroke-linecap:butt;stroke-linejoin:bevel;stroke-miterlimit:4;stroke-dasharray:none;stroke-dashoffset:0;stroke-opacity:1;paint-order:normal"
           id="rect6222"
           width="8.4043741"
           height="0.91351891"
           x="5405.8022"
           y="-1305.2327"
           rx="0.44298488"
           ry="0.44298488"
           transform="scale(1,-1)" />
        <rect
           ry="0.44298488"
           rx="0.44298488"
           y="-1303.0402"
           x="5405.8022"
           height="0.91351891"
           width="10.59682"
           id="rect6224"
           style="opacity:1;fill:#3a4d61;fill-opacity:1;stroke:none;stroke-width:0.28859064;stroke-linecap:butt;stroke-linejoin:bevel;stroke-miterlimit:4;stroke-dasharray:none;stroke-dashoffset:0;stroke-opacity:1;paint-order:normal"
           transform="scale(1,-1)" />
      </g>
      <path
         transform="matrix(0.58058793,0.1154383,-0.1154383,0.58058793,-2682.7064,-1329.0163)"
         style="fill:#3a4d61;fill-opacity:1;stroke-width:0.12822066"
         d="m 5333.3958,1440.6398 a 6.7093269,6.7093269 0 0 0 -6.7093,6.7092 6.7093269,6.7093269 0 0 0 6.7093,6.7094 6.7093269,6.7093269 0 0 0 6.7093,-6.7094 6.7093269,6.7093269 0 0 0 -6.7093,-6.7092 z m 0.1054,2.6959 c 0.1843,-0.01 0.3512,0.1055 0.4127,0.2811 l 2.6609,6.4107 v 10e-5 c 0.026,0.07 0.036,0.1318 0.044,0.2108 v 0.01 c -0.01,0.2634 -0.2284,0.4739 -0.4918,0.4653 -0.1317,0 -0.2284,-0.053 -0.369,-0.1669 l -3.4511,-2.7925 -1.1593,2.898 h -1.0013 l 2.9333,-7.0342 c 0.061,-0.1756 0.2371,-0.2901 0.4216,-0.2811 z m 0,1.4315 -0.887,2.2131 2.6169,2.0637 z"
         id="path16535-1"
         inkscape:connector-curvature="0" />
    </g>
    <path
       sodipodi:nodetypes="cc"
       transform="matrix(0.26458333,0,0,0.26458333,494.64367,-39.140125)"
       inkscape:connector-curvature="0"
       id="path35907-6"
       d="m 159.6041,361.87482 c 84.06317,2.74439 69.51644,52.33705 71.83287,104.93331"
       style="fill:none;stroke:#6b7b8c;stroke-width:7.55905533;stroke-linecap:butt;stroke-linejoin:miter;stroke-miterlimit:4;stroke-dasharray:none;stroke-opacity:1;marker-end:url(#marker35911-4)" />
    <text
       transform="matrix(0.88990583,0,0,0.88990583,432.13431,-73.314035)"
       xml:space="preserve"
       style="font-style:normal;font-variant:normal;font-weight:normal;font-stretch:normal;font-size:9.52499962px;line-height:1.25;font-family:'JetBrains Mono';-inkscape-font-specification:'JetBrains Mono, Normal';font-variant-ligatures:normal;font-variant-position:normal;font-variant-caps:normal;font-variant-numeric:normal;font-variant-alternates:normal;font-feature-settings:normal;text-indent:0;text-align:start;text-decoration:none;text-decoration-line:none;text-decoration-style:solid;text-decoration-color:#000000;letter-spacing:0px;word-spacing:0px;text-transform:none;writing-mode:lr-tb;direction:ltr;text-orientation:mixed;dominant-baseline:auto;baseline-shift:baseline;text-anchor:start;white-space:normal;shape-padding:0;opacity:1;vector-effect:none;fill:#3a4d61;fill-opacity:0.94117647;stroke:none;stroke-width:0.29731607;stroke-linecap:butt;stroke-linejoin:miter;stroke-miterlimit:4;stroke-dasharray:none;stroke-dashoffset:0;stroke-opacity:1"
       x="34.764439"
       y="199.89458"
       id="text36554"
       inkscape:export-filename="/home/adm1n/Github/azure/images/iac/abstractions.png"
       inkscape:export-xdpi="200"
       inkscape:export-ydpi="200"><tspan
         sodipodi:role="line"
         x="34.764439"
         y="199.89458"
         style="font-style:normal;font-variant:normal;font-weight:bold;font-stretch:normal;font-size:14.11111069px;font-family:'JetBrains Mono';-inkscape-font-specification:'JetBrains Mono Bold';font-variant-ligatures:normal;font-variant-caps:normal;font-variant-numeric:normal;font-feature-settings:normal;text-align:start;writing-mode:lr-tb;text-anchor:start;fill:#3a4d61;fill-opacity:0.94117647;stroke-width:0.29731607"
         id="tspan36552">2.</tspan></text>
    <text
       inkscape:export-ydpi="200"
       inkscape:export-xdpi="200"
       inkscape:export-filename="/home/adm1n/Github/azure/images/iac/abstractions.png"
       id="text36558"
       y="199.89458"
       x="34.764439"
       style="font-style:normal;font-variant:normal;font-weight:normal;font-stretch:normal;font-size:9.52499962px;line-height:1.25;font-family:'JetBrains Mono';-inkscape-font-specification:'JetBrains Mono, Normal';font-variant-ligatures:normal;font-variant-position:normal;font-variant-caps:normal;font-variant-numeric:normal;font-variant-alternates:normal;font-feature-settings:normal;text-indent:0;text-align:start;text-decoration:none;text-decoration-line:none;text-decoration-style:solid;text-decoration-color:#000000;letter-spacing:0px;word-spacing:0px;text-transform:none;writing-mode:lr-tb;direction:ltr;text-orientation:mixed;dominant-baseline:auto;baseline-shift:baseline;text-anchor:start;white-space:normal;shape-padding:0;opacity:1;vector-effect:none;fill:#3a4d61;fill-opacity:0.94117647;stroke:none;stroke-width:0.29731607;stroke-linecap:butt;stroke-linejoin:miter;stroke-miterlimit:4;stroke-dasharray:none;stroke-dashoffset:0;stroke-opacity:1"
       xml:space="preserve"
       transform="matrix(0.88990583,0,0,0.88990583,457.26973,-27.011955)"><tspan
         id="tspan36556"
         style="font-style:normal;font-variant:normal;font-weight:bold;font-stretch:normal;font-size:14.11111069px;font-family:'JetBrains Mono';-inkscape-font-specification:'JetBrains Mono Bold';font-variant-ligatures:normal;font-variant-caps:normal;font-variant-numeric:normal;font-feature-settings:normal;text-align:start;writing-mode:lr-tb;text-anchor:start;fill:#3a4d61;fill-opacity:0.94117647;stroke-width:0.29731607"
         y="199.89458"
         x="34.764439"
         sodipodi:role="line">3.</tspan></text>
    <text
       transform="matrix(0.88990583,0,0,0.88990583,453.86794,14.943405)"
       xml:space="preserve"
       style="font-style:normal;font-variant:normal;font-weight:normal;font-stretch:normal;font-size:9.52499962px;line-height:1.25;font-family:'JetBrains Mono';-inkscape-font-specification:'JetBrains Mono, Normal';font-variant-ligatures:normal;font-variant-position:normal;font-variant-caps:normal;font-variant-numeric:normal;font-variant-alternates:normal;font-feature-settings:normal;text-indent:0;text-align:start;text-decoration:none;text-decoration-line:none;text-decoration-style:solid;text-decoration-color:#000000;letter-spacing:0px;word-spacing:0px;text-transform:none;writing-mode:lr-tb;direction:ltr;text-orientation:mixed;dominant-baseline:auto;baseline-shift:baseline;text-anchor:start;white-space:normal;shape-padding:0;opacity:1;vector-effect:none;fill:#3a4d61;fill-opacity:0.94117647;stroke:none;stroke-width:0.29731607;stroke-linecap:butt;stroke-linejoin:miter;stroke-miterlimit:4;stroke-dasharray:none;stroke-dashoffset:0;stroke-opacity:1"
       x="34.764439"
       y="199.89458"
       id="text36562"
       inkscape:export-filename="/home/adm1n/Github/azure/images/iac/abstractions.png"
       inkscape:export-xdpi="200"
       inkscape:export-ydpi="200"><tspan
         sodipodi:role="line"
         x="34.764439"
         y="199.89458"
         style="font-style:normal;font-variant:normal;font-weight:bold;font-stretch:normal;font-size:14.11111069px;font-family:'JetBrains Mono';-inkscape-font-specification:'JetBrains Mono Bold';font-variant-ligatures:normal;font-variant-caps:normal;font-variant-numeric:normal;font-feature-settings:normal;text-align:start;writing-mode:lr-tb;text-anchor:start;fill:#3a4d61;fill-opacity:0.94117647;stroke-width:0.29731607"
         id="tspan36560">4.</tspan></text>
    <text
       inkscape:export-ydpi="200"
       inkscape:export-xdpi="200"
       inkscape:export-filename="/home/adm1n/Github/azure/images/iac/abstractions.png"
       id="text36566"
       y="199.89458"
       x="34.764439"
       style="font-style:normal;font-variant:normal;font-weight:normal;font-stretch:normal;font-size:9.52499962px;line-height:1.25;font-family:'JetBrains Mono';-inkscape-font-specification:'JetBrains Mono, Normal';font-variant-ligatures:normal;font-variant-position:normal;font-variant-caps:normal;font-variant-numeric:normal;font-variant-alternates:normal;font-feature-settings:normal;text-indent:0;text-align:start;text-decoration:none;text-decoration-line:none;text-decoration-style:solid;text-decoration-color:#000000;letter-spacing:0px;word-spacing:0px;text-transform:none;writing-mode:lr-tb;direction:ltr;text-orientation:mixed;dominant-baseline:auto;baseline-shift:baseline;text-anchor:start;white-space:normal;shape-padding:0;opacity:1;vector-effect:none;fill:#3a4d61;fill-opacity:0.94117647;stroke:none;stroke-width:0.29731607;stroke-linecap:butt;stroke-linejoin:miter;stroke-miterlimit:4;stroke-dasharray:none;stroke-dashoffset:0;stroke-opacity:1"
       xml:space="preserve"
       transform="matrix(0.88990583,0,0,0.88990583,453.86794,81.278225)"><tspan
         id="tspan36564"
         style="font-style:normal;font-variant:normal;font-weight:bold;font-stretch:normal;font-size:14.11111069px;font-family:'JetBrains Mono';-inkscape-font-specification:'JetBrains Mono Bold';font-variant-ligatures:normal;font-variant-caps:normal;font-variant-numeric:normal;font-feature-settings:normal;text-align:start;writing-mode:lr-tb;text-anchor:start;fill:#3a4d61;fill-opacity:0.94117647;stroke-width:0.29731607"
         y="199.89458"
         x="34.764439"
         sodipodi:role="line">5.</tspan></text>
    <path
       sodipodi:nodetypes="cc"
       inkscape:connector-curvature="0"
       id="path35907-6-9"
       d="m 72.019649,146.55302 c 10.003687,-5.52582 22.643111,-8.88647 34.342291,-6.19188"
       style="fill:none;stroke:#6b7b8c;stroke-width:2;stroke-linecap:butt;stroke-linejoin:miter;stroke-miterlimit:4;stroke-dasharray:none;stroke-opacity:1;marker-end:url(#marker35911-4-3)" />
    <path
       sodipodi:nodetypes="cc"
       inkscape:connector-curvature="0"
       id="path35907-6-9-3"
       d="m 144.71952,132.91666 c 11.09301,-2.74838 24.17156,-2.7232 34.77469,2.90754"
       style="fill:none;stroke:#6b7b8c;stroke-width:2;stroke-linecap:butt;stroke-linejoin:miter;stroke-miterlimit:4;stroke-dasharray:none;stroke-opacity:1;marker-end:url(#marker35911-4-3-3)" />
    <path
       sodipodi:nodetypes="cc"
       inkscape:connector-curvature="0"
       id="path35907-6-9-3-4"
       d="m 205.78823,134.24998 c 11.09301,-2.74838 24.17156,-2.7232 34.77469,2.90754"
       style="fill:none;stroke:#6b7b8c;stroke-width:2;stroke-linecap:butt;stroke-linejoin:miter;stroke-miterlimit:4;stroke-dasharray:none;stroke-opacity:1;marker-end:url(#marker35911-4-3-3-4)" />
    <g
       id="g35583"
       transform="matrix(0.80395593,0.04087424,-0.04087424,0.80395593,676.43202,118.21376)"
       style="stroke-width:1.24224484">
      <path
         transform="matrix(1.5045529,-0.0655231,0.0655231,1.5045529,-8740.2048,-1555.3558)"
         style="opacity:1;fill:#6b7b8c;fill-opacity:0.94117647;stroke:none;stroke-width:0.28953123;stroke-linecap:butt;stroke-linejoin:miter;stroke-miterlimit:4;stroke-dasharray:none;stroke-dashoffset:0;stroke-opacity:1;paint-order:normal"
         d="m 5395.7958,1289.2899 v 30.1827 h 21.486 v -25.9519 l -4.472,-4.2308 z"
         id="path35525"
         inkscape:connector-curvature="0" />
      <path
         inkscape:connector-curvature="0"
         id="path35489"
         d="m 5395.7958,1289.2899 v 30.1827 h 21.486 v -25.9519 l -4.472,-4.2308 z"
         style="opacity:1;fill:#ffffff;fill-opacity:1;stroke:none;stroke-width:0.30436715;stroke-linecap:butt;stroke-linejoin:miter;stroke-miterlimit:4;stroke-dasharray:none;stroke-dashoffset:0;stroke-opacity:1;paint-order:normal"
         transform="matrix(1.4312156,-0.06232927,0.06232927,1.4312156,-8339.5379,-1476.9564)" />
      <path
         style="opacity:1;fill:#6b7b8c;fill-opacity:0.94117647;stroke:none;stroke-width:0.19804004;stroke-linecap:butt;stroke-linejoin:bevel;stroke-miterlimit:4;stroke-dasharray:none;stroke-opacity:1"
         d="m 5417.073,1293.2396 -0.5475,0.4916 -3.9074,0.4751 0.057,-4.1211 0.2693,-0.6984 z"
         id="path35491"
         inkscape:connector-curvature="0"
         sodipodi:nodetypes="cccccc"
         transform="matrix(1.66069,-0.07232285,0.07232285,1.66069,-9594.373,-1720.0301)" />
      <g
         style="fill:#6b7b8c;fill-opacity:0.94117647;stroke-width:0.57844102"
         id="g35499"
         transform="matrix(2.1455884,-0.09232687,0.09232687,2.1455884,-12247.679,-2239.8828)">
        <rect
           transform="scale(1,-1)"
           ry="0.26420838"
           rx="0.26420838"
           y="-1305.2327"
           x="5405.8022"
           height="0.91351891"
           width="8.4043741"
           id="rect35495"
           style="opacity:1;fill:#6b7b8c;fill-opacity:0.94117647;stroke:none;stroke-width:0.15328686;stroke-linecap:butt;stroke-linejoin:bevel;stroke-miterlimit:4;stroke-dasharray:none;stroke-dashoffset:0;stroke-opacity:1;paint-order:normal" />
        <rect
           transform="scale(1,-1)"
           style="opacity:1;fill:#6b7b8c;fill-opacity:0.94117647;stroke:none;stroke-width:0.17212342;stroke-linecap:butt;stroke-linejoin:bevel;stroke-miterlimit:4;stroke-dasharray:none;stroke-dashoffset:0;stroke-opacity:1;paint-order:normal"
           id="rect35497"
           width="10.59682"
           height="0.91351891"
           x="5405.8022"
           y="-1303.0402"
           rx="0.26420838"
           ry="0.26420838" />
      </g>
      <g
         style="fill:#6b7b8c;fill-opacity:0.94117647;stroke-width:0.57844102"
         transform="matrix(2.1455884,-0.09232687,0.09232687,2.1455884,-12249.132,-2229.0932)"
         id="g35507">
        <rect
           style="opacity:1;fill:#6b7b8c;fill-opacity:0.94117647;stroke:none;stroke-width:0.15328686;stroke-linecap:butt;stroke-linejoin:bevel;stroke-miterlimit:4;stroke-dasharray:none;stroke-dashoffset:0;stroke-opacity:1;paint-order:normal"
           id="rect35503"
           width="8.4043741"
           height="0.91351891"
           x="5405.8022"
           y="-1305.2327"
           rx="0.26420838"
           ry="0.26420838"
           transform="scale(1,-1)" />
        <rect
           ry="0.26420838"
           rx="0.26420838"
           y="-1303.0402"
           x="5405.8022"
           height="0.91351891"
           width="10.59682"
           id="rect35505"
           style="opacity:1;fill:#6b7b8c;fill-opacity:0.94117647;stroke:none;stroke-width:0.17212342;stroke-linecap:butt;stroke-linejoin:bevel;stroke-miterlimit:4;stroke-dasharray:none;stroke-dashoffset:0;stroke-opacity:1;paint-order:normal"
           transform="scale(1,-1)" />
      </g>
      <g
         style="fill:#6b7b8c;fill-opacity:0.94117647;stroke-width:0.57844102"
         transform="matrix(2.1455884,-0.09232687,0.09232687,2.1455884,-12250.8,-2250.925)"
         id="g35523">
        <rect
           style="opacity:1;fill:#6b7b8c;fill-opacity:0.94117647;stroke:none;stroke-width:0.15328686;stroke-linecap:butt;stroke-linejoin:bevel;stroke-miterlimit:4;stroke-dasharray:none;stroke-dashoffset:0;stroke-opacity:1;paint-order:normal"
           id="rect35519"
           width="8.4043741"
           height="0.91351891"
           x="5405.8022"
           y="-1305.2327"
           rx="0.26420838"
           ry="0.26420838"
           transform="scale(1,-1)" />
        <rect
           ry="0.26420838"
           rx="0.26420838"
           y="-1303.0402"
           x="5405.8022"
           height="0.91351891"
           width="10.59682"
           id="rect35521"
           style="opacity:1;fill:#6b7b8c;fill-opacity:0.94117647;stroke:none;stroke-width:0.17212342;stroke-linecap:butt;stroke-linejoin:bevel;stroke-miterlimit:4;stroke-dasharray:none;stroke-dashoffset:0;stroke-opacity:1;paint-order:normal"
           transform="scale(1,-1)" />
      </g>
      <rect
         transform="matrix(0.26425777,-0.01312139,0.01312139,0.26425777,3.368835,-26.069778)"
         y="122.51968"
         x="-2057.5"
         height="24.285715"
         width="72.85714"
         id="rect35545"
         style="opacity:1;vector-effect:none;fill:#6b7b8c;fill-opacity:0.94117647;fill-rule:evenodd;stroke:none;stroke-width:4.69509888;stroke-linecap:round;stroke-linejoin:bevel;stroke-miterlimit:4;stroke-dasharray:none;stroke-dashoffset:0;stroke-opacity:1;paint-order:normal" />
      <text
         inkscape:export-ydpi="200"
         inkscape:export-xdpi="200"
         inkscape:export-filename="/home/adm1n/Github/azure/images/iac/abstractions.png"
         id="text7566-7"
         y="199.89458"
         x="34.764439"
         style="font-style:normal;font-variant:normal;font-weight:normal;font-stretch:normal;font-size:9.52499962px;line-height:1.25;font-family:'JetBrains Mono';-inkscape-font-specification:'JetBrains Mono, Normal';font-variant-ligatures:normal;font-variant-position:normal;font-variant-caps:normal;font-variant-numeric:normal;font-variant-alternates:normal;font-feature-settings:normal;text-indent:0;text-align:start;text-decoration:none;text-decoration-line:none;text-decoration-style:solid;text-decoration-color:#000000;letter-spacing:0px;word-spacing:0px;text-transform:none;writing-mode:lr-tb;direction:ltr;text-orientation:mixed;dominant-baseline:auto;baseline-shift:baseline;text-anchor:start;white-space:normal;shape-padding:0;opacity:1;vector-effect:none;fill:#ffffff;fill-opacity:1;stroke:none;stroke-width:0.44957933;stroke-linecap:butt;stroke-linejoin:miter;stroke-miterlimit:4;stroke-dasharray:none;stroke-dashoffset:0;stroke-opacity:1"
         xml:space="preserve"
         transform="matrix(0.72973693,-0.04425042,0.04425042,0.72973693,-568.6965,-105.37474)"><tspan
           id="tspan7564-0"
           style="font-style:normal;font-variant:normal;font-weight:bold;font-stretch:normal;font-size:9.52499962px;font-family:'JetBrains Mono';-inkscape-font-specification:'JetBrains Mono Bold';font-variant-ligatures:normal;font-variant-caps:normal;font-variant-numeric:normal;font-feature-settings:normal;text-align:start;writing-mode:lr-tb;text-anchor:start;fill:#ffffff;fill-opacity:1;stroke-width:0.44957933"
           y="199.89458"
           x="34.764439"
           sodipodi:role="line">ARM</tspan></text>
    </g>
    <g
       id="g1240"
       transform="matrix(1.3290672,0,0,1.3290672,78.371751,-70.90935)"
       style="stroke-width:0.75240743">
      <ellipse
         ry="16.307316"
         rx="16.367491"
         cy="166.82137"
         cx="-17.220057"
         id="path24715"
         style="opacity:1;fill:#ef9d10;fill-opacity:0.94117647;stroke:none;stroke-width:1.50481498;stroke-linecap:round;stroke-linejoin:bevel;stroke-miterlimit:4;stroke-dasharray:none;stroke-dashoffset:0;stroke-opacity:0.94117647;paint-order:normal" />
      <path
         id="circle24781"
         d="m -17.220301,150.50965 a 16.371911,16.31172 0 0 0 -16.37162,16.31198 16.371911,16.31172 0 0 0 16.37162,16.31143 16.371911,16.31172 0 0 0 16.37217005,-16.31143 16.371911,16.31172 0 0 0 -16.37217005,-16.31198 z m 0,2.03261 a 14.331581,14.278891 0 0 1 14.3320611,14.27937 14.331581,14.278891 0 0 1 -14.3320611,14.27882 14.331581,14.278891 0 0 1 -14.331512,-14.27882 14.331581,14.278891 0 0 1 14.331512,-14.27937 z"
         style="opacity:0.40800003;fill:url(#linearGradient24827);fill-opacity:1;stroke:none;stroke-width:1.50481486;stroke-linecap:round;stroke-linejoin:bevel;stroke-miterlimit:4;stroke-dasharray:none;stroke-dashoffset:0;stroke-opacity:0.94117647;paint-order:normal"
         inkscape:connector-curvature="0" />
      <text
         inkscape:export-ydpi="200"
         inkscape:export-xdpi="200"
         inkscape:export-filename="/home/adm1n/Github/azure/images/iac/abstractions.png"
         id="text24595-4"
         y="171.54051"
         x="-17.073877"
         style="font-style:normal;font-variant:normal;font-weight:normal;font-stretch:normal;font-size:10.3685503px;line-height:1.25;font-family:'JetBrains Mono';-inkscape-font-specification:'JetBrains Mono, Normal';font-variant-ligatures:normal;font-variant-position:normal;font-variant-caps:normal;font-variant-numeric:normal;font-variant-alternates:normal;font-feature-settings:normal;text-indent:0;text-align:center;text-decoration:none;text-decoration-line:none;text-decoration-style:solid;text-decoration-color:#000000;letter-spacing:0px;word-spacing:0px;text-transform:none;writing-mode:lr-tb;direction:ltr;text-orientation:mixed;dominant-baseline:auto;baseline-shift:baseline;text-anchor:middle;white-space:normal;shape-padding:0;opacity:1;vector-effect:none;fill:#45576a;fill-opacity:1;stroke:none;stroke-width:0.19907445;stroke-linecap:butt;stroke-linejoin:miter;stroke-miterlimit:4;stroke-dasharray:none;stroke-dashoffset:0;stroke-opacity:1"
         xml:space="preserve"
         transform="scale(1.0018433,0.99816009)"><tspan
           style="font-style:normal;font-variant:normal;font-weight:500;font-stretch:normal;font-size:12.28865242px;font-family:'JetBrains Mono';-inkscape-font-specification:'JetBrains Mono Medium';font-variant-ligatures:normal;font-variant-caps:normal;font-variant-numeric:normal;font-feature-settings:normal;text-align:center;writing-mode:lr-tb;text-anchor:middle;fill:#45576a;fill-opacity:1;stroke:none;stroke-width:0.19907445"
           y="171.54051"
           x="-17.073877"
           sodipodi:role="line"
           id="tspan24593-1">GUI</tspan></text>
      <path
         id="path24848"
         d="m -12.010108,172.37145 a 9.1814838,9.1477284 0 0 0 -9.181656,9.14732 9.1814838,9.1477284 0 0 0 9.181656,9.14787 9.1814838,9.1477284 0 0 0 9.1816261,-9.14787 9.1814838,9.1477284 0 0 0 -9.1816261,-9.14732 z m 0,1.48796 a 7.6876709,7.6594075 0 0 1 7.6875921,7.65936 7.6876709,7.6594075 0 0 1 -7.6875921,7.65933 7.6876709,7.6594075 0 0 1 -7.687621,-7.65933 7.6876709,7.6594075 0 0 1 7.687621,-7.65936 z m 0,1.4161 a 6.2667269,6.2436875 0 0 0 -6.266878,6.24326 6.2667269,6.2436875 0 0 0 6.266878,6.24381 6.2667269,6.2436875 0 0 0 6.2668481,-6.24381 6.2667269,6.2436875 0 0 0 -6.2668481,-6.24326 z m 0,1.52445 a 4.7364795,4.719066 0 0 1 4.7367741,4.71881 4.7364795,4.719066 0 0 1 -4.7367741,4.71936 4.7364795,4.719066 0 0 1 -4.736227,-4.71936 4.7364795,4.719066 0 0 1 4.736227,-4.71881 z"
         style="opacity:1;fill:#6b7b8c;fill-opacity:1;stroke:none;stroke-width:1.50481486;stroke-linecap:round;stroke-linejoin:bevel;stroke-miterlimit:4;stroke-dasharray:none;stroke-dashoffset:0;stroke-opacity:0.94117647;paint-order:normal"
         inkscape:connector-curvature="0" />
      <g
         style="stroke-width:2.03517318"
         transform="matrix(0.37038339,0,0,0.36902169,-148.55086,105.24456)"
         id="g34509">
        <path
           style="fill:#ffffff;fill-opacity:1;stroke-width:16.19421959"
           d="m 218.3825,464.08625 c -2.26462,-1.0284 -4.79392,-2.83555 -5.62067,-4.01589 -0.82674,-1.18034 -12.69886,-29.11804 -26.3825,-62.08379 L 161.5,338.04886 l -32,31.93981 c -22.25613,22.21427 -33.180508,32.42768 -35.876927,33.54202 -7.402749,3.05933 -16.338815,-0.48676 -19.659253,-7.80135 -1.87042,-4.12035 -1.919896,-8.86798 -1.919896,-184.22934 0,-175.361362 0.04948,-180.108991 1.919896,-184.22934 3.178326,-7.001535 11.328445,-10.598996 18.721001,-8.263447 3.096061,0.978147 27.724949,25.076238 130.665129,127.849067 74.59245,74.47117 127.42672,127.96937 128.25,129.8616 3.00898,6.91585 0.85174,15.39681 -4.97324,19.55181 -3.10254,2.21307 -3.49163,2.23418 -50.33338,2.73031 l -47.20667,0.5 25.45667,61.23375 C 291.83226,402.32073 300,423.1274 300,425.58262 c 0,4.64315 -2.53068,9.94997 -5.87329,12.31626 -4.18539,2.96292 -65.86562,28.10343 -68.88996,28.07916 -1.50521,-0.0121 -4.58962,-0.86338 -6.85425,-1.89179 z"
           transform="matrix(0.12567282,0,0,0.12567282,358.22338,199.23849)"
           id="path34499"
           inkscape:connector-curvature="0" />
        <path
           style="fill:#45576a;fill-opacity:1;stroke-width:15.46685123"
           d="m 218.3825,464.08625 c -2.26462,-1.0284 -4.79392,-2.83555 -5.62067,-4.01589 -0.82674,-1.18034 -12.69886,-29.11804 -26.3825,-62.08379 L 161.5,338.04886 l -32,31.93981 c -22.25613,22.21427 -33.180508,32.42768 -35.876927,33.54202 -7.402749,3.05933 -16.338815,-0.48676 -19.659253,-7.80135 -1.87042,-4.12035 -1.919896,-8.86798 -1.919896,-184.22934 0,-175.361362 0.04948,-180.108991 1.919896,-184.22934 3.178326,-7.001535 11.328445,-10.598996 18.721001,-8.263447 3.096061,0.978147 27.724949,25.076238 130.665129,127.849067 74.59245,74.47117 127.42672,127.96937 128.25,129.8616 3.00898,6.91585 0.85174,15.39681 -4.97324,19.55181 -3.10254,2.21307 -3.49163,2.23418 -50.33338,2.73031 l -47.20667,0.5 25.45667,61.23375 C 291.83226,402.32073 300,423.1274 300,425.58262 c 0,4.64315 -2.53068,9.94997 -5.87329,12.31626 -4.18539,2.96292 -65.86562,28.10343 -68.88996,28.07916 -1.50521,-0.0121 -4.58962,-0.86338 -6.85425,-1.89179 z M 248,423.41208 c 7.425,-3.07045 13.88964,-5.95641 14.36587,-6.41323 0.48,-0.46044 -12.53427,-33.06668 -29.20254,-73.16472 C 216.62569,304.05036 202.80041,270.7125 202.44046,269.75 201.82286,268.09852 204.49419,268 249.89301,268 276.35186,268 298,267.66163 298,267.24807 298,266.8345 254.35,222.84787 201,169.5 L 104,72.503866 V 211.4965 350.48913 l 34.25658,-34.24578 34.25658,-34.24579 30.49342,73.48238 c 16.77138,40.41531 30.71842,73.48967 30.99342,73.49858 0.275,0.009 6.575,-2.49599 14,-5.56644 z"
           id="path34493"
           inkscape:connector-curvature="0"
           transform="matrix(0.13158291,0,0,0.13158291,356.96749,197.80744)" />
      </g>
    </g>
    <g
       id="g1411"
       transform="matrix(1.2818599,0,0,1.2818599,-57.705498,80.857022)"
       style="stroke-width:0.78011644">
      <path
         id="path1853"
         d="m 284.58769,76.132298 c -2.59876,-0.507534 -6.11539,-2.428815 -8.12637,-4.439797 -4.80945,-4.809446 -6.05045,-12.197134 -3.07652,-18.314568 1.25872,-2.589216 4.53501,-5.856434 7.03804,-7.018563 1.64263,-0.762653 1.9219,-1.051541 2.13761,-2.211344 0.75028,-4.033812 3.96091,-7.879823 7.58215,-9.082599 2.5702,-0.853683 6.22434,-0.619887 8.5398,0.546366 0.96143,0.484253 1.80263,0.810181 1.86934,0.72429 0.0667,-0.08595 0.58871,-0.971738 1.16,-1.968563 2.51672,-4.391319 8.61481,-8.751755 13.7222,-9.812044 3.04605,-0.632368 8.93896,-0.26036 11.80423,0.745157 8.02974,2.817914 13.91393,10.463022 14.39143,18.698219 l 0.17555,3.027682 2.07367,0.598296 c 5.99974,1.731089 9.8326,5.912459 10.8521,11.838889 1.30366,7.578288 -4.14597,15.245626 -11.86933,16.699515 -2.46362,0.463763 -55.88601,0.435403 -58.2739,-0.03092 z"
         style="fill:#3a4d61;fill-opacity:0.94117647;stroke-width:0.78011638"
         inkscape:connector-curvature="0" />
      <path
         id="path1828"
         d="m 344.70765,72.247919 c 8.18192,-3.783185 9.32091,-14.98642 2.03336,-20.000384 -1.72268,-1.185239 -5.07822,-2.246712 -7.1023,-2.246712 h -1.1834 l 0.006,-3.593437 c 0.01,-7.161691 -2.94636,-12.605329 -8.89596,-16.380397 -4.13438,-2.623302 -10.77268,-3.312795 -15.57528,-1.617729 -5.149,1.817328 -9.53022,6.111989 -11.45303,11.226774 l -0.8488,2.257883 -1.25481,-1.294628 c -1.83429,-1.892507 -3.87901,-2.762361 -6.47076,-2.752764 -4.8174,0.01783 -8.26832,3.365532 -8.26832,8.021014 v 1.787323 l -1.93493,0.623871 c -5.45775,1.759729 -9.12025,7.252596 -8.65988,12.987759 0.4379,5.455283 4.20992,10.02131 9.4631,11.455039 1.28908,0.351839 8.34664,0.442675 30.06346,0.38694 28.13304,-0.07216 28.39367,-0.07968 30.08254,-0.860552 z"
         style="fill:#6b7b8c;fill-opacity:0.94117647;stroke-width:0.78011638"
         inkscape:connector-curvature="0" />
      <path
         id="path3635-5"
         d="m 315.48699,66.13094 10.79217,-1.906375 0.10027,-0.02368 -5.5494,-6.602756 a 939.13116,939.13116 0 0 1 -5.54959,-6.632937 c 0,-0.0326 5.73087,-15.813913 5.76334,-15.869773 0.0167,-0.01871 3.91055,6.714365 9.45324,16.320757 l 9.50869,16.483566 0.073,0.125515 h -17.63907 -17.63879 l 10.68748,-1.887706 z m -21.16812,-2.008711 c 0,-0.0099 2.61552,-4.549826 5.81209,-10.090048 l 5.8123,-10.073762 6.77248,-5.68439 c 3.72453,-3.124639 6.78167,-5.686771 6.79567,-5.691407 a 1.1903481,1.1903481 0 0 1 -0.10894,0.274344 l -7.35601,15.774436 -7.22356,15.490827 -5.25187,0.0099 c -2.88739,0 -5.25196,0 -5.25196,-0.0099 z"
         inkscape:connector-curvature="0"
         style="fill:#ef9d10;fill-opacity:0.94117647;stroke-width:1.0486877"
         inkscape:export-filename="/home/adm1n/Github/azure/images/iac/abstraction_00.png"
         inkscape:export-xdpi="50"
         inkscape:export-ydpi="50" />
    </g>
    <path
       sodipodi:nodetypes="cc"
       inkscape:connector-curvature="0"
       id="path35907-6-9-3-4-9"
       d="m 267.93481,136.70683 c 11.093,-2.74839 24.17155,-2.7232 34.77468,2.90753"
       style="fill:none;stroke:#6b7b8c;stroke-width:2;stroke-linecap:butt;stroke-linejoin:miter;stroke-miterlimit:4;stroke-dasharray:none;stroke-opacity:1;marker-end:url(#marker35911-4-3-3-4-3)" />
    <g
       id="g37524"
       transform="translate(-45.907418,-7.3760987)">
      <path
         style="fill:#6b7b8c;fill-opacity:0.94117647;stroke-width:1.53588569"
         d="m 16957.357,1492.4628 -5.013,2.6929 -5.023,2.6898 -2.687,5.0198 -2.695,5.0168 v 4.4648 4.4648 l 2.578,4.7925 2.577,4.7925 4.419,2.9058 4.422,2.9083 39.396,0.015 39.4,0.015 v -2.2097 -2.2092 h -38.998 -39.01 l -4.811,-4.2979 -4.818,-4.2974 v -6.8699 -6.8693 l 4.818,-4.2979 4.811,-4.298 h 122.889 122.894 l 3.864,1.7606 3.863,1.7576 2.1,4.0591 2.089,4.0592 v 3.6851 3.6876 l -1.597,3.5068 -1.596,3.5098 -4.146,2.451 -4.154,2.4536 h -38.56 -38.567 l 0.615,1.8413 0.613,1.8412 38.573,0.3912 38.569,0.3938 4.459,-2.3043 4.457,-2.3068 2.867,-4.715 2.886,-4.7149 v -5.595 -5.5982 l -2.285,-4.41 -2.281,-4.4101 -4.716,-2.8768 -4.714,-2.8737 H 17081.1 Z m 79.568,6.6255 -0.391,31.5629 -0.391,31.5603 1.818,1.1225 1.813,1.1188 40.556,0.052 h 0.03 l 40.559,0.051 1.81,-1.1302 1.809,-1.1337 0.165,-30.6369 0.169,-32.366 z m -74.932,0.5581 c -0.88,0.1431 -1.726,0.3745 -2.539,0.6826 v 3.0505 c -0.445,0.2205 -0.931,0.4734 -1.359,0.771 l -2.61,-1.5637 c -0.679,0.5506 -1.297,1.1778 -1.859,1.8608 v 0.017 0.011 l 1.558,2.5895 c -0.167,0.2166 -0.278,0.4418 -0.389,0.6729 v 0.011 c -0.112,0.2221 -0.279,0.4498 -0.391,0.6842 l -3.034,-0.056 v 0.011 c -0.334,0.8281 -0.556,1.6747 -0.695,2.5471 l 2.672,1.4728 v 1.5653 l -2.655,1.48 c 0.167,0.8601 0.333,1.7095 0.678,2.544 v 0.011 l 1.571,-0.033 1.463,-0.017 c 0.112,0.2299 0.224,0.4612 0.335,0.6899 0.06,0.1542 0.167,0.2961 0.278,0.4403 0,0.073 0.06,0.1483 0.167,0.2201 l -1.565,2.6045 v 0.011 0.011 c 0.562,0.6829 1.181,1.3104 1.866,1.8722 l 2.605,-1.5751 c 0.39,0.2733 0.818,0.5072 1.247,0.723 0,0.017 0.06,0.039 0.111,0.059 v 0.2852 2.7642 c 0.819,0.3012 1.682,0.5306 2.549,0.6759 l 1.482,-2.6567 c 0.06,0.011 0.167,-1e-4 0.223,0.011 0.167,0.011 0.333,0.033 0.555,0.033 0.279,0 0.558,-0.017 0.786,-0.044 l 1.474,2.665 c 0.88,-0.143 1.738,-0.374 2.556,-0.6827 v -2.2386 -0.801 c 0.446,-0.2316 0.925,-0.4857 1.364,-0.7823 l 2.611,1.575 c 0.674,-0.5617 1.297,-1.1899 1.859,-1.8722 v -0.017 -0.011 l -1.554,-2.5895 c 0.167,-0.2193 0.28,-0.4473 0.391,-0.6811 v -0.017 c 0.111,-0.2188 0.278,-0.4394 0.334,-0.6636 l 3.022,0.056 v -0.011 c 0.335,-0.828 0.557,-1.6853 0.68,-2.5425 l -1.559,-0.8785 -1.085,-0.5989 v -0.7803 -0.7819 l 2.671,-1.4759 c -0.167,-0.8812 -0.389,-1.7401 -0.69,-2.5548 l -3.033,0.056 c -0.223,-0.4738 -0.502,-0.9358 -0.775,-1.3658 l 0.684,-1.1452 0.881,-1.4604 c -0.278,-0.3234 -0.557,-0.6332 -0.841,-0.9296 v -0.05 c -0.334,-0.3112 -0.64,-0.6055 -0.974,-0.8811 l -1.542,0.9136 v 0.017 l -1.07,0.6362 c -0.445,-0.29 -0.873,-0.5645 -1.34,-0.7876 v -3.0422 c -0.825,-0.3162 -1.67,-0.5368 -2.545,-0.6816 l -0.05,-0.029 -1.474,2.6598 c -0.501,-0.045 -1.041,-0.017 -1.57,0.017 l -1.48,-2.6696 z m 235.781,0 v 0.011 l -1.481,2.6696 c -0.529,-0.034 -1.069,-0.062 -1.57,-0.017 l -1.475,-2.6598 -0.05,0.029 c -0.874,0.1448 -1.72,0.3654 -2.544,0.6816 v 3.0422 c -0.467,0.2231 -0.896,0.4975 -1.341,0.7875 l -1.069,-0.6361 v -0.017 l -1.543,-0.9137 c -0.334,0.2756 -0.64,0.5699 -0.973,0.8811 v 0.05 c -0.285,0.2964 -0.562,0.6063 -0.841,0.9297 l 0.88,1.4604 0.683,1.1451 c -0.272,0.43 -0.55,0.892 -0.772,1.3658 l -3.034,-0.056 c -0.301,0.8148 -0.525,1.6737 -0.691,2.5549 l 2.673,1.4759 v 0.7818 0.7803 l -1.087,0.599 -1.558,0.8785 c 0.123,0.8572 0.345,1.7144 0.678,2.5424 v 0.011 l 3.024,-0.056 c 0.06,0.2242 0.223,0.4447 0.334,0.6635 v 0.017 c 0.112,0.2338 0.223,0.4618 0.39,0.6811 l -1.553,2.5895 v 0.011 0.017 c 0.562,0.6823 1.184,1.3104 1.858,1.8722 l 2.612,-1.5751 c 0.44,0.2966 0.918,0.5508 1.364,0.7824 v 0.801 2.2386 c 0.818,0.3086 1.675,0.5396 2.555,0.6826 l 1.475,-2.6649 c 0.228,0.027 0.507,0.044 0.785,0.044 0.223,0 0.39,-0.022 0.557,-0.033 0.06,-0.011 0.161,2e-4 0.221,-0.011 l 1.482,2.6567 c 0.869,-0.1453 1.731,-0.3748 2.55,-0.676 v -2.7641 -0.2853 c 0.05,-0.02 0.111,-0.042 0.111,-0.059 0.429,-0.2157 0.857,-0.4497 1.247,-0.7229 l 2.605,1.5751 c 0.685,-0.5618 1.303,-1.1893 1.865,-1.8723 v -0.011 -0.011 l -1.564,-2.6045 c 0.106,-0.072 0.167,-0.1471 0.167,-0.2201 0.111,-0.1443 0.218,-0.2861 0.278,-0.4403 0.112,-0.2287 0.223,-0.46 0.334,-0.6899 l 1.464,0.017 1.57,0.033 v -0.011 c 0.345,-0.8345 0.512,-1.684 0.679,-2.5441 l -2.656,-1.48 v -1.5653 l 2.673,-1.4727 c -0.139,-0.8725 -0.362,-1.7191 -0.696,-2.5472 v -0.011 l -3.034,0.056 c -0.111,-0.2344 -0.278,-0.4621 -0.389,-0.6842 v -0.011 c -0.112,-0.2311 -0.224,-0.4563 -0.39,-0.6728 l 1.559,-2.5895 v -0.011 -0.017 c -0.563,-0.683 -1.181,-1.3103 -1.86,-1.8609 l -2.611,1.5638 c -0.428,-0.2976 -0.913,-0.5506 -1.359,-0.7711 v -3.0504 c -0.813,-0.3081 -1.658,-0.5396 -2.537,-0.6827 z m -157.152,3.1269 h 39.768 39.771 v 24.3024 24.3024 h -39.771 -39.768 v -24.3024 z m -37.92,1.2563 -0.111,0.1085 -0.735,2.1745 -1.481,0.5592 -2.472,-1.1881 -1.502,1.4919 0.111,0.2806 1.091,2.1281 -0.607,1.4665 -2.583,0.9297 v 2.1301 l 0.334,0.09 2.272,0.7519 0.612,1.4676 -1.163,2.4707 1.502,1.5219 0.279,-0.1437 2.132,-1.0919 1.469,0.6082 0.936,2.5797 h 2.126 l 0.112,-0.3044 0.757,-2.2738 1.447,-0.6087 2.489,1.1643 1.503,-1.5043 -0.112,-0.2863 -1.091,-2.1301 0.446,-1.4862 2.365,-0.9137 v -2.1306 l -0.111,-0.1085 -2.177,-0.7343 -0.562,-1.4681 1.08,-2.2382 0.11,-0.2511 -0.678,-0.6801 -0.813,-0.8242 -0.333,0.1437 -2.132,1.0919 -1.465,-0.4114 -0.93,-2.3812 z m 152.246,0 -0.929,2.3812 -1.464,0.4114 -2.132,-1.0919 -0.334,-0.1437 -0.813,0.8242 -0.679,0.6801 0.111,0.2511 1.08,2.2382 -0.562,1.4681 -2.177,0.7343 -0.111,0.1085 v 2.1306 l 2.366,0.9137 0.445,1.4862 -1.091,2.1301 -0.111,0.2863 1.503,1.5043 2.488,-1.1643 1.447,0.6087 0.757,2.2738 0.112,0.3044 h 2.126 l 0.936,-2.5797 1.469,-0.6082 2.131,1.0919 0.279,0.1437 1.504,-1.5219 -1.165,-2.4707 0.613,-1.4676 2.272,-0.7519 0.333,-0.09 v -2.1301 l -2.582,-0.9297 -0.607,-1.4665 1.091,-2.1281 0.111,-0.2806 -1.503,-1.4919 -2.472,1.1881 -1.48,-0.5592 -0.735,-2.1745 -0.112,-0.1085 z m -190.502,0.7519 c 1.822,0.043 3.591,0.6864 5.028,1.8329 0.167,0.1531 0.39,0.3114 0.557,0.4801 0,0.028 0.06,0.05 0.06,0.079 1.565,1.5281 2.533,3.654 2.533,6.0146 0,0.5105 0,1.0078 -0.167,1.4934 0,0.1163 0,0.2331 -0.06,0.3478 0,0.1436 -0.06,0.285 -0.113,0.4253 0,0.162 -0.05,0.322 -0.166,0.4806 0,0.1119 -0.06,0.2221 -0.111,0.3318 -0.06,0.1926 -0.167,0.3818 -0.223,0.5684 0,0.073 -0.05,0.1453 -0.111,0.216 -0.167,0.2572 -0.278,0.5091 -0.445,0.7519 v 0.011 c -0.334,0.5283 -0.763,1.0206 -1.23,1.466 -0.446,0.4453 -1.002,0.8437 -1.587,1.1824 -2.266,1.3071 -4.882,1.4457 -7.149,0.6004 -0.222,-0.088 -0.445,-0.188 -0.696,-0.296 0,-0.017 -0.06,-0.033 -0.06,-0.045 -0.167,-0.093 -0.39,-0.1954 -0.557,-0.3028 -0.06,-0.039 -0.112,-0.08 -0.168,-0.121 -0.167,-0.094 -0.334,-0.1951 -0.444,-0.2986 -0.06,-0.064 -0.168,-0.1281 -0.28,-0.1954 -0.11,-0.089 -0.222,-0.1858 -0.334,-0.2816 -0.111,-0.092 -0.221,-0.1857 -0.333,-0.2837 -0.06,-0.08 -0.167,-0.1635 -0.222,-0.2475 -0.112,-0.1175 -0.223,-0.2372 -0.334,-0.3607 -0.06,-0.087 -0.168,-0.177 -0.224,-0.2672 -0.06,-0.1214 -0.167,-0.2436 -0.277,-0.3705 -0.06,-0.108 -0.167,-0.2214 -0.223,-0.3344 -0.06,-0.1241 -0.167,-0.2476 -0.223,-0.3762 -0.06,-0.108 -0.111,-0.2179 -0.167,-0.3276 -0.06,-0.1442 -0.168,-0.2876 -0.168,-0.4362 0,-0.082 -0.06,-0.1651 -0.06,-0.247 -0.06,-0.1787 -0.167,-0.3572 -0.167,-0.5421 v -0.171 c -0.06,-0.2165 -0.112,-0.4346 -0.167,-0.6579 v -0.064 c 0,-0.25 -0.06,-0.5038 -0.112,-0.7612 v -0.096 -0.7556 -0.1307 -0.6304 -0.244 c 0,-0.1642 0,-0.3279 0.06,-0.4888 0,-0.1586 0.06,-0.3149 0.111,-0.4718 0,-0.09 0,-0.1833 0.06,-0.2723 0.06,-0.2489 0.166,-0.4962 0.223,-0.738 0.06,-0.2394 0.167,-0.4725 0.334,-0.7033 0,-0.1069 0.111,-0.2086 0.167,-0.3127 0.06,-0.1186 0.111,-0.2382 0.167,-0.3534 0.06,-0.1225 0.166,-0.2406 0.221,-0.3592 0.06,-0.089 0.113,-0.1777 0.168,-0.2646 0.06,-0.1331 0.167,-0.2618 0.334,-0.388 0,-0.063 0.112,-0.1279 0.167,-0.1902 0.112,-0.1308 0.223,-0.2579 0.333,-0.3814 0,-0.056 0.113,-0.1108 0.168,-0.1648 0.112,-0.1208 0.278,-0.238 0.389,-0.3499 0.06,-0.05 0.112,-0.099 0.224,-0.1473 0.167,-0.1136 0.277,-0.2266 0.444,-0.3307 0,-0.017 0,-0.033 0.06,-0.05 0.974,-0.6641 2.098,-1.1311 3.306,-1.3395 v -0.011 c 0.487,-0.084 0.974,-0.1234 1.462,-0.1204 z m 230.872,0 c 0.488,0 0.975,0.037 1.462,0.1204 v 0.011 c 1.208,0.2084 2.332,0.6754 3.306,1.3395 0.06,0.017 0.06,0.033 0.06,0.05 0.167,0.1041 0.28,0.2171 0.447,0.3307 0.11,0.048 0.162,0.097 0.222,0.1473 0.112,0.1119 0.278,0.2291 0.389,0.3499 0.06,0.054 0.168,0.1088 0.168,0.1648 0.111,0.1235 0.223,0.2506 0.334,0.3814 0.06,0.062 0.167,0.1272 0.167,0.1902 0.167,0.1262 0.274,0.2549 0.334,0.388 0.06,0.087 0.106,0.1756 0.166,0.2646 0.06,0.1186 0.163,0.2367 0.224,0.3592 0.06,0.1152 0.106,0.2348 0.166,0.3534 0.06,0.1041 0.168,0.2058 0.168,0.3127 0.167,0.2308 0.274,0.4639 0.334,0.7033 0.06,0.2418 0.162,0.4891 0.221,0.738 0.06,0.089 0.06,0.1823 0.06,0.2723 0.05,0.1569 0.111,0.3132 0.111,0.4718 0.06,0.1609 0.06,0.3246 0.06,0.4888 v 0.244 0.6304 0.1307 0.7556 0.096 c -0.05,0.2574 -0.11,0.5111 -0.11,0.7611 v 0.064 c -0.06,0.2233 -0.107,0.4415 -0.167,0.6579 v 0.171 c 0,0.185 -0.107,0.3634 -0.167,0.5421 0,0.082 -0.06,0.1651 -0.06,0.2471 0,0.1486 -0.107,0.2919 -0.167,0.4362 -0.06,0.1096 -0.106,0.2195 -0.166,0.3275 -0.06,0.1287 -0.163,0.2521 -0.223,0.3762 -0.06,0.1131 -0.162,0.2264 -0.222,0.3344 -0.112,0.127 -0.219,0.2491 -0.279,0.3706 -0.05,0.09 -0.163,0.1801 -0.223,0.2672 -0.112,0.1234 -0.222,0.2431 -0.333,0.3606 -0.06,0.084 -0.163,0.1675 -0.224,0.2476 -0.111,0.098 -0.222,0.1916 -0.333,0.2836 -0.111,0.096 -0.223,0.1927 -0.335,0.2816 -0.11,0.067 -0.217,0.1314 -0.277,0.1954 -0.112,0.1035 -0.279,0.2046 -0.446,0.2986 -0.06,0.041 -0.107,0.082 -0.167,0.121 -0.167,0.1074 -0.39,0.2099 -0.557,0.3028 0,0.012 -0.06,0.028 -0.06,0.045 -0.251,0.108 -0.474,0.208 -0.697,0.296 -2.266,0.8454 -4.881,0.7068 -7.147,-0.6004 -0.584,-0.3387 -1.141,-0.7371 -1.586,-1.1824 -0.468,-0.4454 -0.898,-0.9376 -1.232,-1.466 v -0.011 c -0.167,-0.2428 -0.277,-0.4947 -0.444,-0.7519 -0.05,-0.071 -0.111,-0.143 -0.111,-0.216 -0.06,-0.1866 -0.163,-0.3758 -0.223,-0.5684 -0.05,-0.1097 -0.111,-0.2199 -0.111,-0.3318 -0.107,-0.1586 -0.167,-0.3186 -0.167,-0.4806 -0.05,-0.1403 -0.113,-0.2817 -0.113,-0.4253 -0.06,-0.1147 -0.06,-0.2315 -0.06,-0.3478 -0.167,-0.4856 -0.167,-0.9829 -0.167,-1.4934 0,-2.3606 0.968,-4.4865 2.533,-6.0146 0,-0.029 0.06,-0.051 0.06,-0.079 0.167,-0.1687 0.39,-0.327 0.557,-0.4801 1.438,-1.1463 3.205,-1.7894 5.026,-1.8329 z m -191.463,5.2301 c 1.648,0 2.972,1.3433 2.972,2.99 0,1.6467 -1.324,2.99 -2.972,2.99 -1.642,0 -2.99,-1.3433 -2.99,-2.99 0,-1.6467 1.348,-2.99 2.99,-2.99 z m 152.056,0 c 1.643,0 2.99,1.3433 2.99,2.99 0,1.6467 -1.347,2.99 -2.99,2.99 -1.647,0 -2.973,-1.3433 -2.973,-2.99 0,-1.6467 1.326,-2.99 2.973,-2.99 z m 43.801,23.6399 -36.085,0.3943 -36.089,0.3943 v 1.4728 1.4728 l 33.879,0.3943 33.88,0.3968 v 42.659 h -113.929 -115.863 v -42.7137 h 34.61 34.616 v -2.2092 -2.2092 h -36.825 -36.819 v 25.7752 25.7757 h 119.3 119.303 z m -72.558,5.8658 0.152,24.7887 66.499,0.1002 0.09,-24.8661 z m -92.36,0.024 -33.281,0.3938 -33.285,0.3968 0.06,11.4148 0.06,11.4148 0.04,0.5153 0.06,0.5177 33.139,0.1148 h 0.06 l 33.14,0.1152 v -12.4421 z m 96.317,4.0643 h 12.552 v 6.1733 h -12.552 z m 15.538,0 h 12.553 v 6.1733 h -12.553 z m 15.54,0 h 12.557 v 6.1733 h -12.557 z m 15.532,0 h 12.556 v 6.1733 h -12.556 z m -195.94,0.2646 c 4.211,0 7.624,3.4148 7.625,7.6264 0,4.2125 -3.413,7.6281 -7.625,7.629 -4.214,0 -7.628,-3.4159 -7.628,-7.629 0,-4.2122 3.415,-7.6264 7.628,-7.6264 z m 19.729,0 c 4.211,0 7.625,3.4148 7.627,7.6264 0,4.2125 -3.415,7.6281 -7.627,7.629 -4.214,0 -7.63,-3.4153 -7.63,-7.629 0,-4.2128 3.418,-7.6272 7.63,-7.6264 z m 19.326,0 c 4.211,0 7.625,3.4148 7.626,7.6264 0,4.2125 -3.414,7.6281 -7.626,7.629 -4.214,0 -7.631,-3.4153 -7.631,-7.629 0,-4.2128 3.418,-7.6272 7.631,-7.6264 z m -1.588,0.8806 v 13.4142 h 3.576 v -13.4142 z m -14.289,0.8542 -9.485,9.4847 2.529,2.5285 9.481,-9.4842 z m -30.051,4.2204 v 3.5755 h 13.415 v -3.5755 z m 156.203,4.4328 h 12.552 v 6.1764 h -12.552 z m 15.538,0 h 12.553 v 6.1764 h -12.553 z m 15.54,0 h 12.557 v 6.1764 h -12.557 z m 15.532,0 h 12.556 v 6.1764 h -12.556 z m -209.282,11.2453 v 6.596 h 13.413 v -6.596 z m 14.974,0 v 6.596 h 13.41 v -6.596 z m 14.97,0 v 6.596 h 13.414 v -6.596 z m 14.967,0 v 6.596 h 13.405 v -6.596 z m 14.488,0 v 6.596 h 13.413 v -6.596 z m 14.97,0 v 6.596 h 13.408 v -6.596 z m 62.326,0 v 6.596 h 13.415 v -6.596 z m 14.971,0 v 6.596 h 13.418 v -6.596 z m 14.97,0 v 6.596 h 13.418 v -6.596 z m 14.972,0 v 6.596 h 13.41 v -6.596 z m 14.483,0 v 6.596 h 13.417 v -6.596 z m 14.974,0 v 6.596 h 13.414 v -6.596 z m -109.104,0.601 -1.796,5.7304 -9.082,7.5256 h 20.744 20.696 l -7.599,-7.3788 -1.896,-5.8772 h -11.265 z m -101.961,7.0425 v 6.5959 h 13.413 v -6.5959 z m 14.974,0 v 6.5959 h 13.41 v -6.5959 z m 14.97,0 v 6.5959 h 13.414 v -6.5959 z m 14.967,0 v 6.5959 h 13.405 v -6.5959 z m 14.488,0 v 6.5959 h 13.413 v -6.5959 z m 14.97,0 v 6.5959 h 13.408 v -6.5959 z m 62.326,0 v 6.5959 h 13.415 v -6.5959 z m 14.971,0 v 6.5959 h 13.418 v -6.5959 z m 14.97,0 v 6.5959 h 13.418 v -6.5959 z m 14.972,0 v 6.5959 h 13.41 v -6.5959 z m 14.483,0 v 6.5959 h 13.417 v -6.5959 z m 14.974,0 v 6.5959 h 13.414 v -6.5959 z"
         id="path17598-9"
         inkscape:connector-curvature="0"
         sodipodi:nodetypes="cccccccccccccccccccccccccccccccccccccccccccccccccccccccccccccccccccccccccccccccccccccccccccccccccccccccsccccccccccccccccccccccccccccccccccccccccccccccccccccccccccccccccccccccccccccccccccscccccccccccccccccccccccccccccccccccccccccccccccccccccccccccccccccccccccccccccccccccccccccccccccccccccccccccccccccccccccccccccccccccccsccscccccccccccccccccccccccccccscsccscccccscccccccccccccccccccccsscccccccccccccccccscccccsccscscccccccccccccccccccccccccccsccccsssssscscscccccccccccccccccccccccccccccccccccccccccccccccccccccccccccccccccccccccccccccccccccccccccccccccccccccccccccccccccccccccccccccccccccccccccccccccccccccccccccccccccccccccccccccaccccccccccccccccccccccccccccccccccccccccccccccccccccccccccccccccccc"
         transform="matrix(0.65109011,0,0,0.65109011,-10886.34,-807.31537)" />
      <path
         style="fill:#ef9d10;fill-opacity:0.94117647;stroke-width:0.41112334"
         inkscape:connector-curvature="0"
         id="a91f0ca4-8fb7-4019-9c09-0a52e2c05754-3-1-8"
         data-name="Path 1"
         d="m 17100.352,1513.671 v 26.1421 l -10.737,8.8035 -16.639,-6.0657 v 6.0119 l -9.421,-12.3193 27.457,2.147 v -23.5383 z m -9.152,1.3153 -15.408,-9.3671 v 6.1463 l -14.143,4.1601 -4.241,5.4484 v 12.3733 l 6.066,2.684 v -15.8623 z"
         transform="matrix(0.64356201,0,0,0.64356201,-10756.785,-795.50156)" />
    </g>
  </g>
</svg>
