<?xml version="1.0" encoding="UTF-8" standalone="no"?>
<!-- Created with Inkscape (http://www.inkscape.org/) -->

<svg
   xmlns:dc="http://purl.org/dc/elements/1.1/"
   xmlns:cc="http://creativecommons.org/ns#"
   xmlns:rdf="http://www.w3.org/1999/02/22-rdf-syntax-ns#"
   xmlns:svg="http://www.w3.org/2000/svg"
   xmlns="http://www.w3.org/2000/svg"
   xmlns:xlink="http://www.w3.org/1999/xlink"
   xmlns:sodipodi="http://sodipodi.sourceforge.net/DTD/sodipodi-0.dtd"
   xmlns:inkscape="http://www.inkscape.org/namespaces/inkscape"
   width="187.24634mm"
   height="155.84064mm"
   viewBox="0 0 187.24634 155.84064"
   version="1.1"
   id="svg2456"
   inkscape:version="0.92.5 (2060ec1f9f, 2020-04-08)"
   sodipodi:docname="bg.svg"
   inkscape:export-filename="/home/adm1n/Git/net-sec-presentation/presentation/img/bg.jpg.png"
   inkscape:export-xdpi="96"
   inkscape:export-ydpi="96">
  <defs
     id="defs2450">
    <linearGradient
       inkscape:collect="always"
       id="linearGradient841">
      <stop
         style="stop-color:#ffffff;stop-opacity:1;"
         offset="0"
         id="stop837" />
      <stop
         style="stop-color:#ffffff;stop-opacity:0;"
         offset="1"
         id="stop839" />
    </linearGradient>
    <linearGradient
       id="linearGradient830"
       inkscape:collect="always">
      <stop
         id="stop826"
         offset="0"
         style="stop-color:#4f9aea;stop-opacity:0.387" />
      <stop
         id="stop828"
         offset="1"
         style="stop-color:#809cb9;stop-opacity:0" />
    </linearGradient>
    <radialGradient
       inkscape:collect="always"
       xlink:href="#linearGradient2415"
       id="radialGradient2419"
       cx="12358.718"
       cy="1937.2504"
       fx="12358.718"
       fy="1937.2504"
       r="195.0145"
       gradientTransform="matrix(0.17501142,-0.1023963,0.08134842,0.13903728,-2180.3817,1066.5189)"
       gradientUnits="userSpaceOnUse" />
    <linearGradient
       inkscape:collect="always"
       id="linearGradient2415">
      <stop
         style="stop-color:#4f9aea;stop-opacity:0.54188482"
         offset="0"
         id="stop2411" />
      <stop
         style="stop-color:#869cb3;stop-opacity:0"
         offset="1"
         id="stop2413" />
    </linearGradient>
    <radialGradient
       inkscape:collect="always"
       xlink:href="#linearGradient830"
       id="radialGradient2380"
       cx="12340.653"
       cy="2014.0771"
       fx="12340.653"
       fy="2014.0771"
       r="274.505"
       gradientTransform="matrix(0.24537105,-0.09898174,0.07107585,0.17619367,-3057.9525,970.78267)"
       gradientUnits="userSpaceOnUse" />
    <radialGradient
       inkscape:collect="always"
       xlink:href="#linearGradient2332"
       id="radialGradient2425"
       cx="3244.2654"
       cy="532.87299"
       fx="3244.2654"
       fy="532.87299"
       r="72.603653"
       gradientTransform="matrix(0.69648881,0.50238433,-0.38295195,0.53091174,-1963.1561,-1808.6439)"
       gradientUnits="userSpaceOnUse" />
    <linearGradient
       inkscape:collect="always"
       id="linearGradient2332">
      <stop
         style="stop-color:#bfd0e3;stop-opacity:0.5625"
         offset="0"
         id="stop2328" />
      <stop
         style="stop-color:#4f9aea;stop-opacity:0;"
         offset="1"
         id="stop2330" />
    </linearGradient>
    <radialGradient
       inkscape:collect="always"
       xlink:href="#linearGradient2332"
       id="radialGradient835"
       gradientUnits="userSpaceOnUse"
       gradientTransform="matrix(0.69648881,0.50238433,-0.38295195,0.53091174,-2005.3337,-1881.4528)"
       cx="3244.2654"
       cy="532.87299"
       fx="3244.2654"
       fy="532.87299"
       r="72.603653" />
    <linearGradient
       inkscape:collect="always"
       xlink:href="#linearGradient841"
       id="linearGradient843"
       x1="90.057747"
       y1="101.48685"
       x2="210.88988"
       y2="123.03149"
       gradientUnits="userSpaceOnUse" />
  </defs>
  <sodipodi:namedview
     id="base"
     pagecolor="#ffffff"
     bordercolor="#666666"
     borderopacity="1.0"
     inkscape:pageopacity="0.0"
     inkscape:pageshadow="2"
     inkscape:zoom="0.7"
     inkscape:cx="600.90061"
     inkscape:cy="222.30076"
     inkscape:document-units="mm"
     inkscape:current-layer="layer1"
     showgrid="false"
     inkscape:window-width="1920"
     inkscape:window-height="1007"
     inkscape:window-x="0"
     inkscape:window-y="0"
     inkscape:window-maximized="1" />
  <metadata
     id="metadata2453">
    <rdf:RDF>
      <cc:Work
         rdf:about="">
        <dc:format>image/svg+xml</dc:format>
        <dc:type
           rdf:resource="http://purl.org/dc/dcmitype/StillImage" />
        <dc:title />
      </cc:Work>
    </rdf:RDF>
  </metadata>
  <g
     inkscape:label="Layer 1"
     inkscape:groupmode="layer"
     id="layer1"
     transform="translate(-19.769688,-8.1689657)">
    <path
       style="fill:url(#radialGradient2425);fill-opacity:1;stroke-width:0.0548859"
       d="m 144.73219,44.411586 -20.2441,11.688177 v 23.376343 l 20.2441,11.68818 20.2448,-11.68818 V 56.099763 Z M 81.708688,80.626435 61.463787,92.314615 v 23.376335 l 20.244901,11.68818 20.244302,-11.68818 V 92.314615 Z m 42.228502,0 -20.2448,11.68818 v 23.376335 l 20.2448,11.68818 20.2446,-11.68818 V 92.314615 Z M 40.014587,80.893574 19.769688,92.581765 v 23.376365 l 20.244899,11.68818 20.244301,-11.68818 V 92.581765 Z m 63.017403,36.207636 -20.244903,11.68818 v 23.37633 l 20.244903,11.68818 20.2443,-11.68818 v -23.37633 z m 41.6941,0 -20.2449,11.68818 v 23.37633 l 20.2449,11.68818 20.2443,-11.68818 v -23.37633 z"
       id="path4309-6"
       inkscape:connector-curvature="0"
       inkscape:export-xdpi="96"
       inkscape:export-ydpi="96" />
    <path
       inkscape:connector-curvature="0"
       style="fill:url(#radialGradient2380);fill-opacity:1;stroke-width:0.0548859"
       d="M 60.85437,44.292343 40.609511,55.980524 V 79.356885 L 60.85437,91.045065 81.098699,79.356885 V 55.980524 Z m 41.96133,0 -20.24486,11.688181 v 23.376361 l 20.24486,11.68818 20.24407,-11.68818 V 55.980524 Z m 62.80812,36.615873 -20.24433,11.688154 v 23.37636 l 20.24433,11.68819 20.24459,-11.68819 V 92.59637 Z M 60.85437,117.25689 40.609511,128.94507 v 23.37636 l 20.244859,11.68818 20.244329,-11.68818 v -23.37636 z"
       id="path1658-0"
       inkscape:export-xdpi="96"
       inkscape:export-ydpi="96" />
    <path
       inkscape:connector-curvature="0"
       style="fill:url(#radialGradient2419);fill-opacity:1;stroke-width:0.0548859"
       d="M 124.06492,8.1689657 103.82085,19.857146 v 23.376361 l 20.24407,11.688181 20.24486,-11.688181 V 19.857146 Z m 41.76659,0 -20.24432,11.6881803 v 23.376361 l 20.24432,11.688181 20.2446,-11.688181 V 19.857146 Z M 186.77117,44.454612 166.5271,56.142793 v 23.37636 l 20.24407,11.688154 20.24486,-11.688154 v -23.37636 z"
       id="path2369-1"
       inkscape:export-xdpi="96"
       inkscape:export-ydpi="96" />
    <path
       inkscape:export-ydpi="96"
       inkscape:export-xdpi="96"
       inkscape:connector-curvature="0"
       id="path833"
       d="m 102.55457,-28.397281 -20.2441,11.688177 V 6.667239 l 20.2441,11.68818 20.2448,-11.68818 V -16.709104 Z M 39.531068,7.817568 19.286167,19.505748 V 42.882083 L 39.531068,54.570263 59.77537,42.882083 V 19.505748 Z m 42.228502,0 -20.2448,11.68818 v 23.376335 l 20.2448,11.68818 20.2446,-11.68818 V 19.505748 Z M -2.163033,8.084707 -22.407932,19.772898 v 23.376365 l 20.244899,11.68818 20.244301,-11.68818 V 19.772898 Z M 60.85437,44.292343 40.609467,55.980523 v 23.37633 l 20.244903,11.68818 20.2443,-11.68818 v -23.37633 z m 41.6941,0 -20.2449,11.68818 v 23.37633 l 20.2449,11.68818 20.2443,-11.68818 v -23.37633 z"
       style="fill:url(#radialGradient835);fill-opacity:1;stroke-width:0.0548859" />
    <rect
       style="opacity:0.552;fill:url(#linearGradient843);fill-opacity:1;stroke-width:0.38500765"
       id="rect831"
       width="187.35593"
       height="156.35268"
       x="18.998224"
       y="8.1914692" />
  </g>
</svg>
