<?xml version="1.0" encoding="UTF-8" standalone="no"?>
<!-- Created with Inkscape (http://www.inkscape.org/) -->

<svg
   xmlns:dc="http://purl.org/dc/elements/1.1/"
   xmlns:cc="http://creativecommons.org/ns#"
   xmlns:rdf="http://www.w3.org/1999/02/22-rdf-syntax-ns#"
   xmlns:svg="http://www.w3.org/2000/svg"
   xmlns="http://www.w3.org/2000/svg"
   xmlns:xlink="http://www.w3.org/1999/xlink"
   xmlns:sodipodi="http://sodipodi.sourceforge.net/DTD/sodipodi-0.dtd"
   xmlns:inkscape="http://www.inkscape.org/namespaces/inkscape"
   width="13in"
   height="8.5in"
   viewBox="0 0 330.2 215.9"
   version="1.1"
   id="svg1879"
   inkscape:version="0.92.5 (2060ec1f9f, 2020-04-08)"
   sodipodi:docname="priv_endp_conn.svg">
  <defs
     id="defs1873">
    <marker
       inkscape:isstock="true"
       style="overflow:visible"
       id="marker3405"
       refX="0"
       refY="0"
       orient="auto"
       inkscape:stockid="Arrow1Mend">
      <path
         transform="matrix(-0.4,0,0,-0.4,-4,0)"
         style="fill:#000000;fill-opacity:1;fill-rule:evenodd;stroke:#000000;stroke-width:1.00000003pt;stroke-opacity:1"
         d="M 0,0 5,-5 -12.5,0 5,5 Z"
         id="path3403"
         inkscape:connector-curvature="0" />
    </marker>
    <marker
       inkscape:isstock="true"
       style="overflow:visible"
       id="marker3376"
       refX="0"
       refY="0"
       orient="auto"
       inkscape:stockid="Arrow1Mend">
      <path
         transform="matrix(-0.4,0,0,-0.4,-4,0)"
         style="fill:#000000;fill-opacity:1;fill-rule:evenodd;stroke:#000000;stroke-width:1.00000003pt;stroke-opacity:1"
         d="M 0,0 5,-5 -12.5,0 5,5 Z"
         id="path3374"
         inkscape:connector-curvature="0" />
    </marker>
    <linearGradient
       gradientUnits="userSpaceOnUse"
       gradientTransform="rotate(-0.08,-980.17506,-1454.5652)"
       y2="6.2199998"
       x2="8.7399998"
       y1="2.8099999"
       x1="5.3299999"
       id="bb37dfaa-4390-42b5-a627-52fd73968e3c">
      <stop
         id="stop1318"
         stop-color="#86d633"
         offset="0" />
      <stop
         id="stop1320"
         stop-color="#5e9624"
         offset="1" />
    </linearGradient>
    <linearGradient
       gradientUnits="userSpaceOnUse"
       y2="17.950001"
       x2="15.24"
       y1="14.54"
       x1="11.84"
       id="b0a858c9-0e98-4e4e-9ead-d7a0786c484b">
      <stop
         id="stop1323"
         stop-color="#86d633"
         offset="0" />
      <stop
         id="stop1325"
         stop-color="#5e9624"
         offset="1" />
    </linearGradient>
    <linearGradient
       gradientUnits="userSpaceOnUse"
       y2="17.93"
       x2="2.0599999"
       y1="14.53"
       x1="-1.34"
       id="eee8ab19-1451-41df-b871-13f8a49d17d6">
      <stop
         id="stop1328"
         stop-color="#86d633"
         offset="0" />
      <stop
         id="stop1330"
         stop-color="#5e9624"
         offset="1" />
    </linearGradient>
    <linearGradient
       gradientUnits="userSpaceOnUse"
       y2="20.049999"
       x2="9.1199999"
       y1="-7.79"
       x1="8.5900002"
       id="bd7305f8-8789-4600-a1f2-6594e60eefcc-7"
       gradientTransform="matrix(4.0847411,0,0,4.0847411,2790.3879,105.8327)">
      <stop
         id="stop1490"
         stop-color="#32d4f5"
         offset="0.22" />
      <stop
         id="stop1492"
         stop-color="#31d1f3"
         offset="0.47" />
      <stop
         id="stop1494"
         stop-color="#2ec9eb"
         offset="0.63" />
      <stop
         id="stop1496"
         stop-color="#29bade"
         offset="0.77" />
      <stop
         id="stop1498"
         stop-color="#22a5cb"
         offset="0.89" />
      <stop
         id="stop1500"
         stop-color="#198ab3"
         offset="1" />
      <stop
         id="stop1502"
         stop-color="#198ab3"
         offset="1" />
    </linearGradient>
    <mask
       maskUnits="userSpaceOnUse"
       id="mask5653">
      <path
         sodipodi:type="star"
         style="fill:#ffffff;fill-opacity:1;stroke-width:0.26458332"
         id="path5655"
         sodipodi:sides="6"
         sodipodi:cx="1948.4672"
         sodipodi:cy="429.66962"
         sodipodi:r1="112.68826"
         sodipodi:r2="56.344131"
         sodipodi:arg1="0.78539816"
         sodipodi:arg2="1.3089969"
         inkscape:flatsided="true"
         inkscape:rounded="0"
         inkscape:randomized="0"
         d="m 2028.1498,509.35225 -108.8485,29.16587 -79.6826,-79.68263 29.1658,-108.84851 108.8485,-29.16587 79.6827,79.68264 z"
         inkscape:transform-center-x="-2.2851654e-05"
         inkscape:transform-center-y="2.965739e-05"
         transform="matrix(0.34633179,-0.09279931,0.09279931,0.34633179,32299.278,478.12552)" />
    </mask>
    <linearGradient
       gradientUnits="userSpaceOnUse"
       y2="5.79"
       x2="9"
       y1="15.83"
       x1="9"
       id="ad52e31e-75de-46af-9bdc-bea038ab4209">
      <stop
         id="stop4266"
         stop-color="#32bedd"
         offset="0" />
      <stop
         id="stop4268"
         stop-color="#32caea"
         offset="0.18" />
      <stop
         id="stop4270"
         stop-color="#32d2f2"
         offset="0.41" />
      <stop
         id="stop4272"
         stop-color="#32d4f5"
         offset="0.78" />
    </linearGradient>
    <linearGradient
       gradientUnits="userSpaceOnUse"
       y2="17.25"
       x2="9.0100002"
       y1="0.75"
       x1="9.0100002"
       id="fe5ce43f-2823-4617-bb54-57df9e778372">
      <stop
         id="stop4129"
         stop-color="#5ea0ef"
         offset="0" />
      <stop
         id="stop4131"
         stop-color="#559cec"
         offset="0.18" />
      <stop
         id="stop4133"
         stop-color="#3c91e5"
         offset="0.47" />
      <stop
         id="stop4135"
         stop-color="#1380da"
         offset="0.84" />
      <stop
         id="stop4137"
         stop-color="#0078d4"
         offset="1" />
    </linearGradient>
    <linearGradient
       gradientUnits="userSpaceOnUse"
       y2="1.5"
       x2="9.0100002"
       y1="16.5"
       x1="9.0100002"
       id="fcad3287-b71c-44fa-971a-6a18bcf384a0">
      <stop
         id="stop4205"
         stop-color="#5e9641"
         offset="0" />
      <stop
         id="stop4207"
         stop-color="#6baa42"
         offset="0.34" />
      <stop
         id="stop4209"
         stop-color="#73b743"
         offset="0.67" />
      <stop
         id="stop4211"
         stop-color="#76bb43"
         offset="1" />
    </linearGradient>
    <linearGradient
       gradientUnits="userSpaceOnUse"
       y2="1.02"
       x2="8.8599997"
       y1="13.02"
       x1="8.8599997"
       id="abe3e0fd-f5f5-4d67-8cca-cb6314d5da62">
      <stop
         id="stop3897"
         stop-color="#0078d4"
         offset="0" />
      <stop
         id="stop3899"
         stop-color="#5ea0ef"
         offset="0.82" />
    </linearGradient>
    <linearGradient
       gradientUnits="userSpaceOnUse"
       y2="13.02"
       x2="8.8599997"
       y1="17.65"
       x1="8.8599997"
       id="a49c2fd2-7c71-4d63-b68f-ddf5594dd0b8">
      <stop
         id="stop3902"
         stop-color="#1490df"
         offset="0" />
      <stop
         id="stop3904"
         stop-color="#1f56a3"
         offset="0.98" />
    </linearGradient>
    <linearGradient
       gradientUnits="userSpaceOnUse"
       gradientTransform="rotate(-0.08,-285.46385,-1454.0802)"
       y2="10.23"
       x2="11.52"
       y1="8.5900002"
       x1="9.8800001"
       id="f020fb7e-2243-4501-8153-5d69bd3c34f7">
      <stop
         id="stop4073"
         stop-color="#86d633"
         offset="0" />
      <stop
         id="stop4075"
         stop-color="#5e9624"
         offset="1" />
    </linearGradient>
    <linearGradient
       gradientUnits="userSpaceOnUse"
       y2="10.23"
       x2="7.8099999"
       y1="8.5900002"
       x1="6.1799998"
       id="b3c2bc94-8c7c-48a2-9719-6ee899a43a97">
      <stop
         id="stop4078"
         stop-color="#86d633"
         offset="0" />
      <stop
         id="stop4080"
         stop-color="#5e9624"
         offset="1" />
    </linearGradient>
    <linearGradient
       gradientUnits="userSpaceOnUse"
       y2="10.23"
       x2="4.1100001"
       y1="8.5900002"
       x1="2.48"
       id="e900c35d-0958-4d4f-b28f-302eeaaf52f5">
      <stop
         id="stop4083"
         stop-color="#86d633"
         offset="0" />
      <stop
         id="stop4085"
         stop-color="#5e9624"
         offset="1" />
    </linearGradient>
    <radialGradient
       gradientUnits="userSpaceOnUse"
       gradientTransform="matrix(0.5,0,0,-0.5,3414.91,3374.05)"
       r="17"
       cy="6729.6899"
       cx="-6811.3999"
       id="e7579f4d-36a3-4693-a726-7a6050ac5671">
      <stop
         id="stop4172"
         stop-color="#5ea0ef"
         offset="0.18" />
      <stop
         id="stop4174"
         stop-color="#0078d4"
         offset="1" />
    </radialGradient>
    <linearGradient
       inkscape:collect="always"
       xlink:href="#bb37dfaa-4390-42b5-a627-52fd73968e3c"
       id="linearGradient3386"
       gradientUnits="userSpaceOnUse"
       gradientTransform="rotate(-0.08,-980.17506,-1454.5652)"
       x1="5.3299999"
       y1="2.8099999"
       x2="8.7399998"
       y2="6.2199998" />
    <linearGradient
       inkscape:collect="always"
       xlink:href="#b0a858c9-0e98-4e4e-9ead-d7a0786c484b"
       id="linearGradient3388"
       gradientUnits="userSpaceOnUse"
       x1="11.84"
       y1="14.54"
       x2="15.24"
       y2="17.950001" />
    <linearGradient
       inkscape:collect="always"
       xlink:href="#eee8ab19-1451-41df-b871-13f8a49d17d6"
       id="linearGradient3390"
       gradientUnits="userSpaceOnUse"
       x1="-1.34"
       y1="14.53"
       x2="2.0599999"
       y2="17.93" />
    <linearGradient
       inkscape:collect="always"
       xlink:href="#bd7305f8-8789-4600-a1f2-6594e60eefcc-7"
       id="linearGradient3384"
       gradientUnits="userSpaceOnUse"
       gradientTransform="matrix(4.0847411,0,0,4.0847411,2790.3879,105.8327)"
       x1="8.5900002"
       y1="-7.79"
       x2="9.1199999"
       y2="20.049999" />
    <mask
       maskUnits="userSpaceOnUse"
       id="mask5653-9">
      <path
         sodipodi:type="star"
         style="fill:#ffffff;fill-opacity:1;stroke-width:0.26458332"
         id="path5655-3"
         sodipodi:sides="6"
         sodipodi:cx="1948.4672"
         sodipodi:cy="429.66962"
         sodipodi:r1="112.68826"
         sodipodi:r2="56.344131"
         sodipodi:arg1="0.78539816"
         sodipodi:arg2="1.3089969"
         inkscape:flatsided="true"
         inkscape:rounded="0"
         inkscape:randomized="0"
         d="m 2028.1498,509.35225 -108.8485,29.16587 -79.6826,-79.68263 29.1658,-108.84851 108.8485,-29.16587 79.6827,79.68264 z"
         inkscape:transform-center-x="-2.2851654e-05"
         inkscape:transform-center-y="2.965739e-05"
         transform="matrix(0.34633179,-0.09279931,0.09279931,0.34633179,32299.278,478.12552)" />
    </mask>
    <linearGradient
       inkscape:collect="always"
       xlink:href="#fe5ce43f-2823-4617-bb54-57df9e778372"
       id="linearGradient3380"
       gradientUnits="userSpaceOnUse"
       x1="9.0100002"
       y1="0.75"
       x2="9.0100002"
       y2="17.25" />
    <linearGradient
       inkscape:collect="always"
       xlink:href="#fcad3287-b71c-44fa-971a-6a18bcf384a0"
       id="linearGradient3378"
       gradientUnits="userSpaceOnUse"
       x1="9.0100002"
       y1="16.5"
       x2="9.0100002"
       y2="1.5" />
    <linearGradient
       inkscape:collect="always"
       xlink:href="#f020fb7e-2243-4501-8153-5d69bd3c34f7"
       id="linearGradient3368"
       gradientUnits="userSpaceOnUse"
       gradientTransform="rotate(-0.08,-285.46385,-1454.0802)"
       x1="9.8800001"
       y1="8.5900002"
       x2="11.52"
       y2="10.23" />
    <linearGradient
       inkscape:collect="always"
       xlink:href="#b3c2bc94-8c7c-48a2-9719-6ee899a43a97"
       id="linearGradient3370"
       gradientUnits="userSpaceOnUse"
       x1="6.1799998"
       y1="8.5900002"
       x2="7.8099999"
       y2="10.23" />
    <linearGradient
       inkscape:collect="always"
       xlink:href="#e900c35d-0958-4d4f-b28f-302eeaaf52f5"
       id="linearGradient3372"
       gradientUnits="userSpaceOnUse"
       x1="2.48"
       y1="8.5900002"
       x2="4.1100001"
       y2="10.23" />
    <marker
       inkscape:stockid="Arrow1Mend"
       orient="auto"
       refY="0"
       refX="0"
       id="marker1083"
       style="overflow:visible"
       inkscape:isstock="true"
       inkscape:collect="always">
      <path
         inkscape:connector-curvature="0"
         id="path1081"
         d="M 0,0 5,-5 -12.5,0 5,5 Z"
         style="fill:#000000;fill-opacity:1;fill-rule:evenodd;stroke:#000000;stroke-width:1.00000003pt;stroke-opacity:1"
         transform="matrix(-0.4,0,0,-0.4,-4,0)" />
    </marker>
    <marker
       inkscape:stockid="Arrow1Mend"
       orient="auto"
       refY="0"
       refX="0"
       id="marker1087"
       style="overflow:visible"
       inkscape:isstock="true"
       inkscape:collect="always">
      <path
         inkscape:connector-curvature="0"
         id="path1085"
         d="M 0,0 5,-5 -12.5,0 5,5 Z"
         style="fill:#000000;fill-opacity:1;fill-rule:evenodd;stroke:#000000;stroke-width:1.00000003pt;stroke-opacity:1"
         transform="matrix(-0.4,0,0,-0.4,-4,0)" />
    </marker>
    <marker
       inkscape:isstock="true"
       style="overflow:visible"
       id="marker3376-2"
       refX="0"
       refY="0"
       orient="auto"
       inkscape:stockid="Arrow1Mend">
      <path
         transform="matrix(-0.4,0,0,-0.4,-4,0)"
         style="fill:#000000;fill-opacity:1;fill-rule:evenodd;stroke:#000000;stroke-width:1.00000003pt;stroke-opacity:1"
         d="M 0,0 5,-5 -12.5,0 5,5 Z"
         id="path3374-8"
         inkscape:connector-curvature="0" />
    </marker>
    <marker
       inkscape:isstock="true"
       style="overflow:visible"
       id="marker3405-9"
       refX="0"
       refY="0"
       orient="auto"
       inkscape:stockid="Arrow1Mend">
      <path
         transform="matrix(-0.4,0,0,-0.4,-4,0)"
         style="fill:#000000;fill-opacity:1;fill-rule:evenodd;stroke:#000000;stroke-width:1.00000003pt;stroke-opacity:1"
         d="M 0,0 5,-5 -12.5,0 5,5 Z"
         id="path3403-7"
         inkscape:connector-curvature="0" />
    </marker>
    <marker
       inkscape:isstock="true"
       style="overflow:visible"
       id="marker3376-6"
       refX="0"
       refY="0"
       orient="auto"
       inkscape:stockid="Arrow1Mend">
      <path
         transform="matrix(-0.4,0,0,-0.4,-4,0)"
         style="fill:#000000;fill-opacity:1;fill-rule:evenodd;stroke:#000000;stroke-width:1.00000003pt;stroke-opacity:1"
         d="M 0,0 5,-5 -12.5,0 5,5 Z"
         id="path3374-1"
         inkscape:connector-curvature="0" />
    </marker>
    <marker
       inkscape:isstock="true"
       style="overflow:visible"
       id="marker3405-2"
       refX="0"
       refY="0"
       orient="auto"
       inkscape:stockid="Arrow1Mend">
      <path
         transform="matrix(-0.4,0,0,-0.4,-4,0)"
         style="fill:#000000;fill-opacity:1;fill-rule:evenodd;stroke:#000000;stroke-width:1.00000003pt;stroke-opacity:1"
         d="M 0,0 5,-5 -12.5,0 5,5 Z"
         id="path3403-9"
         inkscape:connector-curvature="0" />
    </marker>
  </defs>
  <sodipodi:namedview
     id="base"
     pagecolor="#ffffff"
     bordercolor="#666666"
     borderopacity="1.0"
     inkscape:pageopacity="0.0"
     inkscape:pageshadow="2"
     inkscape:zoom="1.4"
     inkscape:cx="685.1784"
     inkscape:cy="515.11466"
     inkscape:document-units="mm"
     inkscape:current-layer="layer1"
     showgrid="false"
     inkscape:window-width="1920"
     inkscape:window-height="1007"
     inkscape:window-x="0"
     inkscape:window-y="0"
     inkscape:window-maximized="1"
     units="in"
     inkscape:snap-global="false" />
  <metadata
     id="metadata1876">
    <rdf:RDF>
      <cc:Work
         rdf:about="">
        <dc:format>image/svg+xml</dc:format>
        <dc:type
           rdf:resource="http://purl.org/dc/dcmitype/StillImage" />
        <dc:title></dc:title>
      </cc:Work>
    </rdf:RDF>
  </metadata>
  <g
     inkscape:label="Layer 1"
     inkscape:groupmode="layer"
     id="layer1"
     transform="translate(129.01799,90.500204)">
    <g
       id="g1662"
       transform="translate(-2026.3399,-465.01104)">
      <path
         sodipodi:type="star"
         style="fill:#4f9aea;fill-opacity:1;stroke-width:0.26458332"
         id="path1658"
         sodipodi:sides="6"
         sodipodi:cx="1948.4672"
         sodipodi:cy="429.66962"
         sodipodi:r1="112.68826"
         sodipodi:r2="56.344131"
         sodipodi:arg1="0.78539816"
         sodipodi:arg2="1.3089969"
         inkscape:flatsided="true"
         inkscape:rounded="0"
         inkscape:randomized="0"
         d="m 2028.1498,509.35225 -108.8485,29.16587 -79.6826,-79.68263 29.1658,-108.84851 108.8485,-29.16587 79.6827,79.68264 z"
         inkscape:transform-center-x="-2.2851654e-05"
         inkscape:transform-center-y="2.965739e-05"
         transform="matrix(0.20037434,-0.05369013,0.05369013,0.20037434,1518.8156,525.0212)" />
      <path
         transform="matrix(0.17373549,-0.04655227,0.04655227,0.17373549,1573.7874,522.55921)"
         inkscape:transform-center-y="3.4039249e-05"
         inkscape:transform-center-x="6.4816261e-06"
         d="m 2028.1498,509.35225 -108.8485,29.16587 -79.6826,-79.68263 29.1658,-108.84851 108.8485,-29.16587 79.6827,79.68264 z"
         inkscape:randomized="0"
         inkscape:rounded="0"
         inkscape:flatsided="true"
         sodipodi:arg2="1.3089969"
         sodipodi:arg1="0.78539816"
         sodipodi:r2="56.344131"
         sodipodi:r1="112.68826"
         sodipodi:cy="429.66962"
         sodipodi:cx="1948.4672"
         sodipodi:sides="6"
         id="path1660"
         style="fill:#ffffff;stroke-width:0.26458332"
         sodipodi:type="star" />
    </g>
    <g
       id="g2801"
       transform="translate(14.741072,-27.675461)">
      <path
         transform="matrix(0.26458333,0,0,0.26458333,-129.01799,5.9573443)"
         id="path1664"
         d="m 106.21484,185.08008 0.0137,16.89844 -5.11133,0.0351 v 6.71485 8.9121 l -7.851565,-0.0156 v 7.62109 7.61914 h -2.943359 -2.94336 v 52.00391 24.37109 l 41.208984,-23.79296 v -0.57813 -52.00391 h -2.94336 -2.94336 v -7.62109 -7.61914 l -7.84765,0.0137 v -8.91406 -6.8418 h -5.44922 l -0.26953,-16.80273 z"
         style="fill:#000000;fill-opacity:1;stroke-width:2.02030039"
         inkscape:connector-curvature="0" />
      <path
         id="path1666"
         d="m -104.47288,69.667267 v 3.634531 h 3.63486 v -3.634531 z"
         style="fill:#ffffff;fill-opacity:1;stroke-width:0.53453779"
         inkscape:connector-curvature="0" />
      <path
         id="path1668"
         d="m -99.883872,74.912173 v 3.634526 h 3.634322 v -3.634526 z"
         style="fill:#ffffff;fill-opacity:1;stroke-width:0.53453779"
         inkscape:connector-curvature="0" />
      <path
         id="path1670"
         d="m -104.47288,80.157069 v 3.634536 h 3.63486 v -3.634536 z"
         style="fill:#ffffff;fill-opacity:1;stroke-width:0.53453779"
         inkscape:connector-curvature="0" />
    </g>
    <path
       style="fill:#000000;fill-opacity:1;stroke-width:0.53453779"
       d="m -106.21591,32.716941 v 14.177724 7.823811 l 12.183751,7.034197 0.79685,-0.45992 V 46.894665 32.716941 h -6.49004 z"
       id="path1672"
       inkscape:connector-curvature="0"
       sodipodi:nodetypes="ccccccccc" />
    <path
       inkscape:connector-curvature="0"
       style="fill:#ffffff;fill-opacity:1;stroke-width:0.53453779"
       d="m -104.13867,34.668065 v 1.817279 1.817247 h 1.81689 1.81743 v -1.817247 -1.817279 h -1.81743 z"
       id="path1678" />
    <path
       inkscape:connector-curvature="0"
       style="fill:#ffffff;fill-opacity:1;stroke-width:0.53453779"
       d="m -98.946709,34.668065 v 1.817279 1.817247 h 1.81743 1.8169 v -1.817247 -1.817279 h -1.8169 z"
       id="path1680" />
    <path
       inkscape:connector-curvature="0"
       style="fill:#ffffff;fill-opacity:1;stroke-width:0.53453779"
       d="m -104.13867,39.86025 v 1.817252 1.817258 h 1.81689 1.81743 V 41.677502 39.86025 h -1.81743 z"
       id="path1682" />
    <path
       inkscape:connector-curvature="0"
       style="fill:#ffffff;fill-opacity:1;stroke-width:0.53453779"
       d="m -98.946709,39.86025 v 1.817252 1.817258 h 1.81743 1.8169 V 41.677502 39.86025 h -1.8169 z"
       id="path1684" />
    <path
       inkscape:connector-curvature="0"
       style="fill:#ffffff;fill-opacity:1;stroke-width:0.53453779"
       d="m -104.13867,45.571621 v 1.817268 1.817268 h 1.81689 1.81743 v -1.817268 -1.817268 h -1.81743 z"
       id="path1686" />
    <path
       inkscape:connector-curvature="0"
       style="fill:#ffffff;fill-opacity:1;stroke-width:0.53453779"
       d="m -98.946709,45.571621 v 1.817268 1.817268 h 1.81743 1.8169 v -1.817268 -1.817268 h -1.8169 z"
       id="path1688" />
    <path
       inkscape:connector-curvature="0"
       style="fill:#ffffff;fill-opacity:1;stroke-width:0.53453779"
       d="m -104.13867,50.763806 v 1.817252 1.817257 h 1.81689 1.81743 v -1.817257 -1.817252 h -1.81743 z"
       id="path1690" />
    <path
       inkscape:connector-curvature="0"
       style="fill:#ffffff;fill-opacity:1;stroke-width:0.53453779"
       d="m -98.946709,50.763806 v 1.817252 1.817257 h 1.81743 1.8169 v -1.817257 -1.817252 h -1.8169 z"
       id="path1692" />
    <path
       style="fill:#ffffff;fill-opacity:1;stroke-width:0.53453779"
       d="m -104.13852,55.955914 3.6344,2.055172 v -0.237709 -1.817463 h -1.81746 z"
       id="path1694"
       inkscape:connector-curvature="0" />
    <path
       inkscape:connector-curvature="0"
       style="fill:#ffffff;fill-opacity:1;stroke-width:0.53453779"
       d="m -98.946709,55.955959 v 1.817268 1.817241 h 1.81743 1.8169 v -1.817241 -1.817268 h -1.8169 z"
       id="path1696" />
    <g
       transform="translate(-1888.4478,-465.52221)"
       id="g3168">
      <path
         sodipodi:type="star"
         style="fill:#4f9aea;fill-opacity:1;stroke-width:0.26458332"
         id="path3164"
         sodipodi:sides="6"
         sodipodi:cx="1948.4672"
         sodipodi:cy="429.66962"
         sodipodi:r1="112.68826"
         sodipodi:r2="56.344131"
         sodipodi:arg1="0.78539816"
         sodipodi:arg2="1.3089969"
         inkscape:flatsided="true"
         inkscape:rounded="0"
         inkscape:randomized="0"
         d="m 2028.1498,509.35225 -108.8485,29.16587 -79.6826,-79.68263 29.1658,-108.84851 108.8485,-29.16587 79.6827,79.68264 z"
         inkscape:transform-center-x="-2.2851654e-05"
         inkscape:transform-center-y="2.965739e-05"
         transform="matrix(0.20037434,-0.05369013,0.05369013,0.20037434,1518.8156,525.0212)" />
      <path
         transform="matrix(0.17373549,-0.04655227,0.04655227,0.17373549,1573.7874,522.55921)"
         inkscape:transform-center-y="3.4039249e-05"
         inkscape:transform-center-x="6.4816261e-06"
         d="m 2028.1498,509.35225 -108.8485,29.16587 -79.6826,-79.68263 29.1658,-108.84851 108.8485,-29.16587 79.6827,79.68264 z"
         inkscape:randomized="0"
         inkscape:rounded="0"
         inkscape:flatsided="true"
         sodipodi:arg2="1.3089969"
         sodipodi:arg1="0.78539816"
         sodipodi:r2="56.344131"
         sodipodi:r1="112.68826"
         sodipodi:cy="429.66962"
         sodipodi:cx="1948.4672"
         sodipodi:sides="6"
         id="path3166"
         style="fill:#ffffff;stroke-width:0.26458332"
         sodipodi:type="star" />
    </g>
    <g
       transform="matrix(1.693948,0,0,1.693948,28.973306,25.598255)"
       id="g3184">
      <circle
         style="fill:url(#linearGradient3368)"
         cx="12.74"
         cy="8.9899998"
         r="1.16"
         id="circle3170" />
      <circle
         style="fill:url(#linearGradient3370)"
         cx="9.04"
         cy="9"
         r="1.16"
         id="circle3172" />
      <circle
         style="fill:url(#linearGradient3372)"
         cx="5.3400002"
         cy="9"
         r="1.16"
         id="circle3174" />
      <path
         style="fill:#50e6ff"
         inkscape:connector-curvature="0"
         d="m 2.61,7.28 h 0.94 a 0.3,0.3 0 0 1 0.3,0.3 v 6.94 a 0.6,0.6 0 0 1 -0.6,0.6 H 2.31 V 7.58 a 0.3,0.3 0 0 1 0.3,-0.3 z"
         transform="rotate(134.92,3.0767566,11.200059)"
         id="path3176" />
      <path
         style="fill:#1490df"
         inkscape:connector-curvature="0"
         d="M 2.56,2.91 H 3.5 a 0.3,0.3 0 0 1 0.3,0.3 v 7.43 H 2.86 a 0.6,0.6 0 0 1 -0.6,-0.6 V 3.21 a 0.3,0.3 0 0 1 0.3,-0.3 z"
         transform="rotate(44.92,3.0235191,6.7657382)"
         id="path3178" />
      <path
         style="fill:#50e6ff"
         inkscape:connector-curvature="0"
         d="m 14.15,7.28 h 0.94 a 0.6,0.6 0 0 1 0.6,0.6 v 6.94 a 0.3,0.3 0 0 1 -0.3,0.3 h -0.94 a 0.3,0.3 0 0 1 -0.3,-0.3 z"
         transform="rotate(45.08,14.930414,11.202239)"
         id="path3180" />
      <path
         style="fill:#1490df"
         inkscape:connector-curvature="0"
         d="m 14.81,2.91 h 0.94 v 7.43 a 0.3,0.3 0 0 1 -0.3,0.3 H 14.5 a 0.3,0.3 0 0 1 -0.3,-0.3 V 3.51 a 0.6,0.6 0 0 1 0.6,-0.6 z"
         transform="rotate(135.08,14.975369,6.7703496)"
         id="path3182" />
    </g>
    <g
       transform="translate(-1846.2192,-465.52221)"
       id="g3190">
      <path
         transform="matrix(0.20037434,-0.05369013,0.05369013,0.20037434,1518.8156,525.0212)"
         inkscape:transform-center-y="2.965739e-05"
         inkscape:transform-center-x="-2.2851654e-05"
         d="m 2028.1498,509.35225 -108.8485,29.16587 -79.6826,-79.68263 29.1658,-108.84851 108.8485,-29.16587 79.6827,79.68264 z"
         inkscape:randomized="0"
         inkscape:rounded="0"
         inkscape:flatsided="true"
         sodipodi:arg2="1.3089969"
         sodipodi:arg1="0.78539816"
         sodipodi:r2="56.344131"
         sodipodi:r1="112.68826"
         sodipodi:cy="429.66962"
         sodipodi:cx="1948.4672"
         sodipodi:sides="6"
         id="path3186"
         style="fill:#4f9aea;fill-opacity:1;stroke-width:0.26458332"
         sodipodi:type="star" />
      <path
         sodipodi:type="star"
         style="fill:#ffffff;stroke-width:0.26458332"
         id="path3188"
         sodipodi:sides="6"
         sodipodi:cx="1948.4672"
         sodipodi:cy="429.66962"
         sodipodi:r1="112.68826"
         sodipodi:r2="56.344131"
         sodipodi:arg1="0.78539816"
         sodipodi:arg2="1.3089969"
         inkscape:flatsided="true"
         inkscape:rounded="0"
         inkscape:randomized="0"
         d="m 2028.1498,509.35225 -108.8485,29.16587 -79.6826,-79.68263 29.1658,-108.84851 108.8485,-29.16587 79.6827,79.68264 z"
         inkscape:transform-center-x="6.4816261e-06"
         inkscape:transform-center-y="3.4039249e-05"
         transform="matrix(0.17373549,-0.04655227,0.04655227,0.17373549,1573.7874,522.55921)" />
    </g>
    <g
       transform="matrix(1.4801324,0,0,1.4801324,72.767139,27.659121)"
       id="g3240">
      <path
         style="fill:#ffca00"
         inkscape:connector-curvature="0"
         d="m 15.89,2.91 h 1.27 a 0.34,0.34 0 0 1 0.34,0.34 v 3.5 a 0.34,0.34 0 0 1 -0.34,0.34 h -1.27 z"
         id="path3216" />
      <path
         style="fill:#ffca00"
         inkscape:connector-curvature="0"
         d="m 15.89,9 h 1.27 a 0.34,0.34 0 0 1 0.34,0.34 v 5.86 a 0.34,0.34 0 0 1 -0.34,0.34 h -1.27 z"
         id="path3218" />
      <rect
         style="fill:url(#linearGradient3378)"
         x="2.1300001"
         y="1.5"
         width="13.76"
         height="15"
         rx="0.69"
         id="rect3220" />
      <path
         style="fill:#b4ec36"
         inkscape:connector-curvature="0"
         d="M 5.9,12.9 H 5.19 A 0.2,0.2 0 0 1 5,12.69 V 4.34 A 0.19,0.19 0 0 1 5.19,4.14 H 7.12 A 0.19,0.19 0 0 1 7.31,4.34 0.2,0.2 0 0 1 7.12,4.55 H 5.38 v 7.93 H 5.9 A 0.2,0.2 0 0 1 6.09,12.69 0.21,0.21 0 0 1 5.9,12.9 Z"
         id="path3222" />
      <path
         style="fill:#b4ec36"
         inkscape:connector-curvature="0"
         d="M 6,13.92 H 4.4 A 0.2,0.2 0 0 1 4.21,13.71 L 4.08,3.38 A 0.2,0.2 0 0 1 4.14,3.23 0.16,0.16 0 0 1 4.27,3.17 H 7.12 V 3.58 H 4.47 L 4.59,13.5 H 6 Z"
         id="path3224" />
      <path
         style="fill:#b4ec36"
         inkscape:connector-curvature="0"
         d="M 12,13 H 10.41 A 0.19,0.19 0 0 1 10.27,12.93 0.18,0.18 0 0 1 10.21,12.79 V 7.9 A 0.19,0.19 0 0 1 10.4,7.7 h 0.91 V 5.45 h 0.38 V 7.89 A 0.2,0.2 0 0 1 11.51,8.1 H 10.6 v 4.42 H 12 Z"
         id="path3226" />
      <rect
         style="fill:#365615"
         x="7.0700002"
         y="2.29"
         width="6.1399999"
         height="3.1099999"
         rx="0.25999999"
         id="rect3228" />
      <rect
         style="fill:#365615"
         x="5.8600001"
         y="12.69"
         width="4.9000001"
         height="1.09"
         rx="0.25999999"
         transform="rotate(90,8.305,13.235)"
         id="rect3230" />
      <rect
         style="fill:#365615"
         x="3.99"
         y="12.71"
         width="4.9000001"
         height="1.09"
         rx="0.25999999"
         transform="rotate(90,6.44,13.26)"
         id="rect3232" />
      <rect
         style="fill:#f2f2f2"
         x="9.9799995"
         y="12.71"
         width="4.9000001"
         height="1.09"
         rx="0.25999999"
         transform="rotate(90,12.425,13.255)"
         id="rect3234" />
      <ellipse
         style="fill:#f2f2f2"
         cx="8.1099997"
         cy="8.0600004"
         rx="1.04"
         ry="1.12"
         id="ellipse3236" />
      <path
         style="fill:#3b3b3b"
         inkscape:connector-curvature="0"
         d="M 0.5,5.7 H 1.77 A 0.34,0.34 0 0 1 2.11,6 v 5.86 A 0.34,0.34 0 0 1 1.77,12.2 H 0.5 Z"
         transform="rotate(180,1.305,8.975)"
         id="path3238" />
    </g>
    <g
       id="g3246"
       transform="translate(-1867.1246,-429.0475)">
      <path
         sodipodi:type="star"
         style="fill:#4f9aea;fill-opacity:1;stroke-width:0.26458332"
         id="path3242"
         sodipodi:sides="6"
         sodipodi:cx="1948.4672"
         sodipodi:cy="429.66962"
         sodipodi:r1="112.68826"
         sodipodi:r2="56.344131"
         sodipodi:arg1="0.78539816"
         sodipodi:arg2="1.3089969"
         inkscape:flatsided="true"
         inkscape:rounded="0"
         inkscape:randomized="0"
         d="m 2028.1498,509.35225 -108.8485,29.16587 -79.6826,-79.68263 29.1658,-108.84851 108.8485,-29.16587 79.6827,79.68264 z"
         inkscape:transform-center-x="-2.2851654e-05"
         inkscape:transform-center-y="2.965739e-05"
         transform="matrix(0.20037434,-0.05369013,0.05369013,0.20037434,1518.8156,525.0212)" />
      <path
         transform="matrix(0.17373549,-0.04655227,0.04655227,0.17373549,1573.7874,522.55921)"
         inkscape:transform-center-y="3.4039249e-05"
         inkscape:transform-center-x="6.4816261e-06"
         d="m 2028.1498,509.35225 -108.8485,29.16587 -79.6826,-79.68263 29.1658,-108.84851 108.8485,-29.16587 79.6827,79.68264 z"
         inkscape:randomized="0"
         inkscape:rounded="0"
         inkscape:flatsided="true"
         sodipodi:arg2="1.3089969"
         sodipodi:arg1="0.78539816"
         sodipodi:r2="56.344131"
         sodipodi:r1="112.68826"
         sodipodi:cy="429.66962"
         sodipodi:cx="1948.4672"
         sodipodi:sides="6"
         id="path3244"
         style="fill:#ffffff;stroke-width:0.26458332"
         sodipodi:type="star" />
    </g>
    <g
       transform="matrix(1.5784397,0,0,1.5784397,50.976849,63.250976)"
       id="g3258">
      <path
         style="fill:#0078d4"
         inkscape:connector-curvature="0"
         d="m 16.36,8.4 c 0,4.84 -5.85,8.74 -7.12,9.53 a 0.46,0.46 0 0 1 -0.48,0 C 7.49,17.14 1.64,13.24 1.64,8.4 V 2.58 A 0.46,0.46 0 0 1 2.09,2.12 C 6.64,2 5.59,0 9,0 c 3.41,0 2.36,2 6.91,2.12 a 0.46,0.46 0 0 1 0.45,0.46 z"
         id="path3248" />
      <path
         style="fill:#6bb9f2"
         inkscape:connector-curvature="0"
         d="m 15.75,8.45 c 0,4.44 -5.36,8 -6.53,8.74 a 0.43,0.43 0 0 1 -0.44,0 C 7.61,16.47 2.25,12.89 2.25,8.45 V 3.11 A 0.42,0.42 0 0 1 2.66,2.69 C 6.83,2.58 5.87,0.75 9,0.75 c 3.13,0 2.17,1.83 6.34,1.94 a 0.42,0.42 0 0 1 0.41,0.42 z"
         id="path3250" />
      <path
         style="fill:url(#linearGradient3380)"
         inkscape:connector-curvature="0"
         d="M 9,9 V 0.75 c 3.13,0 2.17,1.83 6.34,1.94 a 0.43,0.43 0 0 1 0.41,0.43 v 5.34 a 4.89,4.89 0 0 1 0,0.54 z M 9,9 H 2.28 c 0.4,4.18 5.38,7.5 6.5,8.19 a 0.39,0.39 0 0 0 0.18,0.06 H 9 Z"
         id="path3252" />
      <path
         style="fill:#50e6ff"
         inkscape:connector-curvature="0"
         d="M 2.66,2.69 C 6.83,2.58 5.87,0.75 9,0.75 V 9 H 2.28 a 4.89,4.89 0 0 1 0,-0.54 V 3.12 A 0.43,0.43 0 0 1 2.66,2.69 Z"
         id="path3254" />
      <path
         style="fill:#50e6ff"
         inkscape:connector-curvature="0"
         d="M 15.72,9 H 9 v 8.25 0 A 0.39,0.39 0 0 0 9.18,17.19 C 10.34,16.5 15.32,13.18 15.72,9 Z"
         id="path3256" />
    </g>
    <g
       transform="translate(-1804.2837,-465.52221)"
       id="g3264">
      <path
         transform="matrix(0.20037434,-0.05369013,0.05369013,0.20037434,1518.8156,525.0212)"
         inkscape:transform-center-y="2.965739e-05"
         inkscape:transform-center-x="-2.2851654e-05"
         d="m 2028.1498,509.35225 -108.8485,29.16587 -79.6826,-79.68263 29.1658,-108.84851 108.8485,-29.16587 79.6827,79.68264 z"
         inkscape:randomized="0"
         inkscape:rounded="0"
         inkscape:flatsided="true"
         sodipodi:arg2="1.3089969"
         sodipodi:arg1="0.78539816"
         sodipodi:r2="56.344131"
         sodipodi:r1="112.68826"
         sodipodi:cy="429.66962"
         sodipodi:cx="1948.4672"
         sodipodi:sides="6"
         id="path3260"
         style="fill:#4f9aea;fill-opacity:1;stroke-width:0.26458332"
         sodipodi:type="star" />
      <path
         sodipodi:type="star"
         style="fill:#ffffff;stroke-width:0.26458332"
         id="path3262"
         sodipodi:sides="6"
         sodipodi:cx="1948.4672"
         sodipodi:cy="429.66962"
         sodipodi:r1="112.68826"
         sodipodi:r2="56.344131"
         sodipodi:arg1="0.78539816"
         sodipodi:arg2="1.3089969"
         inkscape:flatsided="true"
         inkscape:rounded="0"
         inkscape:randomized="0"
         d="m 2028.1498,509.35225 -108.8485,29.16587 -79.6826,-79.68263 29.1658,-108.84851 108.8485,-29.16587 79.6827,79.68264 z"
         inkscape:transform-center-x="6.4816261e-06"
         inkscape:transform-center-y="3.4039249e-05"
         transform="matrix(0.17373549,-0.04655227,0.04655227,0.17373549,1573.7874,522.55921)" />
    </g>
    <rect
       style="opacity:1;fill:#4f9aea;fill-opacity:1;stroke-width:0.26340741"
       id="rect3280"
       width="59.734737"
       height="5.3453903"
       x="-76.207718"
       y="38.818783" />
    <g
       transform="translate(-1930.1419,-465.25496)"
       id="g3334">
      <path
         sodipodi:type="star"
         style="fill:#4f9aea;fill-opacity:1;stroke-width:0.26458332"
         id="path3330"
         sodipodi:sides="6"
         sodipodi:cx="1948.4672"
         sodipodi:cy="429.66962"
         sodipodi:r1="112.68826"
         sodipodi:r2="56.344131"
         sodipodi:arg1="0.78539816"
         sodipodi:arg2="1.3089969"
         inkscape:flatsided="true"
         inkscape:rounded="0"
         inkscape:randomized="0"
         d="m 2028.1498,509.35225 -108.8485,29.16587 -79.6826,-79.68263 29.1658,-108.84851 108.8485,-29.16587 79.6827,79.68264 z"
         inkscape:transform-center-x="-2.2851654e-05"
         inkscape:transform-center-y="2.965739e-05"
         transform="matrix(0.20037434,-0.05369013,0.05369013,0.20037434,1518.8156,525.0212)" />
      <path
         transform="matrix(0.17373549,-0.04655227,0.04655227,0.17373549,1573.7874,522.55921)"
         inkscape:transform-center-y="3.4039249e-05"
         inkscape:transform-center-x="6.4816261e-06"
         d="m 2028.1498,509.35225 -108.8485,29.16587 -79.6826,-79.68263 29.1658,-108.84851 108.8485,-29.16587 79.6827,79.68264 z"
         inkscape:randomized="0"
         inkscape:rounded="0"
         inkscape:flatsided="true"
         sodipodi:arg2="1.3089969"
         sodipodi:arg1="0.78539816"
         sodipodi:r2="56.344131"
         sodipodi:r1="112.68826"
         sodipodi:cy="429.66962"
         sodipodi:cx="1948.4672"
         sodipodi:sides="6"
         id="path3332"
         style="fill:#ffffff;stroke-width:0.26458332"
         sodipodi:type="star" />
    </g>
    <g
       id="g3352"
       transform="matrix(0.39830182,0,0,0.39830182,-1123.7157,-17.339307)">
      <path
         style="fill:url(#linearGradient3384);stroke-width:4.08474112"
         id="path3336"
         d="m 2851.9041,141.24741 h -4.0847 V 128.6664 a 23.732346,23.732346 0 0 0 -6.0863,-16.01218 19.56591,19.56591 0 0 0 -14.9502,-6.82152 19.56591,19.56591 0 0 0 -15.1135,6.82152 23.405567,23.405567 0 0 0 -6.0863,16.01218 v 12.58101 h -3.3086 a 2.8593188,2.8593188 0 0 0 -2.8185,2.81847 v 32.67793 a 2.8593188,2.8593188 0 0 0 2.8185,2.81847 h 49.6296 a 2.9001662,2.9001662 0 0 0 2.8593,-2.81847 v -32.67793 a 2.9001662,2.9001662 0 0 0 -2.8593,-2.81847 z m -13.7656,0 h -22.7111 v -12.78524 a 12.989477,12.989477 0 0 1 3.5537,-8.7822 10.2527,10.2527 0 0 1 7.6793,-3.51288 10.375242,10.375242 0 0 1 7.7202,3.51288 13.030324,13.030324 0 0 1 1.3071,1.75644 v 0 a 12.254223,12.254223 0 0 1 2.4917,6.98491 z"
         inkscape:connector-curvature="0" />
      <path
         id="path3338"
         d="m 2851.9272,141.20802 h -49.7113 a 2.6959291,2.6959291 0 0 0 -1.7972,0.6944 l 53.3058,36.76267 a 2.7367765,2.7367765 0 0 0 1.0212,-2.12406 V 143.8631 a 2.9001662,2.9001662 0 0 0 -2.8185,-2.65508 z"
         inkscape:connector-curvature="0"
         style="fill:#50e6ff;stroke-width:4.08474112" />
      <path
         id="path3340"
         d="m 2822.4361,150.48192 4.5058,-4.5058 a 0.23967024,0.23967024 0 0 1 0.3356,0 l 4.6256,4.5058 a 0.21570322,0.21570322 0 0 1 -0.1677,0.38348 h -2.7562 a 0.23967024,0.23967024 0 0 0 -0.2398,0.23966 v 5.82399 a 0.21570322,0.21570322 0 0 1 -0.2156,0.2157 h -2.8042 a 0.21570322,0.21570322 0 0 1 -0.2396,-0.2157 v -5.82399 a 0.23967024,0.23967024 0 0 0 -0.2157,-0.23966 h -2.6604 a 0.23967024,0.23967024 0 0 1 -0.1678,-0.38348 z"
         style="fill:#ffffff;stroke-width:2.39670253"
         inkscape:connector-curvature="0" />
      <path
         id="path3342"
         transform="scale(0.26458333)"
         d="m 10787.836,538.77539 -201.857,138.40039 a 10.806874,10.806874 0 0 0 5.294,1.48438 h 187.577 a 10.961258,10.961258 0 0 0 10.806,-10.65235 V 544.5 a 10.961258,10.961258 0 0 0 -1.82,-5.72461 z"
         style="opacity:0.17700004;fill:#000000;stroke-width:15.43839169"
         inkscape:connector-curvature="0" />
      <path
         id="path3344"
         d="m 2831.9031,171.18943 -4.6256,4.5058 a 0.23967024,0.23967024 0 0 1 -0.3356,0 l -4.5058,-4.5058 a 0.23967024,0.23967024 0 0 1 0.1678,-0.38347 h 2.6604 a 0.23967024,0.23967024 0 0 0 0.2157,-0.23967 v -5.82399 a 0.21570322,0.21570322 0 0 1 0.2396,-0.2157 h 2.8042 a 0.21570322,0.21570322 0 0 1 0.2156,0.2157 v 5.82399 a 0.23967024,0.23967024 0 0 0 0.2398,0.23967 h 2.6363 a 0.23967958,0.23967958 0 0 1 0.2876,0.38347 z"
         style="fill:#ffffff;stroke-width:2.39670253"
         inkscape:connector-curvature="0" />
      <g
         transform="translate(-0.2052)"
         id="g3350">
        <path
           style="fill:#ffffff;stroke-width:2.39670253"
           d="m 2816.8195,165.24561 v -2.63637 a 0.26363727,0.26363727 0 0 0 -0.2397,-0.23967 h -5.8239 a 0.23967024,0.23967024 0 0 1 -0.2397,-0.21571 v -2.80414 a 0.26363727,0.26363727 0 0 1 0.2397,-0.23967 h 5.8239 a 0.23967024,0.23967024 0 0 0 0.2397,-0.2157 v -2.66034 a 0.21570322,0.21570322 0 0 1 0.3835,-0.19174 l 4.5057,4.55373 a 0.21570322,0.21570322 0 0 1 0,0.31158 l -4.5057,4.5058 a 0.21570322,0.21570322 0 0 1 -0.3835,-0.16777 z"
           id="path3346"
           inkscape:connector-curvature="0" />
        <path
           style="fill:#ffffff;stroke-width:2.39670253"
           d="m 2837.8103,156.23401 v 2.66034 a 0.23967024,0.23967024 0 0 0 0.2397,0.2157 h 5.824 a 0.26363727,0.26363727 0 0 1 0.2396,0.23967 v 2.80414 a 0.23967024,0.23967024 0 0 1 -0.2396,0.21571 h -5.824 a 0.26363727,0.26363727 0 0 0 -0.2397,0.23967 v 2.63637 a 0.21570322,0.21570322 0 0 1 -0.3835,0.16777 l -4.5058,-4.5777 a 0.21570322,0.21570322 0 0 1 0,-0.31157 l 4.5058,-4.48184 a 0.21570322,0.21570322 0 0 1 0.3835,0.19174 z"
           id="path3348"
           inkscape:connector-curvature="0" />
      </g>
    </g>
    <g
       transform="matrix(1.976532,0,0,1.976532,-64557.442,-2178.709)"
       id="g41293">
      <g
         id="g41285">
        <path
           style="fill:#3999c6;stroke-width:0.26458332"
           inkscape:connector-curvature="0"
           d="m 32734.108,1125.9298 c 0.149,-0.149 0.119,-0.3873 0,-0.5363 l -0.715,-0.7151 -3.218,-3.1284 c -0.149,-0.1489 -0.358,-0.1489 -0.507,0 v 0 c -0.149,0.149 -0.178,0.3874 0,0.5363 l 3.367,3.3072 c 0.149,0.149 0.149,0.3873 0,0.5363 l -3.426,3.4263 c -0.149,0.149 -0.149,0.3873 0,0.5363 v 0 c 0.149,0.149 0.387,0.1192 0.506,0 l 3.188,-3.1582 c 0,0 0,0 0.03,-0.03 z"
           id="path41281" />
        <path
           style="fill:#3999c6;stroke-width:0.26458332"
           inkscape:connector-curvature="0"
           d="m 32719.389,1125.9298 c -0.149,-0.149 -0.119,-0.3873 0,-0.5363 l 0.715,-0.7151 3.218,-3.1284 c 0.149,-0.1489 0.358,-0.1489 0.507,0 v 0 c 0.149,0.149 0.178,0.3874 0,0.5363 l -3.307,3.3072 c -0.149,0.149 -0.149,0.3873 0,0.5363 l 3.366,3.4263 c 0.149,0.149 0.149,0.3873 0,0.5363 v 0 c -0.149,0.149 -0.387,0.1192 -0.506,0 l -3.248,-3.1284 c 0,0 0,0 -0.03,-0.03 z"
           id="path41283" />
      </g>
      <path
         style="fill:none;stroke:#808080;stroke-width:0.69999999;stroke-linecap:butt;stroke-linejoin:miter;stroke-miterlimit:4;stroke-dasharray:none;stroke-opacity:1"
         d="m 32726.735,1117.4667 v 8.4233"
         id="path41287"
         inkscape:connector-curvature="0" />
      <path
         id="path41289"
         d="m 32728.507,1125.7159 c 0,0.9826 -0.828,1.7066 -1.707,1.7066 -0.88,0 -1.81,-0.8274 -1.81,-1.7066 0,-0.8792 0.826,-1.7067 1.81,-1.7067 0.983,0 1.707,0.8275 1.707,1.7067 z"
         inkscape:connector-curvature="0"
         style="fill:#7fba00;stroke-width:0.45927221" />
      <path
         style="fill:#59b4d9;fill-opacity:1;stroke-width:0.36192662"
         inkscape:connector-curvature="0"
         d="m 32728.135,1117.396 c 0,0.7743 -0.653,1.3448 -1.346,1.3448 -0.693,0 -1.426,-0.652 -1.426,-1.3448 0,-0.6929 0.651,-1.345 1.426,-1.345 0.775,0 1.346,0.6521 1.346,1.345 z"
         id="path41291" />
    </g>
    <g
       transform="translate(-2897.8204,-456.13384)"
       id="g3524">
      <g
         transform="rotate(60,2382.5086,1340.1943)"
         id="g3328">
        <path
           sodipodi:type="star"
           style="fill:#4f9aea;fill-opacity:1;stroke-width:0.26458332"
           id="path3324"
           sodipodi:sides="6"
           sodipodi:cx="1948.4672"
           sodipodi:cy="429.66962"
           sodipodi:r1="112.68826"
           sodipodi:r2="56.344131"
           sodipodi:arg1="0.78539816"
           sodipodi:arg2="1.3089969"
           inkscape:flatsided="true"
           inkscape:rounded="0"
           inkscape:randomized="0"
           d="m 2028.1498,509.35225 -108.8485,29.16587 -79.6826,-79.68263 29.1658,-108.84851 108.8485,-29.16587 79.6827,79.68264 z"
           inkscape:transform-center-x="-2.2851654e-05"
           inkscape:transform-center-y="2.965739e-05"
           transform="matrix(0.20037434,-0.05369013,0.05369013,0.20037434,1518.8156,525.0212)" />
        <path
           transform="matrix(0.17373549,-0.04655227,0.04655227,0.17373549,1573.7874,522.55921)"
           inkscape:transform-center-y="3.4039249e-05"
           inkscape:transform-center-x="6.4816261e-06"
           d="m 2028.1498,509.35225 -108.8485,29.16587 -79.6826,-79.68263 29.1658,-108.84851 108.8485,-29.16587 79.6827,79.68264 z"
           inkscape:randomized="0"
           inkscape:rounded="0"
           inkscape:flatsided="true"
           sodipodi:arg2="1.3089969"
           sodipodi:arg1="0.78539816"
           sodipodi:r2="56.344131"
           sodipodi:r1="112.68826"
           sodipodi:cy="429.66962"
           sodipodi:cx="1948.4672"
           sodipodi:sides="6"
           id="path3326"
           style="fill:#ffffff;stroke-width:0.26458332"
           sodipodi:type="star" />
      </g>
      <g
         id="g3366"
         transform="matrix(1.5220176,0,0,1.5220176,2865.7081,517.92273)">
        <rect
           id="rect3354"
           transform="rotate(30,5.7226022,8.9666334)"
           height="9.5"
           width="1.98"
           y="4.21"
           x="4.7399998"
           style="fill:#a67af4" />
        <rect
           id="rect3356"
           transform="rotate(-30,12.199306,9.1087942)"
           height="9.5"
           width="1.98"
           y="4.3699999"
           x="11.21"
           style="fill:#a67af4" />
        <rect
           id="rect3358"
           transform="rotate(90,8.895,14.715)"
           height="9.5"
           width="1.98"
           y="9.9700003"
           x="7.9000001"
           style="fill:#773adc" />
        <circle
           id="circle3360"
           r="2.4100001"
           cy="3.1400001"
           cx="9.0699997"
           style="fill:url(#linearGradient3386)" />
        <circle
           id="circle3362"
           r="2.4100001"
           cy="14.86"
           cx="15.59"
           style="fill:url(#linearGradient3388)" />
        <circle
           id="circle3364"
           r="2.4100001"
           cy="14.86"
           cx="2.4100001"
           style="fill:url(#linearGradient3390)" />
      </g>
      <path
         sodipodi:type="star"
         style="opacity:0.45899999;fill:#ffffff;fill-opacity:1;stroke-width:0.26458332"
         id="path3392"
         sodipodi:sides="6"
         sodipodi:cx="1948.4672"
         sodipodi:cy="429.66962"
         sodipodi:r1="112.68826"
         sodipodi:r2="56.344131"
         sodipodi:arg1="0.78539816"
         sodipodi:arg2="1.3089969"
         inkscape:flatsided="true"
         inkscape:rounded="0"
         inkscape:randomized="0"
         d="m 2028.1498,509.35225 -108.8485,29.16587 -79.6826,-79.68263 29.1658,-108.84851 108.8485,-29.16587 79.6827,79.68264 z"
         inkscape:transform-center-x="-2.2851654e-05"
         inkscape:transform-center-y="2.965739e-05"
         transform="matrix(0.14668419,0.1466842,-0.1466842,0.14668419,2656.6227,184.62767)" />
    </g>
    <g
       id="g3404"
       transform="translate(-1867.2167,-501.9969)">
      <path
         sodipodi:type="star"
         style="fill:#4f9aea;fill-opacity:1;stroke-width:0.26458332"
         id="path3400"
         sodipodi:sides="6"
         sodipodi:cx="1948.4672"
         sodipodi:cy="429.66962"
         sodipodi:r1="112.68826"
         sodipodi:r2="56.344131"
         sodipodi:arg1="0.78539816"
         sodipodi:arg2="1.3089969"
         inkscape:flatsided="true"
         inkscape:rounded="0"
         inkscape:randomized="0"
         d="m 2028.1498,509.35225 -108.8485,29.16587 -79.6826,-79.68263 29.1658,-108.84851 108.8485,-29.16587 79.6827,79.68264 z"
         inkscape:transform-center-x="-2.2851654e-05"
         inkscape:transform-center-y="2.965739e-05"
         transform="matrix(0.20037434,-0.05369013,0.05369013,0.20037434,1518.8156,525.0212)" />
      <path
         transform="matrix(0.17373549,-0.04655227,0.04655227,0.17373549,1573.7874,522.55921)"
         inkscape:transform-center-y="3.4039249e-05"
         inkscape:transform-center-x="6.4816261e-06"
         d="m 2028.1498,509.35225 -108.8485,29.16587 -79.6826,-79.68263 29.1658,-108.84851 108.8485,-29.16587 79.6827,79.68264 z"
         inkscape:randomized="0"
         inkscape:rounded="0"
         inkscape:flatsided="true"
         sodipodi:arg2="1.3089969"
         sodipodi:arg1="0.78539816"
         sodipodi:r2="56.344131"
         sodipodi:r1="112.68826"
         sodipodi:cy="429.66962"
         sodipodi:cx="1948.4672"
         sodipodi:sides="6"
         id="path3402"
         style="fill:#ffffff;stroke-width:0.26458332"
         sodipodi:type="star" />
    </g>
    <g
       id="g4203"
       transform="matrix(1.693948,0,0,1.693948,49.877506,-10.768962)">
      <path
         d="M 14.21,15.72 A 8.5030877,8.5030877 0 0 1 3.79,2.28 L 3.88,2.22 a 8.5,8.5 0 0 1 10.33,13.5"
         id="f57e105d-6d2d-4ad7-b8c3-c10684c9f9b8"
         inkscape:connector-curvature="0"
         style="fill:url(#e7579f4d-36a3-4693-a726-7a6050ac5671)" />
      <path
         id="path4182"
         d="M 9,1.31 A 7.69,7.69 0 1 0 16.69,9 7.7,7.7 0 0 0 9,1.31 Z M 14.15,3.9 A 7.37,7.37 0 0 1 12,4.7 8.83,8.83 0 0 0 10.75,2 7.2,7.2 0 0 1 14.15,3.9 Z M 9,1.74 a 6.59,6.59 0 0 1 1.09,0.09 v 0 a 7.48,7.48 0 0 1 1.53,3 15.12,15.12 0 0 1 -5.45,0 7.38,7.38 0 0 1 1.51,-2.94 v 0 A 7.34,7.34 0 0 1 9,1.74 Z M 7,2 A 8.72,8.72 0 0 0 5.73,4.68 5.58,5.58 0 0 1 3.83,3.91 7.35,7.35 0 0 1 7,2 Z M 3.72,14 A 5.27,5.27 0 0 1 5.5,13.24 7.08,7.08 0 0 0 6.85,15.96 7.25,7.25 0 0 1 3.72,14 Z m 6.41,2.2 A 7.08,7.08 0 0 1 9,16.26 6.83,6.83 0 0 1 7.56,16.11 v 0 a 6,6 0 0 1 -1.67,-3 14.73,14.73 0 0 1 5.88,0 6,6 0 0 1 -1.69,3 z m 0.73,-0.16 a 7.13,7.13 0 0 0 1.38,-2.8 6.68,6.68 0 0 1 2,0.83 7.13,7.13 0 0 1 -3.38,1.93 z m 1.48,-3.22 c 0.08,-0.36 0.15,-0.73 0.2,-1.12 l -0.46,0.11 c -0.05,0.31 -0.1,0.62 -0.17,0.91 a 15.23,15.23 0 0 0 -6.09,0 C 5.75,12.45 5.7,12.16 5.65,11.86 a 0.28,0.28 0 0 1 0,-0.09 L 5.19,11.64 a 2.36,2.36 0 0 0 0,0.28 c 0,0.32 0.11,0.62 0.17,0.91 a 5.9,5.9 0 0 0 -2,0.85 7.24,7.24 0 0 1 0.11,-9.4 6.29,6.29 0 0 0 2.08,0.86 C 5.48,5.38 5.42,5.64 5.37,5.9 5.32,6.16 5.37,6.15 5.29,6.27 L 5.76,6.16 V 5.99 C 5.82,5.73 5.88,5.48 5.95,5.24 A 14.89,14.89 0 0 0 9,5.48 15,15 0 0 0 11.78,5.22 c 0.07,0.27 0.14,0.56 0.2,0.85 l 0.46,0.11 q -0.11,-0.54 -0.24,-1 a 7.73,7.73 0 0 0 2.3,-0.91 7.22,7.22 0 0 1 0.06,9.49 7.28,7.28 0 0 0 -2.22,-0.97 z"
         inkscape:connector-curvature="0"
         style="fill:#5ea0ef" />
      <path
         id="path4184"
         d="M 3.69,7 A 7.92,7.92 0 0 1 4.85,6.92 2.44,2.44 0 0 1 6.56,7.44 2,2 0 0 1 7.15,8.9 2.21,2.21 0 0 1 6.54,10.54 2.6,2.6 0 0 1 4.68,11.15 9.17,9.17 0 0 1 3.68,11.1 Z m 0.55,3.73 a 4,4 0 0 0 0.55,0 A 1.62,1.62 0 0 0 6.58,8.92 1.5,1.5 0 0 0 4.87,7.3 3.17,3.17 0 0 0 4.24,7.3 Z"
         inkscape:connector-curvature="0"
         style="fill:#ffffff" />
      <path
         id="path4186"
         d="M 7.86,11.11 V 6.9 H 8.45 L 9.8,9 a 12.18,12.18 0 0 1 0.76,1.37 v 0 C 10.51,9.81 10.5,9.3 10.5,8.64 V 6.9 H 11 v 4.21 H 10.45 L 9.13,9 C 8.84,8.53 8.56,8 8.34,7.6 v 0 c 0,0.53 0,1 0,1.74 v 1.8 z"
         inkscape:connector-curvature="0"
         style="fill:#ffffff" />
      <path
         id="path4188"
         d="m 11.89,10.45 a 2,2 0 0 0 1,0.27 c 0.56,0 0.88,-0.29 0.88,-0.72 0,-0.43 -0.22,-0.62 -0.79,-0.83 -0.57,-0.21 -1.12,-0.6 -1.12,-1.2 a 1.22,1.22 0 0 1 1.37,-1.14 2,2 0 0 1 0.93,0.2 L 14,7.48 a 1.63,1.63 0 0 0 -0.8,-0.2 c -0.58,0 -0.8,0.34 -0.8,0.63 0,0.29 0.26,0.59 0.84,0.81 0.58,0.22 1.08,0.62 1.08,1.24 0,0.62 -0.48,1.21 -1.48,1.21 A 2.16,2.16 0 0 1 11.77,10.9 Z"
         inkscape:connector-curvature="0"
         style="fill:#ffffff" />
    </g>
    <g
       id="g3410"
       transform="translate(-1762.7063,-465.52221)">
      <path
         sodipodi:type="star"
         style="fill:#4f9aea;fill-opacity:1;stroke-width:0.26458332"
         id="path3406"
         sodipodi:sides="6"
         sodipodi:cx="1948.4672"
         sodipodi:cy="429.66962"
         sodipodi:r1="112.68826"
         sodipodi:r2="56.344131"
         sodipodi:arg1="0.78539816"
         sodipodi:arg2="1.3089969"
         inkscape:flatsided="true"
         inkscape:rounded="0"
         inkscape:randomized="0"
         d="m 2028.1498,509.35225 -108.8485,29.16587 -79.6826,-79.68263 29.1658,-108.84851 108.8485,-29.16587 79.6827,79.68264 z"
         inkscape:transform-center-x="-2.2851654e-05"
         inkscape:transform-center-y="2.965739e-05"
         transform="matrix(0.20037434,-0.05369013,0.05369013,0.20037434,1518.8156,525.0212)" />
      <path
         transform="matrix(0.17373549,-0.04655227,0.04655227,0.17373549,1573.7874,522.55921)"
         inkscape:transform-center-y="3.4039249e-05"
         inkscape:transform-center-x="6.4816261e-06"
         d="m 2028.1498,509.35225 -108.8485,29.16587 -79.6826,-79.68263 29.1658,-108.84851 108.8485,-29.16587 79.6827,79.68264 z"
         inkscape:randomized="0"
         inkscape:rounded="0"
         inkscape:flatsided="true"
         sodipodi:arg2="1.3089969"
         sodipodi:arg1="0.78539816"
         sodipodi:r2="56.344131"
         sodipodi:r1="112.68826"
         sodipodi:cy="429.66962"
         sodipodi:cx="1948.4672"
         sodipodi:sides="6"
         id="path3408"
         style="fill:#ffffff;stroke-width:0.26458332"
         sodipodi:type="star" />
    </g>
    <path
       style="fill:#0089d6;stroke-width:0.92464501"
       inkscape:connector-curvature="0"
       d="m 168.51888,45.637304 6.82061,-1.2051 0.068,-0.01381 -3.5079,-4.17308 a 593.54085,593.54085 0 0 1 -3.50729,-4.19213 c 0,-0.0208 3.6221,-9.994381 3.6434,-10.029679 0,-0.01201 2.47078,4.243379 5.97468,10.314799 l 6.00962,10.417789 0.042,0.0793 h -11.1479 -11.14849 l 6.7554,-1.193131 z m -13.37858,-1.26983 c 0,-0.007 1.6536,-2.875439 3.67308,-6.376879 l 3.67382,-6.366733 4.28099,-3.592459 c 2.3532,-1.97484 4.28601,-3.59428 4.29432,-3.59695 a 0.75231255,0.75231255 0 0 1 -0.068,0.173151 l -4.6491,9.96977 -4.56589,9.79025 -3.3188,0.007 c -1.8248,0 -3.3202,7.1e-5 -3.3202,-0.007 z"
       id="path1336-3-85-0-6-9" />
    <text
       inkscape:export-filename="/home/adm1n/Github/azure/images/iac/docker_structure.png"
       inkscape:export-ydpi="50"
       inkscape:export-xdpi="50"
       id="text937-5-1"
       y="54.537708"
       x="158.32625"
       style="font-style:normal;font-variant:normal;font-weight:500;font-stretch:normal;font-size:5.8238821px;line-height:1.25;font-family:'JetBrains Mono';-inkscape-font-specification:'JetBrains Mono, Medium';font-variant-ligatures:normal;font-variant-caps:normal;font-variant-numeric:normal;font-feature-settings:normal;text-align:start;letter-spacing:0px;word-spacing:0px;writing-mode:lr-tb;text-anchor:start;fill:#4f9aea;fill-opacity:1;stroke:none;stroke-width:0.21839553"
       xml:space="preserve"><tspan
         y="54.537708"
         x="158.32625"
         id="tspan935-6-5"
         sodipodi:role="line"
         style="font-size:9.3182106px;fill:#4f9aea;fill-opacity:1;stroke-width:0.21839553">PaaS</tspan></text>
    <g
       transform="translate(-1908.9107,-501.9969)"
       id="g3566">
      <path
         transform="matrix(0.20037434,-0.05369013,0.05369013,0.20037434,1518.8156,525.0212)"
         inkscape:transform-center-y="2.965739e-05"
         inkscape:transform-center-x="-2.2851654e-05"
         d="m 2028.1498,509.35225 -108.8485,29.16587 -79.6826,-79.68263 29.1658,-108.84851 108.8485,-29.16587 79.6827,79.68264 z"
         inkscape:randomized="0"
         inkscape:rounded="0"
         inkscape:flatsided="true"
         sodipodi:arg2="1.3089969"
         sodipodi:arg1="0.78539816"
         sodipodi:r2="56.344131"
         sodipodi:r1="112.68826"
         sodipodi:cy="429.66962"
         sodipodi:cx="1948.4672"
         sodipodi:sides="6"
         id="path3562"
         style="fill:#4f9aea;fill-opacity:1;stroke-width:0.26458332"
         sodipodi:type="star" />
      <path
         sodipodi:type="star"
         style="fill:#ffffff;stroke-width:0.26458332"
         id="path3564"
         sodipodi:sides="6"
         sodipodi:cx="1948.4672"
         sodipodi:cy="429.66962"
         sodipodi:r1="112.68826"
         sodipodi:r2="56.344131"
         sodipodi:arg1="0.78539816"
         sodipodi:arg2="1.3089969"
         inkscape:flatsided="true"
         inkscape:rounded="0"
         inkscape:randomized="0"
         d="m 2028.1498,509.35225 -108.8485,29.16587 -79.6826,-79.68263 29.1658,-108.84851 108.8485,-29.16587 79.6827,79.68264 z"
         inkscape:transform-center-x="6.4816261e-06"
         inkscape:transform-center-y="3.4039249e-05"
         transform="matrix(0.17373549,-0.04655227,0.04655227,0.17373549,1573.7874,522.55921)" />
    </g>
    <g
       transform="matrix(0.67212901,0,0,0.67212901,-21935.504,-223.10202)"
       id="g14088">
      <path
         inkscape:connector-curvature="0"
         id="path14082"
         d="m 32667.12,352.10826 c -3.109,-0.50894 -5.975,-1.9569 -8.36,-4.22229 -2.729,-2.59272 -4.391,-5.8783 -4.9,-9.68581 -0.465,-3.48462 0.543,-7.62587 2.605,-10.70238 0.787,-1.17427 3.03,-3.39286 4.271,-4.22401 4.786,-3.20628 10.631,-3.65657 15.665,-1.20708 5.29,2.57419 8.762,7.73402 9.096,13.51731 0.154,2.66879 -0.374,5.22011 -1.592,7.68608 -2.226,4.50706 -6.302,7.68583 -11.17,8.71041 -1.364,0.28694 -4.242,0.35246 -5.615,0.12777 z m 3.744,-1.83401 c 1.085,-0.47585 2.379,-2.02834 3.2,-3.83854 0.205,-0.45418 0.374,-0.84904 0.374,-0.87746 0,-0.15814 -2.899,-0.38537 -4.858,-0.38081 -1.881,0.004 -4.681,0.214 -4.833,0.3619 -0.08,0.0719 0.698,1.66438 1.15,2.37048 0.907,1.41827 1.894,2.27395 2.963,2.56874 0.677,0.18661 1.245,0.12863 2.004,-0.20431 z m -5.89,-0.56275 c 0,-0.0312 -0.172,-0.3124 -0.383,-0.62484 -0.211,-0.31245 -0.67,-1.16912 -1.021,-1.90371 -0.571,-1.1944 -0.667,-1.32707 -0.911,-1.25482 -0.149,0.0445 -0.806,0.25569 -1.46,0.46946 l -1.189,0.38867 0.558,0.50038 c 1.235,1.10686 4.406,2.8525 4.406,2.42486 z m 10.92,-0.56891 c 1.066,-0.51646 2.783,-1.61913 3.148,-2.02226 0.199,-0.21966 0.198,-0.24163 -0.03,-0.35654 -0.344,-0.18208 -2.552,-0.90706 -2.762,-0.90706 -0.101,0 -0.182,0.0644 -0.182,0.14312 0,0.25352 -1.085,2.42205 -1.561,3.12223 l -0.463,0.67869 0.408,-0.0816 c 0.225,-0.0449 0.868,-0.30434 1.43,-0.5766 z m -15.867,-4.08756 c 0.604,-0.23273 1.397,-0.49908 1.763,-0.59187 0.498,-0.12676 0.649,-0.21764 0.604,-0.36545 -0.105,-0.35633 -0.448,-1.91335 -0.448,-2.03415 0,-0.0651 0.394,-0.11835 0.875,-0.11835 0.975,0 0.887,-0.0889 1.155,1.16715 0.18,0.83948 0.05,0.8028 1.955,0.52552 1.71,-0.24815 5.569,-0.27527 7.309,-0.0514 1.866,0.24023 1.731,0.26703 1.905,-0.37952 0.08,-0.31229 0.187,-0.72394 0.23,-0.91479 0.08,-0.33804 0.1,-0.34699 0.958,-0.34699 0.485,0 0.88,0.0426 0.88,0.0946 0,0.052 -0.11,0.54863 -0.242,1.10352 -0.133,0.55488 -0.232,1.01806 -0.22,1.02929 0.01,0.0113 0.788,0.27685 1.725,0.59028 0.937,0.31343 1.794,0.60524 1.904,0.64846 0.147,0.0576 0.371,-0.16764 0.835,-0.84209 1.185,-1.7182 2.097,-3.91468 2.425,-5.84164 0.08,-0.48579 0.176,-1.01101 0.208,-1.16715 0.06,-0.27564 0.03,-0.28391 -0.953,-0.28391 h -1.013 v -0.82015 -0.82016 h 1.002 1.001 l -0.06,-0.47317 c -0.359,-2.74368 -1.077,-4.70267 -2.501,-6.82242 -0.43,-0.63977 -0.682,-0.90486 -0.819,-0.86267 -0.109,0.0335 -0.937,0.32113 -1.838,0.63918 -0.903,0.31806 -1.69,0.59511 -1.751,0.61567 -0.06,0.0206 -0.02,0.44366 0.09,0.9402 0.113,0.49654 0.206,0.96257 0.206,1.03562 0,0.0802 -0.348,0.13281 -0.875,0.13281 -0.969,0 -0.877,0.0899 -1.148,-1.11096 -0.142,-0.62903 -0.172,-0.6654 -0.484,-0.60404 -2.066,0.40539 -6.499,0.48073 -8.777,0.14916 -0.758,-0.11036 -1.45,-0.20066 -1.536,-0.20066 -0.09,0 -0.233,0.33227 -0.334,0.78862 l -0.175,0.78861 -0.906,0.0371 c -0.499,0.0204 -0.907,0.0123 -0.907,-0.018 0,-0.0303 0.09,-0.49145 0.2,-1.02473 0.111,-0.53329 0.182,-0.98359 0.158,-1.00067 -0.03,-0.0171 -0.495,-0.15961 -1.047,-0.31673 -0.553,-0.15711 -1.362,-0.44717 -1.797,-0.64457 l -0.791,-0.35893 -0.424,0.5277 c -1.32,1.6493 -2.439,4.34079 -2.676,6.44106 -0.04,0.35635 -0.1,0.77567 -0.131,0.93181 -0.06,0.2713 -0.03,0.2839 0.764,0.2839 h 0.823 v 0.88325 0.88325 h -0.812 -0.813 l 0.06,0.47317 c 0.247,1.91628 0.626,3.29444 1.315,4.78672 0.499,1.08062 1.707,2.9417 1.91,2.9417 0.06,0 0.609,-0.19042 1.214,-0.42317 z m 16.123,-4.56361 c -0.727,-0.27726 -0.955,-0.53239 -0.955,-1.06831 0,-0.25527 0.03,-0.49943 0.08,-0.54259 0.04,-0.0431 0.37,0.0724 0.726,0.25681 0.504,0.26111 0.832,0.33662 1.486,0.34133 1.032,0.007 1.369,-0.2259 1.369,-0.94585 0,-0.6338 -0.256,-0.90216 -1.451,-1.51801 -1.55,-0.79975 -1.955,-1.27765 -1.955,-2.31037 0,-1.02881 0.415,-1.69058 1.324,-2.1103 0.968,-0.44642 2.897,-0.20727 3.221,0.39929 0.154,0.2877 0.16,0.9646 0.01,1.05774 -0.06,0.0385 -0.36,-0.042 -0.662,-0.17905 -0.786,-0.35656 -1.554,-0.33483 -1.943,0.055 -0.64,0.63988 -0.272,1.20374 1.322,2.02757 1.313,0.67771 1.52,0.87834 1.656,1.6098 0.202,1.0812 -0.324,2.19431 -1.296,2.74044 -0.672,0.37725 -2.178,0.47316 -2.93,0.18646 z m -17.137,-0.0705 c -0.203,-0.11792 -0.221,-0.44052 -0.221,-3.88357 0,-2.86934 0.04,-3.80753 0.163,-3.97784 0.146,-0.19932 0.364,-0.21855 2.06,-0.18184 1.822,0.0394 1.927,0.0561 2.639,0.42088 0.843,0.43107 1.483,1.17338 1.72,1.99131 0.216,0.75016 0.182,2.55859 -0.06,3.21363 -0.523,1.40152 -1.478,2.17389 -2.991,2.41937 -1.035,0.16794 -3.019,0.16679 -3.308,-0.002 z m 3.753,-1.45423 c 0.922,-0.48108 1.39,-1.99488 1.079,-3.49504 -0.275,-1.32051 -1.001,-1.85425 -2.526,-1.85425 h -0.887 v 2.85281 2.85281 l 0.915,-0.0471 c 0.605,-0.0311 1.086,-0.13587 1.419,-0.30927 z m 4.312,1.50641 c -0.05,-0.0463 -0.08,-1.8024 -0.08,-3.90252 0,-4.48089 -0.06,-4.27234 1.223,-4.19054 0.581,0.037 0.866,0.11838 1.038,0.29717 0.224,0.23236 2.709,4.91479 2.858,5.38798 0.04,0.12144 0.124,0.22082 0.189,0.22082 0.07,0 0.117,-1.21776 0.117,-2.9715 v -2.97148 l 0.725,0.0379 0.726,0.0379 0.03,3.69399 c 0.02,2.83457 0,3.73828 -0.127,3.88437 -0.425,0.50685 -0.522,0.56014 -1.023,0.56014 -0.292,0 -0.653,-0.0855 -0.802,-0.19001 -0.252,-0.17612 -2.196,-3.66882 -3.066,-5.50756 l -0.378,-0.80062 v 3.17251 c 0,2.77645 -0.03,3.18206 -0.2,3.24909 -0.268,0.10287 -1.125,0.0976 -1.23,-0.008 z m 6.224,-12.92372 c 0.59,-0.0791 1.088,-0.1575 1.108,-0.17421 0.09,-0.0768 -0.795,-1.83471 -1.304,-2.60097 -1.451,-2.18283 -3.283,-3.008 -4.864,-2.19066 -0.602,0.3116 -1.593,1.28325 -2.163,2.12291 -0.42,0.61663 -1.357,2.44235 -1.357,2.64266 0,0.0532 1.733,0.27576 3.028,0.38891 0.944,0.0824 4.409,-0.0353 5.552,-0.18864 z m -9.737,-1.81011 c 0.347,-0.72427 0.811,-1.57996 1.032,-1.90154 0.221,-0.32158 0.368,-0.61925 0.325,-0.66148 -0.219,-0.21898 -2.884,1.19086 -4.192,2.2175 l -0.722,0.56635 0.685,0.31056 c 0.594,0.26935 1.907,0.7398 2.158,0.77396 0.05,0.006 0.368,-0.58108 0.714,-1.30535 z m 14.154,0.82009 c 0.66,-0.21476 1.272,-0.43723 1.362,-0.49438 0.355,-0.22501 -2.343,-2.06187 -3.932,-2.67664 -0.545,-0.21114 -1.011,-0.36371 -1.036,-0.33904 -0.03,0.0246 0.145,0.31327 0.379,0.64136 0.411,0.57814 1.113,1.92568 1.507,2.89101 0.112,0.2775 0.259,0.45052 0.356,0.42003 0.09,-0.0285 0.705,-0.22758 1.364,-0.44234 z"
         style="fill:#0078d7;fill-opacity:1;stroke-width:1" />
      <text
         inkscape:export-filename="/home/adm1n/Github/azure/images/iac/docker_structure.png"
         inkscape:export-ydpi="50"
         inkscape:export-xdpi="50"
         id="text14086"
         y="355.96359"
         x="32682.465"
         style="font-style:normal;font-variant:normal;font-weight:500;font-stretch:normal;font-size:4.51523638px;line-height:1.25;font-family:'JetBrains Mono';-inkscape-font-specification:'JetBrains Mono, Medium';font-variant-ligatures:normal;font-variant-caps:normal;font-variant-numeric:normal;font-feature-settings:normal;text-align:start;letter-spacing:0px;word-spacing:0px;writing-mode:lr-tb;text-anchor:start;fill:#0078d7;fill-opacity:1;stroke:none;stroke-width:0.26458332"
         xml:space="preserve"><tspan
           y="355.96359"
           x="32682.465"
           id="tspan14084"
           sodipodi:role="line"
           style="font-size:12.642663px;fill:#0078d7;fill-opacity:1;stroke-width:0.26458332">R</tspan></text>
    </g>
    <g
       id="g3593"
       transform="translate(-2898.5766,-454.95266)">
      <g
         transform="translate(892.52582,-45.86307)"
         id="g3587">
        <path
           transform="matrix(0.20037434,-0.05369013,0.05369013,0.20037434,1518.8156,525.0212)"
           inkscape:transform-center-y="2.965739e-05"
           inkscape:transform-center-x="-2.2851654e-05"
           d="m 2028.1498,509.35225 -108.8485,29.16587 -79.6826,-79.68263 29.1658,-108.84851 108.8485,-29.16587 79.6827,79.68264 z"
           inkscape:randomized="0"
           inkscape:rounded="0"
           inkscape:flatsided="true"
           sodipodi:arg2="1.3089969"
           sodipodi:arg1="0.78539816"
           sodipodi:r2="56.344131"
           sodipodi:r1="112.68826"
           sodipodi:cy="429.66962"
           sodipodi:cx="1948.4672"
           sodipodi:sides="6"
           id="path3583"
           style="fill:#4f9aea;fill-opacity:1;stroke-width:0.26458332"
           sodipodi:type="star" />
        <path
           sodipodi:type="star"
           style="fill:#ffffff;stroke-width:0.26458332"
           id="path3585"
           sodipodi:sides="6"
           sodipodi:cx="1948.4672"
           sodipodi:cy="429.66962"
           sodipodi:r1="112.68826"
           sodipodi:r2="56.344131"
           sodipodi:arg1="0.78539816"
           sodipodi:arg2="1.3089969"
           inkscape:flatsided="true"
           inkscape:rounded="0"
           inkscape:randomized="0"
           d="m 2028.1498,509.35225 -108.8485,29.16587 -79.6826,-79.68263 29.1658,-108.84851 108.8485,-29.16587 79.6827,79.68264 z"
           inkscape:transform-center-x="6.4816261e-06"
           inkscape:transform-center-y="3.4039249e-05"
           transform="matrix(0.17373549,-0.04655227,0.04655227,0.17373549,1573.7874,522.55921)" />
      </g>
      <path
         style="fill:#000000;fill-opacity:1;stroke-width:0.85677695"
         d="m 2822.6777,474.12067 c -2.6636,-0.43605 -5.1194,-1.67662 -7.1624,-3.61756 -2.3379,-2.22139 -3.7624,-5.03639 -4.1984,-8.29857 -0.3985,-2.98555 0.4651,-6.53368 2.2316,-9.16956 0.6744,-1.00609 2.5962,-2.90693 3.6599,-3.61903 4.1007,-2.74707 9.1079,-3.13287 13.4213,-1.03421 4.5322,2.20551 7.5073,6.62634 7.7935,11.58133 0.1315,2.28655 -0.3208,4.47247 -1.3641,6.58525 -1.9075,3.86155 -5.3997,6.58504 -9.5706,7.46288 -1.1684,0.24585 -3.6347,0.30198 -4.8108,0.1095 z m 3.2081,-1.57134 c 0.9293,-0.40769 2.0381,-1.73782 2.7415,-3.28876 0.176,-0.38915 0.3208,-0.72744 0.3208,-0.75179 0,-0.13549 -2.4839,-0.33018 -4.1621,-0.32628 -1.6121,0.004 -4.0114,0.18335 -4.1414,0.31006 -0.064,0.0615 0.5982,1.42602 0.9859,2.03099 0.7769,1.21513 1.6224,1.94827 2.5381,2.20083 0.58,0.15989 1.0669,0.11022 1.7172,-0.17505 z m -5.0465,-0.48214 c 0,-0.0268 -0.1476,-0.26766 -0.3279,-0.53535 -0.1809,-0.2677 -0.5746,-1.00168 -0.8751,-1.63106 -0.489,-1.02333 -0.5713,-1.137 -0.7802,-1.0751 -0.1278,0.0381 -0.6909,0.21907 -1.2512,0.40223 l -1.0187,0.33299 0.478,0.42872 c 1.0582,0.94833 3.7751,2.44396 3.7751,2.07757 z m 9.3556,-0.48743 c 0.914,-0.44251 2.3851,-1.38724 2.6977,-1.73264 0.1699,-0.18819 0.1693,-0.20702 -0.023,-0.30546 -0.2944,-0.15601 -2.1861,-0.77715 -2.3665,-0.77715 -0.086,0 -0.1557,0.0552 -0.1557,0.12262 0,0.2172 -0.9293,2.07516 -1.3372,2.67505 l -0.3965,0.58148 0.3493,-0.0699 c 0.1924,-0.0384 0.7441,-0.26075 1.2254,-0.49402 z m -13.594,-3.50213 c 0.5176,-0.1994 1.197,-0.4276 1.51,-0.50711 0.4272,-0.10855 0.556,-0.18646 0.5182,-0.3131 -0.09,-0.3053 -0.3838,-1.63931 -0.3838,-1.74282 0,-0.0558 0.3372,-0.10141 0.7495,-0.10141 0.8351,0 0.7594,-0.0762 0.9897,0.99999 0.154,0.71926 0.038,0.68782 1.6744,0.45026 1.4657,-0.21261 4.7714,-0.23585 6.2622,-0.044 1.5989,0.20582 1.4837,0.22878 1.6328,-0.32517 0.071,-0.26757 0.1601,-0.62025 0.1969,-0.78377 0.064,-0.28963 0.086,-0.29729 0.8208,-0.29729 0.415,0 0.7539,0.0364 0.7539,0.0811 0,0.0445 -0.094,0.47005 -0.2072,0.94546 -0.1143,0.47542 -0.199,0.87226 -0.1887,0.88188 0.012,0.01 0.675,0.2372 1.4777,0.50574 0.8027,0.26854 1.5369,0.51856 1.6317,0.55558 0.1261,0.0494 0.3175,-0.14362 0.7155,-0.72148 1.0149,-1.47211 1.7963,-3.354 2.077,-5.00498 0.07,-0.41621 0.1513,-0.86621 0.1788,-0.99998 0.049,-0.23617 0.021,-0.24324 -0.817,-0.24324 h -0.8675 v -0.70271 -0.70268 h 0.8582 0.858 l -0.055,-0.40541 c -0.3076,-2.35072 -0.9227,-4.02914 -2.1433,-5.84528 -0.3684,-0.54815 -0.5839,-0.77527 -0.7012,-0.73912 -0.093,0.0287 -0.8027,0.27514 -1.5753,0.54763 -0.7731,0.27251 -1.448,0.50987 -1.5002,0.5275 -0.049,0.0176 -0.017,0.38011 0.081,0.80554 0.098,0.42542 0.1766,0.8247 0.1766,0.88729 0,0.0687 -0.2978,0.11379 -0.7495,0.11379 -0.8302,0 -0.7512,0.077 -0.9838,-0.95185 -0.1216,-0.53893 -0.1468,-0.5701 -0.415,-0.51752 -1.7693,0.34733 -5.5679,0.41187 -7.5193,0.1278 -0.6498,-0.0945 -1.2424,-0.17192 -1.3165,-0.17192 -0.08,0 -0.1991,0.28467 -0.2862,0.67567 l -0.1497,0.67566 -0.7763,0.0318 c -0.4278,0.0175 -0.777,0.0107 -0.777,-0.0155 0,-0.0259 0.077,-0.42107 0.1716,-0.87796 0.095,-0.45692 0.1557,-0.84273 0.1355,-0.85735 -0.023,-0.0146 -0.4245,-0.13677 -0.8976,-0.27137 -0.4737,-0.13461 -1.1668,-0.38313 -1.5396,-0.55226 l -0.6777,-0.30752 -0.3631,0.45213 c -1.1311,1.41307 -2.0895,3.71908 -2.2929,5.51855 -0.033,0.3053 -0.084,0.66457 -0.1119,0.79834 -0.049,0.23245 -0.021,0.24324 0.6547,0.24324 h 0.7051 v 0.75675 0.75675 h -0.6963 -0.6958 l 0.055,0.4054 c 0.211,1.64182 0.5356,2.82261 1.1262,4.10116 0.4277,0.92585 1.4629,2.52038 1.6362,2.52038 0.055,0 0.5225,-0.16315 1.0406,-0.36257 z m 13.8133,-3.91 c -0.6224,-0.23756 -0.8174,-0.45613 -0.8174,-0.9153 0,-0.21871 0.027,-0.4279 0.067,-0.46488 0.038,-0.0369 0.3169,0.062 0.6212,0.22003 0.4325,0.22371 0.7133,0.2884 1.2731,0.29245 0.8845,0.006 1.1734,-0.19355 1.1734,-0.81039 0,-0.54303 -0.2193,-0.77295 -1.243,-1.3006 -1.3286,-0.68521 -1.6755,-1.09466 -1.6755,-1.97947 0,-0.88146 0.3557,-1.44845 1.1349,-1.80805 0.829,-0.38249 2.4821,-0.17758 2.7596,0.34209 0.1321,0.24651 0.1371,0.82646 0.012,0.90625 -0.055,0.033 -0.3087,-0.0361 -0.5675,-0.1534 -0.6728,-0.30549 -1.3307,-0.28687 -1.6641,0.0471 -0.5489,0.54823 -0.2336,1.03133 1.1327,1.73716 1.1247,0.58066 1.3017,0.75256 1.4186,1.37925 0.1727,0.92634 -0.2781,1.88003 -1.1104,2.34795 -0.5757,0.32321 -1.8663,0.40539 -2.5106,0.15974 z m -14.6823,-0.0603 c -0.1739,-0.10105 -0.1892,-0.37743 -0.1892,-3.32735 0,-2.45839 0.033,-3.26221 0.1392,-3.40813 0.1251,-0.17077 0.312,-0.18724 1.7656,-0.1558 1.561,0.0338 1.6504,0.0481 2.2606,0.36062 0.7221,0.36931 1.271,1.00531 1.4739,1.7061 0.1853,0.64272 0.1557,2.19214 -0.055,2.75336 -0.448,1.20079 -1.266,1.86254 -2.5627,2.07287 -0.8866,0.14389 -2.5863,0.14289 -2.8341,-10e-4 z m 3.2152,-1.24595 c 0.7906,-0.41218 1.1909,-1.70917 0.9244,-2.99447 -0.2352,-1.13139 -0.8576,-1.58868 -2.1635,-1.58868 h -0.7606 v 2.44421 2.44423 l 0.7842,-0.0403 c 0.5186,-0.0267 0.9304,-0.11641 1.2155,-0.26499 z m 3.6944,1.29066 c -0.044,-0.0396 -0.071,-1.54427 -0.071,-3.3436 0,-3.83911 -0.05,-3.66043 1.0478,-3.59035 0.4983,0.0317 0.7418,0.10141 0.8898,0.25461 0.192,0.19908 2.3204,4.21087 2.4487,4.6163 0.033,0.10403 0.1059,0.18918 0.1613,0.18918 0.059,0 0.1012,-1.04334 0.1012,-2.5459 v -2.5459 l 0.6213,0.0325 0.6216,0.0325 0.027,3.16493 c 0.017,2.42858 0,3.20287 -0.1083,3.32803 -0.3641,0.43426 -0.4474,0.47992 -0.8767,0.47992 -0.2506,0 -0.5599,-0.0733 -0.6876,-0.16279 -0.2155,-0.1509 -1.8806,-3.14336 -2.6263,-4.71875 l -0.3242,-0.68596 v 2.71813 c 0,2.3788 -0.021,2.72632 -0.1716,2.78375 -0.2291,0.0881 -0.9639,0.0837 -1.0537,-0.006 z m 5.3333,-11.07274 c 0.5056,-0.0677 0.9321,-0.13494 0.9486,-0.14926 0.074,-0.0658 -0.6804,-1.57195 -1.1169,-2.22846 -1.2436,-1.8702 -2.8128,-2.57718 -4.1671,-1.8769 -0.5159,0.26696 -1.3646,1.09946 -1.8537,1.81886 -0.3592,0.52831 -1.1624,2.09254 -1.1624,2.26417 0,0.0456 1.4847,0.23625 2.5945,0.33321 0.8088,0.0706 3.7772,-0.0302 4.757,-0.16162 z m -8.3429,-1.55087 c 0.2972,-0.62054 0.6947,-1.35368 0.8844,-1.6292 0.1892,-0.27552 0.3153,-0.53055 0.2785,-0.56674 -0.188,-0.18762 -2.4711,1.02031 -3.5918,1.89991 l -0.6185,0.48523 0.5872,0.26608 c 0.5088,0.23077 1.6334,0.63385 1.8489,0.66312 0.044,0.006 0.3152,-0.49786 0.6113,-1.1184 z m 12.1267,0.70263 c 0.5654,-0.18399 1.0901,-0.3746 1.1674,-0.42357 0.3043,-0.19278 -2.0073,-1.76656 -3.3688,-2.29329 -0.4671,-0.18089 -0.8668,-0.31161 -0.8877,-0.29048 -0.021,0.0211 0.1245,0.26842 0.3246,0.54951 0.352,0.49533 0.9535,1.64987 1.2907,2.47696 0.097,0.23774 0.2226,0.38598 0.3055,0.35986 0.077,-0.0245 0.6035,-0.19498 1.1683,-0.37899 z"
         id="path19814"
         inkscape:connector-curvature="0" />
    </g>
    <path
       inkscape:export-ydpi="50"
       inkscape:export-xdpi="50"
       inkscape:export-filename="/home/adm1n/Github/azure/images/iac/docker_structure.png"
       sodipodi:nodetypes="cc"
       inkscape:connector-curvature="0"
       id="path1015"
       d="M 139.40201,-15.478236 C 118.5156,-29.781462 89.844373,-28.760861 74.729047,-11.983235"
       style="opacity:1;fill:none;stroke:#000000;stroke-width:1;stroke-linecap:butt;stroke-linejoin:miter;stroke-miterlimit:4;stroke-dasharray:none;stroke-dashoffset:0;stroke-opacity:1;marker-mid:url(#marker1083);marker-end:url(#marker1087)" />
    <text
       xml:space="preserve"
       style="font-style:normal;font-variant:normal;font-weight:500;font-stretch:normal;font-size:8.59543037px;line-height:1.25;font-family:'JetBrains Mono';-inkscape-font-specification:'JetBrains Mono, Medium';font-variant-ligatures:normal;font-variant-caps:normal;font-variant-numeric:normal;font-feature-settings:normal;text-align:center;letter-spacing:0px;word-spacing:0px;writing-mode:lr-tb;text-anchor:middle;fill:#000000;fill-opacity:1;stroke:none;stroke-width:0.32233229"
       x="146.56946"
       y="-9.0462084"
       id="text1232"><tspan
         style="text-align:center;text-anchor:middle;stroke-width:0.32233229"
         y="-9.0462084"
         x="146.56946"
         sodipodi:role="line"
         id="tspan1230">Azure DNS</tspan><tspan
         style="text-align:center;text-anchor:middle;stroke-width:0.32233229"
         y="1.6980795"
         x="146.56946"
         sodipodi:role="line"
         id="tspan7050">(168.63.129.16)</tspan></text>
    <path
       style="opacity:1;fill:none;stroke:#000000;stroke-width:1;stroke-linecap:butt;stroke-linejoin:miter;stroke-miterlimit:4;stroke-dasharray:none;stroke-dashoffset:0;stroke-opacity:1;marker-mid:url(#marker3376);marker-end:url(#marker3405)"
       d="m 50.110824,-33.661386 c -12.007688,0.244248 -19.662471,3.698091 -27.274273,16.406434"
       id="path3372"
       inkscape:connector-curvature="0"
       sodipodi:nodetypes="cc"
       inkscape:export-filename="/home/adm1n/Github/azure/images/iac/docker_structure.png"
       inkscape:export-xdpi="50"
       inkscape:export-ydpi="50" />
    <text
       id="text4003"
       y="-30.590851"
       x="50.109535"
       style="font-style:normal;font-variant:normal;font-weight:500;font-stretch:normal;font-size:8.59543037px;line-height:1.25;font-family:'JetBrains Mono';-inkscape-font-specification:'JetBrains Mono, Medium';font-variant-ligatures:normal;font-variant-caps:normal;font-variant-numeric:normal;font-feature-settings:normal;text-align:start;letter-spacing:0px;word-spacing:0px;writing-mode:lr-tb;text-anchor:start;fill:#000000;fill-opacity:1;stroke:none;stroke-width:0.32233229"
       xml:space="preserve"><tspan
         id="tspan4001"
         sodipodi:role="line"
         x="50.109535"
         y="-30.590851"
         style="stroke-width:0.32233229">CoreDNS Forwarder</tspan></text>
    <text
       id="text4003-9"
       y="-29.456913"
       x="-45.197468"
       style="font-style:normal;font-variant:normal;font-weight:500;font-stretch:normal;font-size:8.59543037px;line-height:1.25;font-family:'JetBrains Mono';-inkscape-font-specification:'JetBrains Mono, Medium';font-variant-ligatures:normal;font-variant-caps:normal;font-variant-numeric:normal;font-feature-settings:normal;text-align:start;letter-spacing:0px;word-spacing:0px;writing-mode:lr-tb;text-anchor:start;fill:#000000;fill-opacity:1;stroke:none;stroke-width:0.32233229"
       xml:space="preserve"><tspan
         id="tspan4001-2"
         sodipodi:role="line"
         x="-45.197468"
         y="-29.456913"
         style="stroke-width:0.32233229">On-Prem DNS</tspan></text>
    <path
       style="opacity:1;fill:none;stroke:#000000;stroke-width:1;stroke-linecap:butt;stroke-linejoin:miter;stroke-miterlimit:4;stroke-dasharray:none;stroke-dashoffset:0;stroke-opacity:1;marker-mid:url(#marker3376-6);marker-end:url(#marker3405-2)"
       d="m -46.087965,-32.321401 c -12.00769,0.244248 -19.66247,3.698091 -27.27427,16.406434"
       id="path3372-3"
       inkscape:connector-curvature="0"
       sodipodi:nodetypes="cc"
       inkscape:export-filename="/home/adm1n/Github/azure/images/iac/docker_structure.png"
       inkscape:export-xdpi="50"
       inkscape:export-ydpi="50" />
  </g>
</svg>
